<?xml version="1.0" encoding="UTF-8" standalone="no"?>
<!-- Generator: Adobe Illustrator 19.1.0, SVG Export Plug-In . SVG Version: 6.00 Build 0)  -->

<svg
   version="1.1"
   id="Ebene_1"
   x="0px"
   y="0px"
   viewBox="-9 23.6 264.9 95.1"
   style="enable-background:new -9 23.6 264.9 95.1;"
   xml:space="preserve"
   sodipodi:docname="cf_failsafe_procedure4-dark.svg"
   inkscape:version="1.2 (dc2aedaf03, 2022-05-15)"
   xmlns:inkscape="http://www.inkscape.org/namespaces/inkscape"
   xmlns:sodipodi="http://sodipodi.sourceforge.net/DTD/sodipodi-0.dtd"
   xmlns="http://www.w3.org/2000/svg"
   xmlns:svg="http://www.w3.org/2000/svg"><defs
   id="defs23460">
	
	
	
	
	
	
	
	

		
	</defs><sodipodi:namedview
   id="namedview23458"
   pagecolor="#ffffff"
   bordercolor="#666666"
   borderopacity="1.0"
   inkscape:showpageshadow="2"
   inkscape:pageopacity="0.0"
   inkscape:pagecheckerboard="0"
   inkscape:deskcolor="#d1d1d1"
   showgrid="false"
   inkscape:zoom="5.6568543"
   inkscape:cx="153.00023"
   inkscape:cy="7.7781746"
   inkscape:window-width="1920"
   inkscape:window-height="991"
   inkscape:window-x="-9"
   inkscape:window-y="-9"
   inkscape:window-maximized="1"
   inkscape:current-layer="Ebene_1" />
<style
   type="text/css"
   id="style23391">
	.st0{fill:#FFBB00;}
	.st1{fill:#1B171B;}
	.st2{fill:#B8B8B9;}
	.st3{fill:none;}
	.st4{enable-background:new    ;}
	.st5{fill:none;stroke:#FFBB00;stroke-width:2;stroke-linecap:round;stroke-linejoin:round;}
	.st6{fill:none;stroke:#FFBB00;stroke-width:2;stroke-linecap:round;stroke-linejoin:round;stroke-dasharray:7.4103,7.4103;}
	.st7{fill:none;stroke:#FFBB00;stroke-width:2;stroke-linecap:round;stroke-linejoin:round;stroke-dasharray:7.7778,7.7778;}
	.st8{fill:none;stroke:#1B171B;stroke-miterlimit:10;}
</style>
<g
   id="g29569"><path
     class="st0"
     d="m 11.2,84.9 v 0 c 0.2,-0.2 0.3,-0.4 0.3,-0.7 0,-0.6 -0.5,-1 -1,-1 -0.3,0 -0.6,0.1 -0.7,0.3 v 0 l -3,3.3 -3,-3.3 v 0 C 3.6,83.3 3.3,83.2 3.1,83.2 c -0.6,0 -1,0.5 -1,1 0,0.3 0.1,0.5 0.3,0.7 v 0 L 6.1,89 c 0.2,0.2 0.5,0.3 0.8,0.3 0.3,0 0.6,-0.1 0.8,-0.3 z"
     id="path23393"
     style="fill:#007cc7;fill-opacity:1" /><rect
     x="33"
     y="66.800003"
     class="st3"
     width="86.5"
     height="32.099998"
     id="rect23407" /><g
     class="st4"
     id="g23425"
     style="fill:#fcfcfc;fill-opacity:1">
		<path
   d="m 35.5,73.3 v 4.2 h -1.2 v -10 H 37 c 1.2,0 2.1,0.2 2.7,0.7 0.6,0.5 0.9,1.2 0.9,2.1 0,1.3 -0.7,2.2 -2,2.7 l 2.7,4.5 h -1.4 l -2.4,-4.2 z m 0,-1 h 1.6 c 0.8,0 1.4,-0.2 1.8,-0.5 0.4,-0.3 0.6,-0.8 0.6,-1.5 0,-0.7 -0.2,-1.1 -0.6,-1.4 -0.4,-0.3 -1,-0.4 -1.9,-0.4 h -1.5 z"
   id="path23409"
   style="fill:#fcfcfc;fill-opacity:1" />
		<path
   d="m 46,77.6 c -1.1,0 -2,-0.3 -2.6,-1 -0.6,-0.7 -1,-1.6 -1,-2.8 0,-1.2 0.3,-2.2 0.9,-2.9 0.6,-0.7 1.4,-1.1 2.4,-1.1 0.9,0 1.7,0.3 2.2,0.9 0.5,0.6 0.8,1.4 0.8,2.4 v 0.7 h -5.2 c 0,0.9 0.2,1.5 0.7,2 0.5,0.5 1,0.7 1.8,0.7 0.8,0 1.6,-0.2 2.4,-0.5 v 1 c -0.4,0.2 -0.8,0.3 -1.1,0.4 -0.4,0.2 -0.8,0.2 -1.3,0.2 z m -0.3,-6.8 c -0.6,0 -1.1,0.2 -1.4,0.6 -0.3,0.4 -0.6,0.9 -0.6,1.6 h 3.9 c 0,-0.7 -0.2,-1.3 -0.5,-1.6 -0.4,-0.4 -0.8,-0.6 -1.4,-0.6 z"
   id="path23411"
   style="fill:#fcfcfc;fill-opacity:1" />
		<path
   d="m 53.1,76.7 c 0.2,0 0.4,0 0.6,0 0.2,0 0.3,-0.1 0.4,-0.1 v 0.9 c -0.1,0.1 -0.3,0.1 -0.5,0.1 -0.2,0 -0.5,0.1 -0.6,0.1 -1.4,0 -2.2,-0.8 -2.2,-2.3 v -4.5 h -1.1 v -0.5 l 1.1,-0.5 0.5,-1.6 H 52 V 70 h 2.2 v 0.9 H 52 v 4.4 c 0,0.5 0.1,0.8 0.3,1 0.2,0.2 0.4,0.4 0.8,0.4 z"
   id="path23413"
   style="fill:#fcfcfc;fill-opacity:1" />
		<path
   d="m 56.7,70 v 4.9 c 0,0.6 0.1,1.1 0.4,1.4 0.3,0.3 0.7,0.5 1.3,0.5 0.8,0 1.4,-0.2 1.7,-0.6 0.3,-0.4 0.5,-1.1 0.5,-2.1 v -3.9 h 1.1 v 7.5 h -0.9 l -0.2,-1 h -0.1 c -0.2,0.4 -0.6,0.7 -1,0.8 -0.4,0.1 -0.9,0.3 -1.4,0.3 -0.9,0 -1.6,-0.2 -2,-0.6 -0.4,-0.4 -0.7,-1.1 -0.7,-2.1 v -4.9 h 1.3 c 0,0 0,-0.2 0,-0.2 z"
   id="path23415"
   style="fill:#fcfcfc;fill-opacity:1" />
		<path
   d="m 67.6,69.8 c 0.3,0 0.6,0 0.9,0.1 L 68.3,71 c -0.3,-0.1 -0.6,-0.1 -0.8,-0.1 -0.6,0 -1.1,0.2 -1.6,0.7 -0.5,0.5 -0.6,1.1 -0.6,1.8 v 4 h -1.1 v -7.5 h 0.9 l 0.1,1.4 h 0.1 c 0.3,-0.5 0.6,-0.9 1,-1.1 0.4,-0.2 0.9,-0.4 1.3,-0.4 z"
   id="path23417"
   style="fill:#fcfcfc;fill-opacity:1" />
		<path
   d="M 75.1,77.5 V 72.7 C 75.1,72.1 75,71.6 74.7,71.3 74.4,71 74,70.8 73.4,70.8 c -0.8,0 -1.4,0.2 -1.7,0.6 -0.3,0.4 -0.5,1.1 -0.5,2.1 v 3.9 H 70.1 V 69.9 H 71 l 0.2,1 h 0.1 c 0.2,-0.4 0.6,-0.7 1,-0.9 0.4,-0.2 0.9,-0.3 1.4,-0.3 0.9,0 1.6,0.2 2,0.7 0.5,0.4 0.7,1.1 0.7,2.1 v 4.9 z"
   id="path23419"
   style="fill:#fcfcfc;fill-opacity:1" />
		<path
   d="m 84.6,76.7 c 0.2,0 0.4,0 0.6,0 0.2,0 0.3,-0.1 0.4,-0.1 v 0.9 c -0.1,0.1 -0.3,0.1 -0.5,0.1 -0.2,0 -0.5,0.1 -0.6,0.1 -1.4,0 -2.2,-0.8 -2.2,-2.3 v -4.5 h -1.1 v -0.5 l 1.1,-0.5 0.5,-1.6 h 0.7 V 70 h 2.2 v 0.9 h -2.2 v 4.4 c 0,0.5 0.1,0.8 0.3,1 0.2,0.2 0.4,0.4 0.8,0.4 z"
   id="path23421"
   style="fill:#fcfcfc;fill-opacity:1" />
		<path
   d="m 93.6,73.7 c 0,1.2 -0.3,2.2 -0.9,2.9 -0.6,0.7 -1.5,1 -2.5,1 -0.7,0 -1.3,-0.2 -1.8,-0.5 -0.5,-0.3 -0.9,-0.8 -1.2,-1.4 -0.3,-0.6 -0.4,-1.3 -0.4,-2.1 0,-1.2 0.3,-2.2 0.9,-2.9 0.6,-0.7 1.5,-1 2.5,-1 1,0 1.9,0.3 2.5,1 0.6,0.7 0.9,1.8 0.9,3 z m -5.7,0 c 0,1 0.2,1.7 0.6,2.2 0.4,0.5 0.9,0.8 1.7,0.8 0.8,0 1.3,-0.2 1.7,-0.7 0.4,-0.5 0.6,-1.2 0.6,-2.2 0,-1 -0.2,-1.7 -0.6,-2.2 -0.4,-0.5 -1,-0.7 -1.7,-0.7 -0.7,0 -1.3,0.2 -1.7,0.7 -0.4,0.5 -0.6,1.1 -0.6,2.1 z"
   id="path23423"
   style="fill:#fcfcfc;fill-opacity:1" />
	</g><g
     class="st4"
     id="g23435">
		<path
   d="m 41.9,94.3 h -1.2 v -4.7 h -5.3 v 4.7 h -1.2 v -10 h 1.2 v 4.3 h 5.3 v -4.3 h 1.2 c 0,0 0,10 0,10 z"
   id="path23427"
   style="fill:#fcfcfc;fill-opacity:1" />
		<path
   d="m 51,90.5 c 0,1.2 -0.3,2.2 -0.9,2.9 -0.6,0.7 -1.5,1 -2.5,1 -0.7,0 -1.3,-0.2 -1.8,-0.5 -0.5,-0.3 -0.9,-0.8 -1.2,-1.4 -0.3,-0.6 -0.4,-1.3 -0.4,-2.1 0,-1.2 0.3,-2.2 0.9,-2.9 0.6,-0.7 1.5,-1 2.5,-1 1,0 1.9,0.3 2.5,1 0.6,0.7 0.9,1.8 0.9,3 z m -5.7,0 c 0,1 0.2,1.7 0.6,2.2 0.4,0.5 0.9,0.8 1.7,0.8 0.8,0 1.3,-0.2 1.7,-0.7 0.4,-0.5 0.6,-1.2 0.6,-2.2 0,-1 -0.2,-1.7 -0.6,-2.2 -0.4,-0.5 -1,-0.7 -1.7,-0.7 -0.7,0 -1.3,0.2 -1.7,0.7 -0.4,0.5 -0.6,1.1 -0.6,2.1 z"
   id="path23429"
   style="fill:#fcfcfc;fill-opacity:1" />
		<path
   d="m 62.5,94.3 v -4.9 c 0,-0.6 -0.1,-1 -0.4,-1.3 -0.3,-0.3 -0.7,-0.4 -1.2,-0.4 -0.7,0 -1.2,0.2 -1.6,0.6 -0.4,0.4 -0.5,1 -0.5,1.9 v 4.2 h -1.1 v -4.9 c 0,-0.6 -0.1,-1 -0.4,-1.3 -0.3,-0.3 -0.7,-0.4 -1.2,-0.4 -0.7,0 -1.2,0.2 -1.6,0.6 -0.3,0.4 -0.5,1.1 -0.5,2.1 v 3.9 h -1.1 v -7.5 h 0.9 l 0.2,1 h 0.1 c 0.2,-0.4 0.5,-0.6 0.9,-0.9 0.4,-0.3 0.8,-0.3 1.3,-0.3 1.2,0 1.9,0.4 2.3,1.3 h 0.1 c 0.2,-0.4 0.5,-0.7 1,-0.9 0.5,-0.2 0.9,-0.3 1.4,-0.3 0.8,0 1.5,0.2 1.9,0.7 0.4,0.4 0.6,1.1 0.6,2.1 v 4.9 h -1.1 z"
   id="path23431"
   style="fill:#fcfcfc;fill-opacity:1" />
		<path
   d="m 69.2,94.4 c -1.1,0 -2,-0.3 -2.6,-1 -0.6,-0.7 -1,-1.6 -1,-2.8 0,-1.2 0.3,-2.2 0.9,-2.9 0.6,-0.7 1.4,-1.1 2.4,-1.1 0.9,0 1.7,0.3 2.2,0.9 0.5,0.6 0.8,1.4 0.8,2.4 v 0.7 h -5.2 c 0,0.9 0.2,1.5 0.7,2 0.5,0.5 1,0.7 1.8,0.7 0.8,0 1.6,-0.2 2.4,-0.5 v 1 c -0.4,0.2 -0.8,0.3 -1.1,0.4 -0.4,0.2 -0.8,0.2 -1.3,0.2 z m -0.3,-6.8 c -0.6,0 -1.1,0.2 -1.4,0.6 -0.3,0.4 -0.6,0.9 -0.6,1.6 h 3.9 c 0,-0.7 -0.2,-1.3 -0.5,-1.6 -0.4,-0.4 -0.9,-0.6 -1.4,-0.6 z"
   id="path23433"
   style="fill:#fcfcfc;fill-opacity:1" />
	</g><g
     id="g23447"
     style="fill:#007cc7;fill-opacity:1">
			
			
			
			
			
		<g
   id="g27915"><line
     class="st5"
     x1="111.1"
     y1="49.799999"
     x2="107.1"
     y2="49.799999"
     id="line23437"
     style="fill:#007cc7;fill-opacity:1;stroke:#007cc7;stroke-opacity:1" /><line
     class="st6"
     x1="99.699997"
     y1="49.799999"
     x2="14.4"
     y2="49.799999"
     id="line23439"
     style="fill:#007cc7;fill-opacity:1;stroke:#007cc7;stroke-opacity:1" /><polyline
     class="st5"
     points="10.7,49.8 6.7,49.8 6.7,53.8    "
     id="polyline23441"
     style="fill:#007cc7;fill-opacity:1;stroke:#007cc7;stroke-opacity:1" /><line
     class="st7"
     x1="6.6999998"
     y1="61.599998"
     x2="6.6999998"
     y2="73.199997"
     id="line23443"
     style="fill:#007cc7;fill-opacity:1;stroke:#007cc7;stroke-opacity:1" /><line
     class="st5"
     x1="6.6999998"
     y1="77.099998"
     x2="6.6999998"
     y2="81.099998"
     id="line23445"
     style="fill:#007cc7;fill-opacity:1;stroke:#007cc7;stroke-opacity:1" /><g
     id="g20360"
     transform="rotate(17.5,182.96172,336.43318)"><g
       id="g306"
       transform="matrix(5.7563862,0,0,5.969262,28.122144,29.947235)"><g
         id="g928"
         style="font-style:normal;font-weight:normal;font-size:43.7402px;line-height:1.25;font-family:sans-serif;display:inline;fill:#040404;fill-opacity:1;stroke:none;stroke-width:1.09351"
         transform="matrix(0.05083588,0,0,0.05083588,5.205767,0.17802697)"><path
           id="path910"
           d="m 144.30283,148.30013 c 0.25782,0.74679 -13.24009,6.26181 -34.53704,18.14964 -8.45111,4.72298 -24.240969,13.83983 -36.538646,20.1064 -9.980481,5.10372 -21.89867,10.79968 -34.792987,13.70718 -4.976082,1.12562 -10.338905,1.80119 -15.841275,1.41125 -5.063965,-0.94995 -10.241552,-2.89728 -14.9460255,-6.10092 2.2612635,-7.43137 4.9140995,-14.9414 8.0026005,-22.42262 12.20084,-29.55388 28.869645,-53.09946 47.967242,-70.35722 0,0 1.1e-5,0 1.1e-5,0 18.952645,-8.652971 35.213988,-12.608393 49.93863,-12.891383 6.70309,-0.09484 13.24146,0.570067 17.94583,1.132812 11.00725,1.312131 17.2033,2.152351 17.1987,2.501743 -0.009,0.6753 -6.29346,0.816737 -17.4279,0.358641 -4.62867,-0.187936 -11.23314,-0.444354 -17.56166,-0.03152 -13.99504,0.841991 -28.971255,5.018155 -47.014751,13.600427 -3e-6,0 -6e-6,0 -1e-5,0 -18.304716,16.19055 -34.314302,37.88773 -46.363954,65.38252 -3.050519,6.96065 -5.701253,13.96523 -7.991911,20.91706 3.183084,1.39914 6.957464,1.8429 10.74595,1.58234 4.650242,0.40059 9.423423,-0.17707 14.034794,-1.13328 12.004103,-2.49926 23.646901,-7.8413 33.649213,-12.62422 14.117147,-6.77459 26.472212,-13.52538 37.053209,-18.81306 22.00026,-11.00661 36.09403,-15.59372 36.47998,-14.47579 z"
           style="opacity:1;fill:#040404;fill-opacity:1;stroke:none;stroke-width:0;stroke-linecap:butt;stroke-linejoin:miter;stroke-miterlimit:4;stroke-dasharray:none;stroke-opacity:1" /><path
           id="path912"
           d="m 153.3887,107.16305 c -1.21243,-2.47944 34.80763,-22.586633 80.40193,-44.882138 45.59431,-22.295505 83.58239,-38.378114 84.79482,-35.898679 1.21244,2.479434 -34.80762,22.586632 -80.40193,44.882137 -45.5943,22.295505 -83.58238,38.37811 -84.79482,35.89868 z"
           style="fill:#040404;fill-opacity:1;stroke:none;stroke-width:0.264583px;stroke-linecap:butt;stroke-linejoin:miter;stroke-opacity:1" /><path
           id="path914"
           d="m 77.947508,197.06729 c -1.572191,-3.09903 22.168242,-15.29339 51.924852,-28.48985 10.61765,-4.70872 20.60658,-9.04448 29.06305,-12.8533 -15.93994,2.34199 -27.02424,1.96053 -27.02424,-0.22885 0,-2.16283 11.25852,-2.59739 28.93808,-0.22885 -8.0432,4.56174 -17.59959,10.14165 -27.92812,16.05929 -29.24348,16.75478 -53.409299,28.82508 -54.973622,25.74156 z"
           style="fill:#040404;fill-opacity:1;stroke:none;stroke-width:0.264583px;stroke-linecap:butt;stroke-linejoin:miter;stroke-opacity:1" /><path
           id="path916"
           d="M -91.538358,155.09556 C -92.426691,153.28717 -21.694973,116.71992 66.344941,73.472243 154.38485,30.224565 226.5585,-3.4073196 227.44684,-1.5989272 228.33517,0.20946525 157.60345,36.776711 69.563539,80.02439 -18.476375,123.27207 -90.650025,156.90395 -91.538358,155.09556 Z"
           style="fill:#040404;fill-opacity:1;stroke:none;stroke-width:0.264583px;stroke-linecap:butt;stroke-linejoin:miter;stroke-opacity:1" /><path
           id="path918"
           d="m 83.72155,180.80292 c 0.271145,-0.84055 3.583558,-0.5252 7.393781,0.7039 3.810222,1.2291 6.682517,2.90882 6.411372,3.74937 -0.271144,0.84055 -3.583558,0.5252 -7.39378,-0.7039 -3.810223,-1.2291 -6.682518,-2.90882 -6.411373,-3.74937 z"
           style="fill:#040404;fill-opacity:1;stroke:none;stroke-width:0.264583px;stroke-linecap:butt;stroke-linejoin:miter;stroke-opacity:1" /><path
           id="path920"
           d="m 148.29402,93.964079 c 0.89824,-0.449118 5.43674,7.707801 11.19318,19.948691 0,0 1e-5,0 1e-5,0 -2.47288,1.9781 -5.13157,4.2371 -7.56507,6.73402 -1.38634,1.42246 -2.6476,2.86779 -3.78045,4.35889 -2.15947,2.66249 -3.65789,5.31888 -4.34224,8.02592 -0.68921,2.58558 -0.59975,5.2701 -0.35603,7.39809 0,0 0,0 0,0 0.5527,4.76866 1.56659,7.646 0.85941,7.87044 -0.26522,0.0842 -2.12716,-2.41762 -3.45557,-7.3653 0,0 0,0 0,0 -0.6195,-2.30392 -1.03567,-5.34257 -0.44376,-8.64285 0.64173,-3.38068 2.24865,-6.69684 4.6656,-9.74751 1.16215,-1.37401 2.45801,-2.66036 3.87895,-3.88082 2.50022,-2.14748 5.20755,-3.93417 7.74718,-5.45946 0,0 0,0 0,0 -5.60564,-10.49896 -9.30572,-18.787858 -8.40121,-19.240111 z"
           style="fill:#040404;fill-opacity:1;stroke:none;stroke-width:0.264583px;stroke-linecap:butt;stroke-linejoin:miter;stroke-opacity:1" /><path
           id="path922"
           d="m 73.924347,81.94024 c 0.765272,-0.382636 2.662729,1.859552 4.235395,5.004883 1.572666,3.145332 2.227943,6.00861 1.462671,6.391246 -0.765272,0.382636 -2.662729,-1.859552 -4.235395,-5.004883 -1.572666,-3.145332 -2.227943,-6.00861 -1.462671,-6.391246 z"
           style="fill:#040404;fill-opacity:1;stroke:none;stroke-width:0.264583px;stroke-linecap:butt;stroke-linejoin:miter;stroke-opacity:1" /><path
           id="path924"
           d="m 293.40242,18.787349 c 0.48392,0.314055 -2.88175,4.592919 -2.89373,11.523586 -0.07,2.207278 0.48845,4.831317 0.11446,8.07774 1.65002,2.219895 3.50505,4.770692 5.5511,6.843237 1.6976,1.869341 3.68238,3.593654 5.92474,5.087061 0.5408,0.360167 1.08908,0.701887 1.64332,1.025122 0,0 0,10e-7 0,10e-7 8.11766,4.79014 17.8281,6.877047 23.95107,8.194076 6.53203,1.405017 10.55151,2.225808 10.4789,2.819837 -0.0558,0.456116 -4.17766,0.63356 -10.91578,-0.07431 -6.41632,-0.674064 -16.44175,-2.31249 -25.51688,-7.483446 0,-10e-7 -10e-6,-10e-7 -10e-6,-10e-7 -0.62756,-0.36157 -1.24751,-0.745777 -1.85807,-1.152609 -2.53266,-1.687568 -4.7538,-3.664038 -6.6301,-5.821913 -2.34684,-2.879114 -4.27503,-6.04269 -5.86381,-8.666626 0.38684,-2.964893 -0.0564,-6.139087 0.20287,-9.03639 1.01191,-8.636157 6.08789,-11.156266 5.81192,-11.335364 z"
           style="fill:#040404;fill-opacity:1;stroke:none;stroke-width:0.264583px;stroke-linecap:butt;stroke-linejoin:miter;stroke-opacity:1" /><path
           id="path926"
           d="m 298.82717,20.522621 c -10.52641,-8.380602 -12.08193,-11.6347262 -3.47211,-7.263654 8.60977,4.371038 24.14066,14.720261 34.66708,23.100866 10.5264,8.380607 12.08192,11.634726 3.4721,7.26365 -8.60976,-4.371034 -24.14066,-14.720257 -34.66707,-23.100862 z"
           style="fill:#040404;fill-opacity:1;stroke:none;stroke-width:0.304059px;stroke-linecap:butt;stroke-linejoin:miter;stroke-opacity:1" /></g><path
         style="fill:#040404;fill-opacity:1;stroke-width:0.114246"
         d="m 23.103474,37.760345 c -0.614118,-0.04186 -1.174395,-0.133929 -1.245059,-0.204593 -0.149587,-0.149587 0.165705,-1.117133 1.065371,-3.26933 2.021239,-4.835241 4.830604,-9.076135 8.109426,-12.241634 0.972881,-0.939257 1.181335,-1.081591 2.301272,-1.571341 1.577987,-0.690054 3.609015,-1.365502 5.016207,-1.668212 1.700935,-0.365899 3.373476,-0.466649 6.469575,-0.389712 l 2.832618,0.07039 0.14203,0.455079 c 0.07812,0.250294 0.443549,1.05798 0.812074,1.794859 l 0.670044,1.33978 -0.456127,0.256359 c -0.834275,0.468888 -1.89178,1.567889 -2.293093,2.383073 -0.329399,0.669104 -0.371945,0.863168 -0.366844,1.673254 0.0045,0.710346 0.07066,1.073275 0.294387,1.614287 l 0.288615,0.697921 -0.808491,0.255231 c -1.637971,0.517088 -4.248206,1.712498 -9.376907,4.294342 -5.306864,2.671535 -7.378459,3.584974 -9.291437,4.096921 -0.928774,0.248556 -1.348652,0.319213 -2.704344,0.455089 -0.188505,0.01889 -0.845198,9.9e-5 -1.459317,-0.04176 z"
         id="path1831"
         transform="matrix(0.26458333,0,0,0.26458333,0.11241379,0.09320379)" /><path
         style="fill:#0000ff;fill-opacity:1;stroke-width:0.114246"
         d="m 22.90623,37.68322 c -1.113304,-0.170785 -1.058916,-0.142834 -0.986122,-0.506803 0.03719,-0.185954 0.293355,-0.915146 0.569255,-1.620427 2.053823,-5.250183 4.767171,-9.567872 8.17925,-13.015456 1.208328,-1.220901 1.416976,-1.381158 2.40691,-1.848681 2.196386,-1.037305 5.098709,-1.8897 7.220088,-2.1205 1.234056,-0.134262 4.88097,-0.15993 6.360565,-0.04477 0.840489,0.06542 0.965561,0.103624 1.019937,0.311559 0.03409,0.130349 0.391342,0.904761 0.793901,1.720915 0.431297,0.874418 0.680057,1.501208 0.605646,1.526012 -0.334992,0.111663 -1.534405,1.126719 -1.956018,1.655364 -0.860212,1.078591 -0.964829,1.367014 -0.961319,2.650284 0.0025,0.922628 0.05056,1.246455 0.249666,1.682945 0.135597,0.297269 0.211306,0.560329 0.168242,0.584578 -0.04306,0.02425 -0.361054,0.135189 -0.706647,0.246535 -1.341092,0.432086 -4.046495,1.670329 -9.48238,4.340017 -7.069104,3.471798 -8.516151,4.054722 -10.910449,4.395131 -0.779859,0.110876 -1.996411,0.131366 -2.570525,0.0433 z"
         id="path1833"
         transform="matrix(0.26458333,0,0,0.26458333,0.11241379,0.09320379)" /><path
         style="fill:#0000ff;fill-opacity:1;stroke-width:0.114246"
         d="m 22.392126,37.54102 c -0.29169,-0.06455 -0.340542,-0.126349 -0.327998,-0.414903 0.04108,-0.945095 2.413788,-6.07592 3.934268,-8.50761 1.541694,-2.465618 3.701871,-5.142313 5.420788,-6.716948 1.210726,-1.109101 3.819696,-2.21116 6.988198,-2.951896 1.282057,-0.299721 1.522165,-0.317882 4.766515,-0.360517 1.879048,-0.02469 3.627833,-0.0132 3.886189,0.02554 l 0.469738,0.07044 0.712194,1.532836 c 0.391708,0.843061 0.712195,1.605879 0.712195,1.695153 0,0.08927 -0.207479,0.306099 -0.461064,0.481833 -0.636796,0.4413 -1.771498,1.676439 -2.073704,2.257255 -0.369672,0.710481 -0.429932,2.410354 -0.116933,3.298618 l 0.227682,0.646143 -0.872972,0.315111 c -1.321885,0.477152 -4.13365,1.769585 -8.962023,4.119411 -6.78868,3.303849 -8.392574,3.98266 -10.355294,4.382637 -1.127176,0.229703 -3.184426,0.295828 -3.947779,0.126891 z"
         id="path1904"
         transform="matrix(0.26458333,0,0,0.26458333,0.11241379,0.09320379)" /><path
         style="fill:none;stroke:#000000;stroke-width:0;stroke-linecap:butt;stroke-linejoin:miter;stroke-dasharray:none;stroke-opacity:1"
         d="m 12.696658,4.9352854 c 0.0016,0.00119 0.0048,0.00329 0.0062,0.00517 4.5e-4,6.085e-4 4.77e-4,0.00153 10e-4,0.00206 8.73e-4,8.732e-4 0.0023,0.00114 0.0031,0.00206 0.0023,0.00257 0.004,0.0056 0.0062,0.00827 9.26e-4,0.00114 0.0024,0.00185 0.0031,0.0031 3.44e-4,5.821e-4 -3.18e-4,0.00146 0,0.00206 7.67e-4,0.00153 0.002,0.00278 0.0031,0.00414 0.0014,0.00172 0.0028,0.00344 0.0041,0.00517 6.88e-4,0.00103 0.0013,0.00212 0.0021,0.0031 0.0014,0.00183 0.0034,0.0028 0.0052,0.00414 0.0011,8.466e-4 0.0019,0.0023 0.0031,0.0031 6.35e-4,4.233e-4 0.0015,4.762e-4 0.0021,0.00103 5.56e-4,5.556e-4 4.76e-4,0.00153 10e-4,0.00206 2.43e-4,2.437e-4 7.14e-4,-1.54e-4 0.001,0 0.0011,5.556e-4 0.0021,0.0013 0.0031,0.00206 0.0011,9.26e-4 0.0019,0.0023 0.0031,0.0031 6.35e-4,4.233e-4 0.0015,4.762e-4 0.0021,0.00103 2.44e-4,2.434e-4 -2.43e-4,7.937e-4 0,0.00103 2.44e-4,2.437e-4 7.15e-4,-1.539e-4 0.001,0 0.0013,6.35e-4 10e-4,0.00101 10e-4,0.00206"
         id="path2062" /><path
         style="fill:none;stroke:#000000;stroke-width:0.065;stroke-linecap:butt;stroke-linejoin:miter;stroke-dasharray:none;stroke-opacity:1"
         d="m 12.644982,4.9425201 c 0.0093,0.00276 0.01877,0.00501 0.0279,0.00827 0.0046,0.00164 0.02264,0.010803 0.02791,0.013435 0.0021,0.00103 0.0041,0.00206 0.0062,0.0031 6.88e-4,3.44e-4 0.0015,5.821e-4 0.0021,0.00103 7.67e-4,5.821e-4 0.0012,0.00153 0.0021,0.00206 2.91e-4,1.911e-4 7.41e-4,-1.912e-4 10e-4,0 8.2e-4,5.292e-4 0.0013,0.00146 0.0021,0.00206 0.0019,0.00156 0.0043,0.00254 0.0062,0.00414 0.0011,9.261e-4 0.0022,0.00193 0.0031,0.0031 2.07e-4,2.645e-4 -3.17e-4,8.731e-4 0,0.00103 6.09e-4,3.175e-4 0.0014,-2.177e-4 0.0021,0 4.5e-4,1.543e-4 6.88e-4,6.879e-4 10e-4,0.00103 6.88e-4,6.879e-4 0.0015,0.00132 0.0021,0.00206 0.0011,0.00132 0.0019,0.00292 0.0031,0.00414 2.43e-4,2.437e-4 7.67e-4,-2.067e-4 10e-4,0 0.0012,8.731e-4 0.0019,0.00222 0.0031,0.0031 5.56e-4,4.233e-4 0.0015,-3.175e-4 0.0021,0 8.73e-4,4.233e-4 0.0012,0.00164 0.0021,0.00206 3.17e-4,1.542e-4 7.94e-4,-2.435e-4 10e-4,0 2.43e-4,2.436e-4 -1.55e-4,7.143e-4 0,0.00103 0.0024,0.00473 -4.24e-4,-0.00438 0.0021,0.0031 2.18e-4,6.615e-4 0,0.00138 0,0.00206 0,0.00138 0,0.00276 0,0.00414"
         id="path2064" /><path
         style="fill:#000000;fill-opacity:1;stroke-width:0.000959646;stroke-dasharray:none"
         d="m 47.322266,18.475795 c -0.02041,-6.05e-4 -0.180371,-0.0046 -0.355469,-0.009 -0.291847,-0.0072 -0.501137,-0.01239 -1.654297,-0.04103 -1.216668,-0.03021 -1.895093,-0.04018 -2.442383,-0.03589 l -0.290039,0.0023 v -0.03947 -0.03947 l 0.243164,0.0027 c 0.332451,0.0037 0.625751,0.01024 0.981445,0.02201 0.154184,0.0051 0.445983,0.0162 0.873047,0.0332 0.809298,0.03223 1.609621,0.04758 2.123047,0.04073 0.232015,-0.0031 0.329742,-0.0059 0.492928,-0.01396 l 0.05152,-0.0026 -0.0076,0.02457 c -0.0042,0.01352 -0.0069,0.0253 -0.006,0.0262 8.94e-4,8.94e-4 0.02246,0.0078 0.04792,0.01537 0.02546,0.0076 0.04703,0.01448 0.04793,0.01537 0.0016,0.0016 -0.02484,0.0013 -0.105143,-0.0011 z"
         id="path2066"
         transform="matrix(0.26458333,0,0,0.26458333,0.11241379,0.09320379)" /><path
         style="fill:#000000;fill-opacity:1;stroke-width:0.00383858;stroke-dasharray:none"
         d="m 23.029788,37.849243 c -0.341851,-0.01469 -0.687838,-0.06966 -0.982913,-0.156162 -0.09511,-0.02788 -0.398972,-0.135689 -0.410302,-0.145569 -0.01274,-0.01111 0.396077,-1.175698 0.641973,-1.828762 1.404441,-3.729982 3.218834,-7.078315 5.406097,-9.976563 0.312778,-0.414448 0.653444,-0.846789 0.938778,-1.191406 0.121655,-0.146931 0.159994,-0.183594 0.191989,-0.183594 0.04654,0 0.0623,-0.02467 -0.144625,0.226453 -2.233296,2.710321 -4.19583,5.996324 -5.678518,9.507922 -0.637849,1.510683 -1.032844,2.569123 -1.140515,3.05616 -0.03732,0.168798 -0.04109,0.344984 -0.0084,0.391673 0.08629,0.123189 1.268593,0.254569 2.344136,0.260483 0.37041,0.002 0.467622,-0.003 0.796875,-0.04106 0.97527,-0.112812 1.317734,-0.17066 1.960937,-0.331238 2.023875,-0.505265 3.854155,-1.294425 9.140625,-3.941154 2.347605,-1.175354 3.593263,-1.791187 3.603122,-1.781327 0.0044,0.0044 -0.261347,0.144899 -0.590536,0.312234 -0.329187,0.167334 -1.066101,0.546804 -1.637586,0.843266 -3.293088,1.708313 -5.258545,2.670788 -6.839609,3.349325 -1.940276,0.832698 -3.625397,1.349015 -5.066641,1.552407 -0.581384,0.08205 -0.653366,0.08623 -1.492187,0.08664 -0.438281,2.19e-4 -0.903001,-0.0042 -1.032712,-0.0097 z"
         id="path2068"
         transform="matrix(0.26458333,0,0,0.26458333,0.11241379,0.09320379)" /><path
         style="fill:#000000;fill-opacity:1;stroke-width:0.00383858;stroke-dasharray:none"
         d="m 28.789062,24.356633 c 0,-0.01105 0.487675,-0.576281 0.718874,-0.833196 0.734359,-0.816038 1.487047,-1.569412 2.399584,-2.401771 0.172838,-0.157652 0.137967,-0.138554 0.826855,-0.452846 2.653742,-1.210719 5.167628,-1.96737 7.359375,-2.215088 0.120312,-0.0136 0.241602,-0.0284 0.269531,-0.0329 0.04613,-0.0074 0.05078,-0.0045 0.05078,0.03159 0,0.03381 -0.0071,0.03977 -0.04707,0.03977 -0.133621,0 -0.839638,0.09088 -1.288867,0.165905 -1.625436,0.271462 -3.945681,1.009375 -5.914518,1.881007 -0.768931,0.340417 -1.115084,0.556513 -1.616454,1.009119 -0.730736,0.659664 -1.709229,1.67509 -2.468003,2.561157 -0.158389,0.184961 -0.223971,0.250773 -0.252086,0.25297 -0.0209,0.0016 -0.038,-9.37e-4 -0.038,-0.0057 z"
         id="path2070"
         transform="matrix(0.26458333,0,0,0.26458333,0.11241379,0.09320379)" /><path
         style="fill:#000000;fill-opacity:1;stroke-width:0.00383858;stroke-dasharray:none"
         d="m 40.414062,18.451662 c 0,-0.02648 0.0088,-0.0376 0.0296,-0.0376 0.01628,0 0.09889,-0.007 0.183594,-0.01547 0.310152,-0.03116 0.932383,-0.06289 1.431343,-0.07298 0.509092,-0.0103 0.511718,-0.01019 0.511718,0.02173 0,0.03088 -0.01097,0.03244 -0.292968,0.0416 -0.889071,0.02887 -1.739327,0.07249 -1.835938,0.09418 -0.02017,0.0045 -0.02734,-0.0037 -0.02734,-0.03146 z"
         id="path2072"
         transform="matrix(0.26458333,0,0,0.26458333,0.11241379,0.09320379)" /><path
         style="fill:#000000;fill-opacity:1;stroke-width:0.00383858;stroke-dasharray:none"
         d=""
         id="path2074"
         transform="matrix(0.26458333,0,0,0.26458333,0.11241379,0.09320379)" /><path
         style="fill:#000000;fill-opacity:1;stroke-width:0.00383858;stroke-dasharray:none"
         d=""
         id="path2076"
         transform="matrix(0.26458333,0,0,0.26458333,0.11241379,0.09320379)" /><path
         style="fill:#000000;fill-opacity:1;stroke-width:0.000959646;stroke-dasharray:none"
         d="m 41.803451,30.692707 c 0.0014,-0.01452 -0.02055,-0.0035 0.350846,-0.175998 1.439233,-0.668461 2.522959,-1.125497 3.370006,-1.421222 0.172154,-0.0601 0.40757,-0.136573 0.830154,-0.269659 0.214287,-0.06749 0.389629,-0.124593 0.389648,-0.126903 0,-0.0023 -0.06848,-0.169871 -0.152228,-0.372359 -0.200351,-0.484431 -0.231162,-0.564323 -0.281866,-0.730863 -0.07081,-0.232581 -0.116545,-0.495663 -0.132076,-0.759766 -0.0023,-0.03867 -0.005,-0.07954 -0.0061,-0.09082 -0.0019,-0.01952 -0.0015,-0.02051 0.0073,-0.02051 0.0088,0 0.0094,0.0017 0.01192,0.03223 0.0076,0.09154 0.03485,0.267647 0.06145,0.397461 0.05072,0.247479 0.140997,0.552337 0.243497,0.822265 0.122374,0.322266 0.281838,0.628814 0.404557,0.777708 l 0.02284,0.02771 -0.04957,4.64e-4 c -0.06292,5.89e-4 -0.121204,0.0082 -0.229415,0.03005 -0.793734,0.160092 -2.662417,0.884758 -4.628747,1.795005 -0.103125,0.04774 -0.19333,0.0893 -0.200455,0.09235 l -0.01296,0.0056 z"
         id="path2078"
         transform="matrix(0.26458333,0,0,0.26458333,0.11241379,0.09320379)" /><path
         style="fill:#000000;fill-opacity:1;stroke-width:0.000959646;stroke-dasharray:none"
         d="m 37.224609,32.920315 c 0,-0.0027 1.057211,-0.531089 1.510772,-0.755008 1.285894,-0.634832 1.924622,-0.944163 3.020073,-1.462598 0.02448,-0.01159 0.04514,-0.02107 0.0459,-0.02107 0.0026,0 0.0013,0.01758 -0.0017,0.02224 -0.0016,0.0026 -0.07763,0.03968 -0.168886,0.08248 -0.606385,0.284418 -1.101709,0.525352 -1.794642,0.872942 -0.225484,0.113107 -0.410592,0.205028 -0.411351,0.204269 -7.59e-4,-7.59e-4 0.0264,-0.01578 0.06036,-0.03337 0.07545,-0.0391 0.187924,-0.100281 0.198175,-0.107801 0.01919,-0.01408 -0.002,-0.0082 -0.05126,0.0141 -0.157701,0.07157 -1.007758,0.489282 -1.669163,0.820204 -0.395457,0.197859 -0.738282,0.366704 -0.738282,0.36361 z"
         id="path2080"
         transform="matrix(0.26458333,0,0,0.26458333,0.11241379,0.09320379)" /><path
         style="fill:#000000;fill-opacity:1;stroke-width:0.0039124;stroke-dasharray:none"
         d=""
         id="path2142"
         transform="matrix(0.26458333,0,0,0.26458333,0.11241379,0.09320379)" /><path
         style="fill:#000000;fill-opacity:1;stroke-width:0.0039124;stroke-dasharray:none"
         d="m 46.167422,26.643555 c -0.0051,-0.123007 -0.0038,-0.629392 0.0019,-0.725586 0.01964,-0.333696 0.06369,-0.532073 0.180416,-0.8125 0.0461,-0.110756 0.155381,-0.343905 0.209642,-0.447266 0.207348,-0.394971 0.572843,-0.874194 0.991431,-1.299928 l 0.08203,-0.08343 0.02772,0.0012 0.02772,0.0012 -0.04099,0.03711 c -0.02254,0.02041 -0.09573,0.0916 -0.162637,0.158203 -0.27599,0.274726 -0.428817,0.458443 -0.617397,0.742188 -0.231225,0.347912 -0.401588,0.693439 -0.520977,1.05664 -0.105509,0.320977 -0.156566,0.599073 -0.172837,0.941407 -0.0048,0.10002 -0.0026,0.295963 0.0042,0.388671 0.0099,0.134537 0.0098,0.123047 0.0011,0.123047 -0.0076,0 -0.0081,-0.0033 -0.01128,-0.08105 z"
         id="path2144"
         transform="matrix(0.26458333,0,0,0.26458333,0.11241379,0.09320379)" /><path
         style="fill:#000000;fill-opacity:1;stroke-width:0.0039124;stroke-dasharray:none"
         d="m 47.640953,23.272015 c -0.0023,-0.0036 0.08563,-0.09097 0.178295,-0.17717 0.317122,-0.294993 0.650701,-0.552524 0.930752,-0.718563 0.03437,-0.02038 0.16709,-0.09566 0.294922,-0.167287 0.127832,-0.07163 0.23296,-0.13062 0.233617,-0.131095 6.57e-4,-4.75e-4 -0.155598,-0.314388 -0.347234,-0.697585 -0.191635,-0.383197 -0.372664,-0.746379 -0.402286,-0.807073 l -0.05386,-0.110351 h 0.02687 0.02687 l 0.09548,0.193103 0.09548,0.193104 -0.0037,0.01749 c -0.0072,0.03381 0.0099,0.06581 0.0412,0.07713 0.0116,0.0042 0.01734,0.01363 0.06484,0.106614 0.170456,0.333649 0.282281,0.548885 0.434397,0.836111 0.07197,0.135895 0.0958,0.184164 0.09213,0.186588 -0.0027,0.0018 -0.03572,0.02198 -0.07332,0.04484 -0.483979,0.294279 -0.908579,0.589257 -1.251954,0.869757 -0.07827,0.06394 -0.232105,0.195634 -0.289761,0.24806 l -0.04367,0.03971 h -0.02348 c -0.01292,0 -0.02442,-0.0015 -0.02557,-0.0034 z"
         id="path2146"
         transform="matrix(0.26458333,0,0,0.26458333,0.11241379,0.09320379)" /><path
         style="fill:#000000;fill-opacity:1;stroke-width:0.0039124;stroke-dasharray:none"
         d="m 48.447063,20.40625 c -0.01493,-0.03115 -0.03963,-0.08257 -0.05488,-0.114258 -0.247521,-0.514083 -0.481374,-1.038057 -0.566015,-1.268224 -0.01833,-0.04984 -0.117181,-0.361198 -0.117181,-0.369087 0,-0.0023 0.0091,-0.0036 0.02186,-0.0032 l 0.02186,8.15e-4 0.01346,0.04492 c 0.09865,0.329189 0.348627,0.911507 0.721468,1.680664 l 0.04118,0.08496 h -0.02731 -0.02731 z"
         id="path2148"
         transform="matrix(0.26458333,0,0,0.26458333,0.11241379,0.09320379)" /><path
         style="fill:#000000;fill-opacity:1;stroke-width:0.0039124;stroke-dasharray:none"
         d=""
         id="path2150"
         transform="matrix(0.26458333,0,0,0.26458333,0.11241379,0.09320379)" /><path
         style="fill:#000000;fill-opacity:1;stroke-width:0.0039124;stroke-dasharray:none"
         d=""
         id="path2152"
         transform="matrix(0.26458333,0,0,0.26458333,0.11241379,0.09320379)" /><path
         style="fill:#000000;fill-opacity:1;stroke-width:0.0039124;stroke-dasharray:none"
         d="m 47.708483,18.646373 c -0.02214,-0.0037 -0.02925,-0.0073 -0.06395,-0.03252 -0.02613,-0.01899 -0.03349,-0.02523 -0.07123,-0.06033 -0.02539,-0.02361 -0.138476,-0.08057 -0.188256,-0.09481 -0.02271,-0.0065 -0.04332,-0.01249 -0.0458,-0.01332 -0.0032,-0.0011 -0.0025,-0.0084 0.0026,-0.02618 0.04297,-0.149708 0.06064,-0.206321 0.06442,-0.206321 0.01264,0 0.106483,0.03055 0.14013,0.04563 0.108939,0.0488 0.134782,0.06462 0.219257,0.134207 0.01074,0.0088 0.02782,0.02214 0.03795,0.02953 0.02325,0.01697 0.03917,0.04 0.04959,0.07175 0.0082,0.02499 0.01108,0.06264 0.0048,0.06264 -0.0019,0 -0.0063,0.0078 -0.01,0.01726 -0.01985,0.05197 -0.07879,0.08259 -0.139504,0.07248 z m -0.06024,-0.07629 c 0.05675,-0.0054 0.06828,-0.01338 0.01875,-0.01298 -0.03524,2.9e-4 -0.04004,0.0011 -0.04004,0.0071 0,0.0086 0.0038,0.01248 0.0091,0.0092 0.0023,-0.0014 0.0077,-0.0029 0.01215,-0.0033 z"
         id="path2154"
         transform="matrix(0.26458333,0,0,0.26458333,0.11241379,0.09320379)" /><path
         style="fill:#000000;fill-opacity:1;stroke-width:0.0039124;stroke-dasharray:none"
         d="m 47.708483,18.646373 c -0.0099,-0.0017 -0.02225,-0.0052 -0.02734,-0.0078 -0.01858,-0.0097 -0.05771,-0.0392 -0.09395,-0.07091 -0.02936,-0.0257 -0.04924,-0.03883 -0.09532,-0.06293 -0.05186,-0.02713 -0.07245,-0.03515 -0.152626,-0.05944 -0.005,-0.0015 -0.0058,0.0017 0.03612,-0.141928 l 0.02664,-0.0912 0.01269,0.0021 c 0.03412,0.0055 0.121936,0.03823 0.181909,0.06772 0.06746,0.03318 0.08811,0.04557 0.122154,0.07331 0.01074,0.0088 0.02422,0.01942 0.02994,0.0237 0.04853,0.03631 0.07504,0.0593 0.08489,0.07361 0.01472,0.02139 0.02775,0.0598 0.02775,0.0818 0,0.02032 -0.01759,0.05594 -0.03865,0.07824 -0.02582,0.02736 -0.07157,0.04089 -0.1142,0.03379 z m -0.03362,-0.08039 c 0.01242,-0.0014 0.02368,-0.0043 0.02503,-0.0065 0.0026,-0.0042 -0.06734,-0.0019 -0.07155,0.0023 -0.0049,0.0049 0.0037,0.01044 0.01348,0.0087 0.0058,-10e-4 0.02062,-0.003 0.03304,-0.0045 z"
         id="path2156"
         transform="matrix(0.26458333,0,0,0.26458333,0.11241379,0.09320379)" /><path
         style="fill:#000000;fill-opacity:1;stroke-width:0.0039124;stroke-dasharray:none"
         d="m 47.708605,18.646391 c -0.02925,-0.0049 -0.05781,-0.02301 -0.116808,-0.07418 -0.03484,-0.03021 -0.05219,-0.04144 -0.113366,-0.07335 -0.033,-0.01721 -0.06818,-0.03208 -0.09375,-0.03962 -0.02251,-0.0066 -0.04296,-0.01281 -0.04544,-0.01371 -0.0032,-0.0012 -0.0023,-0.0098 0.0034,-0.03022 0.007,-0.0252 0.05079,-0.177582 0.05619,-0.195577 0.0031,-0.01029 0.01451,-0.0086 0.07572,0.01128 0.07661,0.02487 0.190424,0.08154 0.235884,0.117449 0.01848,0.0146 0.05124,0.04036 0.0728,0.05723 0.02156,0.01688 0.04431,0.03812 0.05055,0.0472 0.0145,0.02108 0.02751,0.05958 0.02751,0.08145 0,0.02025 -0.01747,0.05571 -0.03865,0.07844 -0.02526,0.02712 -0.07143,0.04072 -0.114078,0.03361 z m -0.0126,-0.08722 c 0.0032,-0.0033 -0.06535,7.1e-4 -0.06894,0.004 -0.001,9.32e-4 3.18e-4,0.003 0.003,0.0047 0.0056,0.0035 0.0613,-0.0038 0.06598,-0.0087 z"
         id="path2158"
         transform="matrix(0.26458333,0,0,0.26458333,0.11241379,0.09320379)" /><path
         style="fill:#000000;fill-opacity:1;stroke-width:0.0039124;stroke-dasharray:none"
         d="m 47.708605,18.646391 c -0.03006,-0.005 -0.05624,-0.02141 -0.11476,-0.07185 -0.01724,-0.01486 -0.04013,-0.03263 -0.05088,-0.03948 -0.04101,-0.02617 -0.129785,-0.06802 -0.166016,-0.07826 -0.02041,-0.0058 -0.03823,-0.01113 -0.0396,-0.01192 -0.0014,-7.89e-4 8.17e-4,-0.01332 0.0049,-0.02784 0.05657,-0.203126 0.05691,-0.204141 0.06809,-0.204141 0.0052,0 0.0344,0.0082 0.0649,0.01819 0.07476,0.02451 0.189341,0.08143 0.233955,0.116226 0.124892,0.09739 0.129145,0.101706 0.144088,0.146063 0.01149,0.03411 0.01052,0.05363 -0.004,0.08128 -0.0067,0.01266 -0.01853,0.02982 -0.02637,0.03814 -0.02559,0.02717 -0.07163,0.04071 -0.114235,0.03361 z m -0.01329,-0.0867 c 0.0027,-0.0028 -0.002,-0.0033 -0.01519,-0.0016 -0.0105,0.0014 -0.02589,0.0025 -0.03418,0.0025 -0.0085,0 -0.01508,0.0019 -0.01508,0.0044 0,0.0055 0.0587,7.68e-4 0.06445,-0.0052 z"
         id="path2160"
         transform="matrix(0.26458333,0,0,0.26458333,0.11241379,0.09320379)" /><path
         style="fill:#000000;fill-opacity:1;stroke-width:0.0039124;stroke-dasharray:none"
         d="m 47.708207,18.646453 c -0.02693,-0.0047 -0.05184,-0.01978 -0.106477,-0.06466 -0.02684,-0.02205 -0.05914,-0.04637 -0.07177,-0.05404 -0.03872,-0.02352 -0.125908,-0.06342 -0.158871,-0.07269 -0.01719,-0.0048 -0.03237,-0.0094 -0.03374,-0.01021 -0.0014,-7.75e-4 7.74e-4,-0.01329 0.0048,-0.02782 0.05596,-0.203567 0.05615,-0.204141 0.06888,-0.204141 0.0055,0 0.03452,0.0082 0.06453,0.01816 0.07937,0.02641 0.213239,0.09388 0.240633,0.12127 0.0029,0.0029 0.01166,0.01 0.01953,0.01584 0.04495,0.03335 0.09002,0.07216 0.09923,0.08546 0.0145,0.02093 0.0264,0.05735 0.0264,0.0808 0,0.03627 -0.03677,0.08751 -0.07422,0.103456 -0.02165,0.0092 -0.05453,0.01279 -0.0789,0.0086 z m -0.01526,-0.08605 c 0.0042,-0.0026 -0.004,-0.003 -0.02498,-0.0013 -0.01719,0.0014 -0.03293,0.004 -0.03498,0.0059 -0.005,0.0046 0.05193,3.26e-4 0.05996,-0.0045 z"
         id="path2162"
         transform="matrix(0.26458333,0,0,0.26458333,0.11241379,0.09320379)" /><path
         style="fill:#000000;fill-opacity:1;stroke-width:0.0039124;stroke-dasharray:none"
         d="m 47.708207,18.646453 c -0.02546,-0.0044 -0.05077,-0.01909 -0.09558,-0.0555 -0.09271,-0.07531 -0.149529,-0.105576 -0.273325,-0.145579 -0.0045,-0.0015 0.0077,-0.05276 0.03394,-0.14264 0.02433,-0.08333 0.02698,-0.08984 0.03655,-0.08984 0.0443,0 0.261895,0.09691 0.299266,0.133283 0.0032,0.0031 0.02418,0.01964 0.04666,0.03676 0.08038,0.06122 0.100541,0.0891 0.104678,0.144701 0.0015,0.02014 1.76e-4,0.02687 -0.0087,0.04446 -0.01433,0.02829 -0.04152,0.05632 -0.0637,0.0657 -0.02227,0.0094 -0.05487,0.01295 -0.07974,0.0087 z m -0.01659,-0.08624 c 0.0018,-0.003 -0.0042,-0.0034 -0.02028,-0.0015 -0.02991,0.0036 -0.03146,0.0057 -0.0042,0.0057 0.01205,0 0.02308,-0.0019 0.02453,-0.0042 z"
         id="path2164"
         transform="matrix(0.26458333,0,0,0.26458333,0.11241379,0.09320379)" /><path
         style="fill:#000000;fill-opacity:1;stroke-width:0.0039124;stroke-dasharray:none"
         d="m 47.705947,18.646375 c -0.02468,-0.0051 -0.05019,-0.02034 -0.09941,-0.05955 -0.02422,-0.0193 -0.05371,-0.04165 -0.06553,-0.04967 -0.03416,-0.02319 -0.12047,-0.06522 -0.160526,-0.07817 -0.02021,-0.0065 -0.03875,-0.0126 -0.0412,-0.01347 -0.0031,-0.0011 -9.43e-4,-0.01509 0.0071,-0.04582 0.01516,-0.05822 0.03258,-0.119083 0.04481,-0.156535 0.0091,-0.02788 0.01072,-0.03027 0.02046,-0.03027 0.0388,0 0.222694,0.07933 0.279074,0.120382 0.04561,0.03322 0.07452,0.05577 0.108773,0.08485 0.04155,0.03528 0.05785,0.06377 0.0609,0.106436 0.0017,0.02333 6.09e-4,0.02914 -0.0087,0.04743 -0.01437,0.02836 -0.04153,0.05641 -0.06376,0.06585 -0.02211,0.0094 -0.05906,0.01324 -0.082,0.0085 z m -0.01454,-0.08583 c 0.0028,-0.0046 -0.0058,-0.0047 -0.02734,-2.24e-4 l -0.01563,0.0032 0.02028,4.49e-4 c 0.01115,2.47e-4 0.02136,-0.0013 0.02269,-0.0035 z"
         id="path2166"
         transform="matrix(0.26458333,0,0,0.26458333,0.11241379,0.09320379)" /></g><path
       style="fill:#007cc7;fill-opacity:1;stroke-width:0.202214"
       d="m 62.998744,89.840225 c -0.75184,-0.113025 -0.82976,-0.401461 -0.42955,-1.590152 2.3369,-6.940991 6.36801,-14.273748 10.72404,-19.507472 3.44997,-4.145111 4.79778,-5.159248 9.02793,-6.792934 3.39432,-1.310885 6.17403,-1.898478 9.85886,-2.084026 3.64812,-0.183699 8.926956,-0.0076 9.042686,0.301591 0.0401,0.107068 0.56361,1.286623 1.16343,2.621234 l 1.09057,2.426565 -0.54245,0.386551 c -1.04806,0.746849 -3.022366,2.92587 -3.448416,3.805961 -0.53082,1.096526 -0.60425,4.060628 -0.13365,5.394472 0.28687,0.81307 0.28174,0.847705 -0.15166,1.023959 -0.24671,0.100333 -1.26753,0.516568 -2.26849,0.924966 -1.00096,0.408398 -6.46073,3.042271 -12.13282,5.853052 -11.25935,5.57952 -13.1912,6.426808 -15.95295,6.996782 -1.69869,0.350578 -4.37838,0.460309 -5.84753,0.239451 z"
       id="path7961" /></g></g></g><line
     class="st8"
     x1="-3.8"
     y1="112.6"
     x2="251.2"
     y2="112.6"
     id="line23451"
     style="stroke:#fcfcfc;stroke-opacity:1" /><path
     class="st0"
     d="m 6.8,91.2 c -4.7,0 -8.5,3.8 -8.5,8.5 0,4.7 5.2,8.6 8.5,11.6 2.7,-2.7 8.5,-7 8.5,-11.6 0,-4.7 -3.8,-8.5 -8.5,-8.5 z m 3.3,11.6 H 8.2 v -2.2 H 5.3 v 2.2 H 3.4 v -6.2 h 1.9 v 2.2 h 2.9 v -2.2 h 1.9 z"
     id="path23453"
     style="fill:#007cc7;fill-opacity:1" /></g>
<path
   style="fill:#ffffff;stroke:#000000;stroke-width:0.202532"
   d="m 126.6869,20.400654 c 1.32781,-0.417719 10.81865,-2.305434 20.22138,-4.022006 C 176.56077,10.965262 217.6843,4.4163233 226.7827,3.6586158 l 1.31439,-0.1094613 -1.41549,0.3989392 c -6.07973,1.7134931 -45.07838,8.6244233 -74.61687,13.2228163 -12.13796,1.889572 -24.35593,3.575004 -25.63307,3.536005 -0.63193,-0.0193 -0.62305,-0.02996 0.25524,-0.306261 z"
   id="path6673"
   transform="translate(-9,23.6)" /><path
   style="fill:#ffffff;stroke:#000000;stroke-width:0.050633"
   d="m 178.26703,17.885149 c -0.3292,-0.375212 -0.60843,-1.595045 -0.61085,-2.668565 -0.001,-0.44581 0.0201,-0.656902 0.0795,-0.796217 0.094,-0.220318 0.13115,-0.230531 0.27602,-0.07583 0.32332,0.34527 0.62204,1.653525 0.61468,2.69197 -0.005,0.762922 -0.14511,1.092821 -0.35935,0.848642 z"
   id="path6675"
   transform="translate(-9,23.6)" /><path
   style="fill:#ffffff;stroke:#000000;stroke-width:0.050633"
   d="m 173.36685,45.532589 c -0.83851,-0.547495 -1.68289,-1.364313 -1.74827,-1.691195 -0.0188,-0.09389 -0.0525,-0.134344 -0.0977,-0.117026 -0.0379,0.01456 -0.75712,0.162374 -1.59819,0.328484 -3.88138,0.766559 -6.23828,1.110269 -8.7331,1.273557 -1.12863,0.07387 -3.7826,0.03082 -4.67619,-0.07585 -1.81914,-0.217161 -3.42306,-0.650629 -4.27176,-1.154468 -1.03421,-0.613963 -2.28819,-1.681392 -2.94516,-2.507016 l -0.25528,-0.320813 0.52167,-0.766629 c 1.60723,-2.361968 3.77912,-5.137627 5.76681,-7.369936 5.08221,-5.70767 10.90733,-10.311185 16.77946,-13.260566 0.83973,-0.421774 1.09388,-0.527076 1.33966,-0.555066 1.64054,-0.18683 2.16865,-0.240308 3.10904,-0.314826 1.33492,-0.105781 4.46103,-0.120778 5.58615,-0.0268 4.11938,0.344086 6.73641,1.054716 10.9701,2.97882 1.20301,0.546738 3.92422,1.821617 3.95596,1.853353 0.0356,0.0356 -0.1119,0.231549 -0.17431,0.231549 -0.15915,0 -1.94824,-0.581302 -3.7311,-1.212296 -2.68414,-0.949977 -3.84763,-1.32164 -5.1517,-1.645651 -1.72352,-0.428228 -3.31036,-0.668971 -5.18648,-0.786854 -1.06012,-0.06661 -4.08353,-0.0346 -5.13117,0.05433 -0.93089,0.07902 -2.80825,0.290888 -3.57448,0.403399 -0.64717,0.09503 -0.65388,0.09741 -1.62145,0.575737 -7.04106,3.480822 -13.64229,8.97261 -19.30267,16.058546 -1.20392,1.507131 -2.72238,3.554048 -2.72376,3.671688 -8.3e-4,0.07139 0.41961,0.389933 0.88017,0.666862 0.38385,0.230805 1.19387,0.562532 1.67722,0.68687 0.16963,0.04364 0.39681,0.11627 0.50484,0.161406 0.39612,0.16551 1.32647,0.428165 1.9419,0.548233 2.45901,0.479745 5.36725,0.495834 9.07434,0.0502 2.79122,-0.335536 5.49915,-0.79327 12.37768,-2.092257 3.42986,-0.647717 5.46612,-0.983593 7.66675,-1.264607 2.52466,-0.322392 4.64875,-0.484089 5.83469,-0.444167 0.74351,0.02503 0.93947,0.05466 0.93947,0.142048 0,0.07047 -0.30158,0.134312 -2.02213,0.428062 -5.05288,0.862679 -6.52041,1.155506 -11.90534,2.375546 -1.64046,0.371672 -3.51725,0.791183 -4.17066,0.932246 -1.11974,0.241741 -1.50121,0.344261 -1.31171,0.35252 0.13575,0.0059 0.88782,0.391738 1.29762,0.66569 0.60855,0.40682 1.27381,0.975359 1.4877,1.2714 l 0.10044,0.139022 h -0.55305 -0.55304 z"
   id="path6677"
   transform="translate(-9,23.6)" /><path
   style="fill:#ffffff;stroke:#000000;stroke-width:0.050633"
   d="m 173.19847,45.3423 c -0.67441,-0.477737 -1.35874,-1.144962 -1.4986,-1.46114 -0.0758,-0.171302 -0.12554,-0.226427 -0.1881,-0.208355 -0.0468,0.01352 -0.72205,0.150419 -1.50057,0.304231 -5.77348,1.140665 -8.75484,1.458857 -12.18338,1.300299 -2.17941,-0.100791 -4.1094,-0.503086 -5.30811,-1.106442 -0.94026,-0.473267 -2.24453,-1.539739 -3.1032,-2.537403 l -0.31229,-0.362848 0.44004,-0.641438 c 5.90861,-8.612821 13.21551,-15.532813 20.9472,-19.838003 0.80475,-0.448109 2.36586,-1.234956 2.65405,-1.337724 0.18581,-0.06626 1.35176,-0.210468 3.05848,-0.378282 0.47131,-0.04634 1.51149,-0.0671 3.36181,-0.0671 2.48835,0 2.7496,0.0084 3.66512,0.117597 4.25557,0.507657 6.70725,1.325434 12.95432,4.321019 0.75112,0.360177 0.86718,0.440515 0.74527,0.515864 -0.0778,0.04808 -1.35683,-0.359104 -3.89222,-1.239116 -1.2651,-0.439104 -2.63005,-0.90256 -3.03321,-1.029903 -3.59804,-1.136466 -6.69174,-1.517777 -10.97009,-1.352109 -1.51374,0.05861 -2.12552,0.112309 -4.13797,0.363178 -1.39838,0.174319 -1.46726,0.194654 -2.62581,0.775192 -6.33445,3.174124 -12.34039,7.997972 -17.59889,14.135081 -1.52761,1.782842 -4.25058,5.325563 -4.25058,5.530211 0,0.156082 0.70503,0.650269 1.35826,0.952061 0.49095,0.226819 2.31112,0.83991 3.03989,1.023933 1.63771,0.41354 3.89313,0.59253 6.16329,0.489119 3.41378,-0.155507 6.08075,-0.543365 14.48779,-2.106969 5.22908,-0.972543 6.91714,-1.254522 9.35238,-1.562253 2.44881,-0.309446 4.87384,-0.479908 5.85156,-0.411325 0.94267,0.06612 0.96391,0.0606 -2.63434,0.685256 -2.56638,0.445525 -4.155,0.743706 -5.82072,1.092545 -1.55782,0.326241 -10.09189,2.239669 -10.23958,2.295821 -0.13963,0.05308 -0.16678,0.150704 -0.0419,0.150704 0.0451,0 0.32738,0.127514 0.62734,0.283365 0.6184,0.321301 1.44596,0.924927 1.89263,1.380477 l 0.30174,0.307742 h -0.51026 -0.51026 z"
   id="path6679"
   transform="translate(-9,23.6)" /><path
   style="fill:#ffffff;stroke:#000000;stroke-width:0.050633"
   d="m 168.91448,48.131988 c -0.77564,-0.208816 -0.39836,-0.621966 1.01717,-1.113868 0.58806,-0.204354 2.32777,-0.644447 3.42871,-0.867357 0.39622,-0.08022 0.72039,-0.159732 0.72039,-0.176688 0,-0.01696 -0.0512,-0.05552 -0.11375,-0.08569 -0.0892,-0.04303 0.0116,-0.05561 0.46762,-0.05833 0.4119,-0.0025 0.82721,-0.04767 1.42474,-0.155082 1.9601,-0.352359 4.99486,-0.813197 7.80126,-1.184646 1.74852,-0.231428 11.03996,-1.39353 11.1418,-1.39353 0.0307,0 0.0558,-0.01714 0.0558,-0.0381 0,-0.02095 -0.44457,-0.113669 -0.98794,-0.206036 -3.55689,-0.604635 -6.49397,-1.591986 -6.49397,-2.18306 0,-0.535316 1.92181,-0.127158 4.79548,1.018472 0.88878,0.354325 2.45868,1.038268 2.91185,1.268579 l 0.24746,0.125762 -0.24908,0.05742 c -0.13699,0.03158 -2.26237,0.533922 -4.72306,1.116315 -5.3711,1.271226 -6.99859,1.645559 -9.3271,2.145293 -6.50855,1.396832 -10.98319,2.035877 -12.11737,1.730538 z"
   id="path6681"
   transform="translate(-9,23.6)" /><path
   style="fill:#ffffff;stroke:#000000;stroke-width:0.050633"
   d="m 191.34722,39.292656 c -0.16956,-0.590779 -0.22193,-1.632202 -0.12553,-2.496657 0.19797,-1.775472 1.05263,-3.214245 2.60256,-4.381307 0.82072,-0.617982 2.5242,-1.375045 3.89023,-1.728904 0.19463,-0.05042 0.36989,-0.105225 0.38947,-0.121796 0.0196,-0.01657 -0.0323,-0.439518 -0.11533,-0.939885 -0.28407,-1.71245 -0.48454,-3.318146 -0.53416,-4.278409 -0.032,-0.618414 -0.0296,-0.64062 0.0756,-0.696889 0.0597,-0.03197 0.11004,-0.09713 0.1118,-0.144811 0.0123,-0.333221 0.35828,1.125497 0.58516,2.467296 l 0.18541,1.096513 0.48516,-0.173581 c 2.33157,-0.834182 9.16583,-2.368898 16.71282,-3.753065 1.22339,-0.224379 2.26416,-0.416838 2.31281,-0.427686 0.0827,-0.01843 0.0885,0.07573 0.0885,1.434977 v 1.454702 l -0.18957,0.03195 c -0.10427,0.01757 -1.37253,0.201869 -2.81836,0.409552 -7.22275,1.037498 -12.90291,1.646672 -15.5093,1.663311 l -1.00046,0.0064 0.0292,0.176937 c 0.10443,0.631866 0.26656,2.05325 0.23743,2.081605 -0.0193,0.0188 -0.28462,0.140439 -0.58956,0.270299 -1.92925,0.821566 -3.5843,1.834155 -4.61908,2.826036 -1.07617,1.031544 -1.48595,1.997277 -1.82738,4.306627 -0.0827,0.559276 -0.16461,1.054068 -0.18206,1.099537 -0.0561,0.146284 -0.11737,0.08901 -0.19537,-0.182735 z"
   id="path6683"
   transform="translate(-9,23.6)" /><path
   style="fill:#ffffff;stroke:#000000;stroke-width:0.050633"
   d="m 252.81772,31.700375 c -1.13805,-0.295255 -3.37661,-1.276695 -4.8564,-2.129164 -2.13051,-1.227327 -4.02168,-2.937162 -5.02083,-4.539396 -0.35482,-0.568984 -0.73727,-1.39538 -0.94179,-2.034983 -0.10581,-0.330913 -0.1963,-0.607286 -0.20108,-0.614163 -0.005,-0.0069 -0.90545,0.171135 -2.00148,0.39558 -5.80098,1.187922 -12.81126,2.438104 -19.38317,3.456708 -1.16778,0.180999 -2.17229,0.337301 -2.23223,0.347338 -0.10887,0.01823 -0.10901,0.0168 -0.13188,-1.326136 -0.0126,-0.739412 -0.0353,-1.391043 -0.0505,-1.448069 -0.0261,-0.09808 0.0302,-0.113891 1.04185,-0.292516 7.39291,-1.305386 17.27594,-2.801289 21.96188,-3.324164 l 0.56998,-0.0636 0.2037,-0.660967 c 0.56436,-1.831307 0.91055,-2.472436 1.78199,-3.300219 0.36587,-0.347539 1.04162,-0.800257 1.14223,-0.765234 0.0275,0.0096 -0.10696,0.205794 -0.29881,0.436044 -0.86447,1.037485 -1.24158,1.805189 -1.64137,3.341412 l -0.21547,0.82795 0.28355,-0.0303 c 1.44936,-0.154893 1.88692,-0.199067 2.81122,-0.28381 0.5839,-0.05353 1.45974,-0.124416 1.94631,-0.157518 0.48658,-0.0331 0.8915,-0.06588 0.89982,-0.07284 0.008,-0.007 -0.2747,-0.419124 -0.62893,-0.915915 -1.85621,-2.603259 -3.2648,-4.967318 -3.27484,-5.496193 -0.003,-0.18107 0.009,-0.207299 0.0946,-0.192459 0.55418,0.09657 3.10723,2.9079 5.4083,5.955448 0.49863,0.660376 0.50324,0.664716 0.74016,0.696143 0.13112,0.01739 0.26849,0.06789 0.30528,0.112212 0.0571,0.06885 0.0474,0.09729 -0.0665,0.195297 l -0.13336,0.11471 0.49287,0.675716 c 1.44263,1.9778 2.74657,3.995768 3.34551,5.177478 0.67917,1.339989 0.55166,1.507468 -0.46383,0.609208 -0.90533,-0.800813 -2.69219,-2.863118 -4.34075,-5.009864 -0.34163,-0.44487 -0.63792,-0.815358 -0.65843,-0.823307 -0.0205,-0.0079 -0.36469,0.07813 -0.76486,0.191279 -1.00809,0.285044 -2.86467,0.746124 -4.36743,1.084646 -0.69511,0.156584 -1.29115,0.293961 -1.32453,0.305282 -0.0713,0.02418 0.0594,0.368343 0.46101,1.213684 0.53439,1.124904 1.10942,1.918851 2.12508,2.934096 1.33987,1.339312 2.62297,2.24969 5.66426,4.018868 1.76471,1.026568 2.24962,1.344079 2.24962,1.472995 0,0.05569 -0.007,0.05461 -0.53081,-0.08127 z"
   id="path6685"
   transform="translate(-9,23.6)" /><path
   style="fill:#ffffff;stroke:#000000;stroke-width:0.0078248"
   d="m 197.80859,28.648361 c 0,-0.0022 -0.0175,-0.124765 -0.0388,-0.272387 -0.21079,-1.457815 -0.31341,-2.415178 -0.35224,-3.28613 -0.012,-0.268344 -0.003,-0.371685 0.037,-0.415628 0.012,-0.01324 0.0114,-0.01406 -0.0105,-0.01406 -0.0399,0 -0.10323,-0.02308 -0.13147,-0.04787 -0.0149,-0.01307 -0.0593,-0.0718 -0.0987,-0.130524 -0.077,-0.114629 -0.20308,-0.250037 -0.27436,-0.294542 -0.0204,-0.01274 -0.0371,-0.02608 -0.0371,-0.02966 -2e-5,-0.0065 0.0402,-0.0774 0.0675,-0.119168 l 0.0145,-0.02208 -0.0311,0.02114 c -0.0223,0.01517 -0.041,0.02114 -0.066,0.02114 -0.18318,0 -2.21658,-0.667935 -4.34042,-1.425745 -0.46837,-0.167122 -0.85702,-0.301868 -0.86053,-0.298352 -0.002,0.0016 0.058,0.02435 0.13233,0.05054 0.0744,0.0262 0.33722,0.120216 0.58407,0.208927 0.24685,0.08871 0.60527,0.217513 0.79648,0.286228 1.54909,0.556692 2.8984,0.995691 3.69349,1.201685 l 0.0333,0.0086 -0.0202,0.03445 -0.0202,0.03445 0.0494,0.0367 c 0.0271,0.02018 0.0423,0.03492 0.0337,0.03275 -0.009,-0.0022 -0.64668,-0.221032 -1.41797,-0.486359 -2.4006,-0.825821 -2.99395,-1.02813 -3.80664,-1.297913 l -0.37305,-0.123838 v -0.04514 c 0,-0.02483 0.001,-0.04514 0.003,-0.04514 0.002,0 0.018,0.0053 0.0364,0.0118 0.0184,0.0065 0.0349,0.01037 0.0366,0.0086 0.002,-0.0018 -0.0146,-0.0091 -0.0364,-0.01634 l -0.0396,-0.01314 v -0.04708 c 0,-0.04168 0.002,-0.04646 0.0137,-0.0417 0.008,0.003 0.16132,0.05572 0.34179,0.117255 0.18047,0.06153 0.72715,0.249678 1.21485,0.418104 2.48691,0.858858 3.59351,1.218232 3.91015,1.269842 0.0535,0.0087 0.065,0.0086 0.0801,-0.0011 0.0834,-0.05361 -0.10707,-0.163714 -1.10742,-0.640008 -1.86044,-0.885806 -3.13309,-1.462022 -4.36524,-1.976443 -0.0828,-0.03457 -0.0879,-0.03798 -0.0879,-0.05894 0,-0.02205 2.2e-4,-0.02215 0.0254,-0.0117 1.1149,0.462961 2.35498,1.019804 3.91993,1.7602 1.49655,0.708038 1.67448,0.803772 1.67448,0.90095 0,0.01255 0.001,0.02282 0.002,0.02282 0.007,0 0.0509,-0.07344 0.0547,-0.09236 0.004,-0.02253 0.003,-0.0234 -0.10364,-0.07552 -0.66927,-0.326187 -2.9562,-1.393786 -3.9246,-1.832104 -0.52526,-0.237746 -1.23101,-0.54582 -1.57812,-0.688887 -0.0628,-0.02589 -0.0665,-0.02876 -0.0689,-0.05312 -0.002,-0.01894 2.1e-4,-0.02463 0.008,-0.02151 0.35358,0.14487 1.09482,0.467227 1.60799,0.699298 1.266,0.572521 3.94918,1.830652 4.08008,1.913127 0.0205,0.0129 0.0293,0.02406 0.0293,0.03705 0,0.0129 0.006,0.01997 0.0181,0.02312 0.0308,0.0077 0.14322,0.09677 0.23989,0.189978 0.0754,0.07266 0.106,0.10955 0.16617,0.200087 0.0815,0.122609 0.095,0.146574 0.1026,0.181871 0.005,0.02134 0.008,0.02361 0.0284,0.02059 0.0219,-0.0032 0.0245,-6.15e-4 0.0457,0.04632 0.0554,0.122481 0.13745,0.428454 0.24694,0.920821 0.14327,0.644327 0.28615,1.416091 0.4491,2.425781 0.018,0.111719 0.0339,0.20431 0.0353,0.205758 10e-4,0.0014 0.11093,-0.03676 0.2434,-0.0849 0.5888,-0.213996 1.18609,-0.39853 2.06898,-0.639219 1.65994,-0.452523 3.98729,-1.001224 6.66797,-1.572048 0.28144,-0.05993 0.51963,-0.110754 0.52929,-0.112941 0.0152,-0.0034 0.0176,-7.99e-4 0.0176,0.01908 0,0.02229 -0.002,0.02346 -0.0566,0.03528 -0.0311,0.0067 -0.31855,0.06826 -0.63867,0.136738 -2.97191,0.635766 -5.4742,1.235725 -7.08984,1.699891 -0.64987,0.186705 -1.06869,0.322962 -1.70118,0.553463 -0.0419,0.01527 -0.0762,0.02574 -0.0762,0.02326 0,-0.0085 -0.19609,-1.163319 -0.23128,-1.362018 -0.15997,-0.903251 -0.39371,-1.954463 -0.48727,-2.191407 l -0.009,-0.02344 -0.0148,0.0302 c -0.0255,0.0521 -0.0542,0.08313 -0.11036,0.119118 -0.0806,0.05168 -0.0809,0.05271 -0.0795,0.280372 0.004,0.579072 0.10563,1.645981 0.27674,2.894532 0.0364,0.2656 0.10345,0.729303 0.11381,0.787109 0.004,0.02418 0.003,0.02539 -0.0198,0.02539 -0.0134,0 -0.0243,-0.0018 -0.0243,-0.004 z m -0.45117,-4.157441 c -0.005,-0.0022 -0.0142,-0.0022 -0.0195,0 -0.005,0.0022 -9.8e-4,0.0039 0.01,0.0039 0.0107,0 0.0151,-0.0018 0.01,-0.0039 z m -0.44102,-0.482441 c 0.0116,-0.0061 0.0334,-0.02436 0.0484,-0.04062 l 0.0273,-0.02957 -0.0306,0.02594 c -0.0295,0.025 -0.0324,0.02576 -0.0792,0.02096 -0.26208,-0.02685 -1.36314,-0.383016 -4.02209,-1.30104 -0.53665,-0.185282 -0.97711,-0.335482 -0.97881,-0.333779 -0.002,0.0017 0.0436,0.01904 0.10071,0.03853 0.0571,0.01949 0.36046,0.125734 0.67413,0.236093 0.80403,0.282881 1.15601,0.405909 1.45703,0.509282 1.32431,0.454776 2.43835,0.812329 2.71094,0.870086 0.0365,0.0077 0.0675,0.01432 0.0687,0.01462 0.001,3.02e-4 0.0118,-0.0044 0.0234,-0.0105 z m -5.242,-1.680437 c -0.007,-0.0065 -0.14167,-0.05088 -0.14498,-0.04756 -0.002,0.0017 0.0279,0.01369 0.0658,0.02669 0.069,0.02367 0.0866,0.02833 0.0792,0.02088 z m 0.10294,-0.01482 c 0,-0.0047 -0.0959,-0.03628 -0.0995,-0.03273 -0.002,0.0017 0.0174,0.01016 0.0424,0.01886 0.0482,0.0168 0.0571,0.01896 0.0571,0.01387 z"
   id="path6687"
   transform="translate(-9,23.6)" /><path
   style="fill:#ffffff;stroke:#000000;stroke-width:0.0078248"
   d="m 197.47266,24.154727 c -0.0476,-0.07007 -0.23597,-0.242533 -0.33089,-0.302926 -0.0314,-0.01995 -0.0432,-0.03162 -0.0377,-0.03714 0.006,-0.0055 0.0444,0.01098 0.12385,0.05246 0.28165,0.147148 0.44003,0.248878 0.44003,0.282641 0,0.02029 -0.0445,0.03383 -0.11094,0.03377 l -0.0648,-5.3e-5 z"
   id="path6689"
   transform="translate(-9,23.6)" /><path
   style="fill:#ffffff;stroke:#000000;stroke-width:0.0078248"
   d="m 197.41028,24.719867 c -1.1e-4,-0.05279 0.002,-0.06072 0.0122,-0.05664 0.007,0.0026 0.0154,0.0047 0.0191,0.0047 0.004,0 -3.8e-4,0.01608 -0.009,0.03572 -0.009,0.01965 -0.0141,0.04018 -0.012,0.04563 0.002,0.0054 6.7e-4,0.01486 -0.003,0.02092 -0.004,0.007 -0.007,-0.01134 -0.007,-0.05037 z"
   id="path6691"
   transform="translate(-9,23.6)" /><path
   style="fill:#ffffff;stroke:#000000;stroke-width:0.0078248"
   d="m 197.62901,27.727259 c -0.0198,-0.0071 -0.0289,-0.01608 -0.0331,-0.03261 -0.0124,-0.04845 -0.1205,-0.940401 -0.16558,-1.366525 -0.0741,-0.700807 -0.0905,-0.943521 -0.0905,-1.345948 -3e-5,-0.351701 -0.001,-0.343522 0.0434,-0.323215 l 0.019,0.0087 4e-5,0.22087 c 9e-5,0.460413 0.0503,1.091643 0.16075,2.021652 0.03,0.252609 0.0948,0.762406 0.10203,0.802735 0.005,0.02795 0.003,0.02862 -0.0361,0.01437 z"
   id="path6693"
   transform="translate(-9,23.6)" /><path
   style="fill:#ffffff;stroke:#000000;stroke-width:0.0039124"
   d="m 197.67291,24.433322 c -0.001,-0.0012 -0.0105,-0.0025 -0.0206,-0.0029 l -0.0183,-7.05e-4 -0.009,-0.02803 c -0.009,-0.028 -0.0317,-0.06924 -0.0711,-0.12821 -0.0115,-0.01718 -0.0192,-0.03179 -0.0172,-0.03246 0.007,-0.0024 0.0342,0.01459 0.0495,0.03119 0.0238,0.02586 0.045,0.05893 0.0714,0.111552 0.0132,0.02629 0.024,0.0487 0.024,0.04981 0,0.0027 -0.006,0.0026 -0.009,-2.12e-4 z"
   id="path6695"
   transform="translate(-9,23.6)" /><path
   style="fill:#ffffff;stroke:#000000;stroke-width:0.0039124"
   d="m 197.36914,26.545637 c 0,-0.0039 -0.01,-0.08608 -0.0213,-0.182617 -0.059,-0.485131 -0.10419,-0.905915 -0.12738,-1.185286 -0.005,-0.05821 -0.01,-0.160486 -0.0114,-0.246093 -0.002,-0.106153 -0.005,-0.153502 -0.009,-0.171971 -0.0192,-0.08378 -0.0652,-0.154224 -0.14323,-0.219429 -0.15239,-0.127292 -0.42202,-0.259873 -1.06065,-0.521544 -0.40634,-0.166495 -0.83891,-0.329938 -1.38086,-0.521741 l -0.1582,-0.05599 -0.001,-0.03201 c -6.3e-4,-0.0176 -5.3e-4,-0.03201 2.2e-4,-0.03201 7.5e-4,0 0.57167,0.196114 1.26871,0.43581 0.69705,0.239695 1.27351,0.437807 1.28103,0.440248 0.01,0.0031 0.0277,0.01942 0.0614,0.0554 0.0606,0.06468 0.091,0.102315 0.1458,0.18006 0.062,0.08799 0.0913,0.124693 0.10764,0.134813 l 0.0142,0.0088 -0.003,0.150766 c -0.005,0.266001 -0.004,0.477764 0.003,0.590218 0.0173,0.277242 0.0493,0.634168 0.0924,1.03125 0.009,0.07842 0.0155,0.143896 0.0155,0.145508 0,0.0016 -0.0167,0.0029 -0.0371,0.0029 -0.0333,0 -0.0371,-7.36e-4 -0.0371,-0.0071 z"
   id="path6697"
   transform="translate(-9,23.6)" /></svg>
