<?xml version="1.0" encoding="UTF-8" standalone="no"?>
<!-- Generator: Adobe Illustrator 19.1.0, SVG Export Plug-In . SVG Version: 6.00 Build 0)  -->

<svg
   version="1.1"
   id="Ebene_1"
   x="0px"
   y="0px"
   viewBox="-9 23.6 264.9 95.1"
   style="enable-background:new -9 23.6 264.9 95.1;"
   xml:space="preserve"
   sodipodi:docname="cf_failsafe_procedure3-dark.svg"
   inkscape:version="1.2 (dc2aedaf03, 2022-05-15)"
   xmlns:inkscape="http://www.inkscape.org/namespaces/inkscape"
   xmlns:sodipodi="http://sodipodi.sourceforge.net/DTD/sodipodi-0.dtd"
   xmlns="http://www.w3.org/2000/svg"
   xmlns:svg="http://www.w3.org/2000/svg"><defs
   id="defs17705">
	
	

		
		
		
		
		
	
			
			
		
			
			
			
		</defs><sodipodi:namedview
   id="namedview17703"
   pagecolor="#ffffff"
   bordercolor="#666666"
   borderopacity="1.0"
   inkscape:showpageshadow="2"
   inkscape:pageopacity="0.0"
   inkscape:pagecheckerboard="0"
   inkscape:deskcolor="#d1d1d1"
   showgrid="false"
   inkscape:zoom="11.313709"
   inkscape:cx="190.16753"
   inkscape:cy="20.152543"
   inkscape:window-width="1920"
   inkscape:window-height="991"
   inkscape:window-x="-9"
   inkscape:window-y="-9"
   inkscape:window-maximized="1"
   inkscape:current-layer="Ebene_1" />
<style
   type="text/css"
   id="style17662">
	.st0{fill:#FFBB00;}
	.st1{fill:#1B171B;}
	.st2{fill:#B8B8B9;}
	.st3{fill:none;}
	.st4{enable-background:new    ;}
	
		.st5{fill:none;stroke:#FFBB00;stroke-width:2;stroke-linecap:round;stroke-linejoin:round;stroke-miterlimit:10;stroke-dasharray:8,8;}
	.st6{fill:none;stroke:#1B171B;stroke-miterlimit:10;}
</style>

<g
   id="g39654"><rect
     x="190.39999"
     y="74.900002"
     class="st3"
     width="67.5"
     height="13.5"
     id="rect17676" /><g
     id="g20360"
     transform="rotate(26.1,177.56242,237.08627)"><g
       id="g306"
       transform="matrix(5.7563862,0,0,5.969262,28.122144,29.947235)"><g
         id="g928"
         style="font-style:normal;font-weight:normal;font-size:43.7402px;line-height:1.25;font-family:sans-serif;display:inline;fill:#040404;fill-opacity:1;stroke:none;stroke-width:1.09351"
         transform="matrix(0.05083588,0,0,0.05083588,5.205767,0.17802697)"><path
           id="path910"
           d="m 144.30283,148.30013 c 0.25782,0.74679 -13.24009,6.26181 -34.53704,18.14964 -8.45111,4.72298 -24.240969,13.83983 -36.538646,20.1064 -9.980481,5.10372 -21.89867,10.79968 -34.792987,13.70718 -4.976082,1.12562 -10.338905,1.80119 -15.841275,1.41125 -5.063965,-0.94995 -10.241552,-2.89728 -14.9460255,-6.10092 2.2612635,-7.43137 4.9140995,-14.9414 8.0026005,-22.42262 12.20084,-29.55388 28.869645,-53.09946 47.967242,-70.35722 0,0 1.1e-5,0 1.1e-5,0 18.952645,-8.652971 35.213988,-12.608393 49.93863,-12.891383 6.70309,-0.09484 13.24146,0.570067 17.94583,1.132812 11.00725,1.312131 17.2033,2.152351 17.1987,2.501743 -0.009,0.6753 -6.29346,0.816737 -17.4279,0.358641 -4.62867,-0.187936 -11.23314,-0.444354 -17.56166,-0.03152 -13.99504,0.841991 -28.971255,5.018155 -47.014751,13.600427 -3e-6,0 -6e-6,0 -1e-5,0 -18.304716,16.19055 -34.314302,37.88773 -46.363954,65.38252 -3.050519,6.96065 -5.701253,13.96523 -7.991911,20.91706 3.183084,1.39914 6.957464,1.8429 10.74595,1.58234 4.650242,0.40059 9.423423,-0.17707 14.034794,-1.13328 12.004103,-2.49926 23.646901,-7.8413 33.649213,-12.62422 14.117147,-6.77459 26.472212,-13.52538 37.053209,-18.81306 22.00026,-11.00661 36.09403,-15.59372 36.47998,-14.47579 z"
           style="opacity:1;fill:#040404;fill-opacity:1;stroke:none;stroke-width:0;stroke-linecap:butt;stroke-linejoin:miter;stroke-miterlimit:4;stroke-dasharray:none;stroke-opacity:1" /><path
           id="path912"
           d="m 153.3887,107.16305 c -1.21243,-2.47944 34.80763,-22.586633 80.40193,-44.882138 45.59431,-22.295505 83.58239,-38.378114 84.79482,-35.898679 1.21244,2.479434 -34.80762,22.586632 -80.40193,44.882137 -45.5943,22.295505 -83.58238,38.37811 -84.79482,35.89868 z"
           style="fill:#040404;fill-opacity:1;stroke:none;stroke-width:0.264583px;stroke-linecap:butt;stroke-linejoin:miter;stroke-opacity:1" /><path
           id="path914"
           d="m 77.947508,197.06729 c -1.572191,-3.09903 22.168242,-15.29339 51.924852,-28.48985 10.61765,-4.70872 20.60658,-9.04448 29.06305,-12.8533 -15.93994,2.34199 -27.02424,1.96053 -27.02424,-0.22885 0,-2.16283 11.25852,-2.59739 28.93808,-0.22885 -8.0432,4.56174 -17.59959,10.14165 -27.92812,16.05929 -29.24348,16.75478 -53.409299,28.82508 -54.973622,25.74156 z"
           style="fill:#040404;fill-opacity:1;stroke:none;stroke-width:0.264583px;stroke-linecap:butt;stroke-linejoin:miter;stroke-opacity:1" /><path
           id="path916"
           d="M -91.538358,155.09556 C -92.426691,153.28717 -21.694973,116.71992 66.344941,73.472243 154.38485,30.224565 226.5585,-3.4073196 227.44684,-1.5989272 228.33517,0.20946525 157.60345,36.776711 69.563539,80.02439 -18.476375,123.27207 -90.650025,156.90395 -91.538358,155.09556 Z"
           style="fill:#040404;fill-opacity:1;stroke:none;stroke-width:0.264583px;stroke-linecap:butt;stroke-linejoin:miter;stroke-opacity:1" /><path
           id="path918"
           d="m 83.72155,180.80292 c 0.271145,-0.84055 3.583558,-0.5252 7.393781,0.7039 3.810222,1.2291 6.682517,2.90882 6.411372,3.74937 -0.271144,0.84055 -3.583558,0.5252 -7.39378,-0.7039 -3.810223,-1.2291 -6.682518,-2.90882 -6.411373,-3.74937 z"
           style="fill:#040404;fill-opacity:1;stroke:none;stroke-width:0.264583px;stroke-linecap:butt;stroke-linejoin:miter;stroke-opacity:1" /><path
           id="path920"
           d="m 148.29402,93.964079 c 0.89824,-0.449118 5.43674,7.707801 11.19318,19.948691 0,0 1e-5,0 1e-5,0 -2.47288,1.9781 -5.13157,4.2371 -7.56507,6.73402 -1.38634,1.42246 -2.6476,2.86779 -3.78045,4.35889 -2.15947,2.66249 -3.65789,5.31888 -4.34224,8.02592 -0.68921,2.58558 -0.59975,5.2701 -0.35603,7.39809 0,0 0,0 0,0 0.5527,4.76866 1.56659,7.646 0.85941,7.87044 -0.26522,0.0842 -2.12716,-2.41762 -3.45557,-7.3653 0,0 0,0 0,0 -0.6195,-2.30392 -1.03567,-5.34257 -0.44376,-8.64285 0.64173,-3.38068 2.24865,-6.69684 4.6656,-9.74751 1.16215,-1.37401 2.45801,-2.66036 3.87895,-3.88082 2.50022,-2.14748 5.20755,-3.93417 7.74718,-5.45946 0,0 0,0 0,0 -5.60564,-10.49896 -9.30572,-18.787858 -8.40121,-19.240111 z"
           style="fill:#040404;fill-opacity:1;stroke:none;stroke-width:0.264583px;stroke-linecap:butt;stroke-linejoin:miter;stroke-opacity:1" /><path
           id="path922"
           d="m 73.924347,81.94024 c 0.765272,-0.382636 2.662729,1.859552 4.235395,5.004883 1.572666,3.145332 2.227943,6.00861 1.462671,6.391246 -0.765272,0.382636 -2.662729,-1.859552 -4.235395,-5.004883 -1.572666,-3.145332 -2.227943,-6.00861 -1.462671,-6.391246 z"
           style="fill:#040404;fill-opacity:1;stroke:none;stroke-width:0.264583px;stroke-linecap:butt;stroke-linejoin:miter;stroke-opacity:1" /><path
           id="path924"
           d="m 293.40242,18.787349 c 0.48392,0.314055 -2.88175,4.592919 -2.89373,11.523586 -0.07,2.207278 0.48845,4.831317 0.11446,8.07774 1.65002,2.219895 3.50505,4.770692 5.5511,6.843237 1.6976,1.869341 3.68238,3.593654 5.92474,5.087061 0.5408,0.360167 1.08908,0.701887 1.64332,1.025122 0,0 0,10e-7 0,10e-7 8.11766,4.79014 17.8281,6.877047 23.95107,8.194076 6.53203,1.405017 10.55151,2.225808 10.4789,2.819837 -0.0558,0.456116 -4.17766,0.63356 -10.91578,-0.07431 -6.41632,-0.674064 -16.44175,-2.31249 -25.51688,-7.483446 0,-10e-7 -10e-6,-10e-7 -10e-6,-10e-7 -0.62756,-0.36157 -1.24751,-0.745777 -1.85807,-1.152609 -2.53266,-1.687568 -4.7538,-3.664038 -6.6301,-5.821913 -2.34684,-2.879114 -4.27503,-6.04269 -5.86381,-8.666626 0.38684,-2.964893 -0.0564,-6.139087 0.20287,-9.03639 1.01191,-8.636157 6.08789,-11.156266 5.81192,-11.335364 z"
           style="fill:#040404;fill-opacity:1;stroke:none;stroke-width:0.264583px;stroke-linecap:butt;stroke-linejoin:miter;stroke-opacity:1" /><path
           id="path926"
           d="m 298.82717,20.522621 c -10.52641,-8.380602 -12.08193,-11.6347262 -3.47211,-7.263654 8.60977,4.371038 24.14066,14.720261 34.66708,23.100866 10.5264,8.380607 12.08192,11.634726 3.4721,7.26365 -8.60976,-4.371034 -24.14066,-14.720257 -34.66707,-23.100862 z"
           style="fill:#040404;fill-opacity:1;stroke:none;stroke-width:0.304059px;stroke-linecap:butt;stroke-linejoin:miter;stroke-opacity:1" /></g><path
         style="fill:#040404;fill-opacity:1;stroke-width:0.114246"
         d="m 23.103474,37.760345 c -0.614118,-0.04186 -1.174395,-0.133929 -1.245059,-0.204593 -0.149587,-0.149587 0.165705,-1.117133 1.065371,-3.26933 2.021239,-4.835241 4.830604,-9.076135 8.109426,-12.241634 0.972881,-0.939257 1.181335,-1.081591 2.301272,-1.571341 1.577987,-0.690054 3.609015,-1.365502 5.016207,-1.668212 1.700935,-0.365899 3.373476,-0.466649 6.469575,-0.389712 l 2.832618,0.07039 0.14203,0.455079 c 0.07812,0.250294 0.443549,1.05798 0.812074,1.794859 l 0.670044,1.33978 -0.456127,0.256359 c -0.834275,0.468888 -1.89178,1.567889 -2.293093,2.383073 -0.329399,0.669104 -0.371945,0.863168 -0.366844,1.673254 0.0045,0.710346 0.07066,1.073275 0.294387,1.614287 l 0.288615,0.697921 -0.808491,0.255231 c -1.637971,0.517088 -4.248206,1.712498 -9.376907,4.294342 -5.306864,2.671535 -7.378459,3.584974 -9.291437,4.096921 -0.928774,0.248556 -1.348652,0.319213 -2.704344,0.455089 -0.188505,0.01889 -0.845198,9.9e-5 -1.459317,-0.04176 z"
         id="path1831"
         transform="matrix(0.26458333,0,0,0.26458333,0.11241379,0.09320379)" /><path
         style="fill:#0000ff;fill-opacity:1;stroke-width:0.114246"
         d="m 22.90623,37.68322 c -1.113304,-0.170785 -1.058916,-0.142834 -0.986122,-0.506803 0.03719,-0.185954 0.293355,-0.915146 0.569255,-1.620427 2.053823,-5.250183 4.767171,-9.567872 8.17925,-13.015456 1.208328,-1.220901 1.416976,-1.381158 2.40691,-1.848681 2.196386,-1.037305 5.098709,-1.8897 7.220088,-2.1205 1.234056,-0.134262 4.88097,-0.15993 6.360565,-0.04477 0.840489,0.06542 0.965561,0.103624 1.019937,0.311559 0.03409,0.130349 0.391342,0.904761 0.793901,1.720915 0.431297,0.874418 0.680057,1.501208 0.605646,1.526012 -0.334992,0.111663 -1.534405,1.126719 -1.956018,1.655364 -0.860212,1.078591 -0.964829,1.367014 -0.961319,2.650284 0.0025,0.922628 0.05056,1.246455 0.249666,1.682945 0.135597,0.297269 0.211306,0.560329 0.168242,0.584578 -0.04306,0.02425 -0.361054,0.135189 -0.706647,0.246535 -1.341092,0.432086 -4.046495,1.670329 -9.48238,4.340017 -7.069104,3.471798 -8.516151,4.054722 -10.910449,4.395131 -0.779859,0.110876 -1.996411,0.131366 -2.570525,0.0433 z"
         id="path1833"
         transform="matrix(0.26458333,0,0,0.26458333,0.11241379,0.09320379)" /><path
         style="fill:#0000ff;fill-opacity:1;stroke-width:0.114246"
         d="m 22.392126,37.54102 c -0.29169,-0.06455 -0.340542,-0.126349 -0.327998,-0.414903 0.04108,-0.945095 2.413788,-6.07592 3.934268,-8.50761 1.541694,-2.465618 3.701871,-5.142313 5.420788,-6.716948 1.210726,-1.109101 3.819696,-2.21116 6.988198,-2.951896 1.282057,-0.299721 1.522165,-0.317882 4.766515,-0.360517 1.879048,-0.02469 3.627833,-0.0132 3.886189,0.02554 l 0.469738,0.07044 0.712194,1.532836 c 0.391708,0.843061 0.712195,1.605879 0.712195,1.695153 0,0.08927 -0.207479,0.306099 -0.461064,0.481833 -0.636796,0.4413 -1.771498,1.676439 -2.073704,2.257255 -0.369672,0.710481 -0.429932,2.410354 -0.116933,3.298618 l 0.227682,0.646143 -0.872972,0.315111 c -1.321885,0.477152 -4.13365,1.769585 -8.962023,4.119411 -6.78868,3.303849 -8.392574,3.98266 -10.355294,4.382637 -1.127176,0.229703 -3.184426,0.295828 -3.947779,0.126891 z"
         id="path1904"
         transform="matrix(0.26458333,0,0,0.26458333,0.11241379,0.09320379)" /><path
         style="fill:none;stroke:#000000;stroke-width:0;stroke-linecap:butt;stroke-linejoin:miter;stroke-dasharray:none;stroke-opacity:1"
         d="m 12.696658,4.9352854 c 0.0016,0.00119 0.0048,0.00329 0.0062,0.00517 4.5e-4,6.085e-4 4.77e-4,0.00153 10e-4,0.00206 8.73e-4,8.732e-4 0.0023,0.00114 0.0031,0.00206 0.0023,0.00257 0.004,0.0056 0.0062,0.00827 9.26e-4,0.00114 0.0024,0.00185 0.0031,0.0031 3.44e-4,5.821e-4 -3.18e-4,0.00146 0,0.00206 7.67e-4,0.00153 0.002,0.00278 0.0031,0.00414 0.0014,0.00172 0.0028,0.00344 0.0041,0.00517 6.88e-4,0.00103 0.0013,0.00212 0.0021,0.0031 0.0014,0.00183 0.0034,0.0028 0.0052,0.00414 0.0011,8.466e-4 0.0019,0.0023 0.0031,0.0031 6.35e-4,4.233e-4 0.0015,4.762e-4 0.0021,0.00103 5.56e-4,5.556e-4 4.76e-4,0.00153 10e-4,0.00206 2.43e-4,2.437e-4 7.14e-4,-1.54e-4 0.001,0 0.0011,5.556e-4 0.0021,0.0013 0.0031,0.00206 0.0011,9.26e-4 0.0019,0.0023 0.0031,0.0031 6.35e-4,4.233e-4 0.0015,4.762e-4 0.0021,0.00103 2.44e-4,2.434e-4 -2.43e-4,7.937e-4 0,0.00103 2.44e-4,2.437e-4 7.15e-4,-1.539e-4 0.001,0 0.0013,6.35e-4 10e-4,0.00101 10e-4,0.00206"
         id="path2062" /><path
         style="fill:none;stroke:#000000;stroke-width:0.065;stroke-linecap:butt;stroke-linejoin:miter;stroke-dasharray:none;stroke-opacity:1"
         d="m 12.644982,4.9425201 c 0.0093,0.00276 0.01877,0.00501 0.0279,0.00827 0.0046,0.00164 0.02264,0.010803 0.02791,0.013435 0.0021,0.00103 0.0041,0.00206 0.0062,0.0031 6.88e-4,3.44e-4 0.0015,5.821e-4 0.0021,0.00103 7.67e-4,5.821e-4 0.0012,0.00153 0.0021,0.00206 2.91e-4,1.911e-4 7.41e-4,-1.912e-4 10e-4,0 8.2e-4,5.292e-4 0.0013,0.00146 0.0021,0.00206 0.0019,0.00156 0.0043,0.00254 0.0062,0.00414 0.0011,9.261e-4 0.0022,0.00193 0.0031,0.0031 2.07e-4,2.645e-4 -3.17e-4,8.731e-4 0,0.00103 6.09e-4,3.175e-4 0.0014,-2.177e-4 0.0021,0 4.5e-4,1.543e-4 6.88e-4,6.879e-4 10e-4,0.00103 6.88e-4,6.879e-4 0.0015,0.00132 0.0021,0.00206 0.0011,0.00132 0.0019,0.00292 0.0031,0.00414 2.43e-4,2.437e-4 7.67e-4,-2.067e-4 10e-4,0 0.0012,8.731e-4 0.0019,0.00222 0.0031,0.0031 5.56e-4,4.233e-4 0.0015,-3.175e-4 0.0021,0 8.73e-4,4.233e-4 0.0012,0.00164 0.0021,0.00206 3.17e-4,1.542e-4 7.94e-4,-2.435e-4 10e-4,0 2.43e-4,2.436e-4 -1.55e-4,7.143e-4 0,0.00103 0.0024,0.00473 -4.24e-4,-0.00438 0.0021,0.0031 2.18e-4,6.615e-4 0,0.00138 0,0.00206 0,0.00138 0,0.00276 0,0.00414"
         id="path2064" /><path
         style="fill:#000000;fill-opacity:1;stroke-width:0.000959646;stroke-dasharray:none"
         d="m 47.322266,18.475795 c -0.02041,-6.05e-4 -0.180371,-0.0046 -0.355469,-0.009 -0.291847,-0.0072 -0.501137,-0.01239 -1.654297,-0.04103 -1.216668,-0.03021 -1.895093,-0.04018 -2.442383,-0.03589 l -0.290039,0.0023 v -0.03947 -0.03947 l 0.243164,0.0027 c 0.332451,0.0037 0.625751,0.01024 0.981445,0.02201 0.154184,0.0051 0.445983,0.0162 0.873047,0.0332 0.809298,0.03223 1.609621,0.04758 2.123047,0.04073 0.232015,-0.0031 0.329742,-0.0059 0.492928,-0.01396 l 0.05152,-0.0026 -0.0076,0.02457 c -0.0042,0.01352 -0.0069,0.0253 -0.006,0.0262 8.94e-4,8.94e-4 0.02246,0.0078 0.04792,0.01537 0.02546,0.0076 0.04703,0.01448 0.04793,0.01537 0.0016,0.0016 -0.02484,0.0013 -0.105143,-0.0011 z"
         id="path2066"
         transform="matrix(0.26458333,0,0,0.26458333,0.11241379,0.09320379)" /><path
         style="fill:#000000;fill-opacity:1;stroke-width:0.00383858;stroke-dasharray:none"
         d="m 23.029788,37.849243 c -0.341851,-0.01469 -0.687838,-0.06966 -0.982913,-0.156162 -0.09511,-0.02788 -0.398972,-0.135689 -0.410302,-0.145569 -0.01274,-0.01111 0.396077,-1.175698 0.641973,-1.828762 1.404441,-3.729982 3.218834,-7.078315 5.406097,-9.976563 0.312778,-0.414448 0.653444,-0.846789 0.938778,-1.191406 0.121655,-0.146931 0.159994,-0.183594 0.191989,-0.183594 0.04654,0 0.0623,-0.02467 -0.144625,0.226453 -2.233296,2.710321 -4.19583,5.996324 -5.678518,9.507922 -0.637849,1.510683 -1.032844,2.569123 -1.140515,3.05616 -0.03732,0.168798 -0.04109,0.344984 -0.0084,0.391673 0.08629,0.123189 1.268593,0.254569 2.344136,0.260483 0.37041,0.002 0.467622,-0.003 0.796875,-0.04106 0.97527,-0.112812 1.317734,-0.17066 1.960937,-0.331238 2.023875,-0.505265 3.854155,-1.294425 9.140625,-3.941154 2.347605,-1.175354 3.593263,-1.791187 3.603122,-1.781327 0.0044,0.0044 -0.261347,0.144899 -0.590536,0.312234 -0.329187,0.167334 -1.066101,0.546804 -1.637586,0.843266 -3.293088,1.708313 -5.258545,2.670788 -6.839609,3.349325 -1.940276,0.832698 -3.625397,1.349015 -5.066641,1.552407 -0.581384,0.08205 -0.653366,0.08623 -1.492187,0.08664 -0.438281,2.19e-4 -0.903001,-0.0042 -1.032712,-0.0097 z"
         id="path2068"
         transform="matrix(0.26458333,0,0,0.26458333,0.11241379,0.09320379)" /><path
         style="fill:#000000;fill-opacity:1;stroke-width:0.00383858;stroke-dasharray:none"
         d="m 28.789062,24.356633 c 0,-0.01105 0.487675,-0.576281 0.718874,-0.833196 0.734359,-0.816038 1.487047,-1.569412 2.399584,-2.401771 0.172838,-0.157652 0.137967,-0.138554 0.826855,-0.452846 2.653742,-1.210719 5.167628,-1.96737 7.359375,-2.215088 0.120312,-0.0136 0.241602,-0.0284 0.269531,-0.0329 0.04613,-0.0074 0.05078,-0.0045 0.05078,0.03159 0,0.03381 -0.0071,0.03977 -0.04707,0.03977 -0.133621,0 -0.839638,0.09088 -1.288867,0.165905 -1.625436,0.271462 -3.945681,1.009375 -5.914518,1.881007 -0.768931,0.340417 -1.115084,0.556513 -1.616454,1.009119 -0.730736,0.659664 -1.709229,1.67509 -2.468003,2.561157 -0.158389,0.184961 -0.223971,0.250773 -0.252086,0.25297 -0.0209,0.0016 -0.038,-9.37e-4 -0.038,-0.0057 z"
         id="path2070"
         transform="matrix(0.26458333,0,0,0.26458333,0.11241379,0.09320379)" /><path
         style="fill:#000000;fill-opacity:1;stroke-width:0.00383858;stroke-dasharray:none"
         d="m 40.414062,18.451662 c 0,-0.02648 0.0088,-0.0376 0.0296,-0.0376 0.01628,0 0.09889,-0.007 0.183594,-0.01547 0.310152,-0.03116 0.932383,-0.06289 1.431343,-0.07298 0.509092,-0.0103 0.511718,-0.01019 0.511718,0.02173 0,0.03088 -0.01097,0.03244 -0.292968,0.0416 -0.889071,0.02887 -1.739327,0.07249 -1.835938,0.09418 -0.02017,0.0045 -0.02734,-0.0037 -0.02734,-0.03146 z"
         id="path2072"
         transform="matrix(0.26458333,0,0,0.26458333,0.11241379,0.09320379)" /><path
         style="fill:#000000;fill-opacity:1;stroke-width:0.00383858;stroke-dasharray:none"
         d=""
         id="path2074"
         transform="matrix(0.26458333,0,0,0.26458333,0.11241379,0.09320379)" /><path
         style="fill:#000000;fill-opacity:1;stroke-width:0.00383858;stroke-dasharray:none"
         d=""
         id="path2076"
         transform="matrix(0.26458333,0,0,0.26458333,0.11241379,0.09320379)" /><path
         style="fill:#000000;fill-opacity:1;stroke-width:0.000959646;stroke-dasharray:none"
         d="m 41.803451,30.692707 c 0.0014,-0.01452 -0.02055,-0.0035 0.350846,-0.175998 1.439233,-0.668461 2.522959,-1.125497 3.370006,-1.421222 0.172154,-0.0601 0.40757,-0.136573 0.830154,-0.269659 0.214287,-0.06749 0.389629,-0.124593 0.389648,-0.126903 0,-0.0023 -0.06848,-0.169871 -0.152228,-0.372359 -0.200351,-0.484431 -0.231162,-0.564323 -0.281866,-0.730863 -0.07081,-0.232581 -0.116545,-0.495663 -0.132076,-0.759766 -0.0023,-0.03867 -0.005,-0.07954 -0.0061,-0.09082 -0.0019,-0.01952 -0.0015,-0.02051 0.0073,-0.02051 0.0088,0 0.0094,0.0017 0.01192,0.03223 0.0076,0.09154 0.03485,0.267647 0.06145,0.397461 0.05072,0.247479 0.140997,0.552337 0.243497,0.822265 0.122374,0.322266 0.281838,0.628814 0.404557,0.777708 l 0.02284,0.02771 -0.04957,4.64e-4 c -0.06292,5.89e-4 -0.121204,0.0082 -0.229415,0.03005 -0.793734,0.160092 -2.662417,0.884758 -4.628747,1.795005 -0.103125,0.04774 -0.19333,0.0893 -0.200455,0.09235 l -0.01296,0.0056 z"
         id="path2078"
         transform="matrix(0.26458333,0,0,0.26458333,0.11241379,0.09320379)" /><path
         style="fill:#000000;fill-opacity:1;stroke-width:0.000959646;stroke-dasharray:none"
         d="m 37.224609,32.920315 c 0,-0.0027 1.057211,-0.531089 1.510772,-0.755008 1.285894,-0.634832 1.924622,-0.944163 3.020073,-1.462598 0.02448,-0.01159 0.04514,-0.02107 0.0459,-0.02107 0.0026,0 0.0013,0.01758 -0.0017,0.02224 -0.0016,0.0026 -0.07763,0.03968 -0.168886,0.08248 -0.606385,0.284418 -1.101709,0.525352 -1.794642,0.872942 -0.225484,0.113107 -0.410592,0.205028 -0.411351,0.204269 -7.59e-4,-7.59e-4 0.0264,-0.01578 0.06036,-0.03337 0.07545,-0.0391 0.187924,-0.100281 0.198175,-0.107801 0.01919,-0.01408 -0.002,-0.0082 -0.05126,0.0141 -0.157701,0.07157 -1.007758,0.489282 -1.669163,0.820204 -0.395457,0.197859 -0.738282,0.366704 -0.738282,0.36361 z"
         id="path2080"
         transform="matrix(0.26458333,0,0,0.26458333,0.11241379,0.09320379)" /><path
         style="fill:#000000;fill-opacity:1;stroke-width:0.0039124;stroke-dasharray:none"
         d=""
         id="path2142"
         transform="matrix(0.26458333,0,0,0.26458333,0.11241379,0.09320379)" /><path
         style="fill:#000000;fill-opacity:1;stroke-width:0.0039124;stroke-dasharray:none"
         d="m 46.167422,26.643555 c -0.0051,-0.123007 -0.0038,-0.629392 0.0019,-0.725586 0.01964,-0.333696 0.06369,-0.532073 0.180416,-0.8125 0.0461,-0.110756 0.155381,-0.343905 0.209642,-0.447266 0.207348,-0.394971 0.572843,-0.874194 0.991431,-1.299928 l 0.08203,-0.08343 0.02772,0.0012 0.02772,0.0012 -0.04099,0.03711 c -0.02254,0.02041 -0.09573,0.0916 -0.162637,0.158203 -0.27599,0.274726 -0.428817,0.458443 -0.617397,0.742188 -0.231225,0.347912 -0.401588,0.693439 -0.520977,1.05664 -0.105509,0.320977 -0.156566,0.599073 -0.172837,0.941407 -0.0048,0.10002 -0.0026,0.295963 0.0042,0.388671 0.0099,0.134537 0.0098,0.123047 0.0011,0.123047 -0.0076,0 -0.0081,-0.0033 -0.01128,-0.08105 z"
         id="path2144"
         transform="matrix(0.26458333,0,0,0.26458333,0.11241379,0.09320379)" /><path
         style="fill:#000000;fill-opacity:1;stroke-width:0.0039124;stroke-dasharray:none"
         d="m 47.640953,23.272015 c -0.0023,-0.0036 0.08563,-0.09097 0.178295,-0.17717 0.317122,-0.294993 0.650701,-0.552524 0.930752,-0.718563 0.03437,-0.02038 0.16709,-0.09566 0.294922,-0.167287 0.127832,-0.07163 0.23296,-0.13062 0.233617,-0.131095 6.57e-4,-4.75e-4 -0.155598,-0.314388 -0.347234,-0.697585 -0.191635,-0.383197 -0.372664,-0.746379 -0.402286,-0.807073 l -0.05386,-0.110351 h 0.02687 0.02687 l 0.09548,0.193103 0.09548,0.193104 -0.0037,0.01749 c -0.0072,0.03381 0.0099,0.06581 0.0412,0.07713 0.0116,0.0042 0.01734,0.01363 0.06484,0.106614 0.170456,0.333649 0.282281,0.548885 0.434397,0.836111 0.07197,0.135895 0.0958,0.184164 0.09213,0.186588 -0.0027,0.0018 -0.03572,0.02198 -0.07332,0.04484 -0.483979,0.294279 -0.908579,0.589257 -1.251954,0.869757 -0.07827,0.06394 -0.232105,0.195634 -0.289761,0.24806 l -0.04367,0.03971 h -0.02348 c -0.01292,0 -0.02442,-0.0015 -0.02557,-0.0034 z"
         id="path2146"
         transform="matrix(0.26458333,0,0,0.26458333,0.11241379,0.09320379)" /><path
         style="fill:#000000;fill-opacity:1;stroke-width:0.0039124;stroke-dasharray:none"
         d="m 48.447063,20.40625 c -0.01493,-0.03115 -0.03963,-0.08257 -0.05488,-0.114258 -0.247521,-0.514083 -0.481374,-1.038057 -0.566015,-1.268224 -0.01833,-0.04984 -0.117181,-0.361198 -0.117181,-0.369087 0,-0.0023 0.0091,-0.0036 0.02186,-0.0032 l 0.02186,8.15e-4 0.01346,0.04492 c 0.09865,0.329189 0.348627,0.911507 0.721468,1.680664 l 0.04118,0.08496 h -0.02731 -0.02731 z"
         id="path2148"
         transform="matrix(0.26458333,0,0,0.26458333,0.11241379,0.09320379)" /><path
         style="fill:#000000;fill-opacity:1;stroke-width:0.0039124;stroke-dasharray:none"
         d=""
         id="path2150"
         transform="matrix(0.26458333,0,0,0.26458333,0.11241379,0.09320379)" /><path
         style="fill:#000000;fill-opacity:1;stroke-width:0.0039124;stroke-dasharray:none"
         d=""
         id="path2152"
         transform="matrix(0.26458333,0,0,0.26458333,0.11241379,0.09320379)" /><path
         style="fill:#000000;fill-opacity:1;stroke-width:0.0039124;stroke-dasharray:none"
         d="m 47.708483,18.646373 c -0.02214,-0.0037 -0.02925,-0.0073 -0.06395,-0.03252 -0.02613,-0.01899 -0.03349,-0.02523 -0.07123,-0.06033 -0.02539,-0.02361 -0.138476,-0.08057 -0.188256,-0.09481 -0.02271,-0.0065 -0.04332,-0.01249 -0.0458,-0.01332 -0.0032,-0.0011 -0.0025,-0.0084 0.0026,-0.02618 0.04297,-0.149708 0.06064,-0.206321 0.06442,-0.206321 0.01264,0 0.106483,0.03055 0.14013,0.04563 0.108939,0.0488 0.134782,0.06462 0.219257,0.134207 0.01074,0.0088 0.02782,0.02214 0.03795,0.02953 0.02325,0.01697 0.03917,0.04 0.04959,0.07175 0.0082,0.02499 0.01108,0.06264 0.0048,0.06264 -0.0019,0 -0.0063,0.0078 -0.01,0.01726 -0.01985,0.05197 -0.07879,0.08259 -0.139504,0.07248 z m -0.06024,-0.07629 c 0.05675,-0.0054 0.06828,-0.01338 0.01875,-0.01298 -0.03524,2.9e-4 -0.04004,0.0011 -0.04004,0.0071 0,0.0086 0.0038,0.01248 0.0091,0.0092 0.0023,-0.0014 0.0077,-0.0029 0.01215,-0.0033 z"
         id="path2154"
         transform="matrix(0.26458333,0,0,0.26458333,0.11241379,0.09320379)" /><path
         style="fill:#000000;fill-opacity:1;stroke-width:0.0039124;stroke-dasharray:none"
         d="m 47.708483,18.646373 c -0.0099,-0.0017 -0.02225,-0.0052 -0.02734,-0.0078 -0.01858,-0.0097 -0.05771,-0.0392 -0.09395,-0.07091 -0.02936,-0.0257 -0.04924,-0.03883 -0.09532,-0.06293 -0.05186,-0.02713 -0.07245,-0.03515 -0.152626,-0.05944 -0.005,-0.0015 -0.0058,0.0017 0.03612,-0.141928 l 0.02664,-0.0912 0.01269,0.0021 c 0.03412,0.0055 0.121936,0.03823 0.181909,0.06772 0.06746,0.03318 0.08811,0.04557 0.122154,0.07331 0.01074,0.0088 0.02422,0.01942 0.02994,0.0237 0.04853,0.03631 0.07504,0.0593 0.08489,0.07361 0.01472,0.02139 0.02775,0.0598 0.02775,0.0818 0,0.02032 -0.01759,0.05594 -0.03865,0.07824 -0.02582,0.02736 -0.07157,0.04089 -0.1142,0.03379 z m -0.03362,-0.08039 c 0.01242,-0.0014 0.02368,-0.0043 0.02503,-0.0065 0.0026,-0.0042 -0.06734,-0.0019 -0.07155,0.0023 -0.0049,0.0049 0.0037,0.01044 0.01348,0.0087 0.0058,-10e-4 0.02062,-0.003 0.03304,-0.0045 z"
         id="path2156"
         transform="matrix(0.26458333,0,0,0.26458333,0.11241379,0.09320379)" /><path
         style="fill:#000000;fill-opacity:1;stroke-width:0.0039124;stroke-dasharray:none"
         d="m 47.708605,18.646391 c -0.02925,-0.0049 -0.05781,-0.02301 -0.116808,-0.07418 -0.03484,-0.03021 -0.05219,-0.04144 -0.113366,-0.07335 -0.033,-0.01721 -0.06818,-0.03208 -0.09375,-0.03962 -0.02251,-0.0066 -0.04296,-0.01281 -0.04544,-0.01371 -0.0032,-0.0012 -0.0023,-0.0098 0.0034,-0.03022 0.007,-0.0252 0.05079,-0.177582 0.05619,-0.195577 0.0031,-0.01029 0.01451,-0.0086 0.07572,0.01128 0.07661,0.02487 0.190424,0.08154 0.235884,0.117449 0.01848,0.0146 0.05124,0.04036 0.0728,0.05723 0.02156,0.01688 0.04431,0.03812 0.05055,0.0472 0.0145,0.02108 0.02751,0.05958 0.02751,0.08145 0,0.02025 -0.01747,0.05571 -0.03865,0.07844 -0.02526,0.02712 -0.07143,0.04072 -0.114078,0.03361 z m -0.0126,-0.08722 c 0.0032,-0.0033 -0.06535,7.1e-4 -0.06894,0.004 -0.001,9.32e-4 3.18e-4,0.003 0.003,0.0047 0.0056,0.0035 0.0613,-0.0038 0.06598,-0.0087 z"
         id="path2158"
         transform="matrix(0.26458333,0,0,0.26458333,0.11241379,0.09320379)" /><path
         style="fill:#000000;fill-opacity:1;stroke-width:0.0039124;stroke-dasharray:none"
         d="m 47.708605,18.646391 c -0.03006,-0.005 -0.05624,-0.02141 -0.11476,-0.07185 -0.01724,-0.01486 -0.04013,-0.03263 -0.05088,-0.03948 -0.04101,-0.02617 -0.129785,-0.06802 -0.166016,-0.07826 -0.02041,-0.0058 -0.03823,-0.01113 -0.0396,-0.01192 -0.0014,-7.89e-4 8.17e-4,-0.01332 0.0049,-0.02784 0.05657,-0.203126 0.05691,-0.204141 0.06809,-0.204141 0.0052,0 0.0344,0.0082 0.0649,0.01819 0.07476,0.02451 0.189341,0.08143 0.233955,0.116226 0.124892,0.09739 0.129145,0.101706 0.144088,0.146063 0.01149,0.03411 0.01052,0.05363 -0.004,0.08128 -0.0067,0.01266 -0.01853,0.02982 -0.02637,0.03814 -0.02559,0.02717 -0.07163,0.04071 -0.114235,0.03361 z m -0.01329,-0.0867 c 0.0027,-0.0028 -0.002,-0.0033 -0.01519,-0.0016 -0.0105,0.0014 -0.02589,0.0025 -0.03418,0.0025 -0.0085,0 -0.01508,0.0019 -0.01508,0.0044 0,0.0055 0.0587,7.68e-4 0.06445,-0.0052 z"
         id="path2160"
         transform="matrix(0.26458333,0,0,0.26458333,0.11241379,0.09320379)" /><path
         style="fill:#000000;fill-opacity:1;stroke-width:0.0039124;stroke-dasharray:none"
         d="m 47.708207,18.646453 c -0.02693,-0.0047 -0.05184,-0.01978 -0.106477,-0.06466 -0.02684,-0.02205 -0.05914,-0.04637 -0.07177,-0.05404 -0.03872,-0.02352 -0.125908,-0.06342 -0.158871,-0.07269 -0.01719,-0.0048 -0.03237,-0.0094 -0.03374,-0.01021 -0.0014,-7.75e-4 7.74e-4,-0.01329 0.0048,-0.02782 0.05596,-0.203567 0.05615,-0.204141 0.06888,-0.204141 0.0055,0 0.03452,0.0082 0.06453,0.01816 0.07937,0.02641 0.213239,0.09388 0.240633,0.12127 0.0029,0.0029 0.01166,0.01 0.01953,0.01584 0.04495,0.03335 0.09002,0.07216 0.09923,0.08546 0.0145,0.02093 0.0264,0.05735 0.0264,0.0808 0,0.03627 -0.03677,0.08751 -0.07422,0.103456 -0.02165,0.0092 -0.05453,0.01279 -0.0789,0.0086 z m -0.01526,-0.08605 c 0.0042,-0.0026 -0.004,-0.003 -0.02498,-0.0013 -0.01719,0.0014 -0.03293,0.004 -0.03498,0.0059 -0.005,0.0046 0.05193,3.26e-4 0.05996,-0.0045 z"
         id="path2162"
         transform="matrix(0.26458333,0,0,0.26458333,0.11241379,0.09320379)" /><path
         style="fill:#000000;fill-opacity:1;stroke-width:0.0039124;stroke-dasharray:none"
         d="m 47.708207,18.646453 c -0.02546,-0.0044 -0.05077,-0.01909 -0.09558,-0.0555 -0.09271,-0.07531 -0.149529,-0.105576 -0.273325,-0.145579 -0.0045,-0.0015 0.0077,-0.05276 0.03394,-0.14264 0.02433,-0.08333 0.02698,-0.08984 0.03655,-0.08984 0.0443,0 0.261895,0.09691 0.299266,0.133283 0.0032,0.0031 0.02418,0.01964 0.04666,0.03676 0.08038,0.06122 0.100541,0.0891 0.104678,0.144701 0.0015,0.02014 1.76e-4,0.02687 -0.0087,0.04446 -0.01433,0.02829 -0.04152,0.05632 -0.0637,0.0657 -0.02227,0.0094 -0.05487,0.01295 -0.07974,0.0087 z m -0.01659,-0.08624 c 0.0018,-0.003 -0.0042,-0.0034 -0.02028,-0.0015 -0.02991,0.0036 -0.03146,0.0057 -0.0042,0.0057 0.01205,0 0.02308,-0.0019 0.02453,-0.0042 z"
         id="path2164"
         transform="matrix(0.26458333,0,0,0.26458333,0.11241379,0.09320379)" /><path
         style="fill:#000000;fill-opacity:1;stroke-width:0.0039124;stroke-dasharray:none"
         d="m 47.705947,18.646375 c -0.02468,-0.0051 -0.05019,-0.02034 -0.09941,-0.05955 -0.02422,-0.0193 -0.05371,-0.04165 -0.06553,-0.04967 -0.03416,-0.02319 -0.12047,-0.06522 -0.160526,-0.07817 -0.02021,-0.0065 -0.03875,-0.0126 -0.0412,-0.01347 -0.0031,-0.0011 -9.43e-4,-0.01509 0.0071,-0.04582 0.01516,-0.05822 0.03258,-0.119083 0.04481,-0.156535 0.0091,-0.02788 0.01072,-0.03027 0.02046,-0.03027 0.0388,0 0.222694,0.07933 0.279074,0.120382 0.04561,0.03322 0.07452,0.05577 0.108773,0.08485 0.04155,0.03528 0.05785,0.06377 0.0609,0.106436 0.0017,0.02333 6.09e-4,0.02914 -0.0087,0.04743 -0.01437,0.02836 -0.04153,0.05641 -0.06376,0.06585 -0.02211,0.0094 -0.05906,0.01324 -0.082,0.0085 z m -0.01454,-0.08583 c 0.0028,-0.0046 -0.0058,-0.0047 -0.02734,-2.24e-4 l -0.01563,0.0032 0.02028,4.49e-4 c 0.01115,2.47e-4 0.02136,-0.0013 0.02269,-0.0035 z"
         id="path2166"
         transform="matrix(0.26458333,0,0,0.26458333,0.11241379,0.09320379)" /></g><path
       style="fill:#007cc7;fill-opacity:1;stroke-width:0.202214"
       d="m 62.998744,89.840225 c -0.75184,-0.113025 -0.82976,-0.401461 -0.42955,-1.590152 2.3369,-6.940991 6.36801,-14.273748 10.72404,-19.507472 3.44997,-4.145111 4.79778,-5.159248 9.02793,-6.792934 3.39432,-1.310885 6.17403,-1.898478 9.85886,-2.084026 3.64812,-0.183699 8.926956,-0.0076 9.042686,0.301591 0.0401,0.107068 0.56361,1.286623 1.16343,2.621234 l 1.09057,2.426565 -0.54245,0.386551 c -1.04806,0.746849 -3.022366,2.92587 -3.448416,3.805961 -0.53082,1.096526 -0.60425,4.060628 -0.13365,5.394472 0.28687,0.81307 0.28174,0.847705 -0.15166,1.023959 -0.24671,0.100333 -1.26753,0.516568 -2.26849,0.924966 -1.00096,0.408398 -6.46073,3.042271 -12.13282,5.853052 -11.25935,5.57952 -13.1912,6.426808 -15.95295,6.996782 -1.69869,0.350578 -4.37838,0.460309 -5.84753,0.239451 z"
       id="path7961" /></g><line
     class="st6"
     x1="-4.0999999"
     y1="114.7"
     x2="250.89999"
     y2="114.7"
     id="line17694"
     style="stroke:#fcfcfc;stroke-opacity:1" /><path
     class="st0"
     d="m 6.5,93.5 c -4.7,0 -8.5,3.8 -8.5,8.5 0,4.7 5.2,8.6 8.5,11.6 2.7,-2.7 8.5,-7 8.5,-11.6 0,-4.7 -3.8,-8.5 -8.5,-8.5 z m 3.3,11.6 H 7.9 v -2.2 H 5 v 2.2 H 3.1 V 98.9 H 5 v 2.2 h 2.9 v -2.2 h 1.9 z"
     id="path17698"
     style="fill:#007cc7;fill-opacity:1" /><g
     class="st4"
     id="g23368"
     style="enable-background:new;fill:#fcfcfc;fill-opacity:1"
     transform="translate(-16.65489,3.2406861)">
			<path
   d="m 199.4,84.7 h -1.2 V 80 h -5.3 v 4.7 h -1.2 v -10 h 1.2 V 79 h 5.3 v -4.3 h 1.2 z"
   id="path23358"
   style="fill:#fcfcfc;fill-opacity:1" />
			<path
   d="m 208.4,80.9 c 0,1.2 -0.3,2.2 -0.9,2.9 -0.6,0.7 -1.5,1 -2.5,1 -0.7,0 -1.3,-0.2 -1.8,-0.5 -0.5,-0.3 -0.9,-0.8 -1.2,-1.4 -0.3,-0.6 -0.4,-1.3 -0.4,-2.1 0,-1.2 0.3,-2.2 0.9,-2.9 0.6,-0.7 1.5,-1 2.5,-1 1,0 1.9,0.3 2.5,1 0.6,0.9 0.9,1.9 0.9,3 z m -5.7,0 c 0,1 0.2,1.7 0.6,2.2 0.4,0.5 0.9,0.8 1.7,0.8 0.7,0 1.3,-0.2 1.7,-0.8 0.4,-0.5 0.6,-1.2 0.6,-2.2 0,-1 -0.2,-1.7 -0.6,-2.2 -0.4,-0.5 -1,-0.7 -1.7,-0.7 -0.7,0 -1.3,0.2 -1.7,0.7 -0.4,0.6 -0.6,1.3 -0.6,2.2 z"
   id="path23360"
   style="fill:#fcfcfc;fill-opacity:1" />
			<path
   d="m 212.1,84.7 -2.8,-7.5 h 1.2 l 1.6,4.4 c 0.4,1 0.6,1.7 0.6,2 v 0 c 0.1,-0.2 0.2,-0.7 0.5,-1.5 0.3,-0.8 0.9,-2.4 1.8,-5 h 1.2 l -2.8,7.5 h -1.3 z"
   id="path23362"
   style="fill:#fcfcfc;fill-opacity:1" />
			<path
   d="m 220.6,84.8 c -1.1,0 -2,-0.3 -2.6,-1 -0.6,-0.7 -1,-1.6 -1,-2.8 0,-1.2 0.3,-2.2 0.9,-2.9 0.6,-0.7 1.4,-1.1 2.4,-1.1 0.9,0 1.7,0.3 2.2,0.9 0.5,0.6 0.8,1.4 0.8,2.4 V 81 h -5.2 c 0,0.9 0.2,1.5 0.7,2 0.4,0.5 1,0.7 1.8,0.7 0.8,0 1.6,-0.2 2.4,-0.5 v 1 c -0.4,0.2 -0.8,0.3 -1.1,0.4 -0.4,0.2 -0.8,0.2 -1.3,0.2 z M 220.3,78 c -0.6,0 -1.1,0.2 -1.4,0.6 -0.4,0.4 -0.6,0.9 -0.6,1.6 h 3.9 c 0,-0.7 -0.2,-1.3 -0.5,-1.6 -0.4,-0.4 -0.8,-0.6 -1.4,-0.6 z"
   id="path23364"
   style="fill:#fcfcfc;fill-opacity:1" />
			<path
   d="m 228.7,77.1 c 0.3,0 0.6,0 0.9,0.1 l -0.2,1.1 c -0.3,-0.1 -0.6,-0.1 -0.8,-0.1 -0.6,0 -1.1,0.2 -1.6,0.7 -0.5,0.5 -0.6,1.1 -0.6,1.8 v 4 h -1.1 v -7.5 h 0.9 l 0.1,1.4 h 0.1 c 0.3,-0.5 0.6,-0.9 1,-1.1 0.4,-0.3 0.8,-0.4 1.3,-0.4 z"
   id="path23366"
   style="fill:#fcfcfc;fill-opacity:1" />
		</g><path
     class="st0"
     d="m 170.14511,108.87009 v 0 c 0.2,-0.17594 0.3,-0.35187 0.3,-0.61578 0,-0.5278 -0.5,-0.87968 -1,-0.87968 -0.3,0 -0.6,0.088 -0.7,0.26391 v 0 l -3,2.90294 -3,-2.90294 v 0 c -0.2,-0.17594 -0.5,-0.26391 -0.7,-0.26391 -0.6,0 -1,0.43984 -1,0.87968 0,0.26391 0.1,0.43984 0.3,0.61578 v 0 l 3.7,3.60669 c 0.2,0.17594 0.5,0.26391 0.8,0.26391 0.3,0 0.6,-0.088 0.8,-0.26391 z"
     id="path23370"
     style="fill:#007cc7;fill-opacity:1;stroke-width:0.937913" /><path
     class="st0"
     d="m 161.24511,70.779908 v 0 c -0.2,0.175936 -0.3,0.351872 -0.3,0.615777 0,0.527808 0.5,0.879681 1,0.879681 0.3,0 0.6,-0.08797 0.7,-0.263905 v 0 l 3,-2.902947 3,2.902947 v 0 c 0.2,0.175936 0.5,0.263905 0.7,0.263905 0.6,0 1,-0.439841 1,-0.879681 0,-0.263905 -0.1,-0.439841 -0.3,-0.615777 v 0 l -3.7,-3.606692 c -0.2,-0.175936 -0.5,-0.263904 -0.8,-0.263904 -0.3,0 -0.6,0.08797 -0.8,0.263904 z"
     id="path23372"
     style="fill:#007cc7;fill-opacity:1;stroke-width:0.937913" /><line
     class="st5"
     x1="165.64511"
     y1="73.243011"
     x2="165.64511"
     y2="106.67088"
     id="line23374"
     style="fill:#007cc7;fill-opacity:1;stroke:#007cc7;stroke-width:1.87583;stroke-linecap:round;stroke-miterlimit:10;stroke-opacity:1;stroke-dasharray:none;stroke-dashoffset:0"
     inkscape:transform-center-x="0.60664122"
     inkscape:transform-center-y="10.110687" /></g><path
   style="fill:#ffffff;stroke:#000000;stroke-width:0.0179015"
   d="m 167.54467,40.294069 c -1.40954,-0.04277 -2.41948,-0.155758 -2.9536,-0.330446 -0.21611,-0.07068 -0.31845,-0.127053 -0.40543,-0.223327 -0.2712,-0.30019 0.30186,-0.606179 1.51808,-0.810582 0.85568,-0.143809 2.07181,-0.262563 3.40487,-0.332482 0.21135,-0.01109 0.48349,-0.02562 0.60475,-0.0323 l 0.22047,-0.01214 -0.12214,-0.08937 c -0.18468,-0.135127 -0.4065,-0.323126 -0.67108,-0.568751 -0.72537,-0.673411 -1.35754,-1.53129 -1.36219,-1.848531 l -0.001,-0.09375 -0.0804,0.009 c -0.0781,0.0088 -1.06911,0.0607 -1.86776,0.09791 -2.85594,0.133046 -5.6421,0.139706 -7.48893,0.0179 -3.04755,-0.200999 -5.59868,-0.698623 -7.56042,-1.474737 -0.74775,-0.295826 -1.62646,-0.734388 -1.93032,-0.963419 -0.16795,-0.126589 -0.46721,-0.376187 -0.64791,-0.540388 l -0.14746,-0.133993 v -0.97275 c 0,-0.535012 0.004,-0.972749 0.009,-0.972749 0.005,0 0.0594,0.03908 0.12064,0.08685 0.16098,0.125591 0.42281,0.302489 0.63859,0.431455 0.34046,0.203486 1.05652,0.548147 1.09255,0.52588 0.009,-0.0053 0.0156,-0.0016 0.0156,0.0082 0,0.03955 0.7265,0.423292 1.18623,0.626569 1.14642,0.50691 2.64829,0.934896 4.29194,1.223066 2.38101,0.417446 4.85424,0.568135 8.88305,0.541227 2.44717,-0.01635 3.73039,-0.05032 8.18599,-0.216761 3.00088,-0.112097 3.50244,-0.127186 5.12071,-0.154053 2.8547,-0.0474 5.83314,0.04428 7.9062,0.243349 0.25408,0.0244 0.46923,0.04436 0.47812,0.04436 0.009,0 0.0161,0.13362 0.0161,0.301083 v 0.301084 l -0.8177,0.01227 c -2.97684,0.04468 -5.87941,0.161781 -8.49431,0.342685 -0.35881,0.02482 -1.4607,0.104964 -2.44865,0.17809 -2.02072,0.149571 -2.99428,0.219662 -3.95894,0.285025 -0.76639,0.05193 -2.04919,0.134601 -2.09534,0.135038 -0.0174,1.6e-4 0.0346,0.03585 0.11556,0.0793 0.72273,0.388052 1.76173,1.375975 2.28475,2.172439 0.0613,0.09339 0.13013,0.208294 0.1529,0.255345 l 0.0414,0.08555 0.21507,-0.01039 c 0.62762,-0.03032 1.78143,-0.04769 3.77187,-0.05678 2.82276,-0.0129 4.38069,0.0077 8.36472,0.110748 2.42709,0.06276 2.40905,0.06226 2.64972,0.07356 l 0.21895,0.01028 v 0.334244 0.334245 l -0.36193,0.02981 c -0.19907,0.01639 -1.14211,0.09418 -2.09565,0.172848 -5.08344,0.419406 -8.33921,0.626312 -11.54618,0.733766 -1.55974,0.05226 -3.39539,0.06648 -4.45046,0.03446 z"
   id="path5611"
   transform="translate(-9,23.6)" /><path
   style="fill:#ffffff;stroke:#000000;stroke-width:0.050633"
   d="m 186.01136,38.97808 v -0.340241 l 0.34124,0.02936 c 0.18767,0.01615 1.08057,0.04158 1.98422,0.05651 0.90364,0.01494 1.85341,0.04028 2.1106,0.05632 0.25719,0.01604 0.46656,0.01 0.46527,-0.01347 -0.001,-0.02345 -0.47334,-0.198334 -1.04898,-0.388637 -2.75837,-0.911884 -5.27516,-2.106088 -5.84732,-2.774523 -0.19931,-0.232854 -0.21513,-0.298854 -0.0994,-0.414602 0.41552,-0.415514 3.2714,0.9269 6.62426,3.113743 0.62965,0.410681 0.77305,0.524496 0.69701,0.553213 -0.0527,0.01989 -1.14219,0.118849 -2.42119,0.219919 -1.27901,0.10107 -2.43352,0.197012 -2.56559,0.213204 l -0.24013,0.02944 z"
   id="path5613"
   transform="translate(-9,23.6)" /><path
   style="fill:#ffffff;stroke:#000000;stroke-width:0.050633"
   d="m 188.00432,34.570188 c -0.0496,-0.331015 0.008,-1.37187 0.1057,-1.910415 0.17857,-0.983774 0.61151,-2.018014 1.13599,-2.71369 0.56843,-0.753966 1.61986,-1.586709 2.54034,-2.011972 0.93417,-0.431588 2.04838,-0.730314 3.43748,-0.921606 l 0.79532,-0.109523 -1e-4,-1.874755 c -1e-4,-1.690699 0.0396,-2.796513 0.13335,-3.710955 0.0282,-0.27485 0.0496,-0.325991 0.15285,-0.365261 0.0661,-0.02511 0.12206,-0.08604 0.12445,-0.135383 0.002,-0.04935 0.0247,-0.02147 0.0497,0.06194 0.0675,0.226188 0.1385,1.224924 0.17647,2.483941 l 0.0337,1.118998 0.2977,-0.06945 c 2.11281,-0.492885 9.76508,-1.027612 18.34509,-1.281921 0.93145,-0.02761 2.13146,-0.06424 2.66669,-0.08141 l 0.97316,-0.03121 v 1.478498 1.478497 l -5.01743,-0.0312 c -8.58435,-0.05337 -14.04765,-0.289421 -16.73652,-0.723118 -0.27293,-0.04402 -0.51179,-0.06451 -0.53081,-0.04554 -0.019,0.01898 -0.0422,0.530208 -0.0514,1.136073 l -0.0168,1.101571 -0.64036,0.164602 c -1.4393,0.369966 -2.6521,0.81275 -3.75704,1.371673 -0.91787,0.464294 -1.37312,0.768519 -1.88404,1.259026 -0.85504,0.820871 -1.25854,1.580748 -1.82093,3.429234 -0.38264,1.257648 -0.44644,1.373842 -0.5125,0.933355 z"
   id="path5615"
   transform="translate(-9,23.6)" /><path
   style="fill:#ffffff;stroke:#000000;stroke-width:0.050633"
   d="m 186.01136,34.684495 v -0.289078 l 0.24013,0.03206 c 0.61386,0.08197 1.39713,0.235537 1.58522,0.310797 0.32566,0.130306 0.15527,0.169422 -0.88935,0.204164 l -0.936,0.03113 z"
   id="path5617"
   transform="translate(-9,23.6)" /><path
   style="fill:#ffffff;stroke:#000000;stroke-width:0.050633"
   d="m 147.83689,32.715644 c -0.46266,-0.401332 -1.2514,-1.388517 -1.73565,-2.172342 l -0.24427,-0.3954 0.27562,-0.287072 c 0.15159,-0.157889 0.73694,-0.769657 1.30078,-1.359485 3.51899,-3.681173 8.07236,-7.464183 12.0841,-10.039666 l 0.52691,-0.338273 h 1.31704 1.31703 l -0.75705,0.435892 c -4.82682,2.779156 -9.90549,6.785788 -14.07504,11.103985 l -0.57457,0.595059 0.12156,0.134673 c 0.0669,0.07407 0.24204,0.249899 0.38929,0.390733 l 0.26772,0.25606 -0.0149,0.917534 -0.015,0.917534 z"
   id="path5619"
   transform="translate(-9,23.6)" /><path
   style="fill:#ffffff;stroke:#000000;stroke-width:0.050633"
   d="m 135.60959,6.8156033 c -5.97886,-0.069299 -10.36346,-0.2690567 -10.36346,-0.4721479 0,-0.4708654 16.76849,-1.1823404 38.67338,-1.6408833 18.55504,-0.3884194 40.2944,-0.6054048 50.86939,-0.5077386 l 4.1833,0.038635 V 4.8845348 5.535601 l -0.18958,4.803e-4 c -0.10426,2.628e-4 -0.67868,0.022493 -1.27647,0.049398 -10.89952,0.49055 -34.94227,1.0110441 -56.08904,1.2142544 -4.34343,0.041738 -22.60674,0.052969 -25.80752,0.01587 z"
   id="path5621"
   transform="translate(-9,23.6)" /><path
   style="fill:#ffffff;stroke:#000000;stroke-width:0.050633"
   d="m 134.32047,6.74931 c -4.70623,-0.076234 -8.73443,-0.2586464 -8.8875,-0.4024609 -0.13219,-0.1242092 2.46531,-0.3532639 6.30928,-0.5563675 12.23711,-0.6465728 34.43881,-1.1904125 59.95637,-1.4686557 7.30727,-0.079678 19.14411,-0.1185104 23.34305,-0.076579 l 3.87997,0.038746 v 0.6005276 c 0,0.5890351 -0.002,0.6005297 -0.11374,0.6006357 -0.0626,6.07e-5 -1.19433,0.04473 -2.51503,0.099268 -10.67248,0.4407148 -27.58825,0.818949 -49.9468,1.1168029 -4.92997,0.065676 -28.73326,0.101414 -32.0256,0.048083 z"
   id="path5623"
   transform="translate(-9,23.6)" /><path
   style="fill:#ffffff;stroke:#000000;stroke-width:0.050633"
   d="m 178.25666,11.389631 c -0.17116,-0.261223 -0.25116,-0.794452 -0.25254,-1.6833717 -0.001,-0.8960563 0.0577,-1.3548514 0.22309,-1.7314551 0.36296,-0.8265664 0.75,0.9360815 0.5521,2.5143758 -0.062,0.494413 -0.23585,0.977499 -0.36042,1.001488 -0.0469,0.009 -0.1199,-0.03643 -0.16223,-0.101037 z"
   id="path5625"
   transform="translate(-9,23.6)" /><path
   style="fill:#ffffff;stroke:#000000;stroke-width:0.050633"
   d="m 195.00959,19.922917 c -0.77507,-0.363729 -1.79968,-0.89567 -3.56374,-1.850176 -3.75943,-2.03417 -6.23768,-2.969165 -9.63043,-3.633367 -2.15631,-0.422145 -4.45942,-0.647762 -7.12803,-0.698277 l -1.59243,-0.03014 -0.70775,0.215091 c -2.72107,0.826955 -6.39111,2.380114 -8.97324,3.79747 l -0.68247,0.374615 -1.28911,-0.02528 -1.28911,-0.02528 0.88468,-0.539073 c 1.46809,-0.894563 2.62201,-1.526456 4.32232,-2.366926 2.31417,-1.143903 4.19485,-1.926244 6.46771,-2.690497 l 1.06475,-0.358027 1.16273,0.03201 c 3.86394,0.106364 7.53761,0.688146 10.59095,1.677241 2.29332,0.742896 4.21543,1.655923 6.57194,3.121755 1.09344,0.680157 4.75203,3.116283 4.75203,3.164209 0,0.02289 -0.0399,0.07775 -0.0888,0.121926 -0.082,0.07424 -0.148,0.05251 -0.87205,-0.287273 z"
   id="path5627"
   transform="translate(-9,23.6)" /><path
   style="fill:#ffffff;stroke:#000000;stroke-width:0.050633"
   d="m 195.31319,20.000129 c -0.65185,-0.293444 -1.5438,-0.748527 -3.13338,-1.598696 -1.74721,-0.934477 -3.16916,-1.649078 -4.13271,-2.076892 -2.63479,-1.169853 -5.34475,-1.895601 -8.65824,-2.318742 -1.3757,-0.175681 -4.00125,-0.330144 -5.62284,-0.330796 -0.74191,-2.98e-4 -0.74697,4.86e-4 -1.48728,0.230326 -2.77058,0.860172 -6.3024,2.367843 -9.19336,3.924482 l -0.40443,0.217765 -1.17492,-0.02528 -1.17493,-0.02528 0.97271,-0.580129 c 1.52329,-0.908494 2.26742,-1.312517 4.00592,-2.17499 2.43934,-1.21016 4.11081,-1.910625 6.46116,-2.707685 1.27354,-0.431886 1.16377,-0.420559 3.14399,-0.324428 3.73709,0.181418 7.16291,0.782082 10.04984,1.762081 2.02526,0.687493 3.79638,1.528738 5.89977,2.802268 1.02823,0.622557 5.00823,3.285261 4.99042,3.338696 -0.0324,0.0972 -0.11243,0.08055 -0.54172,-0.112706 z"
   id="path5629"
   transform="translate(-9,23.6)" /><path
   style="fill:#ffffff;stroke:#000000;stroke-width:0.050633"
   d="m 249.86035,36.180229 c -0.82584,-0.367851 -2.26221,-1.226167 -3.38518,-2.022852 -2.82239,-2.002328 -4.77142,-4.332925 -5.58521,-6.678635 -0.18628,-0.536961 -0.43255,-1.629685 -0.43255,-1.919281 0,-0.09954 -0.0304,-0.171195 -0.0808,-0.190545 -0.0444,-0.01705 -0.78947,0.0067 -1.65562,0.05288 -5.30119,0.282376 -14.11372,0.534375 -18.77562,0.536898 l -0.9226,4.99e-4 V 24.50022 23.041252 l 0.84677,-0.03222 c 0.46573,-0.01772 3.71315,-0.04666 7.2165,-0.06432 5.88239,-0.02965 11.16251,0.01745 12.89263,0.114996 l 0.5576,0.03144 0.40062,-0.844352 c 0.63136,-1.330662 1.10351,-1.985343 1.86748,-2.589448 0.41596,-0.328917 1.0811,-0.689119 1.38817,-0.751759 0.15593,-0.03181 0.11082,0.02495 -0.50905,0.640441 -0.96512,0.95831 -1.27251,1.424352 -1.85864,2.817867 -0.16819,0.399865 -0.3058,0.731894 -0.3058,0.737842 0,0.0059 0.4038,0.02628 0.89732,0.04518 1.16091,0.04446 3.20597,0.16843 4.23385,0.25666 0.44487,0.03819 0.81159,0.06578 0.81493,0.06132 0.003,-0.0045 -0.32653,-0.680378 -0.73303,-1.502044 -1.29065,-2.608805 -2.17986,-4.797253 -2.17986,-5.364852 0,-0.130901 0.0195,-0.250083 0.0434,-0.264849 0.0751,-0.04644 0.39382,0.23343 0.73271,0.643469 0.85281,1.031833 2.39424,3.482513 3.70177,5.885327 0.47419,0.871409 0.51168,0.924603 0.68638,0.973813 0.10163,0.02863 0.2366,0.09401 0.29992,0.145281 l 0.11513,0.09323 -0.14826,0.09303 c -0.0815,0.05116 -0.15482,0.09699 -0.16284,0.101844 -0.008,0.0048 0.19103,0.406129 0.44234,0.89173 l 0.45692,0.882911 -0.002,1.51222 c -10e-4,1.364254 -0.009,1.502328 -0.0785,1.411114 -0.21561,-0.283531 -1.46086,-2.393218 -2.09836,-3.555034 l -0.42504,-0.774594 -0.17693,0.02872 c -0.76326,0.123885 -3.69873,0.404722 -5.63671,0.539265 -0.47268,0.03282 -0.86458,0.06365 -0.87091,0.06852 -0.006,0.0049 0.0686,0.312638 0.16658,0.683921 0.57833,2.192337 1.52794,3.735607 3.53308,5.741809 0.97702,0.977538 1.48792,1.422929 3.38932,2.954749 1.38286,1.114064 1.76751,1.443539 1.87377,1.604973 0.068,0.103357 0.0667,0.113674 -0.0148,0.112963 -0.0493,-4.55e-4 -0.283,-0.08691 -0.51933,-0.192184 z"
   id="path5631"
   transform="translate(-9,23.6)" /><path
   style="fill:#ffffff;stroke:#000000;stroke-width:0.050633"
   d="M 219.02275,4.8770553 V 4.2179197 l 1.50397,0.028971 c 5.6702,0.1092263 8.2922,0.2200074 9.1088,0.3848519 0.3172,0.064034 0.27614,0.115605 -0.15759,0.1979369 -0.82043,0.1557327 -4.36953,0.4132746 -7.95278,0.5770966 -0.91755,0.041949 -1.85595,0.088228 -2.08533,0.1028428 l -0.41707,0.026572 z"
   id="path5633"
   transform="translate(-9,23.6)" /><path
   style="fill:#ffffff;stroke:#000000;stroke-width:0.050633"
   d="m 252.64016,31.690422 c -0.31606,-0.285542 -0.80256,-0.912066 -1.41553,-1.822972 -0.42462,-0.631007 -0.54433,-0.845227 -0.52261,-0.935238 0.0155,-0.06422 0.0429,-0.70823 0.0609,-1.431144 l 0.0327,-1.314389 0.51362,1.086899 c 1.31041,2.773075 1.9081,4.485987 1.6005,4.586872 -0.0328,0.01077 -0.15412,-0.06575 -0.26954,-0.170028 z"
   id="path5635"
   transform="translate(-9,23.6)" /><path
   style="fill:#ffffff;stroke:#000000;stroke-width:0.00447537"
   d="m 196.01467,23.25433 c 0,-0.04685 0.011,-0.383519 0.0179,-0.548488 0.0333,-0.795552 0.0965,-1.53834 0.14072,-1.655955 0.0126,-0.03342 0.0212,-0.04789 0.0413,-0.06929 l 0.0151,-0.01611 -0.0201,-0.0028 c -0.0288,-0.004 -0.0745,-0.0269 -0.10104,-0.05073 -0.0264,-0.02376 -0.0456,-0.05681 -0.0943,-0.162282 -0.0458,-0.09926 -0.0599,-0.122761 -0.12993,-0.216714 -0.0238,-0.03195 -0.0634,-0.07805 -0.0881,-0.102446 l -0.0447,-0.04436 0.0232,-0.02657 c 0.0128,-0.01461 0.0323,-0.0376 0.0433,-0.05109 0.0111,-0.01348 0.0247,-0.03004 0.0302,-0.0368 l 0.0101,-0.01228 -0.0234,0.0061 c -0.0302,0.0078 -0.0455,0.0076 -0.0875,-10e-4 -0.0879,-0.01815 -0.22734,-0.0755 -0.56176,-0.230978 -0.62953,-0.292683 -1.19251,-0.575346 -2.11353,-1.061179 -0.32251,-0.170123 -0.49642,-0.262919 -1.22528,-0.65376 l -0.16183,-0.08677 -1.5e-4,-0.02749 -1.5e-4,-0.02749 0.15304,0.08267 c 1.51109,0.816268 2.51773,1.334451 3.30992,1.70382 0.42498,0.198157 0.55665,0.251415 0.63741,0.257827 0.0271,0.0022 0.035,10e-4 0.0523,-0.0073 0.023,-0.01112 0.085,-0.07408 0.099,-0.100409 l 0.009,-0.01689 -0.0156,-0.01333 c -0.0265,-0.02261 -0.14741,-0.109173 -0.29937,-0.214374 -0.22721,-0.157291 -0.38893,-0.267272 -0.90261,-0.613837 -0.12841,-0.08663 -1.19133,-0.79478 -1.40752,-0.937726 -0.33442,-0.221117 -0.99476,-0.654763 -1.0333,-0.678568 -0.0117,-0.0072 -0.0212,-0.01394 -0.0212,-0.01496 0,-0.001 0.0187,-0.0019 0.0415,-0.0019 h 0.0415 l 0.19195,0.12569 c 1.48828,0.974539 3.21148,2.132751 3.41585,2.295895 0.0331,0.02644 0.0425,0.04272 0.0355,0.06132 -0.005,0.01199 -0.004,0.01207 0.004,0.0042 0.009,-0.0078 0.009,-0.0076 0.0282,0.0053 0.0294,0.02031 0.11655,0.11215 0.17053,0.179639 0.0671,0.08388 0.12066,0.165454 0.14409,0.219431 0.0109,0.02514 0.0216,0.04788 0.0238,0.05054 0.009,0.01156 0.0627,0.145221 0.0652,0.163459 0.005,0.0363 0.006,0.0392 0.0196,0.04386 0.0604,0.02105 0.10556,0.287947 0.14989,0.885551 0.0322,0.434189 0.0637,1.065612 0.0765,1.533756 l 0.003,0.106123 h -0.0224 -0.0224 l -0.003,-0.05027 c -0.001,-0.02765 -0.006,-0.138742 -0.01,-0.246875 -0.0301,-0.861153 -0.083,-1.638247 -0.13418,-1.970536 -0.0111,-0.07191 -0.0312,-0.162194 -0.0376,-0.168975 -0.002,-0.002 -0.009,0.0052 -0.015,0.01601 -0.0212,0.03614 -0.065,0.072 -0.12037,0.09852 -0.074,0.03545 -0.0907,0.05815 -0.11067,0.150512 -0.0276,0.127812 -0.0776,0.71031 -0.1048,1.22209 -0.0145,0.272417 -0.0336,0.768886 -0.0336,0.871884 0,0.02734 -0.001,0.05599 -0.003,0.06367 -0.003,0.01335 -0.004,0.01396 -0.0246,0.01396 h -0.0218 z m 0.14189,-2.470212 c -0.009,-0.0054 -0.0481,-0.01742 -0.0481,-0.0149 0,0.0041 0.0344,0.01876 0.0447,0.01908 0.01,3.03e-4 0.0101,-2.7e-4 0.003,-0.0042 z"
   id="path5637"
   transform="translate(-9,23.6)" /><path
   style="fill:#ffffff;stroke:#000000;stroke-width:0.00447537"
   d="m 196.39894,20.516045 c -0.0614,-0.0092 -0.058,-0.0071 -0.0827,-0.0514 -0.0123,-0.02208 -0.0326,-0.05517 -0.0452,-0.07353 -0.0816,-0.119168 -0.22783,-0.279617 -0.26292,-0.288424 -0.007,-0.0019 -0.0113,-0.0068 -0.0132,-0.01707 -0.004,-0.0218 -0.0268,-0.04081 -0.17242,-0.144023 -0.41476,-0.294088 -1.72696,-1.1754 -2.84186,-1.908682 -0.16588,-0.109106 -0.30362,-0.200497 -0.30608,-0.203091 -0.0126,-0.0133 0.0329,0.01568 0.31596,0.201423 1.88081,1.234006 2.91284,1.935272 3.31456,2.252249 0.11954,0.09432 0.20684,0.176217 0.21269,0.199523 0.008,0.03024 -0.0433,0.04438 -0.11885,0.03303 z"
   id="path5639"
   transform="translate(-9,23.6)" /><path
   style="fill:#ffffff;stroke:#000000;stroke-width:0.00447537"
   d="m 196.39,20.509647 c -0.0184,-0.0032 -0.0367,-0.0071 -0.0407,-0.0087 -0.004,-0.0016 -0.0197,-0.02401 -0.0351,-0.04978 -0.0154,-0.02578 -0.039,-0.06237 -0.0525,-0.08132 -0.0709,-0.09927 -0.19004,-0.23172 -0.23586,-0.262134 -0.0132,-0.0088 -0.0254,-0.02044 -0.027,-0.02594 -0.002,-0.0055 -0.008,-0.01553 -0.0145,-0.02229 -0.006,-0.0068 -0.01,-0.01229 -0.008,-0.01229 0.009,0 0.25476,0.18336 0.3612,0.269316 0.0757,0.06116 0.15483,0.135143 0.16902,0.1581 0.01,0.01568 0.01,0.01575 8.5e-4,0.02459 -0.0172,0.01721 -0.0576,0.0208 -0.11746,0.01046 z"
   id="path5641"
   transform="translate(-9,23.6)" /><path
   style="fill:#ffffff;stroke:#000000;stroke-width:0.00447537"
   d="m 196.49297,20.835844 c -0.0103,-0.03196 -0.0275,-0.05942 -0.0406,-0.06488 -0.0143,-0.0059 -0.0169,-0.0109 -0.0222,-0.0434 -0.002,-0.01286 -0.007,-0.02995 -0.0103,-0.03798 -0.004,-0.008 -0.007,-0.01762 -0.009,-0.0213 -10e-4,-0.0037 -0.0114,-0.02832 -0.0225,-0.05474 -0.0229,-0.05422 -0.0201,-0.06106 0.0117,-0.02904 0.0331,0.0333 0.061,0.09788 0.0887,0.205336 0.0131,0.05059 0.0159,0.08293 0.004,0.04601 z"
   id="path5643"
   transform="translate(-9,23.6)" /><path
   style="fill:#ffffff;stroke:#000000;stroke-width:0.00447537"
   d="m 195.63476,20.378312 c -0.22563,-0.118307 -2.35734,-1.231597 -2.88422,-1.506292 -0.43691,-0.227793 -0.9736,-0.50605 -1.0266,-0.532266 l -0.0391,-0.01934 v -0.03874 -0.03874 l 0.14857,0.08044 c 1.87269,1.013955 3.07068,1.620307 3.90075,1.974347 0.0313,0.01334 0.0569,0.026 0.057,0.02813 6e-5,0.0021 -0.0111,0.016 -0.0249,0.03083 l -0.0249,0.02695 0.0483,0.04849 c 0.0266,0.02667 0.0464,0.04841 0.0439,0.04832 -0.002,-9.2e-5 -0.0919,-0.04605 -0.19886,-0.102131 z"
   id="path5645"
   transform="translate(-9,23.6)" /><path
   style="fill:#ffffff;stroke:#000000;stroke-width:0.00447537"
   d="m 195.72913,20.187722 c -0.12633,-0.0274 -0.49293,-0.189378 -1.08394,-0.478923 -0.53771,-0.263434 -1.17118,-0.592422 -2.37052,-1.231128 -0.2814,-0.149855 -0.5292,-0.281785 -0.55068,-0.293177 l -0.039,-0.02071 -5e-5,-0.02585 -4e-5,-0.02585 0.0413,0.02212 c 0.41979,0.224625 1.25533,0.668246 1.62089,0.860597 1.14019,0.599949 2.10505,1.06637 2.35691,1.139358 0.0504,0.0146 0.0943,0.01542 0.11124,0.0021 0.0214,-0.01684 0.019,-0.01973 -0.0782,-0.09226 -0.35726,-0.266591 -1.83627,-1.268484 -3.12942,-2.119896 -0.1622,-0.106793 -0.33211,-0.218663 -0.37758,-0.2486 l -0.0827,-0.05443 0.0406,-8e-5 0.0406,-8e-5 0.13141,0.0862 c 1.38809,0.910503 3.06867,2.0471 3.41997,2.312973 0.10195,0.07715 0.10646,0.08336 0.0875,0.120456 -0.0243,0.04755 -0.068,0.06248 -0.13834,0.04722 z"
   id="path5647"
   transform="translate(-9,23.6)" /><path
   style="fill:#ffffff;stroke:#000000;stroke-width:0.00447537"
   d="m 195.73361,20.183499 c -0.15387,-0.03468 -0.61288,-0.242134 -1.33648,-0.604026 -0.56493,-0.28253 -1.00841,-0.514652 -2.51679,-1.317297 l -0.19102,-0.101647 v -0.01969 -0.01969 l 0.019,0.0096 c 0.0104,0.0053 0.10846,0.05736 0.21783,0.115694 1.86199,0.993228 2.68008,1.412627 3.34901,1.716895 0.2764,0.12572 0.41869,0.180057 0.48489,0.185162 0.0576,0.0044 0.0856,-0.01643 0.0596,-0.04432 -0.089,-0.09535 -1.81457,-1.267497 -3.41936,-2.322688 l -0.23411,-0.153936 0.0297,-0.0013 c 0.0285,-0.0013 0.0309,-5.16e-4 0.0598,0.01825 0.28281,0.183609 1.46166,0.966963 1.91801,1.27453 0.90973,0.613132 1.49825,1.020328 1.64795,1.140218 0.0531,0.04249 0.0558,0.04821 0.0391,0.08016 -0.0223,0.04256 -0.0663,0.05781 -0.12717,0.04408 z"
   id="path5649"
   transform="translate(-9,23.6)" /><path
   style="fill:#ffffff;stroke:#000000;stroke-width:0.00447537"
   d="m 195.92731,23.278906 c 0.001,-0.0092 0.003,-0.063 0.005,-0.119528 0.0129,-0.52503 0.0587,-1.341851 0.0898,-1.604132 0.0128,-0.107726 0.0931,-0.613332 0.0982,-0.618459 0.002,-0.0021 0.0555,0.02229 0.0555,0.02537 0,9.82e-4 -0.007,0.04334 -0.0155,0.09413 -0.0722,0.430551 -0.12898,1.17335 -0.15641,2.045006 -10e-4,0.04424 -0.004,0.106067 -0.005,0.137402 l -0.003,0.05697 h -0.0353 -0.0353 z"
   id="path5651"
   transform="translate(-9,23.6)" /><path
   style="fill:#ffffff;stroke:#000000;stroke-width:0.00447537"
   d="m 195.85197,23.245393 c 0.001,-0.02765 0.004,-0.141758 0.006,-0.253578 0.0118,-0.525275 0.0334,-1.106711 0.0536,-1.438804 0.0119,-0.19567 0.0224,-0.305192 0.0381,-0.396838 0.0289,-0.168854 -0.002,-0.267652 -0.1214,-0.393708 -0.13221,-0.139044 -0.36841,-0.301669 -0.90923,-0.626009 -0.71859,-0.430958 -1.66279,-0.938278 -2.92512,-1.571682 l -0.30938,-0.155236 -6e-5,-0.04154 -5e-5,-0.04154 0.0681,0.03547 c 0.0375,0.01951 0.19783,0.102874 0.35635,0.185254 0.15851,0.08238 1.06637,0.556104 2.01745,1.052719 1.40823,0.735314 1.73194,0.905983 1.74374,0.919344 0.0426,0.04819 0.0891,0.123979 0.14015,0.228365 0.0558,0.114074 0.0697,0.138619 0.0898,0.158568 l 0.0123,0.01224 -0.0422,0.255856 c -0.054,0.327769 -0.0616,0.388365 -0.0826,0.662475 -0.0255,0.332951 -0.055,0.935676 -0.0656,1.341617 l -0.003,0.117294 h -0.0347 -0.0347 z"
   id="path5653"
   transform="translate(-9,23.6)" /><path
   style="fill:#ffffff;stroke:#000000;stroke-width:0.0039124"
   d="m 195.99419,25.331055 c 7e-5,-0.893439 0.008,-1.764614 0.0179,-1.980469 l 0.002,-0.05176 h 0.0155 c 0.009,0 0.0191,-0.002 0.0236,-0.0044 l 0.008,-0.0044 -0.003,0.102986 c -0.0111,0.435042 -0.0179,1.220927 -0.018,2.100055 l -6e-5,0.62207 h -0.0234 -0.0234 z"
   id="path5659"
   transform="translate(-9,23.6)" /><path
   style="fill:#ffffff;stroke:#000000;stroke-width:0.0039124"
   d="m 195.89422,25.99707 c 0.001,-0.06499 0.003,-0.28955 0.004,-0.499023 0.004,-0.670213 0.0103,-1.426926 0.013,-1.453382 l 0.003,-0.02565 0.0328,0.01511 0.0328,0.01511 -0.003,0.336635 -0.003,0.336634 -0.0108,0.01375 c -0.0376,0.04776 -0.0408,0.09825 -0.009,0.142406 0.0137,0.01913 0.014,0.02019 0.017,0.07038 0.002,0.02803 0.004,0.301887 0.005,0.608576 l 0.002,0.557617 h -0.0433 -0.0433 z"
   id="path5661"
   transform="translate(-9,23.6)" /><path
   style="fill:#ffffff;stroke:#000000;stroke-width:0.0039124"
   d="m 195.74984,26.102539 c 0.001,-0.007 0.006,-0.05225 0.01,-0.100586 0.0239,-0.272827 0.0434,-0.611647 0.0566,-0.980469 0.0116,-0.324462 0.0136,-0.422459 0.0255,-1.21289 0.002,-0.143946 0.005,-0.31753 0.006,-0.385742 l 0.003,-0.124024 h 0.0347 0.0347 l -0.002,0.03809 c -0.003,0.04483 -0.008,0.295991 -0.0138,0.594727 -0.004,0.201469 -0.008,0.743975 -0.0141,1.741211 l -0.003,0.442382 h -0.0699 -0.0699 z"
   id="path5663"
   transform="translate(-9,23.6)" /><path
   style="fill:#ffffff;stroke:#000000;stroke-width:0.0039124"
   d="m 195.94223,24.027027 -0.0343,-0.0175 0.002,-0.0282 c 0.001,-0.01551 0.003,-0.08269 0.004,-0.149296 0.004,-0.209882 0.01,-0.46749 0.0122,-0.500976 l 0.002,-0.03223 h 0.035 0.035 l -0.002,0.05566 c -0.004,0.08475 -0.009,0.332923 -0.0124,0.521485 -0.001,0.09292 -0.004,0.168856 -0.005,0.168747 -0.001,-1.08e-4 -0.0178,-0.0081 -0.0366,-0.0177 z"
   id="path5665"
   transform="translate(-9,23.6)" /><path
   style="fill:#ffffff;stroke:#000000;stroke-width:0.0039124"
   d="m 192.05664,28.423676 v -0.57825 l 0.0186,-0.008 c 0.0474,-0.02054 0.20747,-0.08409 0.29394,-0.116678 0.77637,-0.292556 1.68501,-0.512958 2.73633,-0.663729 0.0928,-0.0133 0.93336,-0.129238 0.93705,-0.129238 0.001,0 0.002,-0.495263 0.002,-1.100586 0,-0.605322 0.001,-1.130908 0.003,-1.167968 l 0.003,-0.06738 h 2.14977 2.14978 v 0.467332 0.467332 l -0.0381,-0.0027 c -0.24707,-0.01733 -0.72266,-0.05621 -1.03418,-0.08454 -0.77521,-0.0705 -1.42754,-0.147953 -2.00249,-0.237755 -0.27678,-0.04323 -0.41743,-0.05925 -0.52485,-0.05979 -0.0582,-2.89e-4 -0.0793,0.0044 -0.0873,0.0192 -0.01,0.01802 -0.017,0.08891 -0.0258,0.247299 -0.0169,0.304524 -0.0231,0.552492 -0.0373,1.48974 -0.004,0.270431 -0.008,0.492144 -0.009,0.492695 -6.3e-4,5.52e-4 -0.12244,0.03213 -0.27068,0.07017 -0.54522,0.139908 -0.72013,0.186508 -0.99023,0.26382 -1.16717,0.334081 -2.20078,0.731868 -3.13184,1.205298 l -0.1416,0.072 z"
   id="path5667"
   transform="translate(-9,23.6)" /><path
   style="fill:#ffffff;stroke:#000000;stroke-width:0.0039124"
   d="m 192.05664,27.676351 v -0.04826 l 0.11816,-0.0472 c 0.86996,-0.347504 2.21111,-0.722502 2.99204,-0.836599 0.155,-0.02265 0.22659,-0.02875 0.34293,-0.02921 0.0591,-2.38e-4 0.10979,-0.0019 0.11268,-0.0037 0.0263,-0.01645 0.0576,-0.115763 0.0825,-0.261311 0.0144,-0.08416 0.0431,-0.302109 0.0431,-0.326978 0,-0.0025 0.0257,-0.0039 0.0697,-0.0039 h 0.0697 l -0.002,0.356445 c -9.7e-4,0.196045 -0.003,0.357475 -0.004,0.358734 -0.001,0.0013 -0.18092,0.01498 -0.39899,0.03049 -0.41823,0.02975 -0.52631,0.0385 -0.63457,0.05138 -0.79955,0.09511 -1.79545,0.381534 -2.74175,0.788525 -0.0254,0.01094 -0.047,0.01989 -0.0479,0.01989 -8.9e-4,0 -0.002,-0.02172 -0.002,-0.04826 z"
   id="path5669"
   transform="translate(-9,23.6)" /><path
   style="fill:#ffffff;stroke:#000000;stroke-width:0.0039124"
   d="m 192.85208,27.458265 c -0.0164,-0.0083 -0.0298,-0.01657 -0.0298,-0.0185 0,-0.0071 0.10423,-0.04585 0.28515,-0.106002 0.62035,-0.206251 1.27151,-0.357464 1.78125,-0.413645 0.10435,-0.0115 0.44574,-0.0378 0.92774,-0.07146 l 0.0703,-0.0049 0.002,-0.162109 c 0.001,-0.08916 0.003,-0.253077 0.003,-0.364258 l 5.5e-4,-0.202149 h 0.0428 0.0428 l 0.002,0.0127 c 0.003,0.02064 0.01,0.689783 0.008,0.720801 -10e-4,0.01563 -0.003,0.02916 -0.005,0.03006 -0.001,9.02e-4 -0.0834,0.0106 -0.18209,0.02155 -0.95569,0.106056 -1.76657,0.251546 -2.46849,0.442905 -0.15556,0.04241 -0.31178,0.08699 -0.38913,0.111046 l -0.061,0.01897 z"
   id="path5671"
   transform="translate(-9,23.6)" /><path
   style="fill:#ffffff;stroke:#000000;stroke-width:0.0039124"
   d="m 192.05664,27.812947 v -0.02494 l 0.0693,-0.02834 c 0.79908,-0.326644 1.75172,-0.572391 2.86035,-0.737868 0.13046,-0.01947 0.76717,-0.107425 0.9248,-0.127747 l 0.083,-0.0107 v -0.384055 -0.384055 h 0.0234 0.0234 v 0.403954 0.403953 l -0.0147,0.0023 c -0.008,0.0013 -0.21856,0.03039 -0.46778,0.06467 -0.24922,0.03428 -0.50673,0.07038 -0.57226,0.08024 -1.1001,0.165417 -2.01827,0.401163 -2.81557,0.722914 -0.0608,0.02452 -0.11131,0.04459 -0.1123,0.04459 -0.001,0 -0.002,-0.01122 -0.002,-0.02494 z"
   id="path5673"
   transform="translate(-9,23.6)" /></svg>
