<?xml version="1.0" encoding="UTF-8" standalone="no"?>
<!-- Generator: Adobe Illustrator 19.1.0, SVG Export Plug-In . SVG Version: 6.00 Build 0)  -->

<svg
   version="1.1"
   id="Ebene_1"
   x="0px"
   y="0px"
   viewBox="-9 23.6 264.9 95.1"
   style="enable-background:new -9 23.6 264.9 95.1;"
   xml:space="preserve"
   sodipodi:docname="cf_failsafe_procedure1.svg"
   inkscape:version="1.2 (dc2aedaf03, 2022-05-15)"
   xmlns:inkscape="http://www.inkscape.org/namespaces/inkscape"
   xmlns:sodipodi="http://sodipodi.sourceforge.net/DTD/sodipodi-0.dtd"
   xmlns="http://www.w3.org/2000/svg"
   xmlns:svg="http://www.w3.org/2000/svg"><defs
   id="defs2730">
		
		
		
		
		
	</defs><sodipodi:namedview
   id="namedview2728"
   pagecolor="#ffffff"
   bordercolor="#666666"
   borderopacity="1.0"
   inkscape:showpageshadow="2"
   inkscape:pageopacity="0.0"
   inkscape:pagecheckerboard="0"
   inkscape:deskcolor="#d1d1d1"
   showgrid="false"
   inkscape:zoom="3.4968286"
   inkscape:cx="145.98942"
   inkscape:cy="16.443471"
   inkscape:window-width="1920"
   inkscape:window-height="991"
   inkscape:window-x="-9"
   inkscape:window-y="-9"
   inkscape:window-maximized="1"
   inkscape:current-layer="Ebene_1" />
<style
   type="text/css"
   id="style2691">
	.st0{fill:#FFBB00;}
	.st1{fill:none;}
	.st2{fill:white;}
	.st3{fill:none;stroke:#FCFCFC;stroke-miterlimit:10;}
	.st4{fill:#1B171B;}
	.st5{fill:#B8B8B9;}
</style>

<g
   id="g15787"><g
     id="g2725">
	<path
   class="st0"
   d="M6.8,90.9c-4.7,0-8.5,3.8-8.5,8.5S3.5,108,6.8,111c2.7-2.7,8.5-7,8.5-11.6C15.3,94.7,11.5,90.9,6.8,90.9z    M10.1,102.5H8.2v-2.2H5.3v2.2H3.4v-6.2h1.9v2.2h2.9v-2.2h1.9V102.5z"
   id="path2693"
   style="fill:#007cc7;fill-opacity:1" />
	<rect
   x="180.7"
   y="54.599998"
   class="st1"
   width="67.5"
   height="13.5"
   id="rect2695" /><g
   class="st2"
   id="g2705">
			<path
   d="m 190.1,60.1 c 0,1.6 -0.4,2.9 -1.3,3.8 -0.9,0.9 -2.2,1.3 -3.9,1.3 h -2.8 v -10 h 3.1 c 1.6,0 2.8,0.4 3.6,1.3 0.8,0.9 1.3,2.1 1.3,3.6 z m -1.2,0.1 c 0,-1.3 -0.3,-2.3 -1,-2.9 -0.7,-0.7 -1.6,-1 -2.9,-1 h -1.7 v 8 h 1.4 c 1.4,0 2.4,-0.3 3.1,-1 0.7,-0.8 1.1,-1.8 1.1,-3.1 z"
   id="path2697" />
			<path
   d="m 195.6,57.6 c 0.3,0 0.6,0 0.9,0.1 l -0.2,1.1 c -0.3,-0.1 -0.6,-0.1 -0.8,-0.1 -0.6,0 -1.1,0.2 -1.6,0.7 -0.5,0.5 -0.6,1.1 -0.6,1.8 v 4 h -1.1 v -7.5 h 0.9 l 0.1,1.4 h 0.1 c 0.3,-0.5 0.6,-0.9 1,-1.1 0.4,-0.3 0.8,-0.4 1.3,-0.4 z"
   id="path2699" />
			<path
   d="m 204.3,61.5 c 0,1.2 -0.3,2.2 -0.9,2.9 -0.6,0.7 -1.5,1 -2.5,1 -0.7,0 -1.3,-0.2 -1.8,-0.5 -0.5,-0.3 -0.9,-0.8 -1.2,-1.4 -0.3,-0.6 -0.4,-1.3 -0.4,-2.1 0,-1.2 0.3,-2.2 0.9,-2.9 0.6,-0.7 1.5,-1 2.5,-1 1,0 1.9,0.3 2.5,1 0.6,0.8 0.9,1.8 0.9,3 z m -5.7,0 c 0,1 0.2,1.7 0.6,2.2 0.4,0.5 0.9,0.8 1.7,0.8 0.7,0 1.3,-0.2 1.7,-0.7 0.4,-0.5 0.6,-1.2 0.6,-2.2 0,-1 -0.2,-1.7 -0.6,-2.2 -0.4,-0.5 -1,-0.7 -1.7,-0.7 -0.7,0 -1.3,0.2 -1.7,0.7 -0.4,0.4 -0.6,1.1 -0.6,2.1 z"
   id="path2701"
   inkscape:label="path2701"
   style="display:inline" />
			<path
   d="m 209.8,65.4 c -0.5,0 -0.9,-0.1 -1.3,-0.3 -0.4,-0.2 -0.7,-0.5 -1,-0.8 h -0.1 c 0.1,0.4 0.1,0.9 0.1,1.2 v 3.1 h -1.1 V 57.7 h 0.9 l 0.2,1 h 0.1 c 0.3,-0.4 0.6,-0.7 1,-0.9 0.4,-0.2 0.8,-0.3 1.3,-0.3 1,0 1.8,0.3 2.3,1 0.5,0.7 0.8,1.6 0.8,2.9 0,1.2 -0.3,2.2 -0.8,2.9 -0.7,0.7 -1.4,1.1 -2.4,1.1 z m -0.2,-6.8 c -0.8,0 -1.3,0.2 -1.7,0.6 -0.4,0.4 -0.5,1.1 -0.5,2 v 0.3 c 0,1.1 0.2,1.8 0.5,2.3 0.4,0.5 0.9,0.7 1.7,0.7 0.6,0 1.2,-0.3 1.5,-0.8 0.4,-0.5 0.5,-1.2 0.5,-2.2 0,-0.9 -0.2,-1.7 -0.5,-2.1 -0.3,-0.6 -0.8,-0.8 -1.5,-0.8 z"
   id="path2703" />
		</g><line
   class="st3"
   x1="-3.8"
   y1="113.9"
   x2="251.2"
   y2="113.9"
   id="line2707"
   style="fill:#000000;stroke:#000000;stroke-opacity:1.0"
   inkscape:label="line2707" /><g
   id="g2721">
			
			
				
			
				
		</g>
</g><path
     d="m 210.29342,90.980355 c 0,1.6 -0.4,2.9 -1.3,3.8 -0.9,0.9 -2.2,1.3 -3.9,1.3 h -2.8 v -10 h 3.1 c 1.6,0 2.8,0.4 3.6,1.3 0.8,0.9 1.3,2.1 1.3,3.6 z m -1.2,0.1 c 0,-1.3 -0.3,-2.3 -1,-2.9 -0.7,-0.7 -1.6,-1 -2.9,-1 h -1.7 v 8 h 1.4 c 1.4,0 2.4,-0.3 3.1,-1 0.7,-0.8 1.1,-1.8 1.1,-3.1 z"
     id="path8"
     style="fill:#000000;fill-opacity:1" /><path
     d="m 215.79342,88.480355 c 0.3,0 0.6,0 0.9,0.1 l -0.2,1.1 c -0.3,-0.1 -0.6,-0.1 -0.8,-0.1 -0.6,0 -1.1,0.2 -1.6,0.7 -0.5,0.5 -0.6,1.1 -0.6,1.8 v 4 h -1.1 v -7.5 h 0.9 l 0.1,1.4 h 0.1 c 0.3,-0.5 0.6,-0.9 1,-1.1 0.4,-0.3 0.8,-0.4 1.3,-0.4 z"
     id="path10"
     style="fill:#000000;fill-opacity:1" /><path
     d="m 224.49342,92.380355 c 0,1.2 -0.3,2.2 -0.9,2.9 -0.6,0.7 -1.5,1 -2.5,1 -0.7,0 -1.3,-0.2 -1.8,-0.5 -0.5,-0.3 -0.9,-0.8 -1.2,-1.4 -0.3,-0.6 -0.4,-1.3 -0.4,-2.1 0,-1.2 0.3,-2.2 0.9,-2.9 0.6,-0.7 1.5,-1 2.5,-1 1,0 1.9,0.3 2.5,1 0.6,0.8 0.9,1.8 0.9,3 z m -5.7,0 c 0,1 0.2,1.7 0.6,2.2 0.4,0.5 0.9,0.8 1.7,0.8 0.7,0 1.3,-0.2 1.7,-0.7 0.4,-0.5 0.6,-1.2 0.6,-2.2 0,-1 -0.2,-1.7 -0.6,-2.2 -0.4,-0.5 -1,-0.7 -1.7,-0.7 -0.7,0 -1.3,0.2 -1.7,0.7 -0.4,0.4 -0.6,1.1 -0.6,2.1 z"
     id="path12"
     style="fill:#000000;fill-opacity:1" /><path
     d="m 229.99342,96.280355 c -0.5,0 -0.9,-0.1 -1.3,-0.3 -0.4,-0.2 -0.7,-0.5 -1,-0.8 h -0.1 c 0.1,0.4 0.1,0.9 0.1,1.2 v 3.1 h -1.1 v -10.9 h 0.9 l 0.2,1 h 0.1 c 0.3,-0.4 0.6,-0.7 1,-0.9 0.4,-0.2 0.8,-0.3 1.3,-0.3 1,0 1.8,0.3 2.3,1 0.5,0.7 0.8,1.6 0.8,2.9 0,1.2 -0.3,2.2 -0.8,2.9 -0.7,0.7 -1.4,1.1 -2.4,1.1 z m -0.2,-6.8 c -0.8,0 -1.3,0.2 -1.7,0.6 -0.4,0.4 -0.5,1.1 -0.5,2 v 0.3 c 0,1.1 0.2,1.8 0.5,2.3 0.4,0.5 0.9,0.7 1.7,0.7 0.6,0 1.2,-0.3 1.5,-0.8 0.4,-0.5 0.5,-1.2 0.5,-2.2 0,-0.9 -0.2,-1.7 -0.5,-2.1 -0.3,-0.6 -0.8,-0.8 -1.5,-0.8 z"
     id="path14"
     style="fill:#000000;fill-opacity:1" /><polygon
     points="217.4,112.5 187.4,107.8 206.7,113.8 234.1,113.8 242.7,105.2 229.4,108.8 238.7,83.8 "
     id="polygon201"
     transform="matrix(-0.83564729,0,0,1,322.90082,-0.462774)" /><g
     id="g306"
     transform="matrix(5.7563862,0,0,5.969262,102.5368,45.500345)"><g
       id="g928"
       style="font-style:normal;font-weight:normal;font-size:43.7402px;line-height:1.25;font-family:sans-serif;display:inline;fill:#040404;fill-opacity:1;stroke:none;stroke-width:1.09351"
       transform="matrix(0.05083588,0,0,0.05083588,5.205767,0.17802697)"><path
         id="path910"
         d="m 144.30283,148.30013 c 0.25782,0.74679 -13.24009,6.26181 -34.53704,18.14964 -8.45111,4.72298 -24.240969,13.83983 -36.538646,20.1064 -9.980481,5.10372 -21.89867,10.79968 -34.792987,13.70718 -4.976082,1.12562 -10.338905,1.80119 -15.841275,1.41125 -5.063965,-0.94995 -10.241552,-2.89728 -14.9460255,-6.10092 2.2612635,-7.43137 4.9140995,-14.9414 8.0026005,-22.42262 12.20084,-29.55388 28.869645,-53.09946 47.967242,-70.35722 0,0 1.1e-5,0 1.1e-5,0 18.952645,-8.652971 35.213988,-12.608393 49.93863,-12.891383 6.70309,-0.09484 13.24146,0.570067 17.94583,1.132812 11.00725,1.312131 17.2033,2.152351 17.1987,2.501743 -0.009,0.6753 -6.29346,0.816737 -17.4279,0.358641 -4.62867,-0.187936 -11.23314,-0.444354 -17.56166,-0.03152 -13.99504,0.841991 -28.971255,5.018155 -47.014751,13.600427 -3e-6,0 -6e-6,0 -1e-5,0 -18.304716,16.19055 -34.314302,37.88773 -46.363954,65.38252 -3.050519,6.96065 -5.701253,13.96523 -7.991911,20.91706 3.183084,1.39914 6.957464,1.8429 10.74595,1.58234 4.650242,0.40059 9.423423,-0.17707 14.034794,-1.13328 12.004103,-2.49926 23.646901,-7.8413 33.649213,-12.62422 14.117147,-6.77459 26.472212,-13.52538 37.053209,-18.81306 22.00026,-11.00661 36.09403,-15.59372 36.47998,-14.47579 z"
         style="opacity:1;fill:#040404;fill-opacity:1;stroke:none;stroke-width:0;stroke-linecap:butt;stroke-linejoin:miter;stroke-miterlimit:4;stroke-dasharray:none;stroke-opacity:1" /><path
         id="path912"
         d="m 153.3887,107.16305 c -1.21243,-2.47944 34.80763,-22.586633 80.40193,-44.882138 45.59431,-22.295505 83.58239,-38.378114 84.79482,-35.898679 1.21244,2.479434 -34.80762,22.586632 -80.40193,44.882137 -45.5943,22.295505 -83.58238,38.37811 -84.79482,35.89868 z"
         style="fill:#040404;fill-opacity:1;stroke:none;stroke-width:0.264583px;stroke-linecap:butt;stroke-linejoin:miter;stroke-opacity:1" /><path
         id="path914"
         d="m 77.947508,197.06729 c -1.572191,-3.09903 22.168242,-15.29339 51.924852,-28.48985 10.61765,-4.70872 20.60658,-9.04448 29.06305,-12.8533 -15.93994,2.34199 -27.02424,1.96053 -27.02424,-0.22885 0,-2.16283 11.25852,-2.59739 28.93808,-0.22885 -8.0432,4.56174 -17.59959,10.14165 -27.92812,16.05929 -29.24348,16.75478 -53.409299,28.82508 -54.973622,25.74156 z"
         style="fill:#040404;fill-opacity:1;stroke:none;stroke-width:0.264583px;stroke-linecap:butt;stroke-linejoin:miter;stroke-opacity:1" /><path
         id="path916"
         d="M -91.538358,155.09556 C -92.426691,153.28717 -21.694973,116.71992 66.344941,73.472243 154.38485,30.224565 226.5585,-3.4073196 227.44684,-1.5989272 228.33517,0.20946525 157.60345,36.776711 69.563539,80.02439 -18.476375,123.27207 -90.650025,156.90395 -91.538358,155.09556 Z"
         style="fill:#040404;fill-opacity:1;stroke:none;stroke-width:0.264583px;stroke-linecap:butt;stroke-linejoin:miter;stroke-opacity:1" /><path
         id="path918"
         d="m 83.72155,180.80292 c 0.271145,-0.84055 3.583558,-0.5252 7.393781,0.7039 3.810222,1.2291 6.682517,2.90882 6.411372,3.74937 -0.271144,0.84055 -3.583558,0.5252 -7.39378,-0.7039 -3.810223,-1.2291 -6.682518,-2.90882 -6.411373,-3.74937 z"
         style="fill:#040404;fill-opacity:1;stroke:none;stroke-width:0.264583px;stroke-linecap:butt;stroke-linejoin:miter;stroke-opacity:1" /><path
         id="path920"
         d="m 148.29402,93.964079 c 0.89824,-0.449118 5.43674,7.707801 11.19318,19.948691 0,0 1e-5,0 1e-5,0 -2.47288,1.9781 -5.13157,4.2371 -7.56507,6.73402 -1.38634,1.42246 -2.6476,2.86779 -3.78045,4.35889 -2.15947,2.66249 -3.65789,5.31888 -4.34224,8.02592 -0.68921,2.58558 -0.59975,5.2701 -0.35603,7.39809 0,0 0,0 0,0 0.5527,4.76866 1.56659,7.646 0.85941,7.87044 -0.26522,0.0842 -2.12716,-2.41762 -3.45557,-7.3653 0,0 0,0 0,0 -0.6195,-2.30392 -1.03567,-5.34257 -0.44376,-8.64285 0.64173,-3.38068 2.24865,-6.69684 4.6656,-9.74751 1.16215,-1.37401 2.45801,-2.66036 3.87895,-3.88082 2.50022,-2.14748 5.20755,-3.93417 7.74718,-5.45946 0,0 0,0 0,0 -5.60564,-10.49896 -9.30572,-18.787858 -8.40121,-19.240111 z"
         style="fill:#040404;fill-opacity:1;stroke:none;stroke-width:0.264583px;stroke-linecap:butt;stroke-linejoin:miter;stroke-opacity:1" /><path
         id="path922"
         d="m 73.924347,81.94024 c 0.765272,-0.382636 2.662729,1.859552 4.235395,5.004883 1.572666,3.145332 2.227943,6.00861 1.462671,6.391246 -0.765272,0.382636 -2.662729,-1.859552 -4.235395,-5.004883 -1.572666,-3.145332 -2.227943,-6.00861 -1.462671,-6.391246 z"
         style="fill:#040404;fill-opacity:1;stroke:none;stroke-width:0.264583px;stroke-linecap:butt;stroke-linejoin:miter;stroke-opacity:1" /><path
         id="path924"
         d="m 293.40242,18.787349 c 0.48392,0.314055 -2.88175,4.592919 -2.89373,11.523586 -0.07,2.207278 0.48845,4.831317 0.11446,8.07774 1.65002,2.219895 3.50505,4.770692 5.5511,6.843237 1.6976,1.869341 3.68238,3.593654 5.92474,5.087061 0.5408,0.360167 1.08908,0.701887 1.64332,1.025122 0,0 0,10e-7 0,10e-7 8.11766,4.79014 17.8281,6.877047 23.95107,8.194076 6.53203,1.405017 10.55151,2.225808 10.4789,2.819837 -0.0558,0.456116 -4.17766,0.63356 -10.91578,-0.07431 -6.41632,-0.674064 -16.44175,-2.31249 -25.51688,-7.483446 0,-10e-7 -10e-6,-10e-7 -10e-6,-10e-7 -0.62756,-0.36157 -1.24751,-0.745777 -1.85807,-1.152609 -2.53266,-1.687568 -4.7538,-3.664038 -6.6301,-5.821913 -2.34684,-2.879114 -4.27503,-6.04269 -5.86381,-8.666626 0.38684,-2.964893 -0.0564,-6.139087 0.20287,-9.03639 1.01191,-8.636157 6.08789,-11.156266 5.81192,-11.335364 z"
         style="fill:#040404;fill-opacity:1;stroke:none;stroke-width:0.264583px;stroke-linecap:butt;stroke-linejoin:miter;stroke-opacity:1" /><path
         id="path926"
         d="m 298.82717,20.522621 c -10.52641,-8.380602 -12.08193,-11.6347262 -3.47211,-7.263654 8.60977,4.371038 24.14066,14.720261 34.66708,23.100866 10.5264,8.380607 12.08192,11.634726 3.4721,7.26365 -8.60976,-4.371034 -24.14066,-14.720257 -34.66707,-23.100862 z"
         style="fill:#040404;fill-opacity:1;stroke:none;stroke-width:0.304059px;stroke-linecap:butt;stroke-linejoin:miter;stroke-opacity:1" /></g><path
       style="fill:#040404;fill-opacity:1;stroke-width:0.114246"
       d="m 23.103474,37.760345 c -0.614118,-0.04186 -1.174395,-0.133929 -1.245059,-0.204593 -0.149587,-0.149587 0.165705,-1.117133 1.065371,-3.26933 2.021239,-4.835241 4.830604,-9.076135 8.109426,-12.241634 0.972881,-0.939257 1.181335,-1.081591 2.301272,-1.571341 1.577987,-0.690054 3.609015,-1.365502 5.016207,-1.668212 1.700935,-0.365899 3.373476,-0.466649 6.469575,-0.389712 l 2.832618,0.07039 0.14203,0.455079 c 0.07812,0.250294 0.443549,1.05798 0.812074,1.794859 l 0.670044,1.33978 -0.456127,0.256359 c -0.834275,0.468888 -1.89178,1.567889 -2.293093,2.383073 -0.329399,0.669104 -0.371945,0.863168 -0.366844,1.673254 0.0045,0.710346 0.07066,1.073275 0.294387,1.614287 l 0.288615,0.697921 -0.808491,0.255231 c -1.637971,0.517088 -4.248206,1.712498 -9.376907,4.294342 -5.306864,2.671535 -7.378459,3.584974 -9.291437,4.096921 -0.928774,0.248556 -1.348652,0.319213 -2.704344,0.455089 -0.188505,0.01889 -0.845198,9.9e-5 -1.459317,-0.04176 z"
       id="path1831"
       transform="matrix(0.26458333,0,0,0.26458333,0.11241379,0.09320379)" /><path
       style="fill:#0000ff;fill-opacity:1;stroke-width:0.114246"
       d="m 22.90623,37.68322 c -1.113304,-0.170785 -1.058916,-0.142834 -0.986122,-0.506803 0.03719,-0.185954 0.293355,-0.915146 0.569255,-1.620427 2.053823,-5.250183 4.767171,-9.567872 8.17925,-13.015456 1.208328,-1.220901 1.416976,-1.381158 2.40691,-1.848681 2.196386,-1.037305 5.098709,-1.8897 7.220088,-2.1205 1.234056,-0.134262 4.88097,-0.15993 6.360565,-0.04477 0.840489,0.06542 0.965561,0.103624 1.019937,0.311559 0.03409,0.130349 0.391342,0.904761 0.793901,1.720915 0.431297,0.874418 0.680057,1.501208 0.605646,1.526012 -0.334992,0.111663 -1.534405,1.126719 -1.956018,1.655364 -0.860212,1.078591 -0.964829,1.367014 -0.961319,2.650284 0.0025,0.922628 0.05056,1.246455 0.249666,1.682945 0.135597,0.297269 0.211306,0.560329 0.168242,0.584578 -0.04306,0.02425 -0.361054,0.135189 -0.706647,0.246535 -1.341092,0.432086 -4.046495,1.670329 -9.48238,4.340017 -7.069104,3.471798 -8.516151,4.054722 -10.910449,4.395131 -0.779859,0.110876 -1.996411,0.131366 -2.570525,0.0433 z"
       id="path1833"
       transform="matrix(0.26458333,0,0,0.26458333,0.11241379,0.09320379)" /><path
       style="fill:#0000ff;fill-opacity:1;stroke-width:0.114246"
       d="m 22.392126,37.54102 c -0.29169,-0.06455 -0.340542,-0.126349 -0.327998,-0.414903 0.04108,-0.945095 2.413788,-6.07592 3.934268,-8.50761 1.541694,-2.465618 3.701871,-5.142313 5.420788,-6.716948 1.210726,-1.109101 3.819696,-2.21116 6.988198,-2.951896 1.282057,-0.299721 1.522165,-0.317882 4.766515,-0.360517 1.879048,-0.02469 3.627833,-0.0132 3.886189,0.02554 l 0.469738,0.07044 0.712194,1.532836 c 0.391708,0.843061 0.712195,1.605879 0.712195,1.695153 0,0.08927 -0.207479,0.306099 -0.461064,0.481833 -0.636796,0.4413 -1.771498,1.676439 -2.073704,2.257255 -0.369672,0.710481 -0.429932,2.410354 -0.116933,3.298618 l 0.227682,0.646143 -0.872972,0.315111 c -1.321885,0.477152 -4.13365,1.769585 -8.962023,4.119411 -6.78868,3.303849 -8.392574,3.98266 -10.355294,4.382637 -1.127176,0.229703 -3.184426,0.295828 -3.947779,0.126891 z"
       id="path1904"
       transform="matrix(0.26458333,0,0,0.26458333,0.11241379,0.09320379)" /><path
       style="fill:none;stroke:#000000;stroke-width:0;stroke-linecap:butt;stroke-linejoin:miter;stroke-dasharray:none;stroke-opacity:1"
       d="m 12.696658,4.9352854 c 0.0016,0.00119 0.0048,0.00329 0.0062,0.00517 4.5e-4,6.085e-4 4.77e-4,0.00153 10e-4,0.00206 8.73e-4,8.732e-4 0.0023,0.00114 0.0031,0.00206 0.0023,0.00257 0.004,0.0056 0.0062,0.00827 9.26e-4,0.00114 0.0024,0.00185 0.0031,0.0031 3.44e-4,5.821e-4 -3.18e-4,0.00146 0,0.00206 7.67e-4,0.00153 0.002,0.00278 0.0031,0.00414 0.0014,0.00172 0.0028,0.00344 0.0041,0.00517 6.88e-4,0.00103 0.0013,0.00212 0.0021,0.0031 0.0014,0.00183 0.0034,0.0028 0.0052,0.00414 0.0011,8.466e-4 0.0019,0.0023 0.0031,0.0031 6.35e-4,4.233e-4 0.0015,4.762e-4 0.0021,0.00103 5.56e-4,5.556e-4 4.76e-4,0.00153 10e-4,0.00206 2.43e-4,2.437e-4 7.14e-4,-1.54e-4 0.001,0 0.0011,5.556e-4 0.0021,0.0013 0.0031,0.00206 0.0011,9.26e-4 0.0019,0.0023 0.0031,0.0031 6.35e-4,4.233e-4 0.0015,4.762e-4 0.0021,0.00103 2.44e-4,2.434e-4 -2.43e-4,7.937e-4 0,0.00103 2.44e-4,2.437e-4 7.15e-4,-1.539e-4 0.001,0 0.0013,6.35e-4 10e-4,0.00101 10e-4,0.00206"
       id="path2062" /><path
       style="fill:none;stroke:#000000;stroke-width:0.065;stroke-linecap:butt;stroke-linejoin:miter;stroke-dasharray:none;stroke-opacity:1"
       d="m 12.644982,4.9425201 c 0.0093,0.00276 0.01877,0.00501 0.0279,0.00827 0.0046,0.00164 0.02264,0.010803 0.02791,0.013435 0.0021,0.00103 0.0041,0.00206 0.0062,0.0031 6.88e-4,3.44e-4 0.0015,5.821e-4 0.0021,0.00103 7.67e-4,5.821e-4 0.0012,0.00153 0.0021,0.00206 2.91e-4,1.911e-4 7.41e-4,-1.912e-4 10e-4,0 8.2e-4,5.292e-4 0.0013,0.00146 0.0021,0.00206 0.0019,0.00156 0.0043,0.00254 0.0062,0.00414 0.0011,9.261e-4 0.0022,0.00193 0.0031,0.0031 2.07e-4,2.645e-4 -3.17e-4,8.731e-4 0,0.00103 6.09e-4,3.175e-4 0.0014,-2.177e-4 0.0021,0 4.5e-4,1.543e-4 6.88e-4,6.879e-4 10e-4,0.00103 6.88e-4,6.879e-4 0.0015,0.00132 0.0021,0.00206 0.0011,0.00132 0.0019,0.00292 0.0031,0.00414 2.43e-4,2.437e-4 7.67e-4,-2.067e-4 10e-4,0 0.0012,8.731e-4 0.0019,0.00222 0.0031,0.0031 5.56e-4,4.233e-4 0.0015,-3.175e-4 0.0021,0 8.73e-4,4.233e-4 0.0012,0.00164 0.0021,0.00206 3.17e-4,1.542e-4 7.94e-4,-2.435e-4 10e-4,0 2.43e-4,2.436e-4 -1.55e-4,7.143e-4 0,0.00103 0.0024,0.00473 -4.24e-4,-0.00438 0.0021,0.0031 2.18e-4,6.615e-4 0,0.00138 0,0.00206 0,0.00138 0,0.00276 0,0.00414"
       id="path2064" /><path
       style="fill:#000000;fill-opacity:1;stroke-width:0.000959646;stroke-dasharray:none"
       d="m 47.322266,18.475795 c -0.02041,-6.05e-4 -0.180371,-0.0046 -0.355469,-0.009 -0.291847,-0.0072 -0.501137,-0.01239 -1.654297,-0.04103 -1.216668,-0.03021 -1.895093,-0.04018 -2.442383,-0.03589 l -0.290039,0.0023 v -0.03947 -0.03947 l 0.243164,0.0027 c 0.332451,0.0037 0.625751,0.01024 0.981445,0.02201 0.154184,0.0051 0.445983,0.0162 0.873047,0.0332 0.809298,0.03223 1.609621,0.04758 2.123047,0.04073 0.232015,-0.0031 0.329742,-0.0059 0.492928,-0.01396 l 0.05152,-0.0026 -0.0076,0.02457 c -0.0042,0.01352 -0.0069,0.0253 -0.006,0.0262 8.94e-4,8.94e-4 0.02246,0.0078 0.04792,0.01537 0.02546,0.0076 0.04703,0.01448 0.04793,0.01537 0.0016,0.0016 -0.02484,0.0013 -0.105143,-0.0011 z"
       id="path2066"
       transform="matrix(0.26458333,0,0,0.26458333,0.11241379,0.09320379)" /><path
       style="fill:#000000;fill-opacity:1;stroke-width:0.00383858;stroke-dasharray:none"
       d="m 23.029788,37.849243 c -0.341851,-0.01469 -0.687838,-0.06966 -0.982913,-0.156162 -0.09511,-0.02788 -0.398972,-0.135689 -0.410302,-0.145569 -0.01274,-0.01111 0.396077,-1.175698 0.641973,-1.828762 1.404441,-3.729982 3.218834,-7.078315 5.406097,-9.976563 0.312778,-0.414448 0.653444,-0.846789 0.938778,-1.191406 0.121655,-0.146931 0.159994,-0.183594 0.191989,-0.183594 0.04654,0 0.0623,-0.02467 -0.144625,0.226453 -2.233296,2.710321 -4.19583,5.996324 -5.678518,9.507922 -0.637849,1.510683 -1.032844,2.569123 -1.140515,3.05616 -0.03732,0.168798 -0.04109,0.344984 -0.0084,0.391673 0.08629,0.123189 1.268593,0.254569 2.344136,0.260483 0.37041,0.002 0.467622,-0.003 0.796875,-0.04106 0.97527,-0.112812 1.317734,-0.17066 1.960937,-0.331238 2.023875,-0.505265 3.854155,-1.294425 9.140625,-3.941154 2.347605,-1.175354 3.593263,-1.791187 3.603122,-1.781327 0.0044,0.0044 -0.261347,0.144899 -0.590536,0.312234 -0.329187,0.167334 -1.066101,0.546804 -1.637586,0.843266 -3.293088,1.708313 -5.258545,2.670788 -6.839609,3.349325 -1.940276,0.832698 -3.625397,1.349015 -5.066641,1.552407 -0.581384,0.08205 -0.653366,0.08623 -1.492187,0.08664 -0.438281,2.19e-4 -0.903001,-0.0042 -1.032712,-0.0097 z"
       id="path2068"
       transform="matrix(0.26458333,0,0,0.26458333,0.11241379,0.09320379)" /><path
       style="fill:#000000;fill-opacity:1;stroke-width:0.00383858;stroke-dasharray:none"
       d="m 28.789062,24.356633 c 0,-0.01105 0.487675,-0.576281 0.718874,-0.833196 0.734359,-0.816038 1.487047,-1.569412 2.399584,-2.401771 0.172838,-0.157652 0.137967,-0.138554 0.826855,-0.452846 2.653742,-1.210719 5.167628,-1.96737 7.359375,-2.215088 0.120312,-0.0136 0.241602,-0.0284 0.269531,-0.0329 0.04613,-0.0074 0.05078,-0.0045 0.05078,0.03159 0,0.03381 -0.0071,0.03977 -0.04707,0.03977 -0.133621,0 -0.839638,0.09088 -1.288867,0.165905 -1.625436,0.271462 -3.945681,1.009375 -5.914518,1.881007 -0.768931,0.340417 -1.115084,0.556513 -1.616454,1.009119 -0.730736,0.659664 -1.709229,1.67509 -2.468003,2.561157 -0.158389,0.184961 -0.223971,0.250773 -0.252086,0.25297 -0.0209,0.0016 -0.038,-9.37e-4 -0.038,-0.0057 z"
       id="path2070"
       transform="matrix(0.26458333,0,0,0.26458333,0.11241379,0.09320379)" /><path
       style="fill:#000000;fill-opacity:1;stroke-width:0.00383858;stroke-dasharray:none"
       d="m 40.414062,18.451662 c 0,-0.02648 0.0088,-0.0376 0.0296,-0.0376 0.01628,0 0.09889,-0.007 0.183594,-0.01547 0.310152,-0.03116 0.932383,-0.06289 1.431343,-0.07298 0.509092,-0.0103 0.511718,-0.01019 0.511718,0.02173 0,0.03088 -0.01097,0.03244 -0.292968,0.0416 -0.889071,0.02887 -1.739327,0.07249 -1.835938,0.09418 -0.02017,0.0045 -0.02734,-0.0037 -0.02734,-0.03146 z"
       id="path2072"
       transform="matrix(0.26458333,0,0,0.26458333,0.11241379,0.09320379)" /><path
       style="fill:#000000;fill-opacity:1;stroke-width:0.00383858;stroke-dasharray:none"
       d=""
       id="path2074"
       transform="matrix(0.26458333,0,0,0.26458333,0.11241379,0.09320379)" /><path
       style="fill:#000000;fill-opacity:1;stroke-width:0.00383858;stroke-dasharray:none"
       d=""
       id="path2076"
       transform="matrix(0.26458333,0,0,0.26458333,0.11241379,0.09320379)" /><path
       style="fill:#000000;fill-opacity:1;stroke-width:0.000959646;stroke-dasharray:none"
       d="m 41.803451,30.692707 c 0.0014,-0.01452 -0.02055,-0.0035 0.350846,-0.175998 1.439233,-0.668461 2.522959,-1.125497 3.370006,-1.421222 0.172154,-0.0601 0.40757,-0.136573 0.830154,-0.269659 0.214287,-0.06749 0.389629,-0.124593 0.389648,-0.126903 0,-0.0023 -0.06848,-0.169871 -0.152228,-0.372359 -0.200351,-0.484431 -0.231162,-0.564323 -0.281866,-0.730863 -0.07081,-0.232581 -0.116545,-0.495663 -0.132076,-0.759766 -0.0023,-0.03867 -0.005,-0.07954 -0.0061,-0.09082 -0.0019,-0.01952 -0.0015,-0.02051 0.0073,-0.02051 0.0088,0 0.0094,0.0017 0.01192,0.03223 0.0076,0.09154 0.03485,0.267647 0.06145,0.397461 0.05072,0.247479 0.140997,0.552337 0.243497,0.822265 0.122374,0.322266 0.281838,0.628814 0.404557,0.777708 l 0.02284,0.02771 -0.04957,4.64e-4 c -0.06292,5.89e-4 -0.121204,0.0082 -0.229415,0.03005 -0.793734,0.160092 -2.662417,0.884758 -4.628747,1.795005 -0.103125,0.04774 -0.19333,0.0893 -0.200455,0.09235 l -0.01296,0.0056 z"
       id="path2078"
       transform="matrix(0.26458333,0,0,0.26458333,0.11241379,0.09320379)" /><path
       style="fill:#000000;fill-opacity:1;stroke-width:0.000959646;stroke-dasharray:none"
       d="m 37.224609,32.920315 c 0,-0.0027 1.057211,-0.531089 1.510772,-0.755008 1.285894,-0.634832 1.924622,-0.944163 3.020073,-1.462598 0.02448,-0.01159 0.04514,-0.02107 0.0459,-0.02107 0.0026,0 0.0013,0.01758 -0.0017,0.02224 -0.0016,0.0026 -0.07763,0.03968 -0.168886,0.08248 -0.606385,0.284418 -1.101709,0.525352 -1.794642,0.872942 -0.225484,0.113107 -0.410592,0.205028 -0.411351,0.204269 -7.59e-4,-7.59e-4 0.0264,-0.01578 0.06036,-0.03337 0.07545,-0.0391 0.187924,-0.100281 0.198175,-0.107801 0.01919,-0.01408 -0.002,-0.0082 -0.05126,0.0141 -0.157701,0.07157 -1.007758,0.489282 -1.669163,0.820204 -0.395457,0.197859 -0.738282,0.366704 -0.738282,0.36361 z"
       id="path2080"
       transform="matrix(0.26458333,0,0,0.26458333,0.11241379,0.09320379)" /><path
       style="fill:#000000;fill-opacity:1;stroke-width:0.0039124;stroke-dasharray:none"
       d=""
       id="path2142"
       transform="matrix(0.26458333,0,0,0.26458333,0.11241379,0.09320379)" /><path
       style="fill:#000000;fill-opacity:1;stroke-width:0.0039124;stroke-dasharray:none"
       d="m 46.167422,26.643555 c -0.0051,-0.123007 -0.0038,-0.629392 0.0019,-0.725586 0.01964,-0.333696 0.06369,-0.532073 0.180416,-0.8125 0.0461,-0.110756 0.155381,-0.343905 0.209642,-0.447266 0.207348,-0.394971 0.572843,-0.874194 0.991431,-1.299928 l 0.08203,-0.08343 0.02772,0.0012 0.02772,0.0012 -0.04099,0.03711 c -0.02254,0.02041 -0.09573,0.0916 -0.162637,0.158203 -0.27599,0.274726 -0.428817,0.458443 -0.617397,0.742188 -0.231225,0.347912 -0.401588,0.693439 -0.520977,1.05664 -0.105509,0.320977 -0.156566,0.599073 -0.172837,0.941407 -0.0048,0.10002 -0.0026,0.295963 0.0042,0.388671 0.0099,0.134537 0.0098,0.123047 0.0011,0.123047 -0.0076,0 -0.0081,-0.0033 -0.01128,-0.08105 z"
       id="path2144"
       transform="matrix(0.26458333,0,0,0.26458333,0.11241379,0.09320379)" /><path
       style="fill:#000000;fill-opacity:1;stroke-width:0.0039124;stroke-dasharray:none"
       d="m 47.640953,23.272015 c -0.0023,-0.0036 0.08563,-0.09097 0.178295,-0.17717 0.317122,-0.294993 0.650701,-0.552524 0.930752,-0.718563 0.03437,-0.02038 0.16709,-0.09566 0.294922,-0.167287 0.127832,-0.07163 0.23296,-0.13062 0.233617,-0.131095 6.57e-4,-4.75e-4 -0.155598,-0.314388 -0.347234,-0.697585 -0.191635,-0.383197 -0.372664,-0.746379 -0.402286,-0.807073 l -0.05386,-0.110351 h 0.02687 0.02687 l 0.09548,0.193103 0.09548,0.193104 -0.0037,0.01749 c -0.0072,0.03381 0.0099,0.06581 0.0412,0.07713 0.0116,0.0042 0.01734,0.01363 0.06484,0.106614 0.170456,0.333649 0.282281,0.548885 0.434397,0.836111 0.07197,0.135895 0.0958,0.184164 0.09213,0.186588 -0.0027,0.0018 -0.03572,0.02198 -0.07332,0.04484 -0.483979,0.294279 -0.908579,0.589257 -1.251954,0.869757 -0.07827,0.06394 -0.232105,0.195634 -0.289761,0.24806 l -0.04367,0.03971 h -0.02348 c -0.01292,0 -0.02442,-0.0015 -0.02557,-0.0034 z"
       id="path2146"
       transform="matrix(0.26458333,0,0,0.26458333,0.11241379,0.09320379)" /><path
       style="fill:#000000;fill-opacity:1;stroke-width:0.0039124;stroke-dasharray:none"
       d="m 48.447063,20.40625 c -0.01493,-0.03115 -0.03963,-0.08257 -0.05488,-0.114258 -0.247521,-0.514083 -0.481374,-1.038057 -0.566015,-1.268224 -0.01833,-0.04984 -0.117181,-0.361198 -0.117181,-0.369087 0,-0.0023 0.0091,-0.0036 0.02186,-0.0032 l 0.02186,8.15e-4 0.01346,0.04492 c 0.09865,0.329189 0.348627,0.911507 0.721468,1.680664 l 0.04118,0.08496 h -0.02731 -0.02731 z"
       id="path2148"
       transform="matrix(0.26458333,0,0,0.26458333,0.11241379,0.09320379)" /><path
       style="fill:#000000;fill-opacity:1;stroke-width:0.0039124;stroke-dasharray:none"
       d=""
       id="path2150"
       transform="matrix(0.26458333,0,0,0.26458333,0.11241379,0.09320379)" /><path
       style="fill:#000000;fill-opacity:1;stroke-width:0.0039124;stroke-dasharray:none"
       d=""
       id="path2152"
       transform="matrix(0.26458333,0,0,0.26458333,0.11241379,0.09320379)" /><path
       style="fill:#000000;fill-opacity:1;stroke-width:0.0039124;stroke-dasharray:none"
       d="m 47.708483,18.646373 c -0.02214,-0.0037 -0.02925,-0.0073 -0.06395,-0.03252 -0.02613,-0.01899 -0.03349,-0.02523 -0.07123,-0.06033 -0.02539,-0.02361 -0.138476,-0.08057 -0.188256,-0.09481 -0.02271,-0.0065 -0.04332,-0.01249 -0.0458,-0.01332 -0.0032,-0.0011 -0.0025,-0.0084 0.0026,-0.02618 0.04297,-0.149708 0.06064,-0.206321 0.06442,-0.206321 0.01264,0 0.106483,0.03055 0.14013,0.04563 0.108939,0.0488 0.134782,0.06462 0.219257,0.134207 0.01074,0.0088 0.02782,0.02214 0.03795,0.02953 0.02325,0.01697 0.03917,0.04 0.04959,0.07175 0.0082,0.02499 0.01108,0.06264 0.0048,0.06264 -0.0019,0 -0.0063,0.0078 -0.01,0.01726 -0.01985,0.05197 -0.07879,0.08259 -0.139504,0.07248 z m -0.06024,-0.07629 c 0.05675,-0.0054 0.06828,-0.01338 0.01875,-0.01298 -0.03524,2.9e-4 -0.04004,0.0011 -0.04004,0.0071 0,0.0086 0.0038,0.01248 0.0091,0.0092 0.0023,-0.0014 0.0077,-0.0029 0.01215,-0.0033 z"
       id="path2154"
       transform="matrix(0.26458333,0,0,0.26458333,0.11241379,0.09320379)" /><path
       style="fill:#000000;fill-opacity:1;stroke-width:0.0039124;stroke-dasharray:none"
       d="m 47.708483,18.646373 c -0.0099,-0.0017 -0.02225,-0.0052 -0.02734,-0.0078 -0.01858,-0.0097 -0.05771,-0.0392 -0.09395,-0.07091 -0.02936,-0.0257 -0.04924,-0.03883 -0.09532,-0.06293 -0.05186,-0.02713 -0.07245,-0.03515 -0.152626,-0.05944 -0.005,-0.0015 -0.0058,0.0017 0.03612,-0.141928 l 0.02664,-0.0912 0.01269,0.0021 c 0.03412,0.0055 0.121936,0.03823 0.181909,0.06772 0.06746,0.03318 0.08811,0.04557 0.122154,0.07331 0.01074,0.0088 0.02422,0.01942 0.02994,0.0237 0.04853,0.03631 0.07504,0.0593 0.08489,0.07361 0.01472,0.02139 0.02775,0.0598 0.02775,0.0818 0,0.02032 -0.01759,0.05594 -0.03865,0.07824 -0.02582,0.02736 -0.07157,0.04089 -0.1142,0.03379 z m -0.03362,-0.08039 c 0.01242,-0.0014 0.02368,-0.0043 0.02503,-0.0065 0.0026,-0.0042 -0.06734,-0.0019 -0.07155,0.0023 -0.0049,0.0049 0.0037,0.01044 0.01348,0.0087 0.0058,-10e-4 0.02062,-0.003 0.03304,-0.0045 z"
       id="path2156"
       transform="matrix(0.26458333,0,0,0.26458333,0.11241379,0.09320379)" /><path
       style="fill:#000000;fill-opacity:1;stroke-width:0.0039124;stroke-dasharray:none"
       d="m 47.708605,18.646391 c -0.02925,-0.0049 -0.05781,-0.02301 -0.116808,-0.07418 -0.03484,-0.03021 -0.05219,-0.04144 -0.113366,-0.07335 -0.033,-0.01721 -0.06818,-0.03208 -0.09375,-0.03962 -0.02251,-0.0066 -0.04296,-0.01281 -0.04544,-0.01371 -0.0032,-0.0012 -0.0023,-0.0098 0.0034,-0.03022 0.007,-0.0252 0.05079,-0.177582 0.05619,-0.195577 0.0031,-0.01029 0.01451,-0.0086 0.07572,0.01128 0.07661,0.02487 0.190424,0.08154 0.235884,0.117449 0.01848,0.0146 0.05124,0.04036 0.0728,0.05723 0.02156,0.01688 0.04431,0.03812 0.05055,0.0472 0.0145,0.02108 0.02751,0.05958 0.02751,0.08145 0,0.02025 -0.01747,0.05571 -0.03865,0.07844 -0.02526,0.02712 -0.07143,0.04072 -0.114078,0.03361 z m -0.0126,-0.08722 c 0.0032,-0.0033 -0.06535,7.1e-4 -0.06894,0.004 -0.001,9.32e-4 3.18e-4,0.003 0.003,0.0047 0.0056,0.0035 0.0613,-0.0038 0.06598,-0.0087 z"
       id="path2158"
       transform="matrix(0.26458333,0,0,0.26458333,0.11241379,0.09320379)" /><path
       style="fill:#000000;fill-opacity:1;stroke-width:0.0039124;stroke-dasharray:none"
       d="m 47.708605,18.646391 c -0.03006,-0.005 -0.05624,-0.02141 -0.11476,-0.07185 -0.01724,-0.01486 -0.04013,-0.03263 -0.05088,-0.03948 -0.04101,-0.02617 -0.129785,-0.06802 -0.166016,-0.07826 -0.02041,-0.0058 -0.03823,-0.01113 -0.0396,-0.01192 -0.0014,-7.89e-4 8.17e-4,-0.01332 0.0049,-0.02784 0.05657,-0.203126 0.05691,-0.204141 0.06809,-0.204141 0.0052,0 0.0344,0.0082 0.0649,0.01819 0.07476,0.02451 0.189341,0.08143 0.233955,0.116226 0.124892,0.09739 0.129145,0.101706 0.144088,0.146063 0.01149,0.03411 0.01052,0.05363 -0.004,0.08128 -0.0067,0.01266 -0.01853,0.02982 -0.02637,0.03814 -0.02559,0.02717 -0.07163,0.04071 -0.114235,0.03361 z m -0.01329,-0.0867 c 0.0027,-0.0028 -0.002,-0.0033 -0.01519,-0.0016 -0.0105,0.0014 -0.02589,0.0025 -0.03418,0.0025 -0.0085,0 -0.01508,0.0019 -0.01508,0.0044 0,0.0055 0.0587,7.68e-4 0.06445,-0.0052 z"
       id="path2160"
       transform="matrix(0.26458333,0,0,0.26458333,0.11241379,0.09320379)" /><path
       style="fill:#000000;fill-opacity:1;stroke-width:0.0039124;stroke-dasharray:none"
       d="m 47.708207,18.646453 c -0.02693,-0.0047 -0.05184,-0.01978 -0.106477,-0.06466 -0.02684,-0.02205 -0.05914,-0.04637 -0.07177,-0.05404 -0.03872,-0.02352 -0.125908,-0.06342 -0.158871,-0.07269 -0.01719,-0.0048 -0.03237,-0.0094 -0.03374,-0.01021 -0.0014,-7.75e-4 7.74e-4,-0.01329 0.0048,-0.02782 0.05596,-0.203567 0.05615,-0.204141 0.06888,-0.204141 0.0055,0 0.03452,0.0082 0.06453,0.01816 0.07937,0.02641 0.213239,0.09388 0.240633,0.12127 0.0029,0.0029 0.01166,0.01 0.01953,0.01584 0.04495,0.03335 0.09002,0.07216 0.09923,0.08546 0.0145,0.02093 0.0264,0.05735 0.0264,0.0808 0,0.03627 -0.03677,0.08751 -0.07422,0.103456 -0.02165,0.0092 -0.05453,0.01279 -0.0789,0.0086 z m -0.01526,-0.08605 c 0.0042,-0.0026 -0.004,-0.003 -0.02498,-0.0013 -0.01719,0.0014 -0.03293,0.004 -0.03498,0.0059 -0.005,0.0046 0.05193,3.26e-4 0.05996,-0.0045 z"
       id="path2162"
       transform="matrix(0.26458333,0,0,0.26458333,0.11241379,0.09320379)" /><path
       style="fill:#000000;fill-opacity:1;stroke-width:0.0039124;stroke-dasharray:none"
       d="m 47.708207,18.646453 c -0.02546,-0.0044 -0.05077,-0.01909 -0.09558,-0.0555 -0.09271,-0.07531 -0.149529,-0.105576 -0.273325,-0.145579 -0.0045,-0.0015 0.0077,-0.05276 0.03394,-0.14264 0.02433,-0.08333 0.02698,-0.08984 0.03655,-0.08984 0.0443,0 0.261895,0.09691 0.299266,0.133283 0.0032,0.0031 0.02418,0.01964 0.04666,0.03676 0.08038,0.06122 0.100541,0.0891 0.104678,0.144701 0.0015,0.02014 1.76e-4,0.02687 -0.0087,0.04446 -0.01433,0.02829 -0.04152,0.05632 -0.0637,0.0657 -0.02227,0.0094 -0.05487,0.01295 -0.07974,0.0087 z m -0.01659,-0.08624 c 0.0018,-0.003 -0.0042,-0.0034 -0.02028,-0.0015 -0.02991,0.0036 -0.03146,0.0057 -0.0042,0.0057 0.01205,0 0.02308,-0.0019 0.02453,-0.0042 z"
       id="path2164"
       transform="matrix(0.26458333,0,0,0.26458333,0.11241379,0.09320379)" /><path
       style="fill:#000000;fill-opacity:1;stroke-width:0.0039124;stroke-dasharray:none"
       d="m 47.705947,18.646375 c -0.02468,-0.0051 -0.05019,-0.02034 -0.09941,-0.05955 -0.02422,-0.0193 -0.05371,-0.04165 -0.06553,-0.04967 -0.03416,-0.02319 -0.12047,-0.06522 -0.160526,-0.07817 -0.02021,-0.0065 -0.03875,-0.0126 -0.0412,-0.01347 -0.0031,-0.0011 -9.43e-4,-0.01509 0.0071,-0.04582 0.01516,-0.05822 0.03258,-0.119083 0.04481,-0.156535 0.0091,-0.02788 0.01072,-0.03027 0.02046,-0.03027 0.0388,0 0.222694,0.07933 0.279074,0.120382 0.04561,0.03322 0.07452,0.05577 0.108773,0.08485 0.04155,0.03528 0.05785,0.06377 0.0609,0.106436 0.0017,0.02333 6.09e-4,0.02914 -0.0087,0.04743 -0.01437,0.02836 -0.04153,0.05641 -0.06376,0.06585 -0.02211,0.0094 -0.05906,0.01324 -0.082,0.0085 z m -0.01454,-0.08583 c 0.0028,-0.0046 -0.0058,-0.0047 -0.02734,-2.24e-4 l -0.01563,0.0032 0.02028,4.49e-4 c 0.01115,2.47e-4 0.02136,-0.0013 0.02269,-0.0035 z"
       id="path2166"
       transform="matrix(0.26458333,0,0,0.26458333,0.11241379,0.09320379)" /></g><path
     style="fill:#007cc7;fill-opacity:1;stroke-width:0.202214"
     d="m 137.4134,105.39333 c -0.75184,-0.11302 -0.82976,-0.40146 -0.42955,-1.59015 2.3369,-6.940988 6.36801,-14.273745 10.72404,-19.507469 3.44997,-4.145111 4.79778,-5.159248 9.02793,-6.792934 3.39432,-1.310885 6.17403,-1.898478 9.85886,-2.084026 3.64812,-0.183699 8.92696,-0.0076 9.04269,0.301591 0.0401,0.107068 0.56361,1.286623 1.16343,2.621234 l 1.09057,2.426565 -0.54245,0.386551 c -1.04806,0.746849 -3.02237,2.92587 -3.44842,3.805961 -0.53082,1.096526 -0.60425,4.060628 -0.13365,5.394472 0.28687,0.81307 0.28174,0.847705 -0.15166,1.023959 -0.24671,0.100333 -1.26753,0.516568 -2.26849,0.924966 -1.00096,0.408398 -6.46073,3.042271 -12.13282,5.853052 -11.25935,5.579518 -13.1912,6.426808 -15.95295,6.996778 -1.69869,0.35058 -4.37838,0.46031 -5.84753,0.23945 z"
     id="path7961" /></g></svg>
