<?xml version="1.0" encoding="UTF-8" standalone="no"?>
<!-- Created with Inkscape (http://www.inkscape.org/) -->

<svg
   width="141.7"
   height="141.7"
   viewBox="0 0 141.7 141.7"
   version="1.1"
   id="svg1"
   xml:space="preserve"
   sodipodi:docname="cf_icon_governor_grey.svg"
   inkscape:version="1.4.2 (ebf0e940d0, 2025-05-08)"
   xmlns:inkscape="http://www.inkscape.org/namespaces/inkscape"
   xmlns:sodipodi="http://sodipodi.sourceforge.net/DTD/sodipodi-0.dtd"
   xmlns="http://www.w3.org/2000/svg"
   xmlns:svg="http://www.w3.org/2000/svg"><sodipodi:namedview
     id="namedview1"
     pagecolor="#ffffff"
     bordercolor="#000000"
     borderopacity="0.25"
     inkscape:showpageshadow="2"
     inkscape:pageopacity="0.0"
     inkscape:pagecheckerboard="0"
     inkscape:deskcolor="#d1d1d1"
     showgrid="false"
     inkscape:zoom="4.7100173"
     inkscape:cx="41.294965"
     inkscape:cy="41.719592"
     inkscape:window-width="2546"
     inkscape:window-height="1405"
     inkscape:window-x="6"
     inkscape:window-y="27"
     inkscape:window-maximized="1"
     inkscape:current-layer="svg1" /><defs
     id="defs1" /><path
     id="path6"
     style="display:inline;fill:#828282;fill-opacity:1;stroke-width:0.0675209"
     d="m 91.661391,25.224737 a 3.7990982,3.7990982 0 0 0 -3.495056,2.366686 L 51.657463,100.60868 a 10.207852,10.207852 0 0 0 -0.70333,1.40617 10.207852,10.207852 0 0 0 5.606031,13.30291 10.207852,10.207852 0 0 0 13.302901,-5.60604 10.207852,10.207852 0 0 0 0.480009,-1.49991 L 95.204058,30.455788 A 3.7990982,3.7990982 0 0 0 93.117128,25.50499 3.7990982,3.7990982 0 0 0 91.661391,25.22473 Z M 70.347495,41.699253 c -0.754023,0.0061 -1.507814,0.02508 -2.261161,0.05745 -0.277328,0.0118 -0.498384,0.248625 -0.493756,0.526151 l 0.230196,13.797639 c 0.0045,0.277541 0.23213,0.527969 0.507497,0.562961 0.870865,0.110646 1.737411,0.247023 2.598836,0.408841 0.272798,0.05129 0.593926,-0.105585 0.718058,-0.353868 2.340967,-4.682171 4.681686,-9.36425 7.022501,-14.046485 0.124105,-0.248265 0.002,-0.477882 -0.273885,-0.510441 -2.337771,-0.27612 -4.689158,-0.423798 -7.043114,-0.442218 -0.27757,-0.002 -0.727617,-0.002 -1.005179,0 z m -8.177872,0.588968 c -0.01657,5.11e-4 -0.03384,0.002 -0.05107,0.0045 -12.331523,1.689311 -23.908706,6.919674 -33.326954,15.057049 -0.210034,0.181482 -0.249168,0.514058 -0.08886,0.740634 l 5.184915,7.327302 c 0.160307,0.226603 0.471902,0.277934 0.697933,0.116797 8.441217,-6.016888 18.220116,-9.239371 28.062035,-9.247344 0.277571,-2.34e-4 0.493974,-0.222291 0.48345,-0.499641 L 62.635848,42.728572 c -0.0098,-0.260047 -0.214188,-0.448719 -0.466269,-0.440256 z m 30.42725,3.220205 c -0.211895,-0.0089 -0.40998,0.124264 -0.478538,0.339155 -1.799536,5.640142 -3.600917,11.279451 -5.40332,16.918699 -0.08455,0.264397 0.03656,0.59907 0.268959,0.750929 1.056944,0.69082 2.086436,1.427246 3.086204,2.207667 0.218796,0.170792 0.537772,0.137746 0.714131,-0.07656 L 102.95589,50.854823 c 0.17636,-0.214324 0.12547,-0.501995 -0.11532,-0.640018 -3.223972,-1.847739 -6.602311,-3.412356 -10.096445,-4.676921 -0.04891,-0.01793 -0.09835,-0.02749 -0.147256,-0.0293 z m 15.311307,8.0748 c -0.15127,0.0054 -0.30023,0.07052 -0.40198,0.188995 L 94.478147,68.937745 c -0.180847,0.210557 -0.167501,0.539699 0.02749,0.737196 4.934469,4.996461 8.771923,11.132565 11.257713,18.00241 0.0944,0.261013 0.38439,0.408896 0.65031,0.32933 l 23.18684,-6.936625 c 0.26591,-0.07957 0.39399,-0.350933 0.28368,-0.605653 -4.64577,-10.728027 -12.12779,-19.987637 -21.64078,-26.782989 -0.0988,-0.07059 -0.21757,-0.102385 -0.33522,-0.09816 z m -82.826583,7.398463 c -0.10361,0.0039 -0.207266,0.049 -0.292042,0.135953 -7.439955,7.630393 -12.867902,16.989859 -15.7957263,27.23699 -0.076258,0.266903 0.081245,0.543584 0.3489675,0.616953 l 5.2776728,1.445916 c 0.26769,0.07329 0.568588,-0.0756 0.674371,-0.332274 3.40444,-8.258935 8.618366,-15.578946 15.166509,-21.29279 0.209127,-0.182527 0.246572,-0.509639 0.08148,-0.732779 l -5.101961,-6.896364 c -0.09285,-0.125535 -0.226081,-0.187088 -0.359274,-0.181573 z M 131.84251,86.711398 c -0.05,-0.0019 -0.10046,0.0039 -0.15068,0.01793 l -23.7547,6.433044 c -0.26794,0.07258 -0.43189,0.349998 -0.36909,0.620383 1.66719,7.177875 1.88837,14.743585 0.64885,22.197355 -0.0455,0.27382 0.14058,0.49523 0.41816,0.49523 h 25.18983 c 0.27757,0 0.53916,-0.22197 0.5821,-0.49621 0.48943,-3.12591 0.74776,-6.28368 0.77253,-9.44759 0.002,-0.27757 0.002,-0.72761 0,-1.00517 -0.0488,-6.255618 -1.01017,-12.470865 -2.85307,-18.449053 -0.0665,-0.215505 -0.26727,-0.358462 -0.48394,-0.36565 z M 8.2163933,93.218063 c -0.231525,-0.01 -0.4394746,0.146507 -0.4863899,0.384795 -0.7732965,3.928126 -1.178077,7.919842 -1.2093539,11.923242 -0.00221,0.27757 -0.00221,0.72761 0,1.00518 0.024776,3.1639 0.2830994,6.32167 0.7725347,9.44759 0.042933,0.27422 0.3045269,0.4962 0.5821001,0.4962 h 2.6194517 c 0.27757,0 0.486538,-0.22458 0.46921,-0.50159 -0.434365,-6.94489 0.408799,-13.99129 2.481537,-20.735244 0.08155,-0.265335 0.175901,-0.562466 0.208593,-0.664063 L 8.3165206,93.232787 c -0.033627,-0.0089 -0.067044,-0.01339 -0.1001285,-0.01475 z m 52.1602997,7.427917 a 5.2172467,5.2172467 0 0 1 1.999072,0.38479 5.2172467,5.2172467 0 0 1 2.865342,6.79919 5.2172467,5.2172467 0 0 1 -6.799183,2.86584 5.2172467,5.2172467 0 0 1 -2.865833,-6.79968 5.2172467,5.2172467 0 0 1 4.800602,-3.25014 z" /></svg>
