<?xml version="1.0" encoding="UTF-8" standalone="no"?>
<!-- Generator: Adobe Illustrator 18.1.1, SVG Export Plug-In . SVG Version: 6.00 Build 0)  -->

<svg
   version="1.1"
   id="Capa_1"
   x="0px"
   y="0px"
   viewBox="0 0 141.7 141.7"
   enable-background="new 0 0 141.7 141.7"
   xml:space="preserve"
   sodipodi:docname="cf_icon_heli.svg"
   inkscape:version="1.2 (dc2aedaf03, 2022-05-15)"
   xmlns:inkscape="http://www.inkscape.org/namespaces/inkscape"
   xmlns:sodipodi="http://sodipodi.sourceforge.net/DTD/sodipodi-0.dtd"
   xmlns="http://www.w3.org/2000/svg"
   xmlns:svg="http://www.w3.org/2000/svg"><defs
   id="defs1340" /><sodipodi:namedview
   id="namedview1338"
   pagecolor="#ffffff"
   bordercolor="#666666"
   borderopacity="1.0"
   inkscape:showpageshadow="2"
   inkscape:pageopacity="0.0"
   inkscape:pagecheckerboard="0"
   inkscape:deskcolor="#d1d1d1"
   showgrid="false"
   inkscape:zoom="22.695837"
   inkscape:cx="54.811815"
   inkscape:cy="77.723506"
   inkscape:window-width="1920"
   inkscape:window-height="991"
   inkscape:window-x="-9"
   inkscape:window-y="-9"
   inkscape:window-maximized="1"
   inkscape:current-layer="Capa_1" />

<g
   id="g20360"
   transform="matrix(0.93479085,0.42882562,-0.45794935,0.87534205,11.592198,-29.317252)"
   style="fill:#818181;fill-opacity:1"><g
     id="g306"
     transform="matrix(5.7563862,0,0,5.969262,28.122144,29.947235)"
     style="fill:#818181;fill-opacity:1"><g
       id="g928"
       style="font-style:normal;font-weight:normal;font-size:43.7402px;line-height:1.25;font-family:sans-serif;display:inline;fill:#818181;fill-opacity:1;stroke:none;stroke-width:1.09351"
       transform="matrix(0.05083588,0,0,0.05083588,5.205767,0.17802697)"><path
         id="path910"
         d="m 144.30283,148.30013 c 0.25782,0.74679 -13.24009,6.26181 -34.53704,18.14964 -8.45111,4.72298 -24.240969,13.83983 -36.538646,20.1064 -9.980481,5.10372 -21.89867,10.79968 -34.792987,13.70718 -4.976082,1.12562 -10.338905,1.80119 -15.841275,1.41125 -5.063965,-0.94995 -10.241552,-2.89728 -14.9460255,-6.10092 2.2612635,-7.43137 4.9140995,-14.9414 8.0026005,-22.42262 12.20084,-29.55388 28.869645,-53.09946 47.967242,-70.35722 0,0 1.1e-5,0 1.1e-5,0 18.952645,-8.652971 35.213988,-12.608393 49.93863,-12.891383 6.70309,-0.09484 13.24146,0.570067 17.94583,1.132812 11.00725,1.312131 17.2033,2.152351 17.1987,2.501743 -0.009,0.6753 -6.29346,0.816737 -17.4279,0.358641 -4.62867,-0.187936 -11.23314,-0.444354 -17.56166,-0.03152 -13.99504,0.841991 -28.971255,5.018155 -47.014751,13.600427 -3e-6,0 -6e-6,0 -1e-5,0 -18.304716,16.19055 -34.314302,37.88773 -46.363954,65.38252 -3.050519,6.96065 -5.701253,13.96523 -7.991911,20.91706 3.183084,1.39914 6.957464,1.8429 10.74595,1.58234 4.650242,0.40059 9.423423,-0.17707 14.034794,-1.13328 12.004103,-2.49926 23.646901,-7.8413 33.649213,-12.62422 14.117147,-6.77459 26.472212,-13.52538 37.053209,-18.81306 22.00026,-11.00661 36.09403,-15.59372 36.47998,-14.47579 z"
         style="opacity:1;fill:#818181;fill-opacity:1;stroke:none;stroke-width:0;stroke-linecap:butt;stroke-linejoin:miter;stroke-miterlimit:4;stroke-dasharray:none;stroke-opacity:1" /><path
         id="path912"
         d="m 153.3887,107.16305 c -1.21243,-2.47944 34.80763,-22.586633 80.40193,-44.882138 45.59431,-22.295505 83.58239,-38.378114 84.79482,-35.898679 1.21244,2.479434 -34.80762,22.586632 -80.40193,44.882137 -45.5943,22.295505 -83.58238,38.37811 -84.79482,35.89868 z"
         style="fill:#818181;fill-opacity:1;stroke:none;stroke-width:0.264583px;stroke-linecap:butt;stroke-linejoin:miter;stroke-opacity:1" /><path
         id="path914"
         d="m 77.947508,197.06729 c -1.572191,-3.09903 22.168242,-15.29339 51.924852,-28.48985 10.61765,-4.70872 20.60658,-9.04448 29.06305,-12.8533 -15.93994,2.34199 -27.02424,1.96053 -27.02424,-0.22885 0,-2.16283 11.25852,-2.59739 28.93808,-0.22885 -8.0432,4.56174 -17.59959,10.14165 -27.92812,16.05929 -29.24348,16.75478 -53.409299,28.82508 -54.973622,25.74156 z"
         style="fill:#818181;fill-opacity:1;stroke:none;stroke-width:0.264583px;stroke-linecap:butt;stroke-linejoin:miter;stroke-opacity:1" /><path
         id="path916"
         d="M -91.538358,155.09556 C -92.426691,153.28717 -21.694973,116.71992 66.344941,73.472243 154.38485,30.224565 226.5585,-3.4073196 227.44684,-1.5989272 228.33517,0.20946525 157.60345,36.776711 69.563539,80.02439 -18.476375,123.27207 -90.650025,156.90395 -91.538358,155.09556 Z"
         style="fill:#818181;fill-opacity:1;stroke:none;stroke-width:0.264583px;stroke-linecap:butt;stroke-linejoin:miter;stroke-opacity:1" /><path
         id="path918"
         d="m 83.72155,180.80292 c 0.271145,-0.84055 3.583558,-0.5252 7.393781,0.7039 3.810222,1.2291 6.682517,2.90882 6.411372,3.74937 -0.271144,0.84055 -3.583558,0.5252 -7.39378,-0.7039 -3.810223,-1.2291 -6.682518,-2.90882 -6.411373,-3.74937 z"
         style="fill:#818181;fill-opacity:1;stroke:none;stroke-width:0.264583px;stroke-linecap:butt;stroke-linejoin:miter;stroke-opacity:1" /><path
         id="path920"
         d="m 148.29402,93.964079 c 0.89824,-0.449118 5.43674,7.707801 11.19318,19.948691 0,0 1e-5,0 1e-5,0 -2.47288,1.9781 -5.13157,4.2371 -7.56507,6.73402 -1.38634,1.42246 -2.6476,2.86779 -3.78045,4.35889 -2.15947,2.66249 -3.65789,5.31888 -4.34224,8.02592 -0.68921,2.58558 -0.59975,5.2701 -0.35603,7.39809 0,0 0,0 0,0 0.5527,4.76866 1.56659,7.646 0.85941,7.87044 -0.26522,0.0842 -2.12716,-2.41762 -3.45557,-7.3653 0,0 0,0 0,0 -0.6195,-2.30392 -1.03567,-5.34257 -0.44376,-8.64285 0.64173,-3.38068 2.24865,-6.69684 4.6656,-9.74751 1.16215,-1.37401 2.45801,-2.66036 3.87895,-3.88082 2.50022,-2.14748 5.20755,-3.93417 7.74718,-5.45946 0,0 0,0 0,0 -5.60564,-10.49896 -9.30572,-18.787858 -8.40121,-19.240111 z"
         style="fill:#818181;fill-opacity:1;stroke:none;stroke-width:0.264583px;stroke-linecap:butt;stroke-linejoin:miter;stroke-opacity:1" /><path
         id="path922"
         d="m 73.924347,81.94024 c 0.765272,-0.382636 2.662729,1.859552 4.235395,5.004883 1.572666,3.145332 2.227943,6.00861 1.462671,6.391246 -0.765272,0.382636 -2.662729,-1.859552 -4.235395,-5.004883 -1.572666,-3.145332 -2.227943,-6.00861 -1.462671,-6.391246 z"
         style="fill:#818181;fill-opacity:1;stroke:none;stroke-width:0.264583px;stroke-linecap:butt;stroke-linejoin:miter;stroke-opacity:1" /><path
         id="path924"
         d="m 293.40242,18.787349 c 0.48392,0.314055 -2.88175,4.592919 -2.89373,11.523586 -0.07,2.207278 0.48845,4.831317 0.11446,8.07774 1.65002,2.219895 3.50505,4.770692 5.5511,6.843237 1.6976,1.869341 3.68238,3.593654 5.92474,5.087061 0.5408,0.360167 1.08908,0.701887 1.64332,1.025122 0,0 0,10e-7 0,10e-7 8.11766,4.79014 17.8281,6.877047 23.95107,8.194076 6.53203,1.405017 10.55151,2.225808 10.4789,2.819837 -0.0558,0.456116 -4.17766,0.63356 -10.91578,-0.07431 -6.41632,-0.674064 -16.44175,-2.31249 -25.51688,-7.483446 0,-10e-7 -10e-6,-10e-7 -10e-6,-10e-7 -0.62756,-0.36157 -1.24751,-0.745777 -1.85807,-1.152609 -2.53266,-1.687568 -4.7538,-3.664038 -6.6301,-5.821913 -2.34684,-2.879114 -4.27503,-6.04269 -5.86381,-8.666626 0.38684,-2.964893 -0.0564,-6.139087 0.20287,-9.03639 1.01191,-8.636157 6.08789,-11.156266 5.81192,-11.335364 z"
         style="fill:#818181;fill-opacity:1;stroke:none;stroke-width:0.264583px;stroke-linecap:butt;stroke-linejoin:miter;stroke-opacity:1" /><path
         id="path926"
         d="m 298.82717,20.522621 c -10.52641,-8.380602 -12.08193,-11.6347262 -3.47211,-7.263654 8.60977,4.371038 24.14066,14.720261 34.66708,23.100866 10.5264,8.380607 12.08192,11.634726 3.4721,7.26365 -8.60976,-4.371034 -24.14066,-14.720257 -34.66707,-23.100862 z"
         style="fill:#818181;fill-opacity:1;stroke:none;stroke-width:0.304059px;stroke-linecap:butt;stroke-linejoin:miter;stroke-opacity:1" /></g><path
       style="fill:#000000;stroke:#ffffff;stroke-width:1.00157"
       d="m 23.103474,37.760345 c -0.614118,-0.04186 -1.174395,-0.133929 -1.245059,-0.204593 -0.149587,-0.149587 0.165705,-1.117133 1.065371,-3.26933 2.021239,-4.835241 4.830604,-9.076135 8.109426,-12.241634 0.972881,-0.939257 1.181335,-1.081591 2.301272,-1.571341 1.577987,-0.690054 3.609015,-1.365502 5.016207,-1.668212 1.700935,-0.365899 3.373476,-0.466649 6.469575,-0.389712 l 2.832618,0.07039 0.14203,0.455079 c 0.07812,0.250294 0.443549,1.05798 0.812074,1.794859 l 0.670044,1.33978 -0.456127,0.256359 c -0.834275,0.468888 -1.89178,1.567889 -2.293093,2.383073 -0.329399,0.669104 -0.371945,0.863168 -0.366844,1.673254 0.0045,0.710346 0.07066,1.073275 0.294387,1.614287 l 0.288615,0.697921 -0.808491,0.255231 c -1.637971,0.517088 -4.248206,1.712498 -9.376907,4.294342 -5.306864,2.671535 -7.378459,3.584974 -9.291437,4.096921 -0.928774,0.248556 -1.348652,0.319213 -2.704344,0.455089 -0.188505,0.01889 -0.845198,9.9e-5 -1.459317,-0.04176 z"
       id="path1831"
       transform="matrix(0.26458333,0,0,0.26458333,0.11241379,0.09320379)" /><path
       style="fill:#818181;fill-opacity:1;stroke-width:0.114246"
       d="m 22.90623,37.68322 c -1.113304,-0.170785 -1.058916,-0.142834 -0.986122,-0.506803 0.03719,-0.185954 0.293355,-0.915146 0.569255,-1.620427 2.053823,-5.250183 4.767171,-9.567872 8.17925,-13.015456 1.208328,-1.220901 1.416976,-1.381158 2.40691,-1.848681 2.196386,-1.037305 5.098709,-1.8897 7.220088,-2.1205 1.234056,-0.134262 4.88097,-0.15993 6.360565,-0.04477 0.840489,0.06542 0.965561,0.103624 1.019937,0.311559 0.03409,0.130349 0.391342,0.904761 0.793901,1.720915 0.431297,0.874418 0.680057,1.501208 0.605646,1.526012 -0.334992,0.111663 -1.534405,1.126719 -1.956018,1.655364 -0.860212,1.078591 -0.964829,1.367014 -0.961319,2.650284 0.0025,0.922628 0.05056,1.246455 0.249666,1.682945 0.135597,0.297269 0.211306,0.560329 0.168242,0.584578 -0.04306,0.02425 -0.361054,0.135189 -0.706647,0.246535 -1.341092,0.432086 -4.046495,1.670329 -9.48238,4.340017 -7.069104,3.471798 -8.516151,4.054722 -10.910449,4.395131 -0.779859,0.110876 -1.996411,0.131366 -2.570525,0.0433 z"
       id="path1833"
       transform="matrix(0.26458333,0,0,0.26458333,0.11241379,0.09320379)" /><path
       style="fill:#818181;fill-opacity:1;stroke-width:0.114246"
       d="m 22.392126,37.54102 c -0.29169,-0.06455 -0.340542,-0.126349 -0.327998,-0.414903 0.04108,-0.945095 2.413788,-6.07592 3.934268,-8.50761 1.541694,-2.465618 3.701871,-5.142313 5.420788,-6.716948 1.210726,-1.109101 3.819696,-2.21116 6.988198,-2.951896 1.282057,-0.299721 1.522165,-0.317882 4.766515,-0.360517 1.879048,-0.02469 3.627833,-0.0132 3.886189,0.02554 l 0.469738,0.07044 0.712194,1.532836 c 0.391708,0.843061 0.712195,1.605879 0.712195,1.695153 0,0.08927 -0.207479,0.306099 -0.461064,0.481833 -0.636796,0.4413 -1.771498,1.676439 -2.073704,2.257255 -0.369672,0.710481 -0.429932,2.410354 -0.116933,3.298618 l 0.227682,0.646143 -0.872972,0.315111 c -1.321885,0.477152 -4.13365,1.769585 -8.962023,4.119411 -6.78868,3.303849 -8.392574,3.98266 -10.355294,4.382637 -1.127176,0.229703 -3.184426,0.295828 -3.947779,0.126891 z"
       id="path1904"
       transform="matrix(0.26458333,0,0,0.26458333,0.11241379,0.09320379)" /><path
       style="fill:#818181;fill-opacity:1;stroke:#000000;stroke-width:0;stroke-linecap:butt;stroke-linejoin:miter;stroke-dasharray:none;stroke-opacity:1"
       d="m 12.696658,4.9352854 c 0.0016,0.00119 0.0048,0.00329 0.0062,0.00517 4.5e-4,6.085e-4 4.77e-4,0.00153 10e-4,0.00206 8.73e-4,8.732e-4 0.0023,0.00114 0.0031,0.00206 0.0023,0.00257 0.004,0.0056 0.0062,0.00827 9.26e-4,0.00114 0.0024,0.00185 0.0031,0.0031 3.44e-4,5.821e-4 -3.18e-4,0.00146 0,0.00206 7.67e-4,0.00153 0.002,0.00278 0.0031,0.00414 0.0014,0.00172 0.0028,0.00344 0.0041,0.00517 6.88e-4,0.00103 0.0013,0.00212 0.0021,0.0031 0.0014,0.00183 0.0034,0.0028 0.0052,0.00414 0.0011,8.466e-4 0.0019,0.0023 0.0031,0.0031 6.35e-4,4.233e-4 0.0015,4.762e-4 0.0021,0.00103 5.56e-4,5.556e-4 4.76e-4,0.00153 10e-4,0.00206 2.43e-4,2.437e-4 7.14e-4,-1.54e-4 0.001,0 0.0011,5.556e-4 0.0021,0.0013 0.0031,0.00206 0.0011,9.26e-4 0.0019,0.0023 0.0031,0.0031 6.35e-4,4.233e-4 0.0015,4.762e-4 0.0021,0.00103 2.44e-4,2.434e-4 -2.43e-4,7.937e-4 0,0.00103 2.44e-4,2.437e-4 7.15e-4,-1.539e-4 0.001,0 0.0013,6.35e-4 10e-4,0.00101 10e-4,0.00206"
       id="path2062" /><path
       style="fill:#818181;fill-opacity:1;stroke:#000000;stroke-width:0.065;stroke-linecap:butt;stroke-linejoin:miter;stroke-dasharray:none;stroke-opacity:1"
       d="m 12.644982,4.9425201 c 0.0093,0.00276 0.01877,0.00501 0.0279,0.00827 0.0046,0.00164 0.02264,0.010803 0.02791,0.013435 0.0021,0.00103 0.0041,0.00206 0.0062,0.0031 6.88e-4,3.44e-4 0.0015,5.821e-4 0.0021,0.00103 7.67e-4,5.821e-4 0.0012,0.00153 0.0021,0.00206 2.91e-4,1.911e-4 7.41e-4,-1.912e-4 10e-4,0 8.2e-4,5.292e-4 0.0013,0.00146 0.0021,0.00206 0.0019,0.00156 0.0043,0.00254 0.0062,0.00414 0.0011,9.261e-4 0.0022,0.00193 0.0031,0.0031 2.07e-4,2.645e-4 -3.17e-4,8.731e-4 0,0.00103 6.09e-4,3.175e-4 0.0014,-2.177e-4 0.0021,0 4.5e-4,1.543e-4 6.88e-4,6.879e-4 10e-4,0.00103 6.88e-4,6.879e-4 0.0015,0.00132 0.0021,0.00206 0.0011,0.00132 0.0019,0.00292 0.0031,0.00414 2.43e-4,2.437e-4 7.67e-4,-2.067e-4 10e-4,0 0.0012,8.731e-4 0.0019,0.00222 0.0031,0.0031 5.56e-4,4.233e-4 0.0015,-3.175e-4 0.0021,0 8.73e-4,4.233e-4 0.0012,0.00164 0.0021,0.00206 3.17e-4,1.542e-4 7.94e-4,-2.435e-4 10e-4,0 2.43e-4,2.436e-4 -1.55e-4,7.143e-4 0,0.00103 0.0024,0.00473 -4.24e-4,-0.00438 0.0021,0.0031 2.18e-4,6.615e-4 0,0.00138 0,0.00206 0,0.00138 0,0.00276 0,0.00414"
       id="path2064" /><path
       style="fill:#818181;fill-opacity:1;stroke-width:0.000959646;stroke-dasharray:none"
       d="m 47.322266,18.475795 c -0.02041,-6.05e-4 -0.180371,-0.0046 -0.355469,-0.009 -0.291847,-0.0072 -0.501137,-0.01239 -1.654297,-0.04103 -1.216668,-0.03021 -1.895093,-0.04018 -2.442383,-0.03589 l -0.290039,0.0023 v -0.03947 -0.03947 l 0.243164,0.0027 c 0.332451,0.0037 0.625751,0.01024 0.981445,0.02201 0.154184,0.0051 0.445983,0.0162 0.873047,0.0332 0.809298,0.03223 1.609621,0.04758 2.123047,0.04073 0.232015,-0.0031 0.329742,-0.0059 0.492928,-0.01396 l 0.05152,-0.0026 -0.0076,0.02457 c -0.0042,0.01352 -0.0069,0.0253 -0.006,0.0262 8.94e-4,8.94e-4 0.02246,0.0078 0.04792,0.01537 0.02546,0.0076 0.04703,0.01448 0.04793,0.01537 0.0016,0.0016 -0.02484,0.0013 -0.105143,-0.0011 z"
       id="path2066"
       transform="matrix(0.26458333,0,0,0.26458333,0.11241379,0.09320379)" /><path
       style="fill:#000000;stroke:#ffffff;stroke-width:1.00157"
       d="m 23.029788,37.849243 c -0.341851,-0.01469 -0.687838,-0.06966 -0.982913,-0.156162 -0.09511,-0.02788 -0.398972,-0.135689 -0.410302,-0.145569 -0.01274,-0.01111 0.396077,-1.175698 0.641973,-1.828762 1.404441,-3.729982 3.218834,-7.078315 5.406097,-9.976563 0.312778,-0.414448 0.653444,-0.846789 0.938778,-1.191406 0.121655,-0.146931 0.159994,-0.183594 0.191989,-0.183594 0.04654,0 0.0623,-0.02467 -0.144625,0.226453 -2.233296,2.710321 -4.19583,5.996324 -5.678518,9.507922 -0.637849,1.510683 -1.032844,2.569123 -1.140515,3.05616 -0.03732,0.168798 -0.04109,0.344984 -0.0084,0.391673 0.08629,0.123189 1.268593,0.254569 2.344136,0.260483 0.37041,0.002 0.467622,-0.003 0.796875,-0.04106 0.97527,-0.112812 1.317734,-0.17066 1.960937,-0.331238 2.023875,-0.505265 3.854155,-1.294425 9.140625,-3.941154 2.347605,-1.175354 3.593263,-1.791187 3.603122,-1.781327 0.0044,0.0044 -0.261347,0.144899 -0.590536,0.312234 -0.329187,0.167334 -1.066101,0.546804 -1.637586,0.843266 -3.293088,1.708313 -5.258545,2.670788 -6.839609,3.349325 -1.940276,0.832698 -3.625397,1.349015 -5.066641,1.552407 -0.581384,0.08205 -0.653366,0.08623 -1.492187,0.08664 -0.438281,2.19e-4 -0.903001,-0.0042 -1.032712,-0.0097 z"
       id="path2068"
       transform="matrix(0.26458333,0,0,0.26458333,0.11241379,0.09320379)" /><path
       style="fill:#818181;fill-opacity:1;stroke-width:0.00383858;stroke-dasharray:none"
       d="m 28.789062,24.356633 c 0,-0.01105 0.487675,-0.576281 0.718874,-0.833196 0.734359,-0.816038 1.487047,-1.569412 2.399584,-2.401771 0.172838,-0.157652 0.137967,-0.138554 0.826855,-0.452846 2.653742,-1.210719 5.167628,-1.96737 7.359375,-2.215088 0.120312,-0.0136 0.241602,-0.0284 0.269531,-0.0329 0.04613,-0.0074 0.05078,-0.0045 0.05078,0.03159 0,0.03381 -0.0071,0.03977 -0.04707,0.03977 -0.133621,0 -0.839638,0.09088 -1.288867,0.165905 -1.625436,0.271462 -3.945681,1.009375 -5.914518,1.881007 -0.768931,0.340417 -1.115084,0.556513 -1.616454,1.009119 -0.730736,0.659664 -1.709229,1.67509 -2.468003,2.561157 -0.158389,0.184961 -0.223971,0.250773 -0.252086,0.25297 -0.0209,0.0016 -0.038,-9.37e-4 -0.038,-0.0057 z"
       id="path2070"
       transform="matrix(0.26458333,0,0,0.26458333,0.11241379,0.09320379)" /><path
       style="fill:#818181;fill-opacity:1;stroke-width:0.00383858;stroke-dasharray:none"
       d="m 40.414062,18.451662 c 0,-0.02648 0.0088,-0.0376 0.0296,-0.0376 0.01628,0 0.09889,-0.007 0.183594,-0.01547 0.310152,-0.03116 0.932383,-0.06289 1.431343,-0.07298 0.509092,-0.0103 0.511718,-0.01019 0.511718,0.02173 0,0.03088 -0.01097,0.03244 -0.292968,0.0416 -0.889071,0.02887 -1.739327,0.07249 -1.835938,0.09418 -0.02017,0.0045 -0.02734,-0.0037 -0.02734,-0.03146 z"
       id="path2072"
       transform="matrix(0.26458333,0,0,0.26458333,0.11241379,0.09320379)" /><path
       style="fill:#818181;fill-opacity:1;stroke-width:0.00383858;stroke-dasharray:none"
       d=""
       id="path2074"
       transform="matrix(0.26458333,0,0,0.26458333,0.11241379,0.09320379)" /><path
       style="fill:#818181;fill-opacity:1;stroke-width:0.00383858;stroke-dasharray:none"
       d=""
       id="path2076"
       transform="matrix(0.26458333,0,0,0.26458333,0.11241379,0.09320379)" /><path
       style="fill:#818181;fill-opacity:1;stroke-width:0.000959646;stroke-dasharray:none"
       d="m 41.803451,30.692707 c 0.0014,-0.01452 -0.02055,-0.0035 0.350846,-0.175998 1.439233,-0.668461 2.522959,-1.125497 3.370006,-1.421222 0.172154,-0.0601 0.40757,-0.136573 0.830154,-0.269659 0.214287,-0.06749 0.389629,-0.124593 0.389648,-0.126903 0,-0.0023 -0.06848,-0.169871 -0.152228,-0.372359 -0.200351,-0.484431 -0.231162,-0.564323 -0.281866,-0.730863 -0.07081,-0.232581 -0.116545,-0.495663 -0.132076,-0.759766 -0.0023,-0.03867 -0.005,-0.07954 -0.0061,-0.09082 -0.0019,-0.01952 -0.0015,-0.02051 0.0073,-0.02051 0.0088,0 0.0094,0.0017 0.01192,0.03223 0.0076,0.09154 0.03485,0.267647 0.06145,0.397461 0.05072,0.247479 0.140997,0.552337 0.243497,0.822265 0.122374,0.322266 0.281838,0.628814 0.404557,0.777708 l 0.02284,0.02771 -0.04957,4.64e-4 c -0.06292,5.89e-4 -0.121204,0.0082 -0.229415,0.03005 -0.793734,0.160092 -2.662417,0.884758 -4.628747,1.795005 -0.103125,0.04774 -0.19333,0.0893 -0.200455,0.09235 l -0.01296,0.0056 z"
       id="path2078"
       transform="matrix(0.26458333,0,0,0.26458333,0.11241379,0.09320379)" /><path
       style="fill:#818181;fill-opacity:1;stroke-width:0.000959646;stroke-dasharray:none"
       d="m 37.224609,32.920315 c 0,-0.0027 1.057211,-0.531089 1.510772,-0.755008 1.285894,-0.634832 1.924622,-0.944163 3.020073,-1.462598 0.02448,-0.01159 0.04514,-0.02107 0.0459,-0.02107 0.0026,0 0.0013,0.01758 -0.0017,0.02224 -0.0016,0.0026 -0.07763,0.03968 -0.168886,0.08248 -0.606385,0.284418 -1.101709,0.525352 -1.794642,0.872942 -0.225484,0.113107 -0.410592,0.205028 -0.411351,0.204269 -7.59e-4,-7.59e-4 0.0264,-0.01578 0.06036,-0.03337 0.07545,-0.0391 0.187924,-0.100281 0.198175,-0.107801 0.01919,-0.01408 -0.002,-0.0082 -0.05126,0.0141 -0.157701,0.07157 -1.007758,0.489282 -1.669163,0.820204 -0.395457,0.197859 -0.738282,0.366704 -0.738282,0.36361 z"
       id="path2080"
       transform="matrix(0.26458333,0,0,0.26458333,0.11241379,0.09320379)" /><path
       style="fill:#818181;fill-opacity:1;stroke-width:0.0039124;stroke-dasharray:none"
       d=""
       id="path2142"
       transform="matrix(0.26458333,0,0,0.26458333,0.11241379,0.09320379)" /><path
       style="fill:#818181;fill-opacity:1;stroke-width:0.0039124;stroke-dasharray:none"
       d="m 46.167422,26.643555 c -0.0051,-0.123007 -0.0038,-0.629392 0.0019,-0.725586 0.01964,-0.333696 0.06369,-0.532073 0.180416,-0.8125 0.0461,-0.110756 0.155381,-0.343905 0.209642,-0.447266 0.207348,-0.394971 0.572843,-0.874194 0.991431,-1.299928 l 0.08203,-0.08343 0.02772,0.0012 0.02772,0.0012 -0.04099,0.03711 c -0.02254,0.02041 -0.09573,0.0916 -0.162637,0.158203 -0.27599,0.274726 -0.428817,0.458443 -0.617397,0.742188 -0.231225,0.347912 -0.401588,0.693439 -0.520977,1.05664 -0.105509,0.320977 -0.156566,0.599073 -0.172837,0.941407 -0.0048,0.10002 -0.0026,0.295963 0.0042,0.388671 0.0099,0.134537 0.0098,0.123047 0.0011,0.123047 -0.0076,0 -0.0081,-0.0033 -0.01128,-0.08105 z"
       id="path2144"
       transform="matrix(0.26458333,0,0,0.26458333,0.11241379,0.09320379)" /><path
       style="fill:#818181;fill-opacity:1;stroke-width:0.0039124;stroke-dasharray:none"
       d="m 47.640953,23.272015 c -0.0023,-0.0036 0.08563,-0.09097 0.178295,-0.17717 0.317122,-0.294993 0.650701,-0.552524 0.930752,-0.718563 0.03437,-0.02038 0.16709,-0.09566 0.294922,-0.167287 0.127832,-0.07163 0.23296,-0.13062 0.233617,-0.131095 6.57e-4,-4.75e-4 -0.155598,-0.314388 -0.347234,-0.697585 -0.191635,-0.383197 -0.372664,-0.746379 -0.402286,-0.807073 l -0.05386,-0.110351 h 0.02687 0.02687 l 0.09548,0.193103 0.09548,0.193104 -0.0037,0.01749 c -0.0072,0.03381 0.0099,0.06581 0.0412,0.07713 0.0116,0.0042 0.01734,0.01363 0.06484,0.106614 0.170456,0.333649 0.282281,0.548885 0.434397,0.836111 0.07197,0.135895 0.0958,0.184164 0.09213,0.186588 -0.0027,0.0018 -0.03572,0.02198 -0.07332,0.04484 -0.483979,0.294279 -0.908579,0.589257 -1.251954,0.869757 -0.07827,0.06394 -0.232105,0.195634 -0.289761,0.24806 l -0.04367,0.03971 h -0.02348 c -0.01292,0 -0.02442,-0.0015 -0.02557,-0.0034 z"
       id="path2146"
       transform="matrix(0.26458333,0,0,0.26458333,0.11241379,0.09320379)" /><path
       style="fill:#818181;fill-opacity:1;stroke-width:0.0039124;stroke-dasharray:none"
       d="m 48.447063,20.40625 c -0.01493,-0.03115 -0.03963,-0.08257 -0.05488,-0.114258 -0.247521,-0.514083 -0.481374,-1.038057 -0.566015,-1.268224 -0.01833,-0.04984 -0.117181,-0.361198 -0.117181,-0.369087 0,-0.0023 0.0091,-0.0036 0.02186,-0.0032 l 0.02186,8.15e-4 0.01346,0.04492 c 0.09865,0.329189 0.348627,0.911507 0.721468,1.680664 l 0.04118,0.08496 h -0.02731 -0.02731 z"
       id="path2148"
       transform="matrix(0.26458333,0,0,0.26458333,0.11241379,0.09320379)" /><path
       style="fill:#818181;fill-opacity:1;stroke-width:0.0039124;stroke-dasharray:none"
       d=""
       id="path2150"
       transform="matrix(0.26458333,0,0,0.26458333,0.11241379,0.09320379)" /><path
       style="fill:#818181;fill-opacity:1;stroke-width:0.0039124;stroke-dasharray:none"
       d=""
       id="path2152"
       transform="matrix(0.26458333,0,0,0.26458333,0.11241379,0.09320379)" /><path
       style="fill:#818181;fill-opacity:1;stroke-width:0.0039124;stroke-dasharray:none"
       d="m 47.708483,18.646373 c -0.02214,-0.0037 -0.02925,-0.0073 -0.06395,-0.03252 -0.02613,-0.01899 -0.03349,-0.02523 -0.07123,-0.06033 -0.02539,-0.02361 -0.138476,-0.08057 -0.188256,-0.09481 -0.02271,-0.0065 -0.04332,-0.01249 -0.0458,-0.01332 -0.0032,-0.0011 -0.0025,-0.0084 0.0026,-0.02618 0.04297,-0.149708 0.06064,-0.206321 0.06442,-0.206321 0.01264,0 0.106483,0.03055 0.14013,0.04563 0.108939,0.0488 0.134782,0.06462 0.219257,0.134207 0.01074,0.0088 0.02782,0.02214 0.03795,0.02953 0.02325,0.01697 0.03917,0.04 0.04959,0.07175 0.0082,0.02499 0.01108,0.06264 0.0048,0.06264 -0.0019,0 -0.0063,0.0078 -0.01,0.01726 -0.01985,0.05197 -0.07879,0.08259 -0.139504,0.07248 z m -0.06024,-0.07629 c 0.05675,-0.0054 0.06828,-0.01338 0.01875,-0.01298 -0.03524,2.9e-4 -0.04004,0.0011 -0.04004,0.0071 0,0.0086 0.0038,0.01248 0.0091,0.0092 0.0023,-0.0014 0.0077,-0.0029 0.01215,-0.0033 z"
       id="path2154"
       transform="matrix(0.26458333,0,0,0.26458333,0.11241379,0.09320379)" /><path
       style="fill:#818181;fill-opacity:1;stroke-width:0.0039124;stroke-dasharray:none"
       d="m 47.708483,18.646373 c -0.0099,-0.0017 -0.02225,-0.0052 -0.02734,-0.0078 -0.01858,-0.0097 -0.05771,-0.0392 -0.09395,-0.07091 -0.02936,-0.0257 -0.04924,-0.03883 -0.09532,-0.06293 -0.05186,-0.02713 -0.07245,-0.03515 -0.152626,-0.05944 -0.005,-0.0015 -0.0058,0.0017 0.03612,-0.141928 l 0.02664,-0.0912 0.01269,0.0021 c 0.03412,0.0055 0.121936,0.03823 0.181909,0.06772 0.06746,0.03318 0.08811,0.04557 0.122154,0.07331 0.01074,0.0088 0.02422,0.01942 0.02994,0.0237 0.04853,0.03631 0.07504,0.0593 0.08489,0.07361 0.01472,0.02139 0.02775,0.0598 0.02775,0.0818 0,0.02032 -0.01759,0.05594 -0.03865,0.07824 -0.02582,0.02736 -0.07157,0.04089 -0.1142,0.03379 z m -0.03362,-0.08039 c 0.01242,-0.0014 0.02368,-0.0043 0.02503,-0.0065 0.0026,-0.0042 -0.06734,-0.0019 -0.07155,0.0023 -0.0049,0.0049 0.0037,0.01044 0.01348,0.0087 0.0058,-10e-4 0.02062,-0.003 0.03304,-0.0045 z"
       id="path2156"
       transform="matrix(0.26458333,0,0,0.26458333,0.11241379,0.09320379)" /><path
       style="fill:#818181;fill-opacity:1;stroke-width:0.0039124;stroke-dasharray:none"
       d="m 47.708605,18.646391 c -0.02925,-0.0049 -0.05781,-0.02301 -0.116808,-0.07418 -0.03484,-0.03021 -0.05219,-0.04144 -0.113366,-0.07335 -0.033,-0.01721 -0.06818,-0.03208 -0.09375,-0.03962 -0.02251,-0.0066 -0.04296,-0.01281 -0.04544,-0.01371 -0.0032,-0.0012 -0.0023,-0.0098 0.0034,-0.03022 0.007,-0.0252 0.05079,-0.177582 0.05619,-0.195577 0.0031,-0.01029 0.01451,-0.0086 0.07572,0.01128 0.07661,0.02487 0.190424,0.08154 0.235884,0.117449 0.01848,0.0146 0.05124,0.04036 0.0728,0.05723 0.02156,0.01688 0.04431,0.03812 0.05055,0.0472 0.0145,0.02108 0.02751,0.05958 0.02751,0.08145 0,0.02025 -0.01747,0.05571 -0.03865,0.07844 -0.02526,0.02712 -0.07143,0.04072 -0.114078,0.03361 z m -0.0126,-0.08722 c 0.0032,-0.0033 -0.06535,7.1e-4 -0.06894,0.004 -0.001,9.32e-4 3.18e-4,0.003 0.003,0.0047 0.0056,0.0035 0.0613,-0.0038 0.06598,-0.0087 z"
       id="path2158"
       transform="matrix(0.26458333,0,0,0.26458333,0.11241379,0.09320379)" /><path
       style="fill:#818181;fill-opacity:1;stroke-width:0.0039124;stroke-dasharray:none"
       d="m 47.708605,18.646391 c -0.03006,-0.005 -0.05624,-0.02141 -0.11476,-0.07185 -0.01724,-0.01486 -0.04013,-0.03263 -0.05088,-0.03948 -0.04101,-0.02617 -0.129785,-0.06802 -0.166016,-0.07826 -0.02041,-0.0058 -0.03823,-0.01113 -0.0396,-0.01192 -0.0014,-7.89e-4 8.17e-4,-0.01332 0.0049,-0.02784 0.05657,-0.203126 0.05691,-0.204141 0.06809,-0.204141 0.0052,0 0.0344,0.0082 0.0649,0.01819 0.07476,0.02451 0.189341,0.08143 0.233955,0.116226 0.124892,0.09739 0.129145,0.101706 0.144088,0.146063 0.01149,0.03411 0.01052,0.05363 -0.004,0.08128 -0.0067,0.01266 -0.01853,0.02982 -0.02637,0.03814 -0.02559,0.02717 -0.07163,0.04071 -0.114235,0.03361 z m -0.01329,-0.0867 c 0.0027,-0.0028 -0.002,-0.0033 -0.01519,-0.0016 -0.0105,0.0014 -0.02589,0.0025 -0.03418,0.0025 -0.0085,0 -0.01508,0.0019 -0.01508,0.0044 0,0.0055 0.0587,7.68e-4 0.06445,-0.0052 z"
       id="path2160"
       transform="matrix(0.26458333,0,0,0.26458333,0.11241379,0.09320379)" /><path
       style="fill:#818181;fill-opacity:1;stroke-width:0.0039124;stroke-dasharray:none"
       d="m 47.708207,18.646453 c -0.02693,-0.0047 -0.05184,-0.01978 -0.106477,-0.06466 -0.02684,-0.02205 -0.05914,-0.04637 -0.07177,-0.05404 -0.03872,-0.02352 -0.125908,-0.06342 -0.158871,-0.07269 -0.01719,-0.0048 -0.03237,-0.0094 -0.03374,-0.01021 -0.0014,-7.75e-4 7.74e-4,-0.01329 0.0048,-0.02782 0.05596,-0.203567 0.05615,-0.204141 0.06888,-0.204141 0.0055,0 0.03452,0.0082 0.06453,0.01816 0.07937,0.02641 0.213239,0.09388 0.240633,0.12127 0.0029,0.0029 0.01166,0.01 0.01953,0.01584 0.04495,0.03335 0.09002,0.07216 0.09923,0.08546 0.0145,0.02093 0.0264,0.05735 0.0264,0.0808 0,0.03627 -0.03677,0.08751 -0.07422,0.103456 -0.02165,0.0092 -0.05453,0.01279 -0.0789,0.0086 z m -0.01526,-0.08605 c 0.0042,-0.0026 -0.004,-0.003 -0.02498,-0.0013 -0.01719,0.0014 -0.03293,0.004 -0.03498,0.0059 -0.005,0.0046 0.05193,3.26e-4 0.05996,-0.0045 z"
       id="path2162"
       transform="matrix(0.26458333,0,0,0.26458333,0.11241379,0.09320379)" /><path
       style="fill:#818181;fill-opacity:1;stroke-width:0.0039124;stroke-dasharray:none"
       d="m 47.708207,18.646453 c -0.02546,-0.0044 -0.05077,-0.01909 -0.09558,-0.0555 -0.09271,-0.07531 -0.149529,-0.105576 -0.273325,-0.145579 -0.0045,-0.0015 0.0077,-0.05276 0.03394,-0.14264 0.02433,-0.08333 0.02698,-0.08984 0.03655,-0.08984 0.0443,0 0.261895,0.09691 0.299266,0.133283 0.0032,0.0031 0.02418,0.01964 0.04666,0.03676 0.08038,0.06122 0.100541,0.0891 0.104678,0.144701 0.0015,0.02014 1.76e-4,0.02687 -0.0087,0.04446 -0.01433,0.02829 -0.04152,0.05632 -0.0637,0.0657 -0.02227,0.0094 -0.05487,0.01295 -0.07974,0.0087 z m -0.01659,-0.08624 c 0.0018,-0.003 -0.0042,-0.0034 -0.02028,-0.0015 -0.02991,0.0036 -0.03146,0.0057 -0.0042,0.0057 0.01205,0 0.02308,-0.0019 0.02453,-0.0042 z"
       id="path2164"
       transform="matrix(0.26458333,0,0,0.26458333,0.11241379,0.09320379)" /><path
       style="fill:#818181;fill-opacity:1;stroke-width:0.0039124;stroke-dasharray:none"
       d="m 47.705947,18.646375 c -0.02468,-0.0051 -0.05019,-0.02034 -0.09941,-0.05955 -0.02422,-0.0193 -0.05371,-0.04165 -0.06553,-0.04967 -0.03416,-0.02319 -0.12047,-0.06522 -0.160526,-0.07817 -0.02021,-0.0065 -0.03875,-0.0126 -0.0412,-0.01347 -0.0031,-0.0011 -9.43e-4,-0.01509 0.0071,-0.04582 0.01516,-0.05822 0.03258,-0.119083 0.04481,-0.156535 0.0091,-0.02788 0.01072,-0.03027 0.02046,-0.03027 0.0388,0 0.222694,0.07933 0.279074,0.120382 0.04561,0.03322 0.07452,0.05577 0.108773,0.08485 0.04155,0.03528 0.05785,0.06377 0.0609,0.106436 0.0017,0.02333 6.09e-4,0.02914 -0.0087,0.04743 -0.01437,0.02836 -0.04153,0.05641 -0.06376,0.06585 -0.02211,0.0094 -0.05906,0.01324 -0.082,0.0085 z m -0.01454,-0.08583 c 0.0028,-0.0046 -0.0058,-0.0047 -0.02734,-2.24e-4 l -0.01563,0.0032 0.02028,4.49e-4 c 0.01115,2.47e-4 0.02136,-0.0013 0.02269,-0.0035 z"
       id="path2166"
       transform="matrix(0.26458333,0,0,0.26458333,0.11241379,0.09320379)" /></g><path
     style="fill:#818181;fill-opacity:1;stroke-width:0.202214"
     d="m 62.998744,89.840225 c -0.75184,-0.113025 -0.82976,-0.401461 -0.42955,-1.590152 2.3369,-6.940991 6.36801,-14.273748 10.72404,-19.507472 3.44997,-4.145111 4.79778,-5.159248 9.02793,-6.792934 3.39432,-1.310885 6.17403,-1.898478 9.85886,-2.084026 3.64812,-0.183699 8.926956,-0.0076 9.042686,0.301591 0.0401,0.107068 0.56361,1.286623 1.16343,2.621234 l 1.09057,2.426565 -0.54245,0.386551 c -1.04806,0.746849 -3.022366,2.92587 -3.448416,3.805961 -0.53082,1.096526 -0.60425,4.060628 -0.13365,5.394472 0.28687,0.81307 0.28174,0.847705 -0.15166,1.023959 -0.24671,0.100333 -1.26753,0.516568 -2.26849,0.924966 -1.00096,0.408398 -6.46073,3.042271 -12.13282,5.853052 -11.25935,5.57952 -13.1912,6.426808 -15.95295,6.996782 -1.69869,0.350578 -4.37838,0.460309 -5.84753,0.239451 z"
     id="path7961" /></g><path
   style="fill:#000000;stroke:#ffffff;stroke-width:0.0875813"
   d="m 134.7485,81.449729 c -0.80508,-0.34861 -2.4876,-1.31292 -3.53028,-2.02335 -1.26363,-0.86099 -2.16384,-1.60743 -3.07105,-2.54648 -1.66514,-1.72359 -2.53124,-3.23302 -2.90261,-5.05855 l -0.16807,-0.82624 -0.77664,0.0116 c -0.42716,0.006 -2.31128,0.0759 -4.18696,0.15442 -10.93699,0.45789 -25.820849,0.51805 -34.059223,0.13768 -2.145235,-0.0991 -5.009478,-0.31778 -5.75042,-0.43914 -0.871718,-0.14277 -0.807841,-0.2144 -0.807841,0.90569 0,0.66101 -0.03624,1.03351 -0.109304,1.12351 -0.06012,0.0741 -0.483125,0.22464 -0.940018,0.33468 -1.891683,0.45555 -4.142076,1.39306 -5.134362,2.13898 -0.993967,0.74718 -1.624402,1.69578 -2.124326,3.19641 -0.473908,1.42254 -0.536354,1.57654 -0.618668,1.52565 -0.135975,-0.0841 -0.08626,-1.17801 0.09318,-2.05032 0.539596,-2.62311 2.510228,-4.40585 5.655933,-5.11664 0.502298,-0.1135 1.284142,-0.25489 1.737432,-0.31419 l 0.824164,-0.10783 0.0021,-2.14935 c 0.0021,-2.03364 0.08205,-3.36844 0.214853,-3.58332 0.03322,-0.0537 0.0016,-0.0963 -0.07144,-0.0963 -0.217039,0 -0.272848,0.67122 -0.272848,3.28143 v 2.45072 l -0.524662,0.0222 c -1.658723,0.0704 -3.88997,0.81623 -5.296912,1.77056 -0.782909,0.53106 -1.323859,1.19552 -1.863974,2.28956 -0.539802,1.0934 -0.642132,1.4621 -0.723344,2.60623 -0.03057,0.43075 -0.08171,0.78318 -0.11364,0.78318 -0.03192,0 -0.500392,-0.0583 -1.041036,-0.12964 -2.621742,-0.34578 -3.738371,-0.35419 -21.978892,-0.1653 -5.448254,0.0563 -7.553932,-0.004 -9.677149,-0.28074 -2.47262,-0.3215 -5.026841,-1.06824 -6.733761,-1.96863 -1.102013,-0.58131 -2.213279,-1.29051 -2.259088,-1.44171 -0.05109,-0.16866 0.632765,-0.93321 1.649884,-1.84456 7.120273,-6.37992 14.661455,-10.91611 22.339238,-13.43754 2.027827,-0.66596 2.509065,-0.75643 4.023886,-0.75643 3.325421,0 7.716685,0.57209 10.466749,1.36358 2.226305,0.64076 4.106327,1.42753 8.571271,3.58702 l 2.959616,1.43141 0.152439,-0.18825 0.152438,-0.18826 0.182705,0.18271 c 0.275983,0.27598 0.442461,1.43703 0.451998,3.15228 0.005,0.89997 0.01937,0.98555 0.158528,0.94455 1.207534,-0.35571 6.863802,-0.81656 13.531877,-1.10253 9.333117,-0.40025 23.454427,-0.53639 30.435287,-0.29341 l 1.57895,0.055 0.49735,-0.95242 c 0.62694,-1.20058 1.13555,-1.84896 1.8782,-2.39429 0.50557,-0.37124 1.47592,-0.84692 1.55874,-0.76412 0.0151,0.0151 -0.19023,0.19768 -0.45642,0.40557 -0.76219,0.59529 -1.3945,1.42857 -1.95978,2.58262 -0.28139,0.57451 -0.49591,1.06995 -0.47672,1.10099 0.0192,0.0311 0.7435,0.0821 1.60962,0.11347 1.65374,0.0599 3.99163,0.20626 4.40002,0.27545 l 0.24033,0.0408 -0.39932,-0.71921 c -0.70761,-1.27438 -1.9503,-3.82892 -2.30344,-4.73502 -0.63963,-1.64124 -0.56185,-1.9261 0.2782,-1.01876 0.83927,0.90652 2.38075,3.17327 3.82396,5.62315 0.55025,0.93404 0.70154,1.12864 0.93997,1.20912 0.32291,0.10899 0.3428,0.15139 0.14038,0.2994 -0.12905,0.0944 -0.0931,0.19557 0.35004,0.98509 1.40538,2.50397 2.9564,6.01323 2.81761,6.37494 -0.04,0.10418 -0.0835,0.10053 -0.27175,-0.0228 -0.54288,-0.35572 -2.46522,-3.06225 -4.01574,-5.65396 -0.76268,-1.27481 -0.77609,-1.29083 -1.04426,-1.24626 -0.55596,0.0924 -2.7813,0.30329 -4.68755,0.44421 -1.08212,0.08 -1.98291,0.15977 -2.00173,0.17725 -0.073,0.0677 0.54805,1.86289 0.86553,2.50182 0.40696,0.81902 0.73592,1.31081 1.45075,2.16885 1.11143,1.33407 2.248,2.344 4.88928,4.34458 1.64954,1.24939 2.27579,1.78048 2.09108,1.77332 -0.0445,-0.003 -0.34164,-0.11605 -0.6604,-0.25408 z"
   id="path6926" /><path
   style="fill:#000000;stroke:#ffffff;stroke-width:0.0619294"
   d="m 48.02713,85.465494 c -1.319871,-0.0891 -2.077541,-0.25099 -2.294052,-0.49023 -0.0936,-0.10343 -0.09673,-0.13429 -0.02273,-0.2239 0.310433,-0.37602 1.931824,-0.65357 4.846243,-0.82956 0.611788,-0.0369 1.117929,-0.0727 1.124757,-0.0796 0.0068,-0.006 -0.183142,-0.16479 -0.422153,-0.35101 -0.821042,-0.639715 -1.681319,-1.633655 -1.761656,-2.035335 -0.03025,-0.15122 -0.06309,-0.18234 -0.169077,-0.16013 -0.357688,0.075 -4.067446,0.18126 -6.314723,0.181 -3.268039,-4.7e-4 -4.992393,-0.12222 -7.372299,-0.52095 -2.642521,-0.44272 -4.973057,-1.24917 -6.137966,-2.12397 -0.940962,-0.70661 -1.844287,-1.66601 -2.55883,-2.71765 l -0.287022,-0.42245 0.252373,-0.28671 c 0.3917,-0.44499 2.513536,-2.4692 3.637028,-3.46969 4.748294,-4.22841 9.765576,-7.65875 14.968759,-10.2342 1.218394,-0.60308 3.215036,-1.51905 3.311206,-1.51905 0.01845,0 0.02578,0.34978 0.01625,0.77728 l -0.01731,0.77726 -0.958397,0.41038 c -1.164413,0.49859 -3.77401,1.78717 -5.039296,2.48833 -4.805336,2.6629 -9.970534,6.50059 -13.910645,10.3355 l -0.805338,0.78383 0.309159,0.3184 c 0.374928,0.3861 1.151345,0.91422 1.734326,1.17971 0.236384,0.10764 0.769939,0.35911 1.18568,0.55882 2.089127,1.00357 4.813865,1.62292 8.395225,1.90831 2.716645,0.21649 7.893836,0.20048 13.974002,-0.0432 3.873017,-0.15521 11.390662,-0.15433 13.31521,0.003 1.971174,0.15967 3.472144,0.39354 3.472144,0.54101 0,0.066 -0.979018,0.10512 -4.482812,0.17948 -4.153268,0.0881 -4.646698,0.11281 -11.748056,0.58773 -1.76839,0.11827 -3.503937,0.23326 -3.856769,0.25554 l -0.641513,0.0404 0.348675,0.18711 c 0.699912,0.37556 1.80269,1.39481 2.278381,2.105795 l 0.158807,0.23737 1.752773,-0.0209 c 2.867219,-0.0343 7.63382,0.009 11.491291,0.10431 1.98944,0.0492 4.549277,0.10513 5.688532,0.12438 l 2.071368,0.0351 -1.638547,-0.55172 c -1.946737,-0.655365 -2.960417,-1.052835 -4.058471,-1.591315 -1.583235,-0.77639 -2.181208,-1.4452 -1.256964,-1.40583 0.901145,0.0383 3.264021,1.14166 6.167446,2.879695 l 1.25392,0.75063 -4.963831,0.38516 c -7.803727,0.60553 -11.069885,0.81437 -14.826014,0.948 -2.005538,0.0714 -5.116447,0.0689 -6.209092,-0.005 z"
   id="path6968" /><path
   style="fill:#000000;stroke:#ffffff;stroke-width:0.0441303"
   d="m 70.566546,79.790974 c -0.03599,-0.265068 0.03662,-1.068291 0.14895,-1.647778 0.352584,-1.818849 1.406263,-3.259848 3.073927,-4.203862 1.078317,-0.610403 2.383019,-0.997563 4.242509,-1.258934 0.351387,-0.04939 0.701147,-0.100248 0.777244,-0.113017 l 0.138361,-0.02322 0.0235,-2.389217 c 0.02266,-2.303553 0.05926,-3.012622 0.171502,-3.323031 0.06429,-0.177783 0.0063,-0.258271 -0.156649,-0.217377 -0.07329,0.01839 -0.125675,0.07535 -0.157109,0.170815 -0.09583,0.291077 -0.134557,1.255243 -0.13524,3.367175 l -7.05e-4,2.166494 -0.297412,0.0253 c -1.158727,0.09856 -1.721972,0.197651 -2.56655,0.451519 -1.55436,0.467218 -2.88307,1.175843 -3.659279,1.951564 -0.4363,0.436025 -0.724143,0.856599 -1.125248,1.644125 -0.539822,1.059882 -0.665271,1.496776 -0.768335,2.675832 -0.02648,0.302919 -0.05808,0.591628 -0.07023,0.641576 l -0.02209,0.09082 -0.801424,-0.102397 c -2.375931,-0.303568 -4.224197,-0.34763 -11.722831,-0.279472 -9.849744,0.08953 -15.973309,0.10734 -17.211507,0.05006 -2.213438,-0.102389 -3.835312,-0.320362 -5.573709,-0.74908 -1.531598,-0.37772 -2.785302,-0.828621 -3.947283,-1.419665 -0.997126,-0.507189 -2.331393,-1.338019 -2.331393,-1.451726 0,-0.01917 0.115889,-0.179899 0.25753,-0.35718 0.480267,-0.601107 1.746007,-1.762771 3.631301,-3.332716 5.063865,-4.216843 10.350267,-7.52312 15.741777,-9.845388 2.570559,-1.107209 5.661203,-2.158724 6.815606,-2.31884 1.204598,-0.167079 3.785152,-0.07053 6.40122,0.239485 2.653807,0.314491 4.73709,0.751631 6.697816,1.405418 1.959856,0.653497 3.509532,1.334886 8.362964,3.677178 1.110305,0.53584 2.035316,0.974255 2.055575,0.974255 0.02026,0 0.09635,-0.07418 0.169084,-0.164851 0.130658,-0.16287 0.133346,-0.163857 0.223653,-0.08213 0.259026,0.234414 0.392024,1.036735 0.460851,2.780058 0.03309,0.838164 0.06873,1.313561 0.100878,1.345714 0.03691,0.03691 0.156024,0.02681 0.462552,-0.03923 2.440421,-0.52581 12.370788,-1.114529 22.123858,-1.311605 l 1.48706,-0.03005 v 1.357697 1.357698 l -5.232235,-0.02854 c -7.415739,-0.04045 -10.976749,-0.1336 -14.68331,-0.384111 -1.641732,-0.110958 -2.642374,-0.201061 -3.370569,-0.303506 -0.593999,-0.08356 -0.732751,-0.07117 -0.806699,0.07206 -0.02249,0.04357 -0.05275,0.46585 -0.06724,0.938404 -0.01449,0.472553 -0.03883,0.90217 -0.05409,0.954703 -0.03797,0.130646 -0.291621,0.231171 -1.190302,0.471719 -1.780965,0.476708 -3.593381,1.216792 -4.643591,1.89617 -0.868173,0.561617 -1.560826,1.393102 -2.043525,2.453114 -0.0837,0.183799 -0.293383,0.742646 -0.465971,1.241882 -0.172587,0.499237 -0.340785,0.971891 -0.373771,1.050344 l -0.05998,0.14264 z"
   id="path13596" /><path
   style="fill:#000000;stroke:#ffffff;stroke-width:0.0441303"
   d="m 74.396905,63.265314 c -3.277598,-1.575083 -5.55259,-2.467156 -7.776757,-3.049435 -2.359672,-0.617753 -5.952554,-1.082802 -9.215548,-1.192824 -1.246718,-0.04204 -2.236766,0.002 -2.857151,0.127199 -0.887543,0.179057 -3.095303,0.888997 -4.69249,1.508943 -0.436204,0.169312 -0.827795,0.318104 -0.870204,0.330649 -0.06919,0.02047 -0.07711,-0.01578 -0.07711,-0.353244 0,-0.206829 -0.0098,-0.402459 -0.02188,-0.434733 -0.02451,-0.06574 0.360852,-0.231467 1.834611,-0.788995 1.147774,-0.434207 2.20687,-0.796616 3.276309,-1.121113 l 0.837158,-0.254016 1.013402,0.03014 c 6.282048,0.186866 11.276885,1.26681 15.509452,3.353332 1.216566,0.599728 1.714219,0.871829 3.084267,1.686379 1.349855,0.802547 1.343691,0.824612 -0.04406,0.157713 z"
   id="path13598" /><path
   style="fill:#000000;stroke:#ffffff;stroke-width:0.0441303"
   d="m 60.351943,57.37716 c -0.220386,-0.336352 -0.343348,-1.387645 -0.262562,-2.244844 0.101252,-1.074367 0.388379,-1.602582 0.6221,-1.14445 0.04698,0.09208 0.119798,0.325055 0.161825,0.517716 0.102483,0.469807 0.103956,1.698449 0.0026,2.198618 -0.129781,0.640664 -0.355347,0.930354 -0.523998,0.67296 z"
   id="path13600" /><path
   style="fill:#000000;stroke:#ffffff;stroke-width:0.0441303"
   d="m 19.298694,52.936275 c -2.750505,-0.01766 -5.362768,-0.0462 -5.80503,-0.06342 l -0.804112,-0.03131 V 52.32448 51.807415 l 0.71599,-0.0295 c 0.393795,-0.01622 1.400037,-0.05861 2.236093,-0.09419 12.605162,-0.536505 34.372777,-1.007232 58.138416,-1.257248 6.177336,-0.06499 21.719349,-0.104287 26.029003,-0.06582 l 3.778226,0.03372 v 0.606223 0.606224 l -0.49569,0.02849 c -1.07254,0.06164 -7.247963,0.272147 -11.731222,0.399889 -17.133054,0.488175 -36.557545,0.800872 -56.155673,0.903999 -8.614571,0.04533 -8.383795,0.04537 -15.906001,-0.0029 z"
   id="path13602" /><path
   style="fill:#000000;stroke:#ffffff;stroke-width:0.0441303"
   d="m 103.63134,50.997555 v -0.619842 l 0.82614,0.02462 c 0.45438,0.01354 1.49037,0.03543 2.30219,0.04864 3.97026,0.06462 6.85004,0.209326 7.27199,0.365413 0.10243,0.03789 0.10121,0.04014 -0.0476,0.08775 -0.48576,0.155483 -2.5743,0.332124 -6.07886,0.514128 -1.31285,0.06818 -4.05445,0.198004 -4.1968,0.198731 -0.0698,3.57e-4 -0.0771,-0.05835 -0.0771,-0.619447 z"
   id="path13604" /><path
   style="fill:none;stroke:#000000;stroke-width:1px;stroke-linecap:butt;stroke-linejoin:miter;stroke-opacity:1"
   d="m 61.068469,59.526336 c -0.646227,0 -1.292454,0 -1.938682,0 -0.132182,0 -0.264365,0 -0.396548,0 -0.05052,0 -0.130602,0.01141 -0.176244,0 -0.03186,-0.008 -0.05626,-0.0361 -0.08812,-0.04406 -0.03934,-0.0098 -0.169303,0 -0.220305,0 -0.146869,0 -0.293739,0 -0.440609,0 -0.264366,0 -0.528731,0 -0.793097,0 -0.08812,0 -0.176244,0 -0.264366,0 -0.02937,0 -0.05962,0.0071 -0.08812,0 -0.03186,-0.008 -0.05697,-0.03368 -0.08812,-0.04406 -0.03965,-0.01322 -0.09253,0.01322 -0.132183,0 -0.03116,-0.01038 -0.05697,-0.03368 -0.08812,-0.04406 -0.02688,-0.009 -0.230336,0 -0.264366,0 -0.220305,0 -0.440609,0 -0.660914,0 -0.279053,0 -0.558105,0 -0.837158,0 -0.08812,0 -0.176244,0 -0.264366,0 -0.02937,0 -0.05875,0 -0.08812,0 -0.02937,0 -0.06185,-0.01314 -0.08812,0 -0.01314,0.0066 0.01038,0.03368 0,0.04406 -0.01039,0.01038 -0.02937,0 -0.04406,0 -0.02937,0 -0.06368,-0.01629 -0.08812,0 -0.02733,0.01822 -0.02084,0.0649 -0.04406,0.08812 -0.0028,0.0028 -0.168037,0.08265 -0.176244,0.08812 -0.101224,0.06748 0.01889,0.02517 -0.08812,0.132183 -0.03744,0.03744 -0.09474,0.05068 -0.132183,0.08812 -0.01038,0.01039 0.01039,0.03368 0,0.04406 -0.02322,0.02322 -0.05626,0.0361 -0.08812,0.04406 -0.03739,0.0093 -0.278541,0 -0.308426,0 -0.121309,0 0.06728,-0.0046 -0.176244,0.04406 -0.04321,0.0086 -0.09038,-0.01393 -0.132183,0 -0.03116,0.01039 -0.05626,0.0361 -0.08812,0.04406 -0.0285,0.0071 -0.06185,-0.01314 -0.08812,0 -0.01314,0.0066 0.01222,0.03591 0,0.04406 -0.03864,0.02576 -0.08906,0.02681 -0.132182,0.04406 -0.03049,0.0122 -0.05697,0.03368 -0.08812,0.04406 -0.01393,0.0046 -0.03368,-0.01038 -0.04406,0 -0.01038,0.01038 0.01314,0.03749 0,0.04406 -0.02627,0.01314 -0.06185,-0.01314 -0.08812,0 -0.01314,0.0066 0.01038,0.03368 0,0.04406 -0.03745,0.03745 -0.08482,0.06444 -0.132183,0.08812 -0.01747,0.0087 -0.123175,-0.009 -0.132183,0 -0.01038,0.01039 0.01039,0.03368 0,0.04406 -0.111293,0.111293 -0.05079,0.01693 -0.132183,0.04406 -0.03116,0.01038 -0.05697,0.03367 -0.08812,0.04406 -0.02787,0.0093 -0.06185,-0.01314 -0.08812,0 -0.01858,0.0093 -0.02436,0.03749 -0.04406,0.04406 -0.02787,0.0093 -0.05875,0 -0.08812,0 -0.01469,0 -0.03092,-0.0066 -0.04406,0 -0.01858,0.0093 -0.02436,0.03749 -0.04406,0.04406 -0.0418,0.01393 -0.08812,0 -0.132183,0 -0.01047,0 -0.166368,-0.0049 -0.176244,0 -0.03715,0.01858 -0.04871,0.07498 -0.08812,0.08812 -0.02787,0.0093 -0.05875,0 -0.08812,0 -0.01469,0 -0.03092,-0.0066 -0.04406,0 -0.01858,0.0093 -0.02436,0.03749 -0.04406,0.04406 -0.03965,0.01322 -0.09253,-0.01322 -0.132183,0 -0.06231,0.02077 -0.113932,0.06735 -0.176244,0.08812 -0.02787,0.0093 -0.06085,-0.01091 -0.08812,0 -0.06098,0.02439 -0.113089,0.07008 -0.176244,0.08812 -0.0018,5.2e-4 -0.209158,-0.0067 -0.220304,0 -0.06297,0.03778 -0.113274,0.0944 -0.176244,0.132183 -0.01259,0.0076 -0.02937,0 -0.04406,0 -0.02937,0 -0.06185,-0.01314 -0.08812,0 -0.03715,0.01858 -0.05097,0.06954 -0.08812,0.08812 -0.02627,0.01314 -0.05875,0 -0.08812,0 -0.01469,0 -0.03367,-0.01038 -0.04406,0 -0.08744,0.08744 0.208662,0.01393 -0.08812,0.08812 -0.0285,0.0071 -0.05875,0 -0.08812,0 -0.08812,0 -0.176244,0 -0.264366,0 -0.01469,0 -0.02937,0 -0.04406,0 -0.01469,0 -0.03368,-0.01038 -0.04406,0 -0.01038,0.01038 0.01314,0.03749 0,0.04406 -0.02627,0.01314 -0.05875,0 -0.08812,0 -0.01469,0 -0.03368,-0.01039 -0.04406,0 -0.01038,0.01038 0.01038,0.03368 0,0.04406 -0.02322,0.02322 -0.05875,0.02937 -0.08812,0.04406 -0.02937,0.01469 -0.05626,0.0361 -0.08812,0.04406 -0.0285,0.0071 -0.05963,-0.0071 -0.08812,0 -0.03186,0.008 -0.05875,0.02937 -0.08812,0.04406 -0.02937,0.01469 -0.0608,0.02584 -0.08812,0.04406 -0.07135,0.04757 -0.03092,0.08812 -0.132183,0.08812"
   id="path13606" /><path
   style="fill:none;stroke:#000000;stroke-width:1px;stroke-linecap:butt;stroke-linejoin:miter;stroke-opacity:1"
   d="m 49.656684,60.363494 c -0.127325,0.05599 -0.180014,0.177501 -0.308426,0.220305 -0.01393,0.0046 -0.03184,-0.0081 -0.04406,0 -0.03456,0.02304 -0.05875,0.05875 -0.08812,0.08812 -0.02937,0.02937 -0.05875,0.05875 -0.08812,0.08812 -0.01469,0.01469 -0.02678,0.03254 -0.04406,0.04406 -0.02732,0.01822 -0.0699,0.01674 -0.08812,0.04406 -0.01629,0.02444 0.01314,0.06185 0,0.08812 -0.0036,0.0073 -0.12046,0 -0.132183,0 -0.02937,0 -0.06026,-0.0093 -0.08812,0 -0.03115,0.01038 -0.05697,0.03368 -0.08812,0.04406 -0.03031,0.0101 -0.106186,-0.013 -0.132183,0 -0.01858,0.0093 -0.02548,0.03477 -0.04406,0.04406 -0.01314,0.0066 -0.03092,-0.0066 -0.04406,0 -0.01858,0.0093 -0.02548,0.03477 -0.04406,0.04406 -0.01159,0.0058 -0.153204,0 -0.176244,0"
   id="path13608" /><path
   style="fill:none;stroke:#000000;stroke-width:1px;stroke-linecap:butt;stroke-linejoin:miter;stroke-opacity:1"
   d="m 56.353948,59.922884 c -0.323114,0 -0.646227,0 -0.969341,0 -0.07344,0 -0.14687,0 -0.220305,0 -0.04406,0 -0.08898,-0.0086 -0.132182,0 -0.0322,0.0064 -0.05697,0.03368 -0.08812,0.04406 -0.01393,0.0046 -0.02937,0 -0.04406,0 -0.02937,0.01469 -0.05697,0.03368 -0.08812,0.04406 -0.01393,0.0046 -0.02937,0 -0.04406,0 -0.04406,0 -0.08812,0 -0.132183,0 -0.07343,0 -0.14687,0 -0.220305,0 -0.161556,0 -0.323113,0 -0.48467,0 -0.05875,0 -0.118295,-0.0097 -0.176244,0 -0.05973,0.01 -0.116155,0.03655 -0.176244,0.04406 -0.470937,0.05887 0.219277,-0.112372 -0.48467,0.04406 -0.03206,0.0071 -0.05875,0.02937 -0.08812,0.04406 -0.05875,0.01469 -0.116512,0.03411 -0.176244,0.04406 -0.01341,0.0022 -0.170775,-0.0023 -0.176243,0 -0.07871,0.03374 -0.143707,0.09388 -0.220305,0.132183 -0.04154,0.02077 -0.08906,0.02681 -0.132183,0.04406 -0.03049,0.0122 -0.05697,0.03367 -0.08812,0.04406 -0.01393,0.0046 -0.03092,-0.0066 -0.04406,0 -0.01858,0.0093 -0.02937,0.02937 -0.04406,0.04406 -0.02937,0.02937 -0.05356,0.06508 -0.08812,0.08812 -0.01222,0.0081 -0.02981,-0.0036 -0.04406,0 -0.445174,0.111293 0.03182,-0.01591 -0.176243,0.08812 -0.01314,0.0066 -0.03093,-0.0066 -0.04406,0 -0.100552,0.05028 -0.121382,0.09921 -0.220305,0.132183 -0.131162,0.04372 0.0904,-0.10433 -0.132183,0.04406 -0.01728,0.01152 -0.02436,0.03749 -0.04406,0.04406 -0.05573,0.01858 -0.12051,-0.01858 -0.176244,0 -0.0197,0.0066 -0.02436,0.03749 -0.04406,0.04406 -0.07105,0.02368 -0.146434,0.03175 -0.220304,0.04406 -0.01449,0.0024 -0.03184,-0.0081 -0.04406,0 -0.03456,0.02304 -0.05356,0.06508 -0.08812,0.08812 -0.01222,0.0081 -0.02966,-0.0029 -0.04406,0 -0.05938,0.01188 -0.116512,0.03411 -0.176244,0.04406 -0.02897,0.0048 -0.06185,-0.01314 -0.08812,0 -0.06568,0.03284 -0.110561,0.09934 -0.176244,0.132183 -0.02627,0.01314 -0.06025,-0.0093 -0.08812,0 -0.01971,0.0066 -0.02548,0.03477 -0.04406,0.04406 -0.04154,0.02077 -0.08713,0.0328 -0.132183,0.04406 -0.01425,0.0036 -0.03092,-0.0066 -0.04406,0 -0.01858,0.0093 -0.02745,0.0316 -0.04406,0.04406 -0.04236,0.03177 -0.08482,0.06444 -0.132183,0.08812 -0.266118,0.133059 -0.01866,-0.0064 -0.220305,0.04406 -0.03186,0.008 -0.05697,0.03368 -0.08812,0.04406 -0.01393,0.0046 -0.03092,-0.0066 -0.04406,0 -0.01858,0.0093 -0.02436,0.03749 -0.04406,0.04406 -0.02787,0.0093 -0.06026,-0.0093 -0.08812,0 -0.01971,0.0066 -0.02548,0.03477 -0.04406,0.04406 -0.01314,0.0066 -0.03093,-0.0066 -0.04406,0 -0.03716,0.01858 -0.05097,0.06954 -0.08812,0.08812 -0.01314,0.0066 -0.03092,-0.0066 -0.04406,0 -0.01858,0.0093 -0.02548,0.03477 -0.04406,0.04406 -0.01314,0.0066 -0.03092,-0.0066 -0.04406,0 -0.01858,0.0093 -0.02548,0.03477 -0.04406,0.04406 -0.02627,0.01314 -0.06185,-0.01314 -0.08812,0 -0.01858,0.0093 -0.02548,0.03477 -0.04406,0.04406 -0.01314,0.0066 -0.03368,-0.01038 -0.04406,0 -0.02322,0.02322 -0.02084,0.0649 -0.04406,0.08812 -0.01038,0.01038 -0.03092,-0.0066 -0.04406,0 -0.01858,0.0093 -0.02937,0.02937 -0.04406,0.04406 -0.02937,0.02937 -0.0632,0.05489 -0.08812,0.08812 -0.0197,0.02627 -0.02084,0.0649 -0.04406,0.08812 -0.01039,0.01038 -0.03013,-0.0046 -0.04406,0 -0.319152,0.106383 0.06947,-0.0127 -0.132183,0.08812 -0.01314,0.0066 -0.03093,-0.0066 -0.04406,0 -0.03715,0.01858 -0.05097,0.06954 -0.08812,0.08812 -0.01314,0.0066 -0.02937,0 -0.04406,0 -0.04406,0.01469 -0.09064,0.02329 -0.132183,0.04406 -0.03715,0.01858 -0.05097,0.06954 -0.08812,0.08812 -0.02627,0.01314 -0.06025,-0.0093 -0.08812,0 -0.106858,0.03562 -0.117361,0.106447 -0.220305,0.132183 -0.0285,0.0071 -0.05962,-0.0071 -0.08812,0 -0.06595,0.01649 -0.172922,0.108492 -0.220305,0.132183 -0.04154,0.02077 -0.09064,0.02329 -0.132183,0.04406 -0.01858,0.0093 -0.02436,0.03749 -0.04406,0.04406 -0.02787,0.0093 -0.05962,-0.0071 -0.08812,0 -0.03186,0.008 -0.05875,0.02937 -0.08812,0.04406 -0.05875,0.01469 -0.116512,0.0341 -0.176244,0.04406 -0.201764,0.03363 0.04599,-0.06246 -0.220305,0.04406 -0.06098,0.02439 -0.117496,0.05875 -0.176244,0.08812 -0.02937,0.01469 -0.0608,0.02584 -0.08812,0.04406 -0.01728,0.01152 -0.02436,0.03749 -0.04406,0.04406 -0.02787,0.0093 -0.06026,-0.0093 -0.08812,0 -0.01971,0.0066 -0.02436,0.03749 -0.04406,0.04406 -0.190767,0.06359 0.01619,-0.08423 -0.176244,0.04406 -0.03456,0.02304 -0.05097,0.06954 -0.08812,0.08812 -0.04154,0.02077 -0.08664,0.03495 -0.132183,0.04406 -0.0288,0.0058 -0.06185,-0.01314 -0.08812,0 -0.01314,0.0066 0.01314,0.03749 0,0.04406 -0.02627,0.01314 -0.05962,-0.0071 -0.08812,0 -0.03186,0.008 -0.05697,0.03368 -0.08812,0.04406 -0.01393,0.0046 -0.03092,-0.0066 -0.04406,0 -0.01858,0.0093 -0.02548,0.03477 -0.04406,0.04406 -0.01314,0.0066 -0.03013,-0.0046 -0.04406,0 -0.02937,0.01469 -0.05875,0.02937 -0.08812,0.04406 -0.01469,0 -0.03013,-0.0046 -0.04406,0 -0.03116,0.01038 -0.05697,0.03368 -0.08812,0.04406 -0.01393,0.0046 -0.03013,-0.0046 -0.04406,0 -0.03116,0.01038 -0.05697,0.03368 -0.08812,0.04406 -0.01393,0.0046 -0.03013,-0.0046 -0.04406,0 -0.03116,0.01038 -0.05697,0.03368 -0.08812,0.04406 -0.01393,0.0046 -0.03368,-0.01039 -0.04406,0 -0.02322,0.02322 -0.02084,0.0649 -0.04406,0.08812 -0.03744,0.03744 -0.09474,0.05068 -0.132182,0.08812 -0.02322,0.02322 -0.02584,0.0608 -0.04406,0.08812 -0.02304,0.03457 -0.06508,0.05356 -0.08812,0.08812 -0.01822,0.02733 -0.02084,0.0649 -0.04406,0.08812 -0.01038,0.01038 -0.03368,-0.01038 -0.04406,0 -0.03744,0.03745 -0.05068,0.09474 -0.08812,0.132183 -0.09116,0.09116 0.0036,-0.13931 -0.08812,0.04406 -0.0066,0.01314 0.01038,0.03368 0,0.04406 -0.02077,0.02077 -0.06185,-0.01314 -0.08812,0 -0.146132,0.146132 0.04154,-0.02077 -0.08812,0.04406 -0.094,0.047 0.0059,0.04112 -0.08812,0.08812 -0.0292,0.0146 -0.139315,-0.01231 -0.176243,0 -0.29374,0.09791 0.102809,-0.02448 -0.132183,0.132183 -0.01393,0.0093 -0.150416,-0.0086 -0.176244,0 -0.01971,0.0066 -0.02625,0.03337 -0.04406,0.04406 -0.05632,0.03379 -0.113932,0.06735 -0.176244,0.08812 -0.02787,0.0093 -0.06185,-0.01314 -0.08812,0 -0.03715,0.01858 -0.05097,0.06955 -0.08812,0.08812 -0.02627,0.01314 -0.05875,0 -0.08812,0 -0.04406,0.04406 -0.08233,0.0948 -0.132183,0.132183 -0.01175,0.0088 -0.02937,0 -0.04406,0 -0.02937,0.01469 -0.0649,0.02084 -0.08812,0.04406 -0.01038,0.01038 0.01314,0.03749 0,0.04406 -0.02627,0.01314 -0.06185,-0.01314 -0.08812,0 -0.03716,0.01858 -0.05356,0.06508 -0.08812,0.08812 -0.01222,0.0081 -0.02937,0 -0.04406,0 -0.04406,0.01469 -0.09503,0.01619 -0.132183,0.04406 -0.02627,0.0197 -0.01469,0.07343 -0.04406,0.08812 -0.03941,0.0197 -0.08944,-0.01069 -0.132182,0 -0.0403,0.01008 -0.04871,0.07498 -0.08812,0.08812 -0.02787,0.0093 -0.06026,-0.0093 -0.08812,0 -0.0197,0.0066 -0.02937,0.02937 -0.04406,0.04406 -0.04406,0.02937 -0.08127,0.07357 -0.132183,0.08812 -0.05649,0.01614 -0.120511,-0.01858 -0.176244,0 -0.03941,0.01314 -0.05489,0.0632 -0.08812,0.08812 -0.02627,0.01971 -0.05875,0.02937 -0.08812,0.04406 -0.02937,0.01469 -0.05875,0.02937 -0.08812,0.04406 -0.02937,0 -0.06026,-0.0093 -0.08812,0 -0.06231,0.02077 -0.119922,0.05433 -0.176244,0.08812 -0.05343,0.03206 -0.08034,0.09762 -0.132183,0.132183 -0.02444,0.01629 -0.06025,-0.0093 -0.08812,0 -0.319152,0.106384 0.06947,-0.0127 -0.132183,0.08812 -0.01314,0.0066 -0.03013,-0.0046 -0.04406,0 -0.159733,0.05324 -0.03136,0.0209 -0.132182,0.08812 -0.0082,0.0055 -0.173421,0.0853 -0.176244,0.08812 -0.01038,0.01038 0.01038,0.03367 0,0.04406 -0.02322,0.02322 -0.0608,0.02584 -0.08812,0.04406 -0.03456,0.02304 -0.04871,0.07499 -0.08812,0.08812 -0.02787,0.0093 -0.05875,0 -0.08812,0 -0.08958,0 -0.131388,-0.0093 -0.220305,0.04406 -0.03562,0.02137 -0.05097,0.06954 -0.08812,0.08812 -0.02627,0.01314 -0.06026,-0.0093 -0.08812,0 -0.03941,0.01314 -0.05097,0.06954 -0.08812,0.08812 -0.01314,0.0066 -0.03184,-0.0081 -0.04406,0 -0.03456,0.02304 -0.0525,0.06675 -0.08812,0.08812 -0.03983,0.02389 -0.09503,0.01619 -0.132183,0.04406 -0.02627,0.01971 -0.01673,0.06991 -0.04406,0.08812 -0.02444,0.01629 -0.06518,-0.01835 -0.08812,0 -0.12554,0.100432 -0.132603,0.264646 -0.264365,0.352487 -0.01222,0.0081 -0.03184,-0.0081 -0.04406,0 -0.03457,0.02304 -0.0525,0.06675 -0.08812,0.08812 -0.03983,0.0239 -0.09354,0.0183 -0.132183,0.04406 -0.01222,0.0081 0.01038,0.03368 0,0.04406 -0.02322,0.02322 -0.06185,0.02436 -0.08812,0.04406 -0.04935,0.03701 -0.08283,0.09517 -0.132183,0.132183 -0.04236,0.03177 -0.08982,0.05635 -0.132183,0.08812 -0.03323,0.02492 -0.05097,0.06954 -0.08812,0.08812 -0.01314,0.0066 -0.03184,-0.0081 -0.04406,0 -0.03457,0.02304 -0.05568,0.06217 -0.08812,0.08812 -0.0827,0.06616 -0.178184,0.114685 -0.264366,0.176243 -0.05976,0.04268 -0.116084,0.09007 -0.176244,0.132183 -0.08676,0.06074 -0.179638,0.112698 -0.264365,0.176244 -0.03323,0.02493 -0.04955,0.07269 -0.08812,0.08812 -0.04091,0.01636 -0.09277,-0.01971 -0.132183,0 -0.02937,0.01469 -0.01779,0.06842 -0.04406,0.08812 -0.0053,0.004 -0.251444,0.08166 -0.264366,0.08812 -0.01858,0.0093 -0.02548,0.03477 -0.04406,0.04406 -0.01314,0.0066 -0.03013,-0.0046 -0.04406,0 -0.03115,0.01038 -0.05875,0.02937 -0.08812,0.04406 -0.02937,0.01469 -0.0608,0.02584 -0.08812,0.04406 -0.01728,0.01152 -0.02678,0.03254 -0.04406,0.04406 -0.02733,0.01822 -0.05996,0.02716 -0.08812,0.04406 -0.04541,0.02724 -0.08728,0.06006 -0.132183,0.08812 -0.07262,0.04539 -0.150617,0.08241 -0.220305,0.132183 -0.0338,0.02415 -0.05875,0.05875 -0.08812,0.08812 -0.05875,0.05875 -0.111367,0.124343 -0.176243,0.176244 -0.05734,0.04587 -0.115143,0.09145 -0.176244,0.132183 -0.02733,0.01822 -0.0649,0.02084 -0.08812,0.04406 -0.01038,0.01039 0.01038,0.03368 0,0.04406 -0.03744,0.03744 -0.08982,0.05635 -0.132183,0.08812 -0.01662,0.01246 -0.02625,0.03337 -0.04406,0.04406 -0.05632,0.03379 -0.122796,0.04994 -0.176244,0.08812 -0.05071,0.03622 -0.07875,0.100124 -0.132183,0.132183 -0.02519,0.01511 -0.06185,-0.01314 -0.08812,0 -0.01314,0.0066 0.01222,0.03591 0,0.04406 -0.03864,0.02576 -0.08906,0.02681 -0.132183,0.04406 -0.18833,0.07533 0.01486,0.0048 -0.176244,0.132183 -0.05465,0.03643 -0.123698,0.04871 -0.176244,0.08812 -0.01175,0.0088 0.01038,0.03368 0,0.04406 -0.02322,0.02322 -0.06248,0.02355 -0.08812,0.04406 -0.04866,0.03893 -0.08812,0.08812 -0.132183,0.132183 -0.02937,0.02937 -0.06217,0.05568 -0.08812,0.08812 -0.03308,0.04135 -0.05068,0.09474 -0.08812,0.132183 -0.03744,0.03744 -0.09083,0.05504 -0.132183,0.08812 -0.06488,0.0519 -0.117496,0.117496 -0.176244,0.176244 -0.01469,0.01469 -0.02678,0.03254 -0.04406,0.04406 -0.02732,0.01822 -0.06761,0.01842 -0.08812,0.04406 -0.04103,0.05129 -0.05169,0.121593 -0.08812,0.176243 -0.02304,0.03457 -0.06109,0.05658 -0.08812,0.08812 -0.0612,0.0714 -0.118507,0.146072 -0.176243,0.220305 -0.04509,0.05797 -0.08631,0.118901 -0.132183,0.176244 -0.01297,0.01622 -0.02678,0.03254 -0.04406,0.04406 -0.02732,0.01822 -0.0608,0.02584 -0.08812,0.04406 -0.01728,0.01152 -0.02678,0.03254 -0.04406,0.04406 -0.02733,0.01822 -0.05875,0.02937 -0.08812,0.04406 -0.08812,0.04406 -0.180818,0.07997 -0.264365,0.132182 -0.03523,0.02202 -0.0525,0.06675 -0.08812,0.08812 -0.03983,0.0239 -0.09064,0.02329 -0.132183,0.04406 -0.132183,0.06609 0.08812,0.04406 -0.132183,0.132183 -0.04091,0.01636 -0.09127,-0.01636 -0.132183,0 -0.03857,0.01543 -0.05097,0.06954 -0.08812,0.08812 -0.05416,0.02708 -0.123666,0.01402 -0.176243,0.04406 -0.0541,0.03092 -0.08812,0.08812 -0.132183,0.132183 -0.02937,0.02937 -0.05489,0.0632 -0.08812,0.08812 -0.02627,0.0197 -0.0608,0.02584 -0.08812,0.04406 -0.01728,0.01152 -0.02937,0.02937 -0.04406,0.04406 -0.02937,0.02937 -0.06217,0.05568 -0.08812,0.08812 -0.03308,0.04135 -0.05068,0.09474 -0.08812,0.132183 -0.167132,0.167132 -0.08519,0.02468 -0.264365,0.132183 -0.03562,0.02137 -0.05875,0.05875 -0.08812,0.08812 -0.01469,0.01469 -0.0316,0.02744 -0.04406,0.04406 -0.03177,0.04236 -0.05068,0.09474 -0.08812,0.132183 -0.0665,0.0665 -0.148903,0.115041 -0.220305,0.176243 -0.03154,0.02704 -0.05568,0.06217 -0.08812,0.08812 -0.04135,0.03308 -0.09474,0.05068 -0.132183,0.08812 -0.02322,0.02322 -0.02084,0.0649 -0.04406,0.08812 -0.02322,0.02322 -0.06248,0.02354 -0.08812,0.04406 -0.112839,0.09027 -0.195588,0.218156 -0.308427,0.308427 -0.04135,0.03308 -0.08812,0.05875 -0.132183,0.08812 -0.08812,0.05875 -0.181664,0.110082 -0.264366,0.176243 -0.04866,0.03893 -0.08812,0.08812 -0.132182,0.132183 -0.0232,0.0232 -0.120417,0.108651 -0.132183,0.132183 -0.01314,0.02627 0.01629,0.06368 0,0.08812 -0.02304,0.03456 -0.06508,0.05356 -0.08812,0.08812 -0.0081,0.01222 0.01314,0.03749 0,0.04406 -0.02627,0.01314 -0.06185,-0.01314 -0.08812,0 -0.02627,0.01314 0.02077,0.06735 0,0.08812 -0.05367,0.05366 -0.09844,0.02064 -0.132183,0.08812 -0.0066,0.01314 0,0.02937 0,0.04406 -0.02937,0.04406 -0.05068,0.09474 -0.08812,0.132183 -0.01038,0.01039 -0.03092,-0.0066 -0.04406,0 -0.01858,0.0093 -0.02937,0.02937 -0.04406,0.04406 -0.01469,0.01469 -0.03477,0.02548 -0.04406,0.04406 -0.0066,0.01314 0.0066,0.03093 0,0.04406 -0.02644,0.05287 -0.105746,0.07931 -0.132182,0.132183 -0.0066,0.01314 0.01314,0.03749 0,0.04406 -0.02627,0.01314 -0.06735,-0.02077 -0.08812,0 -0.02077,0.02077 0.01629,0.06368 0,0.08812 -0.0027,0.124064 -0.09934,0.01122 -0.132183,0.04406 -0.02322,0.02322 -0.02584,0.0608 -0.04406,0.08812 -0.01152,0.01728 -0.03254,0.02678 -0.04406,0.04406 -0.01822,0.02733 -0.02084,0.0649 -0.04406,0.08812 -0.02077,0.02077 -0.07499,-0.02627 -0.08812,0 -0.01314,0.02627 0.01629,0.06368 0,0.08812 -0.01822,0.02733 -0.0649,0.02084 -0.08812,0.04406 -0.02322,0.02322 -0.02084,0.0649 -0.04406,0.08812 -0.01038,0.01038 -0.03368,-0.01038 -0.04406,0 -0.05875,0.05875 0.07343,0.04406 -0.04406,0.04406"
   id="path13610" /><path
   style="fill:none;stroke:#000000;stroke-width:1px;stroke-linecap:butt;stroke-linejoin:miter;stroke-opacity:1"
   d="m 58.512934,59.922884 c 0.837158,0 1.674316,0 2.511474,0 0.14687,0 0.29374,0 0.440609,0 0.03607,0 0.191757,-0.0095 0.220305,0 0.06231,0.02077 0.112523,0.07219 0.176244,0.08812 0.0285,0.0071 0.05875,0 0.08812,0 0.06805,0 0.158019,-0.01038 0.220305,0 0.04581,0.0076 0.08713,0.0328 0.132182,0.04406 0.144006,0.036 -0.125511,-0.06442 0.132183,0 0.03186,0.008 0.05626,0.0361 0.08812,0.04406 0.0285,0.0071 0.05875,0 0.08812,0 0.02937,0 0.05875,0 0.08812,0 0.08812,0 0.176244,0 0.264366,0 0.02937,0 0.05875,0 0.08812,0 0.01469,0 0.03013,-0.0046 0.04406,0 0.03116,0.01038 0.05697,0.03368 0.08812,0.04406 0.03966,0.01322 0.09253,-0.01322 0.132183,0 0.01971,0.0066 0.02436,0.03749 0.04406,0.04406 0.02787,0.0093 0.05875,0 0.08812,0 0.04406,0 0.08812,0 0.132183,0 0.02937,0 0.05932,-0.0058 0.08812,0 0.04554,0.0091 0.08664,0.03495 0.132182,0.04406 0.05761,0.01152 0.120511,-0.01858 0.176244,0 0.0197,0.0066 0.02548,0.03477 0.04406,0.04406 0.01314,0.0066 0.02937,0 0.04406,0 0.04406,0 0.09038,-0.01393 0.132183,0 0.01393,0.0046 -0.01038,0.03368 0,0.04406 0.01038,0.01039 0.02937,0 0.04406,0 0.04582,0 0.229706,-0.0087 0.264366,0 0.03186,0.008 0.0608,0.02584 0.08812,0.04406 0.01728,0.01152 0.02357,0.04065 0.04406,0.04406 0.07244,0.01207 0.147869,-0.01207 0.220305,0 0.04098,0.0068 0.04871,0.07498 0.08812,0.08812 0.03966,0.01322 0.09253,-0.01322 0.132183,0 0.03116,0.01038 0.05626,0.03609 0.08812,0.04406 0.0285,0.0071 0.06025,-0.0093 0.08812,0 0.0197,0.0066 0.02937,0.02937 0.04406,0.04406 0.04406,0.01469 0.08713,0.0328 0.132182,0.04406 0.0267,0.0067 0.08361,-0.009 0.08812,0 0.01314,0.02627 -0.02444,0.07183 0,0.08812 0.03666,0.02444 0.08898,-0.0086 0.132183,0 0.0322,0.0064 0.05763,0.03186 0.08812,0.04406 0.04312,0.01725 0.08713,0.0328 0.132183,0.04406 0.01425,0.0036 0.03092,-0.0066 0.04406,0 0.01858,0.0093 0.02678,0.03254 0.04406,0.04406 0.02733,0.01822 0.05875,0.02937 0.08812,0.04406 0.123474,0.06174 0.09095,0.05344 0.264365,0.08812 0.0144,0.0029 0.02966,-0.0029 0.04406,0 0.05938,0.01188 0.116297,0.0355 0.176244,0.04406 0.04362,0.0062 0.08898,-0.0086 0.132183,0 0.0322,0.0064 0.05626,0.0361 0.08812,0.04406 0.02923,0.0073 0.226984,0 0.264365,0 0.01469,0 0.02981,-0.0036 0.04406,0 0.04506,0.01126 0.08664,0.03495 0.132183,0.04406 0.0017,3.39e-4 0.131967,-2.16e-4 0.132183,0 0.02322,0.02322 0.01674,0.0699 0.04406,0.08812 0.132183,0.08812 0.04406,-0.04406 0.132183,0 0.01858,0.0093 0.02548,0.03477 0.04406,0.04406 0.04154,0.02077 0.09064,0.02329 0.132183,0.04406 0.01858,0.0093 0.02548,0.03477 0.04406,0.04406 0.02627,0.01314 0.06368,-0.01629 0.08812,0 0.200578,0.200578 -0.01825,0.02329 0.176244,0.08812 0.01971,0.0066 0.02678,0.03254 0.04406,0.04406 0.05465,0.03643 0.121593,0.05169 0.176244,0.08812 0.01728,0.01152 0.02436,0.03749 0.04406,0.04406 0.0418,0.01393 0.09038,-0.01393 0.132183,0 0.18434,-0.07979 0.05097,0.06954 0.08812,0.08812 0.02627,0.01314 0.06185,-0.01314 0.08812,0 0.03716,0.01858 0.05356,0.06508 0.08812,0.08812 0.01222,0.0081 0.02937,0 0.04406,0 0.02937,0 0.05962,-0.0071 0.08812,0 0.03186,0.008 0.05875,0.02937 0.08812,0.04406 0.02937,0.01469 0.0608,0.02584 0.08812,0.04406 0.01728,0.01152 0.02548,0.03477 0.04406,0.04406 0.01314,0.0066 0.02937,0 0.04406,0 0.01469,0 0.02937,0 0.04406,0 0.05875,0 0.117496,0 0.176244,0 0.02937,0 0.05962,-0.0071 0.08812,0 0.03186,0.008 0.05697,0.03368 0.08812,0.04406 0.02787,0.0093 0.06368,-0.01629 0.08812,0 0.03456,0.02304 0.05097,0.06954 0.08812,0.08812 0.02627,0.01314 0.06185,-0.01314 0.08812,0 0.03715,0.01858 0.0525,0.06675 0.08812,0.08812 0.03983,0.0239 0.08906,0.02681 0.132183,0.04406 0.06098,0.02439 0.117496,0.05875 0.176243,0.08812 0.02937,0.01469 0.0608,0.02584 0.08812,0.04406 0.03457,0.02304 0.04871,0.07499 0.08812,0.08812 0.02787,0.0093 0.06368,-0.01629 0.08812,0 0.02733,0.01822 0.01674,0.06991 0.04406,0.08812 0.02444,0.01629 0.05962,-0.0071 0.08812,0 0.08554,0.02138 0.141334,0.100595 0.220305,0.132183 0.02727,0.01091 0.06025,-0.0093 0.08812,0 0.0197,0.0066 0.02678,0.03254 0.04406,0.04406 0.02733,0.01822 0.05763,0.03186 0.08812,0.04406 0.08957,0.03583 0.142807,0.03646 0.220305,0.08812 0.01728,0.01152 0.02745,0.0316 0.04406,0.04406 0.04236,0.03177 0.08982,0.05635 0.132183,0.08812 0.03323,0.02492 0.05356,0.06508 0.08812,0.08812 0.02732,0.01822 0.0649,0.02084 0.08812,0.04406 0.01038,0.01039 -0.01039,0.03368 0,0.04406 0.02077,0.02077 0.06025,-0.0093 0.08812,0 0.319151,0.106384 -0.06947,-0.0127 0.132182,0.08812 0.01314,0.0066 0.03092,-0.0066 0.04406,0 0.01858,0.0093 0.02548,0.03477 0.04406,0.04406 0.01314,0.0066 0.03092,-0.0066 0.04406,0 0.102208,-0.01183 0.113274,0.0944 0.176244,0.132183 0.05632,0.03379 0.117496,0.05875 0.176244,0.08812 0.02937,0.01469 0.05697,0.03368 0.08812,0.04406 0.02215,0.0074 0.252857,0 0.264365,0 0.01469,0 0.03092,-0.0066 0.04406,0 0.01858,0.0093 0.02548,0.03477 0.04406,0.04406 0.01961,0.0098 0.156091,-0.0067 0.176244,0 0.01971,0.0066 0.02548,0.03477 0.04406,0.04406 0.02627,0.01314 0.06025,-0.0093 0.08812,0 0.03116,0.01038 0.05697,0.03368 0.08812,0.04406 0.01393,0.0046 0.02966,-0.0029 0.04406,0 0.05938,0.01188 0.116863,0.03218 0.176243,0.04406 0.0144,0.0029 0.03013,-0.0046 0.04406,0 0.03116,0.01038 0.05697,0.03368 0.08812,0.04406 0.01393,0.0046 0.02937,0 0.04406,0 0.05875,0 0.121698,-0.02182 0.176244,0 0.03049,0.0122 0.02584,0.0608 0.04406,0.08812 0.01152,0.01728 0.02548,0.03477 0.04406,0.04406 0.01314,0.0066 0.02937,0 0.04406,0 0.04406,0.01469 0.09064,0.02329 0.132183,0.04406 0.03715,0.01858 0.05097,0.06955 0.08812,0.08812 0.01314,0.0066 0.03013,-0.0046 0.04406,0 0.03115,0.01038 0.05875,0.02937 0.08812,0.04406 0.02937,0.01469 0.0608,0.02584 0.08812,0.04406 0.01728,0.01152 0.02678,0.03254 0.04406,0.04406 0.02733,0.01822 0.0608,0.02584 0.08812,0.04406 0.03456,0.02304 0.05356,0.06508 0.08812,0.08812 0.02732,0.01822 0.0608,0.02584 0.08812,0.04406 0.01728,0.01152 0.02436,0.03749 0.04406,0.04406 0.02787,0.0093 0.06368,-0.01629 0.08812,0 0.02733,0.01822 0.02084,0.0649 0.04406,0.08812 0.01038,0.01038 0.03092,-0.0066 0.04406,0 0.01858,0.0093 0.02436,0.03749 0.04406,0.04406 0.02787,0.0093 0.06185,-0.01314 0.08812,0 0.01314,0.0066 -0.01038,0.03368 0,0.04406 0.02322,0.02322 0.05875,0.02937 0.08812,0.04406 0.08812,0.04406 0.176244,0.08812 0.264366,0.132182 0.02937,0.01469 0.0608,0.02584 0.08812,0.04406 0.03456,0.02304 0.05097,0.06954 0.08812,0.08812 0.04154,0.02077 0.08906,0.02681 0.132183,0.04406 0.03049,0.0122 0.05626,0.0361 0.08812,0.04406 0.0285,0.0071 0.06025,-0.0093 0.08812,0 0.01971,0.0066 0.02937,0.02937 0.04406,0.04406 0.02937,0.02937 0.05356,0.06508 0.08812,0.08812 0.01222,0.0081 0.03013,-0.0046 0.04406,0 0.07503,0.02501 0.145272,0.06311 0.220305,0.08812 0.01393,0.0046 0.03092,-0.0066 0.04406,0 0.03366,0.01683 0.102347,0.122237 0.132183,0.132183 0.02787,0.0093 0.06368,-0.01629 0.08812,0 0.08073,0.05382 0.0035,0.09834 0.08812,0.132182 0.05622,0.02249 0.118796,0.02491 0.176244,0.04406 0.03116,0.01039 0.05697,0.03368 0.08812,0.04406 0.01393,0.0046 0.03092,-0.0066 0.04406,0 0.01858,0.0093 0.02678,0.03254 0.04406,0.04406 0.08134,0.05423 0.183022,0.07795 0.264366,0.132183 0.01728,0.01152 0.02391,0.03902 0.04406,0.04406 0.04275,0.01069 0.08898,-0.0086 0.132182,0 0.0322,0.0064 0.05592,0.03762 0.08812,0.04406 0.04037,0.0081 0.265291,0 0.308427,0 0.03123,0 0.252974,-0.0057 0.264366,0 0.109123,-0.02443 0.110561,0.09934 0.176243,0.132183 0.01314,0.0066 0.03092,-0.0066 0.04406,0 0.01858,0.0093 0.02436,0.03749 0.04406,0.04406 0.02787,0.0093 0.06026,-0.0093 0.08812,0 0.03941,0.01314 0.04871,0.07498 0.08812,0.08812 0.02787,0.0093 0.06025,-0.0093 0.08812,0 0.05061,0.01687 0.06113,0.105192 0.08812,0.132183 0.01038,0.01038 0.03184,-0.0081 0.04406,0 0.05185,0.03456 0.08034,0.09762 0.132183,0.132182 0.02733,0.01822 0.0649,0.02084 0.08812,0.04406 0.01038,0.01039 -0.01039,0.03368 0,0.04406 0.01038,0.01038 0.03368,-0.01038 0.04406,0 0.01039,0.01038 0,0.02937 0,0.04406 0,0.01469 0,0.02937 0,0.04406 0,0.14687 0,0.29374 0,0.44061 0,0.249678 0,0.499357 0,0.749036 0,0.102808 0,0.205617 0,0.308426 0,0.02937 0,0.05875 0,0.08812 0,0.02937 -0.0093,0.06025 0,0.08812 0.0066,0.01971 0.03477,0.02548 0.04406,0.04406 0.0067,0.01341 0,0.11234 0,0.132183 0,0.08812 0,0.176244 0,0.264365 0,0.396549 0,0.793097 0,1.189646 0,0.63154 0,1.26308 0,1.894621 0,0.19093 0,0.381861 0,0.572792 0,0.03123 0.0057,0.252974 0,0.264365 -0.04133,0.08266 -0.05652,0.01884 -0.132182,0.04406 -0.01971,0.0066 -0.02548,0.03477 -0.04406,0.04406 -0.0233,0.01165 -0.154778,-0.0054 -0.176244,0 -0.03186,0.008 -0.05697,0.03368 -0.08812,0.04406 -0.02486,0.0083 -0.10323,0 -0.132183,0 -0.102809,0 -0.205618,0 -0.308426,0 -0.05875,0 -0.11795,-0.0073 -0.176244,0 -0.06009,0.0075 -0.116864,0.03218 -0.176244,0.04406 -0.0144,0.0029 -0.03013,-0.0046 -0.04406,0 -0.03116,0.01039 -0.05592,0.03762 -0.08812,0.04406 -0.04416,0.0088 -0.206992,0 -0.264366,0 -0.01469,0 -0.03013,-0.0046 -0.04406,0 -0.03116,0.01038 -0.05626,0.0361 -0.08812,0.04406 -0.0285,0.0071 -0.05875,0 -0.08812,0 -0.02937,0 -0.05875,0 -0.08812,0 -0.132183,0 -0.264366,0 -0.396549,0 -0.02895,0 -0.107323,-0.0083 -0.132182,0 -0.03116,0.01038 -0.05626,0.0361 -0.08812,0.04406 -0.05793,0.01448 -0.165584,-0.01824 -0.220305,0 -0.01971,0.0066 -0.02678,0.03254 -0.04406,0.04406 -0.02732,0.01822 -0.05697,0.03368 -0.08812,0.04406 -0.132183,0.04406 0.08812,-0.08812 -0.132183,0 -0.25138,0.100552 -0.02784,0.06803 -0.220304,0.132183 -0.01393,0.0046 -0.03013,-0.0046 -0.04406,0 -0.06231,0.02077 -0.113933,0.06735 -0.176244,0.08812 -0.01393,0.0046 -0.03013,-0.0046 -0.04406,0 -0.09892,0.03297 -0.119753,0.08191 -0.220305,0.132183 -0.01314,0.0066 -0.02937,0 -0.04406,0 -0.02937,0.01469 -0.0608,0.02584 -0.08812,0.04406 -0.01728,0.01152 -0.02548,0.03477 -0.04406,0.04406 -0.01314,0.0066 -0.03092,-0.0066 -0.04406,0 -0.345352,-0.153051 -0.07645,0.104317 -0.132182,0.132183 -0.02627,0.01314 -0.06026,-0.0093 -0.08812,0 -0.01971,0.0066 -0.02745,0.0316 -0.04406,0.04406 -0.04236,0.03177 -0.08302,0.06846 -0.132183,0.08812 -0.02727,0.01091 -0.05875,0 -0.08812,0 -0.07344,0.02937 -0.149563,0.05275 -0.220305,0.08812 -0.03715,0.01858 -0.05097,0.06954 -0.08812,0.08812 -0.02811,0.01406 -0.193203,-0.01355 -0.220304,0 -0.08812,0.04406 -0.06609,0.08812 -0.132183,0.132183 -0.02733,0.01822 -0.05875,0.02937 -0.08812,0.04406 -0.02937,0.01469 -0.05697,0.03368 -0.08812,0.04406 -0.02787,0.0093 -0.06735,-0.02077 -0.08812,0 -0.02322,0.02322 -0.01779,0.06842 -0.04406,0.08812 -0.03119,0.134345 -0.122081,0.01698 -0.176244,0.04406 -0.03715,0.01858 -0.05356,0.06508 -0.08812,0.08812 -0.02733,0.01822 -0.0608,0.02584 -0.08812,0.04406 -0.03457,0.02304 -0.05489,0.0632 -0.08812,0.08812 -0.04236,0.03177 -0.08982,0.05635 -0.132183,0.08812 -0.01662,0.01246 -0.02678,0.03254 -0.04406,0.04406 -0.0082,0.0055 -0.17342,0.0853 -0.176244,0.08812 -0.01038,0.01038 0.01222,0.03591 0,0.04406 -0.03864,0.02576 -0.09064,0.02329 -0.132183,0.04406 -0.183371,0.09168 0.0471,-0.003 -0.04406,0.08812 -0.01038,0.01038 -0.03092,-0.0066 -0.04406,0 -0.01858,0.0093 -0.02548,0.03477 -0.04406,0.04406 -0.01314,0.0066 -0.02937,0 -0.04406,0 -0.02937,0.02937 -0.05356,0.06508 -0.08812,0.08812 -0.01222,0.0081 -0.03184,-0.0081 -0.04406,0 -0.03456,0.02304 -0.05489,0.0632 -0.08812,0.08812 -0.02627,0.01971 -0.0608,0.02584 -0.08812,0.04406 -0.01728,0.01152 -0.02678,0.03254 -0.04406,0.04406 -0.02732,0.01822 -0.0608,0.02584 -0.08812,0.04406 -0.03456,0.02304 -0.05356,0.06508 -0.08812,0.08812 -0.02733,0.01822 -0.0649,0.02084 -0.08812,0.04406 -0.02322,0.02322 -0.02084,0.0649 -0.04406,0.08812 -0.05875,0.05875 -0.04228,-0.09347 -0.08812,0.04406 -0.0093,0.02787 0.01314,0.06185 0,0.08812 -0.0066,0.01314 -0.03184,-0.0081 -0.04406,0 -0.03457,0.02304 -0.05875,0.05875 -0.08812,0.08812 -0.01469,0.01469 -0.03254,0.02678 -0.04406,0.04406 -0.03643,0.05465 -0.05433,0.119921 -0.08812,0.176243 -0.02725,0.04541 -0.06846,0.08302 -0.08812,0.132183 -0.01091,0.02727 0.01314,0.06185 0,0.08812 -0.0066,0.01314 -0.03591,-0.01222 -0.04406,0 -0.134344,0.03119 -0.01698,0.122081 -0.04406,0.176244 -0.0093,0.01858 -0.03477,0.02548 -0.04406,0.04406 -0.0066,0.01314 0.0066,0.03092 0,0.04406 -0.01858,0.03715 -0.07498,0.04871 -0.08812,0.08812 -0.0093,0.02787 0.01091,0.06085 0,0.08812 -0.01967,0.04917 -0.06444,0.08482 -0.08812,0.132182 -0.0066,0.01314 0.0066,0.03092 0,0.04406 -0.0093,0.01858 -0.03902,0.02391 -0.04406,0.04406 -0.02137,0.08549 0.03273,0.182547 0,0.264366 -0.01543,0.03857 -0.06954,0.05097 -0.08812,0.08812 -0.01314,0.02627 0.0071,0.05962 0,0.08812 -0.008,0.03186 -0.02937,0.05875 -0.04406,0.08812 -0.01469,0.02937 -0.02584,0.0608 -0.04406,0.08812 -0.01152,0.01728 -0.03477,0.02548 -0.04406,0.04406 -0.03537,0.07074 -0.06311,0.145272 -0.08812,0.220305 -0.0093,0.02787 0.01629,0.06368 0,0.08812 -0.02304,0.03456 -0.0632,0.05489 -0.08812,0.08812 -0.02146,0.02861 -0.120331,0.22881 -0.132183,0.264366 -0.01322,0.03965 0.01322,0.09253 0,0.132182 -0.01038,0.03116 -0.03368,0.05697 -0.04406,0.08812 -0.0093,0.02787 0.0093,0.06026 0,0.08812 -0.01038,0.03116 -0.0361,0.05626 -0.04406,0.08812 -0.01069,0.04274 0,0.08812 0,0.132183 0,0.102809 0,0.205618 0,0.308427 0,0.323113 0,0.646227 0,0.96934"
   id="path13612" /><path
   style="fill:none;stroke:#000000;stroke-width:1px;stroke-linecap:butt;stroke-linejoin:miter;stroke-opacity:1"
   d="m 29.080223,76.181373 c -0.546433,0.273216 0.04324,0.01122 -0.264365,0.08812 -0.212768,0.05319 0.0022,0.02094 -0.132183,0.08812 -0.01747,0.0087 -0.123175,-0.009 -0.132183,0 -0.01038,0.01038 0,0.02937 0,0.04406"
   id="path13614" /><path
   style="fill:none;stroke:#000000;stroke-width:1px;stroke-linecap:butt;stroke-linejoin:miter;stroke-opacity:1"
   d="m 28.727736,76.181373 c 0.640063,0.384038 -0.154151,-0.102767 0.396548,0.264365 0.01571,0.108237 0.09354,0.0183 0.132183,0.04406 0.03456,0.02304 0.05568,0.06217 0.08812,0.08812 0.162402,0.129922 0.08302,0.04981 0.220305,0.132183 0.04541,0.02724 0.08982,0.05635 0.132183,0.08812 0.01662,0.01246 0.02548,0.03477 0.04406,0.04406 0.01314,0.0066 0.03184,-0.0081 0.04406,0 0.03456,0.02304 0.05356,0.06508 0.08812,0.08812 0.01222,0.0081 0.03749,-0.01314 0.04406,0 0.01314,0.02627 -0.0093,0.06025 0,0.08812 0.02112,0.06337 0.149081,0.06775 0.176244,0.08812 0.02627,0.0197 0.02084,0.0649 0.04406,0.08812 0.07908,0.07907 0.209138,0.126599 0.308427,0.176243 0.02937,0.01469 0.06185,0.02436 0.08812,0.04406 0.03323,0.02492 0.0525,0.06675 0.08812,0.08812 0.03119,0.134345 0.122081,0.01698 0.176244,0.04406 0.01858,0.0093 0.02548,0.03477 0.04406,0.04406 0.10852,0.05426 -0.03977,-0.127897 0.132183,0.04406 0.01038,0.01038 -0.01038,0.03368 0,0.04406 0.01038,0.01038 0.03013,-0.0046 0.04406,0 0.03116,0.01038 0.05697,0.03368 0.08812,0.04406 0.01393,0.0046 0.03092,-0.0066 0.04406,0 0.01858,0.0093 0.02436,0.03749 0.04406,0.04406 0.03649,0.01216 0.192284,-0.01401 0.220304,0 0.03716,0.01858 0.05097,0.06954 0.08812,0.08812 0.01314,0.0066 0.03092,-0.0066 0.04406,0 0.01858,0.0093 0.02548,0.03477 0.04406,0.04406 0.01314,0.0066 0.02981,-0.0036 0.04406,0 0.04506,0.01126 0.09064,0.02329 0.132183,0.04406 0.01858,0.0093 0.02391,0.03902 0.04406,0.04406 0.04275,0.01069 0.08812,0 0.132183,0 0.01469,0 0.03013,-0.0046 0.04406,0 0.06231,0.02077 0.113932,0.06735 0.176243,0.08812 0.02787,0.0093 0.06185,-0.01314 0.08812,0 0.01858,0.0093 0.02548,0.03477 0.04406,0.04406 0.02804,0.01402 0.182212,-0.0127 0.220305,0 0.06231,0.02077 0.113932,0.06735 0.176244,0.08812 0.03851,0.01284 0.237827,-0.01327 0.264365,0 0.04736,0.02368 0.08982,0.05635 0.132183,0.08812 0.01662,0.01246 0.02436,0.03749 0.04406,0.04406 0.0418,0.01393 0.08812,0 0.132183,0 0.08812,0 0.176244,0 0.264366,0 0.01469,0 0.03092,-0.0066 0.04406,0 0.201649,0.100825 -0.186969,-0.01826 0.132182,0.08812 0.02787,0.0093 0.06185,-0.01314 0.08812,0 0.04736,0.02368 0.08482,0.06444 0.132183,0.08812 0.01314,0.0066 0.03368,-0.01038 0.04406,0 0.01038,0.01038 -0.01038,0.03368 0,0.04406 0.01038,0.01038 0.03013,-0.0046 0.04406,0 0.03116,0.01038 0.05697,0.03368 0.08812,0.04406 0.01393,0.0046 0.03368,-0.01039 0.04406,0 0.01038,0.01038 -0.01038,0.03368 0,0.04406 0.009,0.009 0.114713,-0.0087 0.132183,0 0.05051,0.02526 0.06129,0.09193 0.08812,0.132183 0.09513,0.14269 -0.0055,-0.01834 0.08812,0.04406 0.245893,0.163929 -0.09983,0.01618 0.220305,0.176244 0.01314,0.0066 0.02937,0 0.04406,0 0.02937,0.01469 0.05961,0.02777 0.08812,0.04406 0.07436,0.04249 0.145949,0.08969 0.220305,0.132183 0.02851,0.01629 0.05592,0.03762 0.08812,0.04406 0.04321,0.0086 0.08944,-0.01069 0.132182,0 0.02015,0.005 0.02548,0.03477 0.04406,0.04406 0.01314,0.0066 0.02937,0 0.04406,0 0.04406,0.01469 0.09064,0.02329 0.132183,0.04406 0.01858,0.0093 0.02548,0.03477 0.04406,0.04406 0.01314,0.0066 0.02937,0 0.04406,0 0.02937,0 0.06026,-0.0093 0.08812,0 0.0197,0.0066 0.02937,0.02937 0.04406,0.04406 0.02937,0 0.06025,-0.0093 0.08812,0 0.0197,0.0066 0.02391,0.03902 0.04406,0.04406 0.04637,0.01159 0.20112,0 0.264365,0 0.01469,0 0.02966,-0.0029 0.04406,0 0.05938,0.01188 0.116512,0.0341 0.176244,0.04406 0.02897,0.0048 0.05875,0 0.08812,0 0.07344,0 0.14687,0 0.220305,0 0.220304,0 0.440609,0 0.660914,0 0.08812,0 0.176244,0 0.264366,0 0.02937,0 0.05875,0 0.08812,0 0.01469,0 0.03013,-0.0046 0.04406,0 0.03116,0.01038 0.05626,0.0361 0.08812,0.04406 0.0285,0.0071 0.06026,-0.0093 0.08812,0 0.01971,0.0066 0.02391,0.03902 0.04406,0.04406 0.03268,0.0082 0.312723,0 0.352488,0 0.19093,0 0.381861,0 0.572792,0 0.543418,0 1.086837,0 1.630255,0 0.190931,0 0.381861,0 0.572792,0 0.08812,0 0.176244,0 0.264366,0 0.02937,0 0.05932,-0.0058 0.08812,0 0.04554,0.0091 0.08637,0.03642 0.132183,0.04406 0.04346,0.0072 0.08812,0 0.132182,0 0.07344,0 0.14687,0 0.220305,0 0.14687,0 0.29374,0 0.44061,0 0.05875,0 0.117495,0 0.176243,0 0.02937,0 0.06026,-0.0093 0.08812,0 0.01971,0.0066 0.02436,0.03749 0.04406,0.04406 0.02787,0.0093 0.05875,0 0.08812,0 0.08812,0 0.176244,0 0.264366,0 0.04406,0 0.08812,0 0.132183,0 0.01469,0 0.02981,-0.0036 0.04406,0 0.167391,0.04185 0.116121,0.06065 0.308426,0.08812 0.04362,0.0062 0.08812,0 0.132183,0 0.117496,0 0.235474,-0.01064 0.352488,0 0.09251,0.0084 0.17241,0.07499 0.264365,0.08812 0.05816,0.0083 0.117496,0 0.176244,0 0.145058,0 0.194382,-0.0086 0.352488,0.04406 0.325763,0.108588 0.01773,0.09009 0.396548,0.132183 0.05839,0.0065 0.117496,0 0.176244,0 0.132183,0 0.264365,0 0.396548,0 0.102809,0 0.205618,0 0.308427,0 0.02937,0 0.05932,0.0058 0.08812,0 0.04554,-0.0091 0.08637,-0.03643 0.132183,-0.04406 0.07243,-0.01207 0.146869,0 0.220304,0 0.176244,0 0.352488,0 0.528732,0 0.602166,0 1.204332,0 1.806498,0 0.308427,0 0.616854,0 0.92528,0 0.07344,0 0.14687,0 0.220305,0 0.04406,0 0.08846,0.0055 0.132183,0 0.07431,-0.0093 0.145994,-0.03477 0.220305,-0.04406 0.04372,-0.0055 0.08812,0 0.132182,0 0.117496,0 0.234992,0 0.352488,0 0.02937,0 0.05932,0.0058 0.08812,0 0.09108,-0.01822 0.173281,-0.0699 0.264365,-0.08812 0.0288,-0.0058 0.05962,0.0071 0.08812,0 0.03186,-0.008 0.05592,-0.03762 0.08812,-0.04406 0.04653,-0.0093 0.244706,0 0.308427,0 0.249679,0 0.499357,0 0.749036,0 0.04509,0 0.31608,0.0091 0.352487,0 0.03186,-0.008 0.05697,-0.03368 0.08812,-0.04406 0.01393,-0.0046 0.02937,0 0.04406,0 0.02937,0 0.05904,0.0042 0.08812,0 0.07414,-0.01059 0.148297,-0.02349 0.220305,-0.04406 0.03158,-0.009 0.05573,-0.03866 0.08812,-0.04406 0.05795,-0.0097 0.118086,0.0083 0.176244,0 0.09195,-0.01314 0.17425,-0.06559 0.264365,-0.08812 0.01425,-0.0036 0.02966,0.0029 0.04406,0 0.05938,-0.01188 0.116512,-0.03411 0.176244,-0.04406 0.05795,-0.0097 0.117496,0 0.176244,0 0.08812,0 0.176244,0 0.264365,0 0.249679,0 0.499358,0 0.749036,0 0.249679,0 0.499358,0 0.749037,0 0.07343,0 0.148295,-0.0144 0.220304,0 0.0322,0.0064 0.05626,0.0361 0.08812,0.04406 0.05699,0.01425 0.118637,-0.01152 0.176244,0 0.04554,0.0091 0.08712,0.0328 0.132183,0.04406 0.01425,0.0036 0.02937,0 0.04406,0 0.02937,0 0.05875,0 0.08812,0 0.102808,0 0.205617,0 0.308426,0 0.04406,0 0.08812,0 0.132183,0 0.04406,0 0.08898,0.0086 0.132183,0 0.0322,-0.0064 0.05592,-0.03762 0.08812,-0.04406 0.07201,-0.0144 0.148296,0.0144 0.220304,0 0.04554,-0.0091 0.08664,-0.03495 0.132183,-0.04406 0.07184,-0.01437 0.187907,0.0096 0.264366,0 0.08865,-0.01108 0.175718,-0.03298 0.264366,-0.04406 0.07232,-0.009 0.254767,0 0.308426,0 0.161557,0 0.323114,0 0.484671,0 0.690288,0 1.380576,0 2.070864,0 0.704975,0 1.40995,0 2.114925,0 0.176244,0 0.352488,0 0.528732,0 0.07344,0 0.147234,-0.0073 0.220304,0 0.07452,0.0075 0.146169,0.03347 0.220305,0.04406 0.02908,0.0042 0.05875,0 0.08812,0 0.07343,0 0.14687,0 0.220305,0 0.02937,0 0.05962,-0.0071 0.08812,0 0.03186,0.008 0.05626,0.0361 0.08812,0.04406 0.04274,0.01069 0.08812,0 0.132182,0 0.102809,0 0.205618,0 0.308427,0 0.323114,0 0.646227,0 0.969341,0 0.132183,0 0.264365,0 0.396548,0 0.05875,0 0.118295,-0.0097 0.176244,0 0.03239,0.0054 0.05626,0.0361 0.08812,0.04406 0.0285,0.0071 0.05875,0 0.08812,0 0.02937,0.01469 0.05697,0.03368 0.08812,0.04406 0.01393,0.0046 0.02937,0 0.04406,0 0.05875,0 0.117495,0 0.176243,0 0.02937,0 0.06026,-0.0093 0.08812,0 0.01971,0.0066 0.02436,0.03749 0.04406,0.04406 0.05573,0.01858 0.118637,-0.01152 0.176244,0 0.04554,0.0091 0.0862,0.03749 0.132183,0.04406 0.05816,0.0083 0.117855,-0.0065 0.176244,0 0.07443,0.0083 0.145993,0.03477 0.220304,0.04406 0.04372,0.0055 0.08812,0 0.132183,0 0.102809,0 0.205618,0 0.308427,0 0.02937,0 0.05962,-0.0071 0.08812,0 0.03186,0.008 0.05626,0.0361 0.08812,0.04406 0.03994,0.01 0.16912,0 0.220304,0 0.161557,0 0.323114,0 0.484671,0 0.396548,0 0.793097,0 1.189645,0"
   id="path13616" /><path
   style="fill:none;stroke:#000000;stroke-width:1px;stroke-linecap:butt;stroke-linejoin:miter;stroke-opacity:1"
   d="m 44.589676,79.574066 c 0.249678,0 0.499357,0 0.749036,0 0.205617,0 0.411722,0.01415 0.616853,0 1.362205,-0.09395 0.30829,-0.08812 0.793097,-0.08812 0.14687,0 0.29374,0 0.440609,0 0.05875,0 0.117738,0.0053 0.176244,0 0.103426,-0.0094 0.205782,-0.02827 0.308427,-0.04406 0.0883,-0.01359 0.175926,-0.03143 0.264365,-0.04406 0.01454,-0.0021 0.03013,0.0046 0.04406,0 0.457398,-0.152466 0.02867,-0.01434 0.352488,-0.176244 0.01314,-0.0066 0.02937,0 0.04406,0 0.05875,0 0.118086,0.0083 0.176244,0 0.08965,0.0153 0.142749,-0.07261 0.220304,-0.08812 0.04321,-0.0086 0.08898,0.0086 0.132183,0 0.0322,-0.0064 0.05763,-0.03186 0.08812,-0.04406 0.04312,-0.01725 0.08664,-0.03495 0.132183,-0.04406 0.05761,-0.01152 0.117496,0 0.176244,0 0.14687,0 0.293739,0 0.440609,0 0.08812,0 0.176244,0 0.264366,0 0.02937,0 0.05875,0 0.08812,0 0.02937,0 0.05963,-0.0071 0.08812,0 0.03186,0.008 0.05626,0.0361 0.08812,0.04406 0.02147,0.0054 0.152945,-0.01165 0.176243,0 0.01858,0.0093 0.02548,0.03477 0.04406,0.04406 0.01314,0.0066 0.03368,-0.01038 0.04406,0 0.01038,0.01038 -0.0066,0.03093 0,0.04406 0.0093,0.01858 0.03749,0.02436 0.04406,0.04406 0.01393,0.0418 0,0.08812 0,0.132183"
   id="path13618" /><path
   style="fill:none;stroke:#000000;stroke-width:1px;stroke-linecap:butt;stroke-linejoin:miter;stroke-opacity:1"
   d="m 30.357991,77.018531 c 0.118279,0.235618 0.366676,0.334265 0.528731,0.528731 0.0339,0.04068 0.05068,0.09474 0.08812,0.132183 0.03744,0.03745 0.0991,0.04677 0.132183,0.08812 0.02901,0.03627 0.0328,0.08713 0.04406,0.132183 0.0036,0.01425 -0.01314,0.03749 0,0.04406 0.02627,0.01314 0.06185,-0.01314 0.08812,0 0.01314,0.0066 -0.01039,0.03368 0,0.04406 0.06251,0.06251 0.143478,0.04406 0.220304,0.04406"
   id="path13620" /><path
   style="fill:none;stroke:#000000;stroke-width:1px;stroke-linecap:butt;stroke-linejoin:miter;stroke-opacity:1"
   d="m 45.074346,63.844308 c 0.485289,-0.242644 -0.167118,0.106782 0.352488,-0.264365 0.250851,-0.179179 0.01552,0.116667 0.264365,-0.132183 0.160365,-0.160365 -0.04684,-0.03096 0.08812,-0.132183 0.04236,-0.03177 0.08677,-0.06088 0.132183,-0.08812 0.02816,-0.0169 0.0649,-0.02084 0.08812,-0.04406 0.01038,-0.01038 -0.0066,-0.03092 0,-0.04406 0.01858,-0.03715 0.06954,-0.05097 0.08812,-0.08812 0.0066,-0.01314 -0.0066,-0.03092 0,-0.04406 0.0093,-0.01858 0.02937,-0.02937 0.04406,-0.04406 0.01469,-0.01469 0.02548,-0.03477 0.04406,-0.04406 0.01963,-0.0098 0.160533,0.0031 0.176243,0 0.04554,-0.0091 0.08664,-0.03495 0.132183,-0.04406 0.0017,-3.4e-4 0.131967,2.16e-4 0.132183,0 0.02322,-0.02322 0.01469,-0.07344 0.04406,-0.08812 0.03941,-0.0197 0.08944,0.01069 0.132183,0 0.02015,-0.005 0.02478,-0.03635 0.04406,-0.04406 0.05622,-0.02249 0.124317,-0.0129 0.176244,-0.04406 0.09836,-0.05902 0.178038,-0.144768 0.264365,-0.220305 0.03126,-0.02736 0.0525,-0.06675 0.08812,-0.08812 0.03983,-0.02389 0.09503,-0.01619 0.132183,-0.04406 0.02627,-0.0197 0.02584,-0.0608 0.04406,-0.08812 0.01152,-0.01728 0.03254,-0.02678 0.04406,-0.04406 0.01822,-0.02732 0.01674,-0.0699 0.04406,-0.08812 0.132183,-0.08812 0.04406,0.04406 0.132183,0 0.111939,-0.05597 -0.04512,-0.05266 0.132183,-0.08812 0.04321,-0.0086 0.08898,0.0086 0.132182,0 0.161406,0.0092 0.290251,-0.102111 0.44061,-0.132183 0.0288,-0.0058 0.06025,0.0093 0.08812,0 0.0197,-0.0066 0.02548,-0.03477 0.04406,-0.04406 0.04154,-0.02077 0.08906,-0.02681 0.132182,-0.04406 0.06099,-0.02439 0.117496,-0.05875 0.176244,-0.08812 0.05875,-0.02937 0.115873,-0.06225 0.176244,-0.08812 0.04269,-0.0183 0.09354,-0.0183 0.132183,-0.04406 0.05185,-0.03456 0.08233,-0.0948 0.132183,-0.132183 0.01175,-0.0088 0.03092,0.0066 0.04406,0 0.01858,-0.0093 0.02937,-0.02937 0.04406,-0.04406 0.04406,-0.01469 0.08906,-0.02681 0.132182,-0.04406 0.09027,-0.03611 0.172201,-0.101461 0.264366,-0.132183 0.01393,-0.0046 0.03092,0.0066 0.04406,0 0.04736,-0.02368 0.08302,-0.06846 0.132183,-0.08812 0.02727,-0.01091 0.06185,0.01314 0.08812,0 0.03715,-0.01858 0.05489,-0.0632 0.08812,-0.08812 0.01835,-0.104061 0.09236,-0.02017 0.132182,-0.04406 0.556469,-0.333881 -0.01489,0.01489 0.220305,-0.220305 0.02322,-0.02322 0.06185,-0.02436 0.08812,-0.04406 0.03323,-0.02492 0.05568,-0.06217 0.08812,-0.08812 0.293538,-0.23483 0.0033,-0.01578 0.220305,-0.08812 0.0197,-0.0066 0.02678,-0.03254 0.04406,-0.04406 0.07337,-0.04892 0.196303,-0.08114 0.264365,-0.132183 0.03323,-0.02493 0.05356,-0.06508 0.08812,-0.08812 0.01222,-0.0081 0.03013,0.0046 0.04406,0 0.03116,-0.01038 0.0608,-0.02584 0.08812,-0.04406 0.01728,-0.01152 0.02548,-0.03477 0.04406,-0.04406 0.08308,-0.04154 0.178121,-0.05362 0.264366,-0.08812 0.03049,-0.0122 0.05697,-0.03368 0.08812,-0.04406 0.03775,-0.01258 0.137372,0.0097 0.176243,0 0.03186,-0.008 0.05697,-0.03368 0.08812,-0.04406 0.01393,-0.0046 0.03093,0.0066 0.04406,0 0.01858,-0.0093 0.02548,-0.03477 0.04406,-0.04406 0.0099,-0.0049 0.165774,0 0.176244,0 0.117496,0 0.234992,0 0.352487,0 0.02937,0 0.05963,0.0071 0.08812,0 0.03186,-0.008 0.05626,-0.0361 0.08812,-0.04406 0.0285,-0.0071 0.06025,0.0093 0.08812,0 0.01971,-0.0066 0.02391,-0.03902 0.04406,-0.04406 0.04275,-0.01069 0.08944,0.01069 0.132183,0 0.02015,-0.005 0.02478,-0.03635 0.04406,-0.04406 0.05345,-0.02138 0.358571,-0.0827 0.396548,-0.08812 0.02908,-0.0042 0.05915,0.0048 0.08812,0 0.05973,-0.01 0.116297,-0.0355 0.176244,-0.04406 0.07631,-0.0109 0.18341,0 0.264366,0 0.161556,0 0.323113,0 0.48467,0 0.132183,0 0.264366,0 0.396549,0 0.05875,0 0.118636,-0.01152 0.176243,0 0.0322,0.0064 0.05626,0.0361 0.08812,0.04406 0.0285,0.0071 0.05875,0 0.08812,0 0.02937,0 0.05875,0 0.08812,0 0.381861,0 0.763723,0 1.145585,0 0.117495,0 0.234991,0 0.352487,0 0.04406,0 0.08944,-0.01069 0.132183,0 0.03186,0.008 0.05626,0.03609 0.08812,0.04406 0.0285,0.0071 0.05963,-0.0071 0.08812,0 0.06372,0.01593 0.112522,0.07219 0.176243,0.08812 0.04275,0.01069 0.08944,-0.01069 0.132183,0 0.366742,0.09169 -0.05319,-0.003 0.220305,0.08812 0.01393,0.0046 0.02981,-0.0036 0.04406,0 0.04506,0.01127 0.08713,0.0328 0.132183,0.04406 0.01425,0.0036 0.02937,0 0.04406,0 0.02937,0 0.05875,0 0.08812,0 0.05875,0 0.117495,0 0.176243,0 0.02937,0 0.06026,-0.0093 0.08812,0 0.01971,0.0066 0.02937,0.02937 0.04406,0.04406 0.02937,0.01469 0.05626,0.0361 0.08812,0.04406 0.0285,0.0071 0.05875,0 0.08812,0 0.02937,0.01469 0.05626,0.0361 0.08812,0.04406 0.05699,0.01425 0.11925,-0.01425 0.176244,0 0.212768,0.05319 -0.0022,0.02094 0.132183,0.08812 0.01158,0.0058 0.153203,0 0.176243,0"
   id="path13622" /><path
   style="fill:none;stroke:#000000;stroke-width:1px;stroke-linecap:butt;stroke-linejoin:miter;stroke-opacity:1"
   d="m 60.539738,59.394153 c 0.05875,-0.02937 0.111455,-0.07732 0.176243,-0.08812 0.0324,-0.0054 0.05626,0.0361 0.08812,0.04406 0.0285,0.0071 0.06026,-0.0093 0.08812,0 0.0197,0.0066 0.02436,0.03749 0.04406,0.04406 0.132183,0.04406 0.04406,-0.02203 0.132183,0 0.04506,0.01126 0.08664,0.03495 0.132183,0.04406 0.0288,0.0058 0.05893,-0.0032 0.08812,0 0.103217,0.01147 0.205089,0.03373 0.308426,0.04406 0.08546,0.0085 0.273977,0 0.352488,0 0.234991,0 0.469983,0 0.704975,0 0.08812,0 0.176244,0 0.264366,0 0.04406,0 0.08944,-0.01069 0.132182,0 0.03186,0.008 0.05592,0.03762 0.08812,0.04406 0.04321,0.0086 0.08898,-0.0086 0.132183,0 0.0322,0.0064 0.05875,0.02937 0.08812,0.04406 0.04406,0.01469 0.08664,0.03495 0.132183,0.04406 0.0288,0.0058 0.05962,-0.0071 0.08812,0 0.03186,0.008 0.05875,0.02937 0.08812,0.04406 0.02937,0.01469 0.0608,0.02584 0.08812,0.04406 0.01728,0.01152 0.02436,0.03749 0.04406,0.04406 0.04632,0.01544 0.219191,-0.01129 0.264366,0 0.02015,0.005 0.02548,0.03477 0.04406,0.04406 0.02627,0.01314 0.06026,-0.0093 0.08812,0 0.03116,0.01038 0.05697,0.03367 0.08812,0.04406 0.03103,0.01034 0.164419,-0.01182 0.176244,0 0.01038,0.01039 -0.01314,0.03749 0,0.04406 0.02627,0.01314 0.06025,-0.0093 0.08812,0 0.0197,0.0066 0.02937,0.02937 0.04406,0.04406 0.04406,0.01469 0.0861,0.0383 0.132183,0.04406 0.07287,0.0091 0.147608,-0.01038 0.220305,0 0.03251,0.0046 0.05626,0.0361 0.08812,0.04406 0.04143,0.02137 0.08944,-0.01069 0.132183,0 0.04506,0.01127 0.08752,0.0313 0.132183,0.04406 0.0587,0.122512 0.147651,0.0259 0.220304,0.04406 0.04506,0.01127 0.08713,0.0328 0.132183,0.04406 0.07265,0.01816 0.14687,0.02937 0.220305,0.04406 0.07344,0.01469 0.145994,0.03477 0.220305,0.04406 0.04372,0.0055 0.08812,0 0.132182,0 0.01469,0 0.03013,-0.0046 0.04406,0 0.03116,0.01038 0.05697,0.03368 0.08812,0.04406 0.01393,0.0046 0.02937,0 0.04406,0 0.08812,0 0.176244,0 0.264366,0 0.14687,0 0.293739,0 0.440609,0 0.03607,0 0.191757,-0.0095 0.220305,0 0.03116,0.01038 0.05592,0.03762 0.08812,0.04406 0.04321,0.0086 0.08944,-0.01069 0.132183,0 0.02015,0.005 0.02744,0.0316 0.04406,0.04406 0.04236,0.03177 0.08482,0.06444 0.132182,0.08812 0.03119,0.134344 0.122081,0.01698 0.176244,0.04406 0.03716,0.01858 0.05097,0.06954 0.08812,0.08812 0.01314,0.0066 0.03147,-0.0076 0.04406,0 0.06297,0.03778 0.110562,0.09934 0.176244,0.132182 0.02627,0.01314 0.05932,-0.0058 0.08812,0 0.04554,0.0091 0.09064,0.02329 0.132183,0.04406 0.03715,0.01858 0.05356,0.06508 0.08812,0.08812 0.02733,0.01822 0.0608,0.02584 0.08812,0.04406 0.01728,0.01152 0.02678,0.03254 0.04406,0.04406 0.02733,0.01822 0.0608,0.02584 0.08812,0.04406 0.01728,0.01152 0.02548,0.03477 0.04406,0.04406 0.01314,0.0066 0.03013,-0.0046 0.04406,0 0.03116,0.01038 0.05697,0.03368 0.08812,0.04406 0.02766,0.0092 0.140773,0 0.176244,0 0.02937,0 0.05875,0 0.08812,0 0.01469,0 0.03092,-0.0066 0.04406,0 0.08809,0.04405 -7.8e-4,0.102549 0.08812,0.132183 0.05358,0.01786 0.169573,-0.02029 0.220305,0 0.04917,0.01967 0.08482,0.06444 0.132183,0.08812 0.02903,0.01452 0.150113,-0.01568 0.176244,0 0.05343,0.03206 0.08233,0.0948 0.132183,0.132182 0.0235,0.01763 0.06025,-0.0093 0.08812,0 0.03116,0.01039 0.05875,0.02937 0.08812,0.04406 0.02937,0.01469 0.0608,0.02584 0.08812,0.04406 0.07433,0.04955 0.06968,0.105541 0.176244,0.132183 0.0285,0.0071 0.05875,0 0.08812,0 0.01469,0 0.03147,-0.0076 0.04406,0 0.06297,0.03778 0.110562,0.09934 0.176244,0.132183 0.02627,0.01314 0.05962,-0.0071 0.08812,0 0.06595,0.01649 0.172922,0.108492 0.220304,0.132183 0.01314,0.0066 0.03093,-0.0066 0.04406,0 0.03716,0.01858 0.05097,0.06954 0.08812,0.08812 0.09741,0.0487 0.101141,0.04406 0.176244,0.04406 0.01469,0 0.02981,-0.0036 0.04406,0 0.04406,0.01469 0.08812,0.02937 0.132183,0.04406 0,0.01469 -0.01314,0.03749 0,0.04406 0.03525,0.01762 0.09693,-0.01762 0.132183,0 0.01858,0.0093 0.02548,0.03477 0.04406,0.04406 0.01314,0.0066 0.02937,0 0.04406,0 0.02937,0.02937 0.05356,0.06508 0.08812,0.08812 0.01222,0.0081 0.02937,0 0.04406,0 0.02937,0 0.06085,-0.01091 0.08812,0 0.04917,0.01967 0.08351,0.06726 0.132183,0.08812 0.05566,0.02385 0.123666,0.01402 0.176244,0.04406 0.415708,0.237548 0.0678,0.04749 0.132183,0.176244 0.02526,0.05051 0.09193,0.06129 0.132182,0.08812 0.04011,0.02674 0.09313,0.112656 0.132183,0.132183 0.01314,0.0066 0.03368,-0.01039 0.04406,0 0.02322,0.02322 0.02084,0.0649 0.04406,0.08812 0.111294,0.111293 0.05079,0.01693 0.132183,0.04406 0.03116,0.01038 0.0608,0.02584 0.08812,0.04406 0.01728,0.01152 0.02391,0.03902 0.04406,0.04406 0.0096,0.0024 0.200257,-0.01002 0.220305,0 0.04736,0.02368 0.08982,0.05635 0.132182,0.08812 0.01662,0.01246 0.02436,0.03749 0.04406,0.04406 0.02787,0.0093 0.05962,-0.0071 0.08812,0 0.03186,0.008 0.05875,0.02937 0.08812,0.04406 0.02937,0.01469 0.0649,0.02084 0.08812,0.04406 0.01038,0.01038 -0.01314,0.03749 0,0.04406 0.0285,0.01425 0.160416,-0.01583 0.176244,0 0.02322,0.02322 0.01673,0.0699 0.04406,0.08812 0.09495,0.0633 0.09093,-0.08391 0.176243,0.04406 0.01629,0.02444 -0.02444,0.07183 0,0.08812 0.03666,0.02444 0.09277,-0.01971 0.132183,0 0.02937,0.01469 0.02084,0.0649 0.04406,0.08812 0.09116,0.09116 -0.0036,-0.13931 0.08812,0.04406 0.0066,0.01314 -0.01038,0.03368 0,0.04406 0.08221,0.08221 0.129077,0.02048 0.176244,0.04406 0.183371,0.09169 -0.0471,-0.003 0.04406,0.08812 0.0051,0.0051 0.170751,-0.0037 0.176244,0 0.234991,0.156662 -0.161557,0.03427 0.132182,0.132183 0.01393,0.0046 0.02937,0 0.04406,0 0.05875,0.01469 0.118796,0.02491 0.176244,0.04406 0.03116,0.01038 0.05697,0.03368 0.08812,0.04406 0.02787,0.0093 0.06735,-0.02077 0.08812,0 0.107949,0.215897 -0.01441,0.03685 0.08812,0.08812 0.01858,0.0093 0.02436,0.03749 0.04406,0.04406 0.02787,0.0093 0.05875,0 0.08812,0 0.01469,0 0.03092,-0.0066 0.04406,0 0.03715,0.01858 0.05097,0.06954 0.08812,0.08812 0.01314,0.0066 0.02937,0 0.04406,0 0.02937,0 0.06185,-0.01314 0.08812,0 0.02627,0.01314 -0.02627,0.07498 0,0.08812 0.05255,0.02627 0.11925,-0.01425 0.176244,0 0.212768,0.05319 -0.0022,0.02094 0.132183,0.08812 0.02627,0.01314 0.06185,-0.01314 0.08812,0 0.01858,0.0093 0.02436,0.03749 0.04406,0.04406 0.02787,0.0093 0.05963,-0.0071 0.08812,0 0.06372,0.01593 0.113932,0.06735 0.176243,0.08812 0.01393,0.0046 0.03092,-0.0066 0.04406,0 0.01858,0.0093 0.02937,0.02937 0.04406,0.04406 0.02937,0.02937 0.05489,0.0632 0.08812,0.08812 0.02627,0.01971 0.0608,0.02584 0.08812,0.04406 0.01728,0.01152 0.02678,0.03254 0.04406,0.04406 0.02733,0.01822 0.06991,0.01674 0.08812,0.04406 0.01629,0.02444 -0.01629,0.06368 0,0.08812 0.01822,0.02733 0.0608,0.02584 0.08812,0.04406 0.01728,0.01152 0.02548,0.03477 0.04406,0.04406 0.01314,0.0066 0.03749,-0.01314 0.04406,0 0.01314,0.02627 -0.01314,0.06185 0,0.08812 0.0066,0.01314 0.03092,-0.0066 0.04406,0 0.01858,0.0093 0.02548,0.03477 0.04406,0.04406 0.01314,0.0066 0.03368,-0.01039 0.04406,0 0.01038,0.01038 -0.01039,0.03367 0,0.04406 0.01038,0.01038 0.03092,-0.0066 0.04406,0 0.01858,0.0093 0.02548,0.03477 0.04406,0.04406 0.01747,0.0087 0.123176,-0.009 0.132183,0 0.02322,0.02322 0.02084,0.0649 0.04406,0.08812 0.01039,0.01038 0.03092,-0.0066 0.04406,0 0.01858,0.0093 0.02548,0.03477 0.04406,0.04406 0.02627,0.01314 0.06735,-0.02077 0.08812,0 0.09116,0.09116 -0.13931,-0.0036 0.04406,0.08812 0.01314,0.0066 0.03368,-0.01038 0.04406,0 0.02322,0.02322 0.03368,0.05697 0.04406,0.08812 0.0046,0.01393 -0.01038,0.03368 0,0.04406 0.04644,0.04644 0.129799,0.04168 0.176244,0.08812 0.01038,0.01038 -0.0046,0.03013 0,0.04406 0.01038,0.03116 0.02584,0.0608 0.04406,0.08812 0.03456,0.05185 0.09762,0.08034 0.132182,0.132183 0.0081,0.01222 -0.0066,0.03092 0,0.04406 0.05445,0.108892 0.04406,-0.01521 0.04406,0.08812"
   id="path13624" /><path
   style="fill:none;stroke:#000000;stroke-width:1px;stroke-linecap:butt;stroke-linejoin:miter;stroke-opacity:1"
   d="m 71.554974,75.961068 c -0.323191,0.403989 -0.05929,0.03045 -0.264366,0.44061 -0.06718,0.134366 -0.03493,-0.08058 -0.08812,0.132182 -0.0071,0.0285 0.0093,0.06026 0,0.08812 -0.01314,0.03941 -0.06954,0.05097 -0.08812,0.08812 -0.0067,0.01341 0,0.11234 0,0.132183"
   id="path13626" /><path
   style="fill:none;stroke:#000000;stroke-width:1px;stroke-linecap:butt;stroke-linejoin:miter;stroke-opacity:1"
   d="m 70.497511,79.485944 c -0.439133,0 -0.0491,-0.04154 -0.220305,0.04406 -0.01314,0.0066 -0.03368,-0.01039 -0.04406,0 -0.01038,0.01038 0,0.02937 0,0.04406 0,0.02937 0.01629,0.06368 0,0.08812 -0.01822,0.02733 -0.0608,0.02584 -0.08812,0.04406 -0.01728,0.01152 -0.03477,0.02548 -0.04406,0.04406 -0.0049,0.0099 0,0.165774 0,0.176244"
   id="path13628" /><path
   style="fill:none;stroke:#000000;stroke-width:1px;stroke-linecap:butt;stroke-linejoin:miter;stroke-opacity:1"
   d="M 63.579943,76.093251 55.03212,69.131622"
   id="path13630" /><path
   style="fill:none;stroke:#000000;stroke-width:1px;stroke-linecap:butt;stroke-linejoin:miter;stroke-opacity:1"
   d="m 50.670086,72.30401 0.92528,-0.308427"
   id="path13632" /></svg>
