<?xml version="1.0" encoding="UTF-8" standalone="no"?>
<!-- Generator: Adobe Illustrator 19.1.0, SVG Export Plug-In . SVG Version: 6.00 Build 0)  -->

<svg
   version="1.1"
   id="Capa_1"
   x="0px"
   y="0px"
   viewBox="28 -43 141.7 141.7"
   style="enable-background:new 28 -43 141.7 141.7;"
   xml:space="preserve"
   sodipodi:docname="cf_icon_armed_active.svg"
   inkscape:version="1.2 (dc2aedaf03, 2022-05-15)"
   xmlns:inkscape="http://www.inkscape.org/namespaces/inkscape"
   xmlns:sodipodi="http://sodipodi.sourceforge.net/DTD/sodipodi-0.dtd"
   xmlns="http://www.w3.org/2000/svg"
   xmlns:svg="http://www.w3.org/2000/svg"><defs
   id="defs13" /><sodipodi:namedview
   id="namedview11"
   pagecolor="#ffffff"
   bordercolor="#666666"
   borderopacity="1.0"
   inkscape:showpageshadow="2"
   inkscape:pageopacity="0.0"
   inkscape:pagecheckerboard="0"
   inkscape:deskcolor="#d1d1d1"
   showgrid="false"
   inkscape:zoom="5.6739592"
   inkscape:cx="58.7773"
   inkscape:cy="70.849998"
   inkscape:window-width="1920"
   inkscape:window-height="991"
   inkscape:window-x="-9"
   inkscape:window-y="-9"
   inkscape:window-maximized="1"
   inkscape:current-layer="Capa_1" />
<style
   type="text/css"
   id="style2">
	.st0{fill:#FFCC00;}
</style>
<g
   id="g8">
	<g
   id="g6">
		<path
   class="st0"
   d="M157.1,71.9l-52-97.5c-1.3-2.4-3.8-4-6.6-4c-2.8,0-5.3,1.5-6.6,4L39.6,71.9c-1.2,2.3-1.2,5.1,0.2,7.4    c1.4,2.3,3.8,3.7,6.5,3.7h104.3c2.6,0,5.1-1.4,6.4-3.7C158.3,77,158.4,74.2,157.1,71.9L157.1,71.9z M98.5,67.9    c-4.1,0-7.5-3.3-7.5-7.5c0-4.1,3.4-7.5,7.5-7.5c4.1,0,7.5,3.4,7.5,7.5C106,64.6,102.6,67.9,98.5,67.9L98.5,67.9z M106,38    c0,4.2-3.4,7.5-7.5,7.5c-4.1,0-7.5-3.3-7.5-7.5V8c0-4.1,3.4-7.5,7.5-7.5c4.1,0,7.5,3.4,7.5,7.5V38z M106,38"
   id="path4" />
	</g>
</g>
<path
   style="fill:#ff0000;stroke:#ffffff;stroke-width:0.176521"
   d="m 16.610257,125.73556 c -1.691879,-0.40059 -3.878325,-2.03692 -4.778733,-3.57638 -1.043547,-1.7842 -1.271808,-4.13072 -0.589744,-6.06256 0.21467,-0.60801 12.247109,-23.203368 26.738754,-50.211895 21.150263,-39.418401 26.516802,-49.292106 27.201808,-50.047651 0.590954,-0.651807 1.265545,-1.144968 2.193786,-1.603771 1.270968,-0.628204 1.427654,-0.662242 3.023999,-0.656932 1.33307,0.0044 1.894637,0.08966 2.697348,0.409349 1.133922,0.451602 2.518041,1.474108 3.192612,2.358515 0.6536,0.856915 53.132923,99.319125 53.380143,100.152335 0.33803,1.13928 0.23929,3.37154 -0.19975,4.51579 -0.79298,2.06672 -2.27987,3.57462 -4.42552,4.48806 -0.77516,0.33 -2.00295,0.33825 -54.283083,0.36472 -30.694742,0.0155 -53.771948,-0.0397 -54.15162,-0.12958 z m 57.224756,-15.56052 c 2.273328,-1.12354 3.841168,-3.27847 4.129836,-5.67627 0.507298,-4.21383 -2.130828,-7.796453 -6.3139,-8.574377 -2.834719,-0.52717 -6.167048,1.065242 -7.698825,3.679022 -0.678354,1.157525 -0.95858,2.285075 -0.960693,3.865575 -0.0039,2.87886 1.526093,5.39462 4.06228,6.6798 1.289385,0.65338 2.013936,0.79021 3.845424,0.72618 1.465235,-0.0512 1.770607,-0.12403 2.935878,-0.69993 z M 73.289859,88.040612 c 1.942661,-0.748862 3.494833,-2.361154 4.377739,-4.547304 l 0.408395,-1.01122 0.05222,-15.414861 c 0.02975,-8.781411 -0.01832,-15.99831 -0.111695,-16.770688 -0.382015,-3.159887 -2.36213,-5.594339 -5.290464,-6.504363 -4.481959,-1.392837 -9.027693,1.540633 -9.710664,6.266526 -0.220204,1.523729 -0.237942,30.156917 -0.01973,31.849215 0.380683,2.952295 2.266441,5.266972 5.097219,6.256593 1.509027,0.527547 3.638754,0.476773 5.19698,-0.123898 z"
   id="path935"
   transform="translate(28,-43)" /></svg>
