<?xml version="1.0" encoding="UTF-8" standalone="no"?>
<!-- Generator: Adobe Illustrator 19.1.0, SVG Export Plug-In . SVG Version: 6.00 Build 0)  -->

<svg
   version="1.1"
   id="Capa_1"
   x="0px"
   y="0px"
   viewBox="-70 0 141.7 141.7"
   style="enable-background:new -70 0 141.7 141.7;"
   xml:space="preserve"
   sodipodi:docname="cf_icon_link_active.svg"
   inkscape:version="1.2 (dc2aedaf03, 2022-05-15)"
   xmlns:inkscape="http://www.inkscape.org/namespaces/inkscape"
   xmlns:sodipodi="http://sodipodi.sourceforge.net/DTD/sodipodi-0.dtd"
   xmlns="http://www.w3.org/2000/svg"
   xmlns:svg="http://www.w3.org/2000/svg"><defs
   id="defs7490" /><sodipodi:namedview
   id="namedview7488"
   pagecolor="#ffffff"
   bordercolor="#666666"
   borderopacity="1.0"
   inkscape:showpageshadow="2"
   inkscape:pageopacity="0.0"
   inkscape:pagecheckerboard="0"
   inkscape:deskcolor="#d1d1d1"
   showgrid="false"
   inkscape:zoom="5.6739592"
   inkscape:cx="58.7773"
   inkscape:cy="70.849998"
   inkscape:window-width="1920"
   inkscape:window-height="991"
   inkscape:window-x="-9"
   inkscape:window-y="-9"
   inkscape:window-maximized="1"
   inkscape:current-layer="Capa_1" />
<style
   type="text/css"
   id="style7479">
	.st0{fill:#FFBB00;}
</style>
<g
   id="g7485">
	<g
   id="g7483">
		<path
   class="st0"
   d="M49.1,65.3l-21,21c-11.6,11.6-30.4,11.6-42,0c-1.8-1.8-3.3-3.9-4.5-6l9.8-9.8c0.5-0.5,1-0.7,1.6-1.1    c0.7,2.3,1.9,4.5,3.7,6.3c5.8,5.8,15.2,5.8,21,0l21-21c5.8-5.8,5.8-15.2,0-21s-15.2-5.8-21,0l-7.5,7.5c-6.1-2.4-12.6-3-18.9-2.1    L7.2,23.2c11.6-11.6,30.4-11.6,42,0C60.7,35,60.7,53.8,49.1,65.3L49.1,65.3z M-6.4,99.8l-7.5,7.5c-5.8,5.8-15.2,5.8-21,0    s-5.8-15.2,0-21l21-21c5.8-5.8,15.2-5.8,21,0c1.8,1.8,3,4,3.7,6.3c0.6-0.3,1.1-0.6,1.6-1l9.8-9.7c-1.2-2.1-2.7-4.2-4.5-6    c-11.6-11.6-30.4-11.6-42,0l-21,21c-11.6,11.6-11.6,30.4,0,42c11.6,11.6,30.4,11.6,42,0L12.6,102C6.2,102.8-0.3,102.2-6.4,99.8    L-6.4,99.8z"
   id="path7481" />
	</g>
</g>
<path
   style="fill:none;stroke:#000000;stroke-width:0.176521"
   d="m 41.316557,126.19613 c -3.418135,-0.55748 -6.31281,-1.52869 -9.469305,-3.17713 -2.439029,-1.27375 -4.317369,-2.64355 -6.526375,-4.75943 -4.617077,-4.42242 -7.431499,-9.53656 -8.704396,-15.81692 -0.345856,-1.70642 -0.400575,-2.501025 -0.391473,-5.684816 0.009,-3.142779 0.07031,-3.98029 0.40652,-5.551679 1.101657,-5.148964 3.28371,-9.638371 6.55317,-13.482649 0.659519,-0.775473 6.45923,-6.647436 12.888246,-13.048807 C 48.762661,52.039548 49.158699,51.69051 53.137499,49.63528 c 10.730793,-5.542938 23.316318,-4.107454 32.730877,3.733228 1.892278,1.575937 3.5184,3.4144 5.094776,5.760057 l 1.124387,1.673094 -4.958784,4.961073 c -2.72733,2.728591 -5.258677,5.129623 -5.625213,5.335629 l -0.666433,0.374555 -0.215132,-0.663945 C 80.503654,70.443799 80.170464,69.669165 79.881553,69.087561 76.420462,62.120054 68.186329,59.064098 60.853929,62.025786 58.447285,62.997872 58.235327,63.189302 45.623761,75.780816 34.953371,86.434243 33.35609,88.097704 32.767709,89.169533 c -1.506451,2.744232 -2.02994,4.733862 -2.027237,7.704934 0.0052,5.710313 3.1161,10.740293 8.209403,13.273663 2.389871,1.18871 4.201327,1.55782 7.137873,1.45448 2.643279,-0.093 3.824879,-0.35265 5.761601,-1.26595 2.143859,-1.011 3.166101,-1.8573 7.51152,-6.2187 l 4.196567,-4.212005 1.971966,0.656245 c 2.142625,0.71304 4.594002,1.26066 7.083034,1.58229 1.77348,0.22918 7.232031,0.28553 8.724067,0.0901 l 0.969341,-0.12699 -8.900311,8.87575 c -9.836879,9.80972 -10.494028,10.36874 -14.540111,12.36888 -2.564111,1.26754 -4.8104,2.05235 -7.411844,2.58955 -2.310977,0.47723 -7.909245,0.6177 -10.137021,0.25437 z"
   id="path7972"
   transform="translate(-70)" /><path
   style="fill:#2297eb;stroke:#000000;stroke-width:0.176521;fill-opacity:1"
   d="M 73.160401,94.633583 C 64.586865,93.466134 56.972302,88.639619 52.457716,81.51112 L 51.73323,80.367162 56.621154,75.4584 c 2.688358,-2.699819 5.199059,-5.139914 5.579335,-5.422433 l 0.691412,-0.513669 0.542295,1.284419 c 0.937472,2.220391 1.687675,3.334826 3.351103,4.978107 1.660959,1.640842 2.866127,2.466597 4.653743,3.188648 2.097046,0.847033 3.148639,1.036386 5.755732,1.036386 2.607094,0 3.658687,-0.189353 5.755733,-1.036386 2.402793,-0.970532 2.65299,-1.195309 14.924147,-13.407986 6.529256,-6.49814 12.181366,-12.267702 12.565006,-12.826115 1.06682,-1.552811 1.86235,-3.357965 2.28401,-5.182691 0.32311,-1.398248 0.36931,-2.015931 0.29808,-3.985179 -0.073,-2.018936 -0.15953,-2.554269 -0.64707,-4.004773 -1.76849,-5.261501 -6.21424,-9.12734 -11.56886,-10.059808 -1.508913,-0.262766 -5.131353,-0.116212 -6.515399,0.263594 -1.374608,0.377216 -3.32939,1.304647 -4.616017,2.190033 -0.563081,0.387483 -2.913789,2.601466 -5.223795,4.919963 l -4.200011,4.215448 -1.755867,-0.601176 c -4.01855,-1.375877 -7.854797,-1.894148 -13.090969,-1.768575 l -3.683799,0.08835 8.794869,-8.751124 C 80.09009,20.535801 80.874448,19.863547 84.724957,17.8843 c 4.274698,-2.19729 8.432544,-3.201435 13.354705,-3.225241 3.199518,-0.01548 4.753808,0.175082 7.666608,0.939933 11.00682,2.890206 19.12386,11.641957 21.45217,23.12963 0.34586,1.706421 0.40058,2.501023 0.39147,5.684814 -0.009,3.140944 -0.0702,3.977996 -0.40454,5.530461 -0.61696,2.86486 -1.36503,5.0295 -2.59588,7.511578 -2.0699,4.174045 -2.30783,4.446086 -15.3115,17.506899 -6.49835,6.526903 -12.410004,12.365288 -13.137009,12.97419 -6.408482,5.367398 -14.79556,7.811568 -22.98058,6.697023 z"
   id="path7974"
   transform="translate(-70)" /><path
   style="fill:#2297eb;fill-opacity:1;stroke:#000000;stroke-width:0.176521"
   d="m 42.000002,126.08819 c -4.002996,-0.42388 -9.081007,-2.38189 -12.919779,-4.98169 -2.334627,-1.58112 -6.199288,-5.50336 -7.814978,-7.93142 -2.181,-3.27761 -3.65027,-6.80761 -4.423992,-10.62889 -0.519794,-2.567163 -0.525469,-8.810451 -0.01031,-11.338393 0.488537,-2.39729 1.410851,-5.000011 2.654906,-7.492003 1.979732,-3.965636 2.39024,-4.43622 14.346534,-16.446024 14.607913,-14.67329 15.492296,-15.46532 19.553553,-17.511667 5.02968,-2.534306 10.464043,-3.641391 15.569439,-3.171796 2.808922,0.258365 4.339629,0.57553 6.936095,1.437168 6.368079,2.11325 11.514776,6.063319 15.231107,11.689813 l 0.676431,1.02411 -4.482218,4.501048 c -5.351884,5.374369 -6.509021,6.373461 -6.509021,5.620005 0,-0.140753 -0.411635,-1.063481 -0.914744,-2.050508 -1.590791,-3.120904 -4.538464,-5.796488 -7.750696,-7.035255 -4.989089,-1.923997 -10.840671,-1.074654 -14.610186,2.120632 -1.632481,1.383799 -20.742611,20.387013 -23.035617,22.90674 -2.623956,2.8834 -3.667158,5.335264 -3.861828,9.076555 -0.243162,4.673245 1.134048,8.328325 4.349689,11.543965 3.305591,3.30559 6.80989,4.61105 11.603552,4.32269 2.41881,-0.14551 3.553682,-0.41978 5.403972,-1.306 2.011825,-0.96359 2.841565,-1.64681 7.529639,-6.20003 l 4.181006,-4.06074 1.72316,0.53117 c 4.506839,1.38925 7.148763,1.77057 12.296971,1.77486 l 3.876547,0.003 -7.137057,7.14753 c -7.451324,7.46227 -10.577225,10.40753 -12.380967,11.66552 -2.363558,1.64842 -6.310595,3.38444 -9.472445,4.16627 -2.842109,0.70276 -7.353991,0.96777 -10.608766,0.62311 z"
   id="path9842"
   transform="translate(-70)" /></svg>
