{
	"asset":{
		"generator":"Khronos glTF Blender I/O v4.2.60",
		"version":"2.0"
	},
	"scene":0,
	"scenes":[
		{
			"name":"Scene",
			"nodes":[
				2,
				16,
				17,
				18,
				19,
				20
			]
		}
	],
	"nodes":[
		{
			"name":"RootNode",
			"translation":[
				7.629395440744702e-06,
				3.814700448856456e-06,
				0
			]
		},
		{
			"children":[
				0
			],
			"name":"675e6631a84d4f34bd82e416ae206cc8.fbx",
			"rotation":[
				0.70710688829422,
				0,
				0,
				0.7071066498756409
			],
			"translation":[
				0,
				0,
				1.1444090887380298e-05
			]
		},
		{
			"children":[
				1
			],
			"name":"RootNode (gltf orientation matrix)",
			"rotation":[
				-0.5,
				0.5,
				0.5000000596046448,
				0.4999999403953552
			],
			"scale":[
				0.366666704416275,
				0.36666667461395264,
				0.36666667461395264
			],
			"translation":[
				0,
				-22.22222328186035,
				-42.222225189208984
			]
		},
		{
			"mesh":0,
			"name":"Layer:0__0"
		},
		{
			"children":[
				3
			],
			"name":"Layer:0.001",
			"rotation":[
				-0.70710688829422,
				0,
				0,
				0.7071066498756409
			],
			"translation":[
				-203.10064697265625,
				66.53352355957031,
				-0.1543712466955185
			]
		},
		{
			"mesh":1,
			"name":"Layer:0_01 - Default_0",
			"translation":[
				-7.603723588545108e-06,
				0,
				0
			]
		},
		{
			"children":[
				5
			],
			"name":"Layer:0.002",
			"rotation":[
				-0.70710688829422,
				0,
				0,
				0.7071066498756409
			],
			"translation":[
				-61.03295135498047,
				51.412269592285156,
				-0.21535871922969818
			]
		},
		{
			"mesh":2,
			"name":"Layer:0_Material #25_0.006"
		},
		{
			"children":[
				7
			],
			"name":"Layer:0.003",
			"rotation":[
				-0.70710688829422,
				0,
				0,
				0.7071066498756409
			],
			"translation":[
				-195.91456604003906,
				79.08417510986328,
				-0.2153625339269638
			]
		},
		{
			"name":"Layer:0.004",
			"rotation":[
				-0.70710688829422,
				0,
				0,
				0.7071066498756409
			],
			"translation":[
				-115.62068176269531,
				130.1940155029297,
				-0.15437793731689453
			]
		},
		{
			"name":"Layer:0.005",
			"rotation":[
				-0.70710688829422,
				0,
				0,
				0.7071066498756409
			],
			"translation":[
				-356.9158630371094,
				86.33300018310547,
				-8.168642044067383
			]
		},
		{
			"mesh":3,
			"name":"Layer:0_08 - Default_0",
			"scale":[
				1,
				1.0039499998092651,
				1
			]
		},
		{
			"children":[
				11
			],
			"name":"Layer:0.006",
			"rotation":[
				-0.70710688829422,
				0,
				0,
				0.7071066498756409
			],
			"translation":[
				-99.13851165771484,
				66.53352355957031,
				-0.2153586894273758
			]
		},
		{
			"children":[
				4,
				6,
				8,
				9,
				10,
				12
			],
			"name":"RootNode.001",
			"translation":[
				7.629395440744702e-06,
				3.814700448856456e-06,
				0
			]
		},
		{
			"children":[
				13
			],
			"name":"675e6631a84d4f34bd82e416ae206cc8.fbx.001",
			"rotation":[
				0.70710688829422,
				0,
				0,
				0.7071066498756409
			],
			"translation":[
				0,
				0,
				3.8146963561302982e-06
			]
		},
		{
			"children":[
				14
			],
			"name":"RootNode (model correction matrix).001",
			"translation":[
				0,
				0,
				3.8146963561302982e-06
			]
		},
		{
			"children":[
				15
			],
			"name":"RootNode (gltf orientation matrix).001",
			"rotation":[
				-0.5,
				0.5,
				0.5000000596046448,
				0.4999999403953552
			],
			"scale":[
				0.366666704416275,
				0.36666667461395264,
				0.36666667461395264
			],
			"translation":[
				0,
				-22.22222328186035,
				-42.222225189208984
			]
		},
		{
			"mesh":4,
			"name":"Cylinder.001",
			"scale":[
				1.7343792915344238,
				1.2259678840637207,
				1.7343792915344238
			],
			"translation":[
				0,
				20.20849609375,
				0
			]
		},
		{
			"mesh":5,
			"name":"Cylinder.002",
			"scale":[
				1.078568696975708,
				0.7623998522758484,
				1.078568696975708
			],
			"translation":[
				0,
				22.02900505065918,
				0
			]
		},
		{
			"mesh":6,
			"name":"Cylinder.003",
			"rotation":[
				0.7071068286895752,
				0.7071068286895752,
				0,
				0
			],
			"scale":[
				-12.33527946472168,
				-0.003193039447069168,
				-12.33527946472168
			],
			"translation":[
				-2.988888740539551,
				9.433331489562988,
				88.64444732666016
			]
		},
		{
			"mesh":7,
			"name":"Cone",
			"rotation":[
				1,
				0,
				0,
				0
			],
			"scale":[
				-1,
				-1,
				-1
			],
			"translation":[
				0,
				27.007015228271484,
				0
			]
		}
	],
	"animations":[
		{
			"channels":[
				{
					"sampler":0,
					"target":{
						"node":2,
						"path":"translation"
					}
				},
				{
					"sampler":1,
					"target":{
						"node":2,
						"path":"scale"
					}
				}
			],
			"name":"RootNode (gltf orientation matrix)Action",
			"samplers":[
				{
					"input":31,
					"interpolation":"LINEAR",
					"output":32
				},
				{
					"input":31,
					"interpolation":"LINEAR",
					"output":33
				}
			]
		},
		{
			"channels":[
				{
					"sampler":0,
					"target":{
						"node":16,
						"path":"translation"
					}
				},
				{
					"sampler":1,
					"target":{
						"node":16,
						"path":"scale"
					}
				}
			],
			"name":"RootNode (gltf orientation matrix).001Action",
			"samplers":[
				{
					"input":31,
					"interpolation":"LINEAR",
					"output":34
				},
				{
					"input":31,
					"interpolation":"LINEAR",
					"output":35
				}
			]
		},
		{
			"channels":[
				{
					"sampler":0,
					"target":{
						"node":17,
						"path":"translation"
					}
				},
				{
					"sampler":1,
					"target":{
						"node":17,
						"path":"scale"
					}
				}
			],
			"name":"Cylinder.001Action",
			"samplers":[
				{
					"input":31,
					"interpolation":"LINEAR",
					"output":36
				},
				{
					"input":31,
					"interpolation":"LINEAR",
					"output":37
				}
			]
		},
		{
			"channels":[
				{
					"sampler":0,
					"target":{
						"node":18,
						"path":"translation"
					}
				},
				{
					"sampler":1,
					"target":{
						"node":18,
						"path":"scale"
					}
				}
			],
			"name":"Cylinder.002Action",
			"samplers":[
				{
					"input":31,
					"interpolation":"LINEAR",
					"output":38
				},
				{
					"input":31,
					"interpolation":"LINEAR",
					"output":39
				}
			]
		},
		{
			"channels":[
				{
					"sampler":0,
					"target":{
						"node":19,
						"path":"translation"
					}
				},
				{
					"sampler":1,
					"target":{
						"node":19,
						"path":"scale"
					}
				}
			],
			"name":"Cylinder.003Action",
			"samplers":[
				{
					"input":31,
					"interpolation":"LINEAR",
					"output":40
				},
				{
					"input":31,
					"interpolation":"LINEAR",
					"output":41
				}
			]
		},
		{
			"channels":[
				{
					"sampler":0,
					"target":{
						"node":20,
						"path":"translation"
					}
				},
				{
					"sampler":1,
					"target":{
						"node":20,
						"path":"scale"
					}
				}
			],
			"name":"ConeAction",
			"samplers":[
				{
					"input":31,
					"interpolation":"LINEAR",
					"output":42
				},
				{
					"input":31,
					"interpolation":"LINEAR",
					"output":43
				}
			]
		}
	],
	"materials":[
		{
			"doubleSided":true,
			"name":"Layer0__0",
			"pbrMetallicRoughness":{
				"baseColorFactor":[
					0.2059413641691208,
					0.20398008823394775,
					0.20398008823394775,
					1
				],
				"roughnessFactor":0.396921306848526
			}
		},
		{
			"doubleSided":true,
			"name":"01_-_Default",
			"pbrMetallicRoughness":{
				"baseColorFactor":[
					0.05000000074505806,
					0.05000000074505806,
					0.05000000074505806,
					1
				],
				"metallicFactor":0.2813980281352997,
				"roughnessFactor":0.10000000149011612
			}
		},
		{
			"doubleSided":true,
			"name":"Material_25",
			"pbrMetallicRoughness":{
				"baseColorTexture":{
					"index":0
				},
				"metallicFactor":0.432590514421463,
				"roughnessFactor":0.5039370059967041
			}
		},
		{
			"doubleSided":true,
			"name":"08_-_Default",
			"pbrMetallicRoughness":{
				"baseColorFactor":[
					0,
					0,
					0,
					1
				],
				"metallicFactor":0,
				"roughnessFactor":0.8929713368415833
			}
		},
		{
			"alphaMode":"BLEND",
			"doubleSided":true,
			"name":"Material.003a.001",
			"pbrMetallicRoughness":{
				"baseColorFactor":[
					0,
					0,
					0,
					0.20000000298023224
				],
				"metallicFactor":0,
				"roughnessFactor":0.5
			}
		},
		{
			"doubleSided":true,
			"name":"Material.002",
			"pbrMetallicRoughness":{
				"baseColorFactor":[
					0.20000000298023224,
					0.20000000298023224,
					0.20000000298023224,
					1
				],
				"metallicFactor":0.6000000238418579,
				"roughnessFactor":0.20000000298023224
			}
		},
		{
			"alphaMode":"BLEND",
			"doubleSided":true,
			"name":"Material.004",
			"pbrMetallicRoughness":{
				"baseColorFactor":[
					0,
					0,
					0,
					0.10000000149011612
				],
				"metallicFactor":0,
				"roughnessFactor":0.5
			}
		},
		{
			"alphaMode":"BLEND",
			"doubleSided":true,
			"name":"Material.003a",
			"pbrMetallicRoughness":{
				"baseColorFactor":[
					0,
					0,
					0,
					0.10000000149011612
				],
				"metallicFactor":0,
				"roughnessFactor":0.5
			}
		}
	],
	"meshes":[
		{
			"name":"Layer:0__0.001",
			"primitives":[
				{
					"attributes":{
						"POSITION":0,
						"NORMAL":1,
						"TEXCOORD_0":2
					},
					"indices":3,
					"material":0
				}
			]
		},
		{
			"name":"Layer:0_01 - Default_0",
			"primitives":[
				{
					"attributes":{
						"POSITION":4,
						"NORMAL":5,
						"TEXCOORD_0":6
					},
					"indices":7,
					"material":1
				}
			]
		},
		{
			"name":"Layer:0_Material #25_0.006",
			"primitives":[
				{
					"attributes":{
						"POSITION":8,
						"NORMAL":9,
						"TEXCOORD_0":10
					},
					"indices":11,
					"material":2
				}
			]
		},
		{
			"name":"Layer:0_08 - Default_0",
			"primitives":[
				{
					"attributes":{
						"POSITION":12,
						"NORMAL":13,
						"TEXCOORD_0":14
					},
					"indices":15,
					"material":3
				}
			]
		},
		{
			"name":"Cylinder.001",
			"primitives":[
				{
					"attributes":{
						"POSITION":16,
						"NORMAL":17,
						"TEXCOORD_0":18
					},
					"indices":19,
					"material":4
				}
			]
		},
		{
			"name":"Cylinder.003",
			"primitives":[
				{
					"attributes":{
						"POSITION":20,
						"NORMAL":21,
						"TEXCOORD_0":22
					},
					"indices":19,
					"material":5
				}
			]
		},
		{
			"name":"Cylinder.004",
			"primitives":[
				{
					"attributes":{
						"POSITION":23,
						"NORMAL":24,
						"TEXCOORD_0":25
					},
					"indices":26,
					"material":6
				}
			]
		},
		{
			"name":"Cone.001",
			"primitives":[
				{
					"attributes":{
						"POSITION":27,
						"NORMAL":28,
						"TEXCOORD_0":29
					},
					"indices":30,
					"material":7
				}
			]
		}
	],
	"textures":[
		{
			"sampler":0,
			"source":0
		}
	],
	"images":[
		{
			"mimeType":"image/png",
			"name":"bell_ccw",
			"uri":"bell_ccw.png"
		}
	],
	"accessors":[
		{
			"bufferView":0,
			"componentType":5126,
			"count":551,
			"max":[
				156.1980743408203,
				48.38801574707031,
				43.540245056152344
			],
			"min":[
				-156.73529052734375,
				-48.38801574707031,
				-64.58509826660156
			],
			"type":"VEC3"
		},
		{
			"bufferView":1,
			"componentType":5126,
			"count":551,
			"type":"VEC3"
		},
		{
			"bufferView":2,
			"componentType":5126,
			"count":551,
			"type":"VEC2"
		},
		{
			"bufferView":3,
			"componentType":5123,
			"count":1260,
			"type":"SCALAR"
		},
		{
			"bufferView":4,
			"componentType":5126,
			"count":164,
			"max":[
				59.42652893066406,
				27.88409423828125,
				29.335235595703125
			],
			"min":[
				-59.42652893066406,
				-27.88409423828125,
				-29.335237503051758
			],
			"type":"VEC3"
		},
		{
			"bufferView":5,
			"componentType":5126,
			"count":164,
			"type":"VEC3"
		},
		{
			"bufferView":6,
			"componentType":5126,
			"count":164,
			"type":"VEC2"
		},
		{
			"bufferView":7,
			"componentType":5123,
			"count":522,
			"type":"SCALAR"
		},
		{
			"bufferView":8,
			"componentType":5126,
			"count":972,
			"max":[
				195.82028198242188,
				33.93259811401367,
				57.61198425292969
			],
			"min":[
				-195.8202667236328,
				-33.93259811401367,
				-57.61198425292969
			],
			"type":"VEC3"
		},
		{
			"bufferView":9,
			"componentType":5126,
			"count":972,
			"type":"VEC3"
		},
		{
			"bufferView":10,
			"componentType":5126,
			"count":972,
			"type":"VEC2"
		},
		{
			"bufferView":11,
			"componentType":5123,
			"count":3744,
			"type":"SCALAR"
		},
		{
			"bufferView":12,
			"componentType":5126,
			"count":194,
			"max":[
				55.19258117675781,
				27.88409423828125,
				39.012840270996094
			],
			"min":[
				-55.19258117675781,
				-27.88409423828125,
				-39.012840270996094
			],
			"type":"VEC3"
		},
		{
			"bufferView":13,
			"componentType":5126,
			"count":194,
			"type":"VEC3"
		},
		{
			"bufferView":14,
			"componentType":5126,
			"count":194,
			"type":"VEC2"
		},
		{
			"bufferView":15,
			"componentType":5123,
			"count":450,
			"type":"SCALAR"
		},
		{
			"bufferView":16,
			"componentType":5126,
			"count":145,
			"max":[
				5,
				5.335748672485352,
				5
			],
			"min":[
				-5,
				-6.09839391708374,
				-5
			],
			"type":"VEC3"
		},
		{
			"bufferView":17,
			"componentType":5126,
			"count":145,
			"type":"VEC3"
		},
		{
			"bufferView":18,
			"componentType":5126,
			"count":145,
			"type":"VEC2"
		},
		{
			"bufferView":19,
			"componentType":5123,
			"count":588,
			"type":"SCALAR"
		},
		{
			"bufferView":20,
			"componentType":5126,
			"count":145,
			"max":[
				5,
				5.1964311599731445,
				5
			],
			"min":[
				-5,
				-12.023449897766113,
				-5
			],
			"type":"VEC3"
		},
		{
			"bufferView":21,
			"componentType":5126,
			"count":145,
			"type":"VEC3"
		},
		{
			"bufferView":22,
			"componentType":5126,
			"count":145,
			"type":"VEC2"
		},
		{
			"bufferView":23,
			"componentType":5126,
			"count":120,
			"max":[
				1,
				2.5,
				1
			],
			"min":[
				-1,
				-2.5,
				-1
			],
			"type":"VEC3"
		},
		{
			"bufferView":24,
			"componentType":5126,
			"count":120,
			"type":"VEC3"
		},
		{
			"bufferView":25,
			"componentType":5126,
			"count":120,
			"type":"VEC2"
		},
		{
			"bufferView":26,
			"componentType":5123,
			"count":228,
			"type":"SCALAR"
		},
		{
			"bufferView":27,
			"componentType":5126,
			"count":320,
			"max":[
				77.69999694824219,
				-0.75,
				77.69999694824219
			],
			"min":[
				-78.69999694824219,
				-3.2712535858154297,
				-77.69999694824219
			],
			"type":"VEC3"
		},
		{
			"bufferView":28,
			"componentType":5126,
			"count":320,
			"type":"VEC3"
		},
		{
			"bufferView":29,
			"componentType":5126,
			"count":320,
			"type":"VEC2"
		},
		{
			"bufferView":30,
			"componentType":5123,
			"count":384,
			"type":"SCALAR"
		},
		{
			"bufferView":31,
			"componentType":5126,
			"count":1,
			"max":[
				2.4583333333333335
			],
			"min":[
				2.4583333333333335
			],
			"type":"SCALAR"
		},
		{
			"bufferView":32,
			"componentType":5126,
			"count":1,
			"type":"VEC3"
		},
		{
			"bufferView":33,
			"componentType":5126,
			"count":1,
			"type":"VEC3"
		},
		{
			"bufferView":34,
			"componentType":5126,
			"count":1,
			"type":"VEC3"
		},
		{
			"bufferView":35,
			"componentType":5126,
			"count":1,
			"type":"VEC3"
		},
		{
			"bufferView":36,
			"componentType":5126,
			"count":1,
			"type":"VEC3"
		},
		{
			"bufferView":37,
			"componentType":5126,
			"count":1,
			"type":"VEC3"
		},
		{
			"bufferView":38,
			"componentType":5126,
			"count":1,
			"type":"VEC3"
		},
		{
			"bufferView":39,
			"componentType":5126,
			"count":1,
			"type":"VEC3"
		},
		{
			"bufferView":40,
			"componentType":5126,
			"count":1,
			"type":"VEC3"
		},
		{
			"bufferView":41,
			"componentType":5126,
			"count":1,
			"type":"VEC3"
		},
		{
			"bufferView":42,
			"componentType":5126,
			"count":1,
			"type":"VEC3"
		},
		{
			"bufferView":43,
			"componentType":5126,
			"count":1,
			"type":"VEC3"
		}
	],
	"bufferViews":[
		{
			"buffer":0,
			"byteLength":6612,
			"byteOffset":0,
			"target":34962
		},
		{
			"buffer":0,
			"byteLength":6612,
			"byteOffset":6612,
			"target":34962
		},
		{
			"buffer":0,
			"byteLength":4408,
			"byteOffset":13224,
			"target":34962
		},
		{
			"buffer":0,
			"byteLength":2520,
			"byteOffset":17632,
			"target":34963
		},
		{
			"buffer":0,
			"byteLength":1968,
			"byteOffset":20152,
			"target":34962
		},
		{
			"buffer":0,
			"byteLength":1968,
			"byteOffset":22120,
			"target":34962
		},
		{
			"buffer":0,
			"byteLength":1312,
			"byteOffset":24088,
			"target":34962
		},
		{
			"buffer":0,
			"byteLength":1044,
			"byteOffset":25400,
			"target":34963
		},
		{
			"buffer":0,
			"byteLength":11664,
			"byteOffset":26444,
			"target":34962
		},
		{
			"buffer":0,
			"byteLength":11664,
			"byteOffset":38108,
			"target":34962
		},
		{
			"buffer":0,
			"byteLength":7776,
			"byteOffset":49772,
			"target":34962
		},
		{
			"buffer":0,
			"byteLength":7488,
			"byteOffset":57548,
			"target":34963
		},
		{
			"buffer":0,
			"byteLength":2328,
			"byteOffset":65036,
			"target":34962
		},
		{
			"buffer":0,
			"byteLength":2328,
			"byteOffset":67364,
			"target":34962
		},
		{
			"buffer":0,
			"byteLength":1552,
			"byteOffset":69692,
			"target":34962
		},
		{
			"buffer":0,
			"byteLength":900,
			"byteOffset":71244,
			"target":34963
		},
		{
			"buffer":0,
			"byteLength":1740,
			"byteOffset":72144,
			"target":34962
		},
		{
			"buffer":0,
			"byteLength":1740,
			"byteOffset":73884,
			"target":34962
		},
		{
			"buffer":0,
			"byteLength":1160,
			"byteOffset":75624,
			"target":34962
		},
		{
			"buffer":0,
			"byteLength":1176,
			"byteOffset":76784,
			"target":34963
		},
		{
			"buffer":0,
			"byteLength":1740,
			"byteOffset":77960,
			"target":34962
		},
		{
			"buffer":0,
			"byteLength":1740,
			"byteOffset":79700,
			"target":34962
		},
		{
			"buffer":0,
			"byteLength":1160,
			"byteOffset":81440,
			"target":34962
		},
		{
			"buffer":0,
			"byteLength":1440,
			"byteOffset":82600,
			"target":34962
		},
		{
			"buffer":0,
			"byteLength":1440,
			"byteOffset":84040,
			"target":34962
		},
		{
			"buffer":0,
			"byteLength":960,
			"byteOffset":85480,
			"target":34962
		},
		{
			"buffer":0,
			"byteLength":456,
			"byteOffset":86440,
			"target":34963
		},
		{
			"buffer":0,
			"byteLength":3840,
			"byteOffset":86896,
			"target":34962
		},
		{
			"buffer":0,
			"byteLength":3840,
			"byteOffset":90736,
			"target":34962
		},
		{
			"buffer":0,
			"byteLength":2560,
			"byteOffset":94576,
			"target":34962
		},
		{
			"buffer":0,
			"byteLength":768,
			"byteOffset":97136,
			"target":34963
		},
		{
			"buffer":0,
			"byteLength":4,
			"byteOffset":97904
		},
		{
			"buffer":0,
			"byteLength":12,
			"byteOffset":97908
		},
		{
			"buffer":0,
			"byteLength":12,
			"byteOffset":97920
		},
		{
			"buffer":0,
			"byteLength":12,
			"byteOffset":97932
		},
		{
			"buffer":0,
			"byteLength":12,
			"byteOffset":97944
		},
		{
			"buffer":0,
			"byteLength":12,
			"byteOffset":97956
		},
		{
			"buffer":0,
			"byteLength":12,
			"byteOffset":97968
		},
		{
			"buffer":0,
			"byteLength":12,
			"byteOffset":97980
		},
		{
			"buffer":0,
			"byteLength":12,
			"byteOffset":97992
		},
		{
			"buffer":0,
			"byteLength":12,
			"byteOffset":98004
		},
		{
			"buffer":0,
			"byteLength":12,
			"byteOffset":98016
		},
		{
			"buffer":0,
			"byteLength":12,
			"byteOffset":98028
		},
		{
			"buffer":0,
			"byteLength":12,
			"byteOffset":98040
		}
	],
	"samplers":[
		{
			"magFilter":9729,
			"minFilter":9987
		}
	],
	"buffers":[
		{
			"byteLength":98052,
			"uri":"bell_ccw.bin"
		}
	]
}
