{
    "asset" : {
        "generator" : "Khronos glTF Blender I/O v1.4.40",
        "version" : "2.0"
    },
    "scene" : 0,
    "scenes" : [
        {
            "name" : "Scene",
            "nodes" : [
                15,
                16,
                17
            ]
        }
    ],
    "nodes" : [
        {
            "mesh" : 0,
            "name" : "Layer:0__0"
        },
        {
            "children" : [
                0
            ],
            "name" : "Layer:0",
            "rotation" : [
                -0.7071068286895752,
                0,
                0,
                0.7071068286895752
            ],
            "translation" : [
                -203.10064697265625,
                66.53352355957031,
                -0.1543712615966797
            ]
        },
        {
            "mesh" : 1,
            "name" : "Layer:0_01 - Default_0"
        },
        {
            "children" : [
                2
            ],
            "name" : "Layer:0.001",
            "rotation" : [
                -0.7071068286895752,
                0,
                0,
                0.7071068286895752
            ],
            "translation" : [
                -61.032958984375,
                51.412269592285156,
                -0.21535873413085938
            ]
        },
        {
            "mesh" : 2,
            "name" : "Layer:0_Material #25_0"
        },
        {
            "children" : [
                4
            ],
            "name" : "Layer:0.002",
            "rotation" : [
                -0.7071068286895752,
                0,
                0,
                0.7071068286895752
            ],
            "translation" : [
                -195.91456604003906,
                79.08416748046875,
                -0.215362548828125
            ]
        },
        {
            "mesh" : 3,
            "name" : "Layer:0__0.001"
        },
        {
            "children" : [
                6
            ],
            "name" : "Layer:0.003",
            "rotation" : [
                -0.7071068286895752,
                0,
                0,
                0.7071068286895752
            ],
            "translation" : [
                -115.62068939208984,
                130.19400024414062,
                -0.15437793731689453
            ]
        },
        {
            "mesh" : 4,
            "name" : "Layer:0__0.002"
        },
        {
            "children" : [
                8
            ],
            "name" : "Layer:0.004",
            "rotation" : [
                -0.7071068286895752,
                0,
                0,
                0.7071068286895752
            ],
            "translation" : [
                -356.9158630371094,
                86.33300018310547,
                -8.168641090393066
            ]
        },
        {
            "mesh" : 5,
            "name" : "Layer:0_08 - Default_0"
        },
        {
            "children" : [
                10
            ],
            "name" : "Layer:0.005",
            "rotation" : [
                -0.7071068286895752,
                0,
                0,
                0.7071068286895752
            ],
            "translation" : [
                -99.13851928710938,
                66.53352355957031,
                -0.21535873413085938
            ]
        },
        {
            "children" : [
                1,
                3,
                5,
                7,
                9,
                11
            ],
            "name" : "RootNode"
        },
        {
            "children" : [
                12
            ],
            "name" : "675e6631a84d4f34bd82e416ae206cc8.fbx",
            "rotation" : [
                0.7071068286895752,
                0,
                0,
                0.7071068286895752
            ]
        },
        {
            "children" : [
                13
            ],
            "name" : "RootNode (model correction matrix)"
        },
        {
            "children" : [
                14
            ],
            "name" : "RootNode (gltf orientation matrix)",
            "rotation" : [
                -0.5,
                0.4999999701976776,
                0.5000000596046448,
                0.4999999403953552
            ],
            "scale" : [
                0.33000001311302185,
                0.33000001311302185,
                0.33000001311302185
            ],
            "translation" : [
                0,
                -20,
                -38
            ]
        },
        {
            "name" : "Light",
            "rotation" : [
                0.16907575726509094,
                0.7558803558349609,
                -0.27217137813568115,
                0.570947527885437
            ],
            "translation" : [
                4.076245307922363,
                5.903861999511719,
                -1.0054539442062378
            ]
        },
        {
            "name" : "Camera",
            "rotation" : [
                0.483536034822464,
                0.33687159419059753,
                -0.20870360732078552,
                0.7804827094078064
            ],
            "translation" : [
                7.358891487121582,
                4.958309173583984,
                6.925790786743164
            ]
        }
    ],
    "materials" : [
        {
            "doubleSided" : true,
            "name" : "Layer0__0",
            "pbrMetallicRoughness" : {
                "baseColorFactor" : [
                    0.2059413641691208,
                    0.20398008823394775,
                    0.20398008823394775,
                    1
                ],
                "roughnessFactor" : 0.396921306848526
            }
        },
        {
            "alphaMode" : "BLEND",
            "doubleSided" : true,
            "name" : "01_-_Default",
            "pbrMetallicRoughness" : {
                "baseColorFactor" : [
                    1,
                    1,
                    1,
                    0.22667644917964935
                ],
                "metallicFactor" : 0.2813980281352997,
                "roughnessFactor" : 0.372032105922699
            }
        },
        {
            "doubleSided" : true,
            "name" : "Material_25",
            "pbrMetallicRoughness" : {
                "baseColorFactor" : [
                    0.23509307205677032,
                    0.2262377291917801,
                    0.0003576289163902402,
                    1
                ],
                "metallicFactor" : 0.06251177936792374
            }
        },
        {
            "doubleSided" : true,
            "name" : "08_-_Default",
            "pbrMetallicRoughness" : {
                "baseColorFactor" : [
                    0,
                    0,
                    0,
                    1
                ],
                "metallicFactor" : 0,
                "roughnessFactor" : 0.8929713368415833
            }
        }
    ],
    "meshes" : [
        {
            "name" : "Layer:0__0",
            "primitives" : [
                {
                    "attributes" : {
                        "POSITION" : 0,
                        "NORMAL" : 1,
                        "TEXCOORD_0" : 2
                    },
                    "indices" : 3,
                    "material" : 0
                }
            ]
        },
        {
            "name" : "Layer:0_01 - Default_0",
            "primitives" : [
                {
                    "attributes" : {
                        "POSITION" : 4,
                        "NORMAL" : 5,
                        "TEXCOORD_0" : 6
                    },
                    "indices" : 7,
                    "material" : 1
                }
            ]
        },
        {
            "name" : "Layer:0_Material #25_0",
            "primitives" : [
                {
                    "attributes" : {
                        "POSITION" : 8,
                        "NORMAL" : 9,
                        "TEXCOORD_0" : 10
                    },
                    "indices" : 11,
                    "material" : 2
                }
            ]
        },
        {
            "name" : "Layer:0__0.001",
            "primitives" : [
                {
                    "attributes" : {
                        "POSITION" : 12,
                        "NORMAL" : 13,
                        "TEXCOORD_0" : 14
                    },
                    "indices" : 15,
                    "material" : 0
                }
            ]
        },
        {
            "name" : "Layer:0__0.002",
            "primitives" : [
                {
                    "attributes" : {
                        "POSITION" : 16,
                        "NORMAL" : 17,
                        "TEXCOORD_0" : 18
                    },
                    "indices" : 19,
                    "material" : 0
                }
            ]
        },
        {
            "name" : "Layer:0_08 - Default_0",
            "primitives" : [
                {
                    "attributes" : {
                        "POSITION" : 20,
                        "NORMAL" : 21,
                        "TEXCOORD_0" : 22
                    },
                    "indices" : 23,
                    "material" : 3
                }
            ]
        }
    ],
    "accessors" : [
        {
            "bufferView" : 0,
            "componentType" : 5126,
            "count" : 832,
            "max" : [
                156.7353057861328,
                48.38801574707031,
                66.23109436035156
            ],
            "min" : [
                -156.73529052734375,
                -48.38801574707031,
                -66.2311019897461
            ],
            "type" : "VEC3"
        },
        {
            "bufferView" : 1,
            "componentType" : 5126,
            "count" : 832,
            "type" : "VEC3"
        },
        {
            "bufferView" : 2,
            "componentType" : 5126,
            "count" : 832,
            "type" : "VEC2"
        },
        {
            "bufferView" : 3,
            "componentType" : 5123,
            "count" : 1752,
            "type" : "SCALAR"
        },
        {
            "bufferView" : 4,
            "componentType" : 5126,
            "count" : 164,
            "max" : [
                59.42652893066406,
                27.88409423828125,
                29.335235595703125
            ],
            "min" : [
                -59.42652893066406,
                -27.88409423828125,
                -29.335237503051758
            ],
            "type" : "VEC3"
        },
        {
            "bufferView" : 5,
            "componentType" : 5126,
            "count" : 164,
            "type" : "VEC3"
        },
        {
            "bufferView" : 6,
            "componentType" : 5126,
            "count" : 164,
            "type" : "VEC2"
        },
        {
            "bufferView" : 7,
            "componentType" : 5123,
            "count" : 522,
            "type" : "SCALAR"
        },
        {
            "bufferView" : 8,
            "componentType" : 5126,
            "count" : 818,
            "max" : [
                195.82028198242188,
                33.93259811401367,
                57.61198425292969
            ],
            "min" : [
                -195.8202667236328,
                -33.93259811401367,
                -57.61198425292969
            ],
            "type" : "VEC3"
        },
        {
            "bufferView" : 9,
            "componentType" : 5126,
            "count" : 818,
            "type" : "VEC3"
        },
        {
            "bufferView" : 10,
            "componentType" : 5126,
            "count" : 818,
            "type" : "VEC2"
        },
        {
            "bufferView" : 11,
            "componentType" : 5123,
            "count" : 3084,
            "type" : "SCALAR"
        },
        {
            "bufferView" : 12,
            "componentType" : 5126,
            "count" : 67,
            "max" : [
                212,
                7.409416198730469,
                4.687591552734375
            ],
            "min" : [
                -212,
                -7.409416198730469,
                -4.687583923339844
            ],
            "type" : "VEC3"
        },
        {
            "bufferView" : 13,
            "componentType" : 5126,
            "count" : 67,
            "type" : "VEC3"
        },
        {
            "bufferView" : 14,
            "componentType" : 5126,
            "count" : 67,
            "type" : "VEC2"
        },
        {
            "bufferView" : 15,
            "componentType" : 5123,
            "count" : 120,
            "type" : "SCALAR"
        },
        {
            "bufferView" : 16,
            "componentType" : 5126,
            "count" : 86,
            "max" : [
                31.67327880859375,
                0.4536399841308594,
                14.330039978027344
            ],
            "min" : [
                -31.67327880859375,
                -0.4536399841308594,
                -14.330039978027344
            ],
            "type" : "VEC3"
        },
        {
            "bufferView" : 17,
            "componentType" : 5126,
            "count" : 86,
            "type" : "VEC3"
        },
        {
            "bufferView" : 18,
            "componentType" : 5126,
            "count" : 86,
            "type" : "VEC2"
        },
        {
            "bufferView" : 19,
            "componentType" : 5123,
            "count" : 156,
            "type" : "SCALAR"
        },
        {
            "bufferView" : 20,
            "componentType" : 5126,
            "count" : 194,
            "max" : [
                55.19258117675781,
                27.88409423828125,
                39.012840270996094
            ],
            "min" : [
                -55.19258117675781,
                -27.88409423828125,
                -39.012840270996094
            ],
            "type" : "VEC3"
        },
        {
            "bufferView" : 21,
            "componentType" : 5126,
            "count" : 194,
            "type" : "VEC3"
        },
        {
            "bufferView" : 22,
            "componentType" : 5126,
            "count" : 194,
            "type" : "VEC2"
        },
        {
            "bufferView" : 23,
            "componentType" : 5123,
            "count" : 450,
            "type" : "SCALAR"
        }
    ],
    "bufferViews" : [
        {
            "buffer" : 0,
            "byteLength" : 9984,
            "byteOffset" : 0
        },
        {
            "buffer" : 0,
            "byteLength" : 9984,
            "byteOffset" : 9984
        },
        {
            "buffer" : 0,
            "byteLength" : 6656,
            "byteOffset" : 19968
        },
        {
            "buffer" : 0,
            "byteLength" : 3504,
            "byteOffset" : 26624
        },
        {
            "buffer" : 0,
            "byteLength" : 1968,
            "byteOffset" : 30128
        },
        {
            "buffer" : 0,
            "byteLength" : 1968,
            "byteOffset" : 32096
        },
        {
            "buffer" : 0,
            "byteLength" : 1312,
            "byteOffset" : 34064
        },
        {
            "buffer" : 0,
            "byteLength" : 1044,
            "byteOffset" : 35376
        },
        {
            "buffer" : 0,
            "byteLength" : 9816,
            "byteOffset" : 36420
        },
        {
            "buffer" : 0,
            "byteLength" : 9816,
            "byteOffset" : 46236
        },
        {
            "buffer" : 0,
            "byteLength" : 6544,
            "byteOffset" : 56052
        },
        {
            "buffer" : 0,
            "byteLength" : 6168,
            "byteOffset" : 62596
        },
        {
            "buffer" : 0,
            "byteLength" : 804,
            "byteOffset" : 68764
        },
        {
            "buffer" : 0,
            "byteLength" : 804,
            "byteOffset" : 69568
        },
        {
            "buffer" : 0,
            "byteLength" : 536,
            "byteOffset" : 70372
        },
        {
            "buffer" : 0,
            "byteLength" : 240,
            "byteOffset" : 70908
        },
        {
            "buffer" : 0,
            "byteLength" : 1032,
            "byteOffset" : 71148
        },
        {
            "buffer" : 0,
            "byteLength" : 1032,
            "byteOffset" : 72180
        },
        {
            "buffer" : 0,
            "byteLength" : 688,
            "byteOffset" : 73212
        },
        {
            "buffer" : 0,
            "byteLength" : 312,
            "byteOffset" : 73900
        },
        {
            "buffer" : 0,
            "byteLength" : 2328,
            "byteOffset" : 74212
        },
        {
            "buffer" : 0,
            "byteLength" : 2328,
            "byteOffset" : 76540
        },
        {
            "buffer" : 0,
            "byteLength" : 1552,
            "byteOffset" : 78868
        },
        {
            "buffer" : 0,
            "byteLength" : 900,
            "byteOffset" : 80420
        }
    ],
    "buffers" : [
        {
            "byteLength" : 81320,
            "uri" : "fallback.bin"
        }
    ]
}
