{
	"asset":{
		"generator":"Khronos glTF Blender I/O v4.2.60",
		"version":"2.0"
	},
	"scene":0,
	"scenes":[
		{
			"name":"Scene",
			"nodes":[
				2,
				16,
				17,
				18,
				19,
				20,
				21,
				22,
				23,
				24
			]
		}
	],
	"nodes":[
		{
			"name":"RootNode",
			"translation":[
				7.629395440744702e-06,
				3.8146922634041402e-06,
				0
			]
		},
		{
			"children":[
				0
			],
			"name":"675e6631a84d4f34bd82e416ae206cc8.fbx",
			"rotation":[
				0.70710688829422,
				0,
				0,
				0.7071066498756409
			],
			"translation":[
				0,
				0,
				1.1444090887380298e-05
			]
		},
		{
			"children":[
				1
			],
			"name":"RootNode (gltf orientation matrix)",
			"rotation":[
				0.5000000596046448,
				-0.4999999403953552,
				0.5,
				0.5
			],
			"scale":[
				-0.366666704416275,
				-0.36666667461395264,
				-0.36666667461395264
			],
			"translation":[
				0,
				-22.22222328186035,
				-42.222225189208984
			]
		},
		{
			"mesh":0,
			"name":"Layer:0__0"
		},
		{
			"children":[
				3
			],
			"name":"Layer:0.001",
			"rotation":[
				-0.70710688829422,
				0,
				0,
				0.7071066498756409
			],
			"translation":[
				-203.10064697265625,
				66.53352355957031,
				-0.1543712466955185
			]
		},
		{
			"mesh":1,
			"name":"Layer:0_01 - Default_0",
			"translation":[
				-7.655065019207541e-06,
				0,
				0
			]
		},
		{
			"children":[
				5
			],
			"name":"Layer:0.002",
			"rotation":[
				-0.70710688829422,
				0,
				0,
				0.7071066498756409
			],
			"translation":[
				-61.03295135498047,
				51.412269592285156,
				-0.21535871922969818
			]
		},
		{
			"mesh":2,
			"name":"Layer:0_Material #25_0.006"
		},
		{
			"children":[
				7
			],
			"name":"Layer:0.003",
			"rotation":[
				-0.70710688829422,
				0,
				0,
				0.7071066498756409
			],
			"translation":[
				-195.91456604003906,
				79.08417510986328,
				-0.2153625190258026
			]
		},
		{
			"name":"Layer:0.004",
			"rotation":[
				-0.70710688829422,
				0,
				0,
				0.7071066498756409
			],
			"translation":[
				-115.62068176269531,
				130.1940155029297,
				-0.15437793731689453
			]
		},
		{
			"name":"Layer:0.005",
			"rotation":[
				-0.70710688829422,
				0,
				0,
				0.7071066498756409
			],
			"translation":[
				-356.9158935546875,
				86.33300018310547,
				-8.168642044067383
			]
		},
		{
			"mesh":3,
			"name":"Layer:0_08 - Default_0",
			"scale":[
				1,
				1.0039499998092651,
				1
			]
		},
		{
			"children":[
				11
			],
			"name":"Layer:0.006",
			"rotation":[
				-0.70710688829422,
				0,
				0,
				0.7071066498756409
			],
			"translation":[
				-99.13851928710938,
				66.53352355957031,
				-0.21535871922969818
			]
		},
		{
			"children":[
				4,
				6,
				8,
				9,
				10,
				12
			],
			"name":"RootNode.001",
			"translation":[
				7.629395440744702e-06,
				3.8146922634041402e-06,
				0
			]
		},
		{
			"children":[
				13
			],
			"name":"675e6631a84d4f34bd82e416ae206cc8.fbx.001",
			"rotation":[
				0.70710688829422,
				0,
				0,
				0.7071066498756409
			],
			"translation":[
				0,
				0,
				3.8146963561302982e-06
			]
		},
		{
			"children":[
				14
			],
			"name":"RootNode (model correction matrix).001",
			"translation":[
				0,
				0,
				3.8146963561302982e-06
			]
		},
		{
			"children":[
				15
			],
			"name":"RootNode (gltf orientation matrix).001",
			"rotation":[
				0.5000000596046448,
				-0.4999999403953552,
				0.5,
				0.5
			],
			"scale":[
				-0.366666704416275,
				-0.36666667461395264,
				-0.36666667461395264
			],
			"translation":[
				0,
				-22.22222328186035,
				-42.222225189208984
			]
		},
		{
			"name":"Light.001",
			"rotation":[
				0.7558803558349609,
				-0.16907578706741333,
				0.570947527885437,
				0.27217140793800354
			],
			"scale":[
				-1.111111044883728,
				-1.1111112833023071,
				-1.1111111640930176
			],
			"translation":[
				-4.52916145324707,
				6.559846878051758,
				-1.117171049118042
			]
		},
		{
			"name":"Camera.001",
			"rotation":[
				0.483536034822464,
				0.33687159419059753,
				-0.20870360732078552,
				0.7804827094078064
			],
			"scale":[
				1.1111111640930176,
				1.1111111640930176,
				1.1111112833023071
			],
			"translation":[
				-8.176546096801758,
				5.509232521057129,
				7.6953229904174805
			]
		},
		{
			"mesh":4,
			"name":"Cube",
			"rotation":[
				1,
				0,
				0,
				0
			],
			"scale":[
				-1.1111111640930176,
				-1.1111111640930176,
				-1.1111111640930176
			]
		},
		{
			"mesh":5,
			"name":"Cylinder",
			"rotation":[
				1,
				0,
				0,
				0
			],
			"scale":[
				-1.1111111640930176,
				-1.1111111640930176,
				-1.1111111640930176
			]
		},
		{
			"mesh":6,
			"name":"Cylinder.001",
			"rotation":[
				1,
				0,
				0,
				0
			],
			"scale":[
				-1.7343792915344238,
				-1.2259678840637207,
				-1.7343792915344238
			],
			"translation":[
				0,
				20.20849609375,
				0
			]
		},
		{
			"mesh":7,
			"name":"Cylinder.002",
			"rotation":[
				1,
				0,
				0,
				0
			],
			"scale":[
				-1.078568696975708,
				-0.7623999118804932,
				-1.078568696975708
			],
			"translation":[
				0,
				22.02900505065918,
				0
			]
		},
		{
			"mesh":8,
			"name":"Cylinder.003",
			"rotation":[
				0,
				0,
				-0.7071068286895752,
				0.7071068286895752
			],
			"scale":[
				12.33527946472168,
				0.003193039447069168,
				12.33527946472168
			],
			"translation":[
				2.988888740539551,
				9.433331489562988,
				88.64444732666016
			]
		},
		{
			"mesh":9,
			"name":"Plane",
			"rotation":[
				1,
				0,
				0,
				0
			],
			"scale":[
				-1.1111111640930176,
				-1.1111111640930176,
				-1.1111111640930176
			]
		}
	],
	"materials":[
		{
			"doubleSided":true,
			"name":"Layer0__0",
			"pbrMetallicRoughness":{
				"baseColorFactor":[
					0.2059413641691208,
					0.20398008823394775,
					0.20398008823394775,
					1
				],
				"roughnessFactor":0.396921306848526
			}
		},
		{
			"doubleSided":true,
			"name":"01_-_Default",
			"pbrMetallicRoughness":{
				"baseColorFactor":[
					0.05000000074505806,
					0.05000000074505806,
					0.05000000074505806,
					1
				],
				"metallicFactor":0.2813980281352997,
				"roughnessFactor":0.10000000149011612
			}
		},
		{
			"doubleSided":true,
			"name":"Material_25",
			"pbrMetallicRoughness":{
				"baseColorTexture":{
					"index":0
				},
				"metallicFactor":0.432590514421463,
				"roughnessFactor":0.5039370059967041
			}
		},
		{
			"doubleSided":true,
			"name":"08_-_Default",
			"pbrMetallicRoughness":{
				"baseColorFactor":[
					0,
					0,
					0,
					1
				],
				"metallicFactor":0,
				"roughnessFactor":0.8929713368415833
			}
		},
		{
			"doubleSided":true,
			"name":"Material.001",
			"pbrMetallicRoughness":{
				"baseColorFactor":[
					0.800000011920929,
					0.800000011920929,
					0.800000011920929,
					1
				],
				"metallicFactor":0,
				"roughnessFactor":0.5
			}
		},
		{
			"alphaMode":"BLEND",
			"doubleSided":true,
			"name":"Material.003a",
			"pbrMetallicRoughness":{
				"baseColorFactor":[
					0,
					0,
					0,
					0.10000000149011612
				],
				"metallicFactor":0,
				"roughnessFactor":0.5
			}
		},
		{
			"alphaMode":"BLEND",
			"doubleSided":true,
			"name":"Material.003a.001",
			"pbrMetallicRoughness":{
				"baseColorFactor":[
					0,
					0,
					0,
					0.20000000298023224
				],
				"metallicFactor":0,
				"roughnessFactor":0.5
			}
		},
		{
			"doubleSided":true,
			"name":"Material.002",
			"pbrMetallicRoughness":{
				"baseColorFactor":[
					0.20000000298023224,
					0.20000000298023224,
					0.20000000298023224,
					1
				],
				"metallicFactor":0.6000000238418579,
				"roughnessFactor":0.20000000298023224
			}
		},
		{
			"alphaMode":"BLEND",
			"doubleSided":true,
			"name":"Material.004",
			"pbrMetallicRoughness":{
				"baseColorFactor":[
					0,
					0,
					0,
					0.10000000149011612
				],
				"metallicFactor":0,
				"roughnessFactor":0.5
			}
		}
	],
	"meshes":[
		{
			"name":"Layer:0__0.001",
			"primitives":[
				{
					"attributes":{
						"POSITION":0,
						"NORMAL":1,
						"TEXCOORD_0":2
					},
					"indices":3,
					"material":0
				}
			]
		},
		{
			"name":"Layer:0_01 - Default_0",
			"primitives":[
				{
					"attributes":{
						"POSITION":4,
						"NORMAL":5,
						"TEXCOORD_0":6
					},
					"indices":7,
					"material":1
				}
			]
		},
		{
			"name":"Layer:0_Material #25_0.006",
			"primitives":[
				{
					"attributes":{
						"POSITION":8,
						"NORMAL":9,
						"TEXCOORD_0":10
					},
					"indices":11,
					"material":2
				}
			]
		},
		{
			"name":"Layer:0_08 - Default_0",
			"primitives":[
				{
					"attributes":{
						"POSITION":12,
						"NORMAL":13,
						"TEXCOORD_0":14
					},
					"indices":15,
					"material":3
				}
			]
		},
		{
			"name":"Cube.001",
			"primitives":[
				{
					"attributes":{
						"POSITION":16,
						"NORMAL":17,
						"TEXCOORD_0":18
					},
					"indices":19,
					"material":4
				}
			]
		},
		{
			"name":"Cylinder",
			"primitives":[
				{
					"attributes":{
						"POSITION":20,
						"NORMAL":21,
						"TEXCOORD_0":22
					},
					"indices":23,
					"material":5
				}
			]
		},
		{
			"name":"Cylinder.001",
			"primitives":[
				{
					"attributes":{
						"POSITION":24,
						"NORMAL":25,
						"TEXCOORD_0":26
					},
					"indices":27,
					"material":6
				}
			]
		},
		{
			"name":"Cylinder.003",
			"primitives":[
				{
					"attributes":{
						"POSITION":28,
						"NORMAL":29,
						"TEXCOORD_0":30
					},
					"indices":27,
					"material":7
				}
			]
		},
		{
			"name":"Cylinder.004",
			"primitives":[
				{
					"attributes":{
						"POSITION":31,
						"NORMAL":32,
						"TEXCOORD_0":33
					},
					"indices":34,
					"material":8
				}
			]
		},
		{
			"name":"Plane.001",
			"primitives":[
				{
					"attributes":{
						"POSITION":35,
						"NORMAL":36,
						"TEXCOORD_0":37
					},
					"indices":38
				}
			]
		}
	],
	"textures":[
		{
			"sampler":0,
			"source":0
		}
	],
	"images":[
		{
			"mimeType":"image/png",
			"name":"fallback_lores",
			"uri":"fallback_lores.png"
		}
	],
	"accessors":[
		{
			"bufferView":0,
			"componentType":5126,
			"count":551,
			"max":[
				156.1980743408203,
				48.38801574707031,
				43.540245056152344
			],
			"min":[
				-156.73529052734375,
				-48.38801574707031,
				-64.58509826660156
			],
			"type":"VEC3"
		},
		{
			"bufferView":1,
			"componentType":5126,
			"count":551,
			"type":"VEC3"
		},
		{
			"bufferView":2,
			"componentType":5126,
			"count":551,
			"type":"VEC2"
		},
		{
			"bufferView":3,
			"componentType":5123,
			"count":1260,
			"type":"SCALAR"
		},
		{
			"bufferView":4,
			"componentType":5126,
			"count":164,
			"max":[
				59.42652893066406,
				27.88409423828125,
				29.335235595703125
			],
			"min":[
				-59.42652893066406,
				-27.88409423828125,
				-29.335237503051758
			],
			"type":"VEC3"
		},
		{
			"bufferView":5,
			"componentType":5126,
			"count":164,
			"type":"VEC3"
		},
		{
			"bufferView":6,
			"componentType":5126,
			"count":164,
			"type":"VEC2"
		},
		{
			"bufferView":7,
			"componentType":5123,
			"count":522,
			"type":"SCALAR"
		},
		{
			"bufferView":8,
			"componentType":5126,
			"count":972,
			"max":[
				195.82028198242188,
				33.93259811401367,
				57.61198425292969
			],
			"min":[
				-195.8202667236328,
				-33.93259811401367,
				-57.61198425292969
			],
			"type":"VEC3"
		},
		{
			"bufferView":9,
			"componentType":5126,
			"count":972,
			"type":"VEC3"
		},
		{
			"bufferView":10,
			"componentType":5126,
			"count":972,
			"type":"VEC2"
		},
		{
			"bufferView":11,
			"componentType":5123,
			"count":3744,
			"type":"SCALAR"
		},
		{
			"bufferView":12,
			"componentType":5126,
			"count":194,
			"max":[
				55.19258117675781,
				27.88409423828125,
				39.012840270996094
			],
			"min":[
				-55.19258117675781,
				-27.88409423828125,
				-39.012840270996094
			],
			"type":"VEC3"
		},
		{
			"bufferView":13,
			"componentType":5126,
			"count":194,
			"type":"VEC3"
		},
		{
			"bufferView":14,
			"componentType":5126,
			"count":194,
			"type":"VEC2"
		},
		{
			"bufferView":15,
			"componentType":5123,
			"count":450,
			"type":"SCALAR"
		},
		{
			"bufferView":16,
			"componentType":5126,
			"count":24,
			"max":[
				1,
				1,
				1
			],
			"min":[
				-1,
				-1,
				-1
			],
			"type":"VEC3"
		},
		{
			"bufferView":17,
			"componentType":5126,
			"count":24,
			"type":"VEC3"
		},
		{
			"bufferView":18,
			"componentType":5126,
			"count":24,
			"type":"VEC2"
		},
		{
			"bufferView":19,
			"componentType":5123,
			"count":36,
			"type":"SCALAR"
		},
		{
			"bufferView":20,
			"componentType":5126,
			"count":84,
			"max":[
				70,
				22.838638305664062,
				70
			],
			"min":[
				-70.0999984741211,
				21.935142517089844,
				-70
			],
			"type":"VEC3"
		},
		{
			"bufferView":21,
			"componentType":5126,
			"count":84,
			"type":"VEC3"
		},
		{
			"bufferView":22,
			"componentType":5126,
			"count":84,
			"type":"VEC2"
		},
		{
			"bufferView":23,
			"componentType":5123,
			"count":480,
			"type":"SCALAR"
		},
		{
			"bufferView":24,
			"componentType":5126,
			"count":145,
			"max":[
				5,
				5.335748672485352,
				5
			],
			"min":[
				-5,
				-6.09839391708374,
				-5
			],
			"type":"VEC3"
		},
		{
			"bufferView":25,
			"componentType":5126,
			"count":145,
			"type":"VEC3"
		},
		{
			"bufferView":26,
			"componentType":5126,
			"count":145,
			"type":"VEC2"
		},
		{
			"bufferView":27,
			"componentType":5123,
			"count":588,
			"type":"SCALAR"
		},
		{
			"bufferView":28,
			"componentType":5126,
			"count":145,
			"max":[
				5,
				5.1964311599731445,
				5
			],
			"min":[
				-5,
				-12.023449897766113,
				-5
			],
			"type":"VEC3"
		},
		{
			"bufferView":29,
			"componentType":5126,
			"count":145,
			"type":"VEC3"
		},
		{
			"bufferView":30,
			"componentType":5126,
			"count":145,
			"type":"VEC2"
		},
		{
			"bufferView":31,
			"componentType":5126,
			"count":120,
			"max":[
				1,
				2.5,
				1
			],
			"min":[
				-1,
				-2.5,
				-1
			],
			"type":"VEC3"
		},
		{
			"bufferView":32,
			"componentType":5126,
			"count":120,
			"type":"VEC3"
		},
		{
			"bufferView":33,
			"componentType":5126,
			"count":120,
			"type":"VEC2"
		},
		{
			"bufferView":34,
			"componentType":5123,
			"count":228,
			"type":"SCALAR"
		},
		{
			"bufferView":35,
			"componentType":5126,
			"count":4,
			"max":[
				1,
				0,
				1
			],
			"min":[
				-1,
				0,
				-1
			],
			"type":"VEC3"
		},
		{
			"bufferView":36,
			"componentType":5126,
			"count":4,
			"type":"VEC3"
		},
		{
			"bufferView":37,
			"componentType":5126,
			"count":4,
			"type":"VEC2"
		},
		{
			"bufferView":38,
			"componentType":5123,
			"count":6,
			"type":"SCALAR"
		}
	],
	"bufferViews":[
		{
			"buffer":0,
			"byteLength":6612,
			"byteOffset":0,
			"target":34962
		},
		{
			"buffer":0,
			"byteLength":6612,
			"byteOffset":6612,
			"target":34962
		},
		{
			"buffer":0,
			"byteLength":4408,
			"byteOffset":13224,
			"target":34962
		},
		{
			"buffer":0,
			"byteLength":2520,
			"byteOffset":17632,
			"target":34963
		},
		{
			"buffer":0,
			"byteLength":1968,
			"byteOffset":20152,
			"target":34962
		},
		{
			"buffer":0,
			"byteLength":1968,
			"byteOffset":22120,
			"target":34962
		},
		{
			"buffer":0,
			"byteLength":1312,
			"byteOffset":24088,
			"target":34962
		},
		{
			"buffer":0,
			"byteLength":1044,
			"byteOffset":25400,
			"target":34963
		},
		{
			"buffer":0,
			"byteLength":11664,
			"byteOffset":26444,
			"target":34962
		},
		{
			"buffer":0,
			"byteLength":11664,
			"byteOffset":38108,
			"target":34962
		},
		{
			"buffer":0,
			"byteLength":7776,
			"byteOffset":49772,
			"target":34962
		},
		{
			"buffer":0,
			"byteLength":7488,
			"byteOffset":57548,
			"target":34963
		},
		{
			"buffer":0,
			"byteLength":2328,
			"byteOffset":65036,
			"target":34962
		},
		{
			"buffer":0,
			"byteLength":2328,
			"byteOffset":67364,
			"target":34962
		},
		{
			"buffer":0,
			"byteLength":1552,
			"byteOffset":69692,
			"target":34962
		},
		{
			"buffer":0,
			"byteLength":900,
			"byteOffset":71244,
			"target":34963
		},
		{
			"buffer":0,
			"byteLength":288,
			"byteOffset":72144,
			"target":34962
		},
		{
			"buffer":0,
			"byteLength":288,
			"byteOffset":72432,
			"target":34962
		},
		{
			"buffer":0,
			"byteLength":192,
			"byteOffset":72720,
			"target":34962
		},
		{
			"buffer":0,
			"byteLength":72,
			"byteOffset":72912,
			"target":34963
		},
		{
			"buffer":0,
			"byteLength":1008,
			"byteOffset":72984,
			"target":34962
		},
		{
			"buffer":0,
			"byteLength":1008,
			"byteOffset":73992,
			"target":34962
		},
		{
			"buffer":0,
			"byteLength":672,
			"byteOffset":75000,
			"target":34962
		},
		{
			"buffer":0,
			"byteLength":960,
			"byteOffset":75672,
			"target":34963
		},
		{
			"buffer":0,
			"byteLength":1740,
			"byteOffset":76632,
			"target":34962
		},
		{
			"buffer":0,
			"byteLength":1740,
			"byteOffset":78372,
			"target":34962
		},
		{
			"buffer":0,
			"byteLength":1160,
			"byteOffset":80112,
			"target":34962
		},
		{
			"buffer":0,
			"byteLength":1176,
			"byteOffset":81272,
			"target":34963
		},
		{
			"buffer":0,
			"byteLength":1740,
			"byteOffset":82448,
			"target":34962
		},
		{
			"buffer":0,
			"byteLength":1740,
			"byteOffset":84188,
			"target":34962
		},
		{
			"buffer":0,
			"byteLength":1160,
			"byteOffset":85928,
			"target":34962
		},
		{
			"buffer":0,
			"byteLength":1440,
			"byteOffset":87088,
			"target":34962
		},
		{
			"buffer":0,
			"byteLength":1440,
			"byteOffset":88528,
			"target":34962
		},
		{
			"buffer":0,
			"byteLength":960,
			"byteOffset":89968,
			"target":34962
		},
		{
			"buffer":0,
			"byteLength":456,
			"byteOffset":90928,
			"target":34963
		},
		{
			"buffer":0,
			"byteLength":48,
			"byteOffset":91384,
			"target":34962
		},
		{
			"buffer":0,
			"byteLength":48,
			"byteOffset":91432,
			"target":34962
		},
		{
			"buffer":0,
			"byteLength":32,
			"byteOffset":91480,
			"target":34962
		},
		{
			"buffer":0,
			"byteLength":12,
			"byteOffset":91512,
			"target":34963
		}
	],
	"samplers":[
		{
			"magFilter":9729,
			"minFilter":9987
		}
	],
	"buffers":[
		{
			"byteLength":91524,
			"uri":"fallback.bin"
		}
	]
}
